<?xml version="1.0" encoding="UTF-8" standalone="no"?><svg xmlns="http://www.w3.org/2000/svg" xmlns:xlink="http://www.w3.org/1999/xlink" contentScriptType="application/ecmascript" contentStyleType="text/css" height="467px" preserveAspectRatio="none" style="width:1090px;height:467px;" version="1.1" viewBox="0 0 1090 467" width="1090px" zoomAndPan="magnify"><defs/><g><text fill="#000000" font-family="Courier" font-size="18" lengthAdjust="spacingAndGlyphs" textLength="132" x="494.5" y="16.708">Logical View</text><rect fill="#FFFFFF" height="199" style="stroke: #000000; stroke-width: 1.5;" width="382" x="387" y="88.9531"/><rect fill="#FFFFFF" height="10" style="stroke: #000000; stroke-width: 1.5;" width="15" x="749" y="93.9531"/><rect fill="#FFFFFF" height="2" style="stroke: #000000; stroke-width: 1.5;" width="4" x="747" y="95.9531"/><rect fill="#FFFFFF" height="2" style="stroke: #000000; stroke-width: 1.5;" width="4" x="747" y="99.9531"/><text fill="#000000" font-family="Courier" font-size="14" font-weight="bold" lengthAdjust="spacingAndGlyphs" textLength="120" x="518" y="114.9482">Data Aggregator</text><rect fill="#FFFFFF" height="199" style="stroke: #000000; stroke-width: 1.5;" width="270" x="809" y="88.9531"/><rect fill="#FFFFFF" height="10" style="stroke: #000000; stroke-width: 1.5;" width="15" x="1059" y="93.9531"/><rect fill="#FFFFFF" height="2" style="stroke: #000000; stroke-width: 1.5;" width="4" x="1057" y="95.9531"/><rect fill="#FFFFFF" height="2" style="stroke: #000000; stroke-width: 1.5;" width="4" x="1057" y="99.9531"/><text fill="#000000" font-family="Courier" font-size="14" font-weight="bold" lengthAdjust="spacingAndGlyphs" textLength="96" x="896" y="114.9482">External API</text><rect fill="#F8F8F8" height="36.2969" style="stroke: #383838; stroke-width: 1.5;" width="172" x="430" y="131.9531"/><rect fill="#F8F8F8" height="5" style="stroke: #383838; stroke-width: 1.5;" width="10" x="425" y="136.9531"/><rect fill="#F8F8F8" height="5" style="stroke: #383838; stroke-width: 1.5;" width="10" x="425" y="158.25"/><text fill="#000000" font-family="Courier" font-size="14" lengthAdjust="spacingAndGlyphs" textLength="152" x="440" y="154.9482">Snow Conditions Agg</text><rect fill="#F8F8F8" height="36.2969" style="stroke: #383838; stroke-width: 1.5;" width="108" x="637" y="131.9531"/><rect fill="#F8F8F8" height="5" style="stroke: #383838; stroke-width: 1.5;" width="10" x="632" y="136.9531"/><rect fill="#F8F8F8" height="5" style="stroke: #383838; stroke-width: 1.5;" width="10" x="632" y="158.25"/><text fill="#000000" font-family="Courier" font-size="14" lengthAdjust="spacingAndGlyphs" textLength="88" x="647" y="154.9482">Weather Agg</text><rect fill="#F8F8F8" height="36.2969" style="stroke: #383838; stroke-width: 1.5;" width="100" x="466" y="227.9531"/><rect fill="#F8F8F8" height="5" style="stroke: #383838; stroke-width: 1.5;" width="10" x="461" y="232.9531"/><rect fill="#F8F8F8" height="5" style="stroke: #383838; stroke-width: 1.5;" width="10" x="461" y="254.25"/><text fill="#000000" font-family="Courier" font-size="14" lengthAdjust="spacingAndGlyphs" textLength="80" x="476" y="250.9482">Resort Agg</text><rect fill="#F8F8F8" height="36.2969" style="stroke: #383838; stroke-width: 1.5;" width="76" x="601" y="227.9531"/><rect fill="#F8F8F8" height="5" style="stroke: #383838; stroke-width: 1.5;" width="10" x="596" y="232.9531"/><rect fill="#F8F8F8" height="5" style="stroke: #383838; stroke-width: 1.5;" width="10" x="596" y="254.25"/><text fill="#000000" font-family="Courier" font-size="14" lengthAdjust="spacingAndGlyphs" textLength="56" x="611" y="250.9482">Geo Agg</text><rect fill="#F8F8F8" height="36.2969" style="stroke: #383838; stroke-width: 1.5;" width="100" x="852" y="131.9531"/><rect fill="#F8F8F8" height="5" style="stroke: #383838; stroke-width: 1.5;" width="10" x="847" y="136.9531"/><rect fill="#F8F8F8" height="5" style="stroke: #383838; stroke-width: 1.5;" width="10" x="847" y="158.25"/><text fill="#000000" font-family="Courier" font-size="14" lengthAdjust="spacingAndGlyphs" textLength="80" x="862" y="154.9482">weatherski</text><rect fill="#F8F8F8" height="36.2969" style="stroke: #383838; stroke-width: 1.5;" width="68" x="987" y="131.9531"/><rect fill="#F8F8F8" height="5" style="stroke: #383838; stroke-width: 1.5;" width="10" x="982" y="136.9531"/><rect fill="#F8F8F8" height="5" style="stroke: #383838; stroke-width: 1.5;" width="10" x="982" y="158.25"/><text fill="#000000" font-family="Courier" font-size="14" lengthAdjust="spacingAndGlyphs" textLength="48" x="997" y="154.9482">skiapi</text><rect fill="#F8F8F8" height="36.2969" style="stroke: #383838; stroke-width: 1.5;" width="92" x="856" y="227.9531"/><rect fill="#F8F8F8" height="5" style="stroke: #383838; stroke-width: 1.5;" width="10" x="851" y="232.9531"/><rect fill="#F8F8F8" height="5" style="stroke: #383838; stroke-width: 1.5;" width="10" x="851" y="254.25"/><text fill="#000000" font-family="Courier" font-size="14" lengthAdjust="spacingAndGlyphs" textLength="72" x="866" y="250.9482">onthesnow</text><rect fill="#F8F8F8" height="36.2969" style="stroke: #383838; stroke-width: 1.5;" width="132" x="84" y="419.9531"/><rect fill="#F8F8F8" height="5" style="stroke: #383838; stroke-width: 1.5;" width="10" x="79" y="424.9531"/><rect fill="#F8F8F8" height="5" style="stroke: #383838; stroke-width: 1.5;" width="10" x="79" y="446.25"/><text fill="#000000" font-family="Courier" font-size="14" lengthAdjust="spacingAndGlyphs" textLength="112" x="94" y="442.9482">User Interface</text><ellipse cx="260" cy="437.9531" fill="#F8F8F8" rx="8" ry="8" style="stroke: #383838; stroke-width: 2.0;"/><rect fill="#F8F8F8" height="36.2969" style="stroke: #383838; stroke-width: 1.5;" width="100" x="304" y="419.9531"/><rect fill="#F8F8F8" height="5" style="stroke: #383838; stroke-width: 1.5;" width="10" x="299" y="424.9531"/><rect fill="#F8F8F8" height="5" style="stroke: #383838; stroke-width: 1.5;" width="10" x="299" y="446.25"/><text fill="#000000" font-family="Courier" font-size="14" lengthAdjust="spacingAndGlyphs" textLength="80" x="314" y="442.9482">Mobile_App</text><rect fill="#F8F8F8" height="36.2969" style="stroke: #383838; stroke-width: 1.5;" width="124" x="100" y="323.9531"/><rect fill="#F8F8F8" height="5" style="stroke: #383838; stroke-width: 1.5;" width="10" x="95" y="328.9531"/><rect fill="#F8F8F8" height="5" style="stroke: #383838; stroke-width: 1.5;" width="10" x="95" y="350.25"/><text fill="#000000" font-family="Courier" font-size="14" lengthAdjust="spacingAndGlyphs" textLength="104" x="110" y="346.9482">Local Storage</text><ellipse cx="268" cy="341.9531" fill="#F8F8F8" rx="8" ry="8" style="stroke: #383838; stroke-width: 2.0;"/><rect fill="#F8F8F8" height="36.2969" style="stroke: #383838; stroke-width: 1.5;" width="84" x="312" y="323.9531"/><rect fill="#F8F8F8" height="5" style="stroke: #383838; stroke-width: 1.5;" width="10" x="307" y="328.9531"/><rect fill="#F8F8F8" height="5" style="stroke: #383838; stroke-width: 1.5;" width="10" x="307" y="350.25"/><text fill="#000000" font-family="Courier" font-size="14" lengthAdjust="spacingAndGlyphs" textLength="64" x="322" y="346.9482">Skip API</text><ellipse cx="440" cy="341.9531" fill="#F8F8F8" rx="8" ry="8" style="stroke: #383838; stroke-width: 2.0;"/><rect fill="#F8F8F8" height="36.2969" style="stroke: #383838; stroke-width: 1.5;" width="76" x="234" y="227.9531"/><rect fill="#F8F8F8" height="5" style="stroke: #383838; stroke-width: 1.5;" width="10" x="229" y="232.9531"/><rect fill="#F8F8F8" height="5" style="stroke: #383838; stroke-width: 1.5;" width="10" x="229" y="254.25"/><text fill="#000000" font-family="Courier" font-size="14" lengthAdjust="spacingAndGlyphs" textLength="56" x="244" y="250.9482">Service</text><ellipse cx="354" cy="245.9531" fill="#F8F8F8" rx="8" ry="8" style="stroke: #383838; stroke-width: 2.0;"/><rect fill="#F8F8F8" height="36.2969" style="stroke: #383838; stroke-width: 1.5;" width="204" x="31" y="131.9531"/><rect fill="#F8F8F8" height="5" style="stroke: #383838; stroke-width: 1.5;" width="10" x="26" y="136.9531"/><rect fill="#F8F8F8" height="5" style="stroke: #383838; stroke-width: 1.5;" width="10" x="26" y="158.25"/><text fill="#000000" font-family="Courier" font-size="14" lengthAdjust="spacingAndGlyphs" textLength="184" x="41" y="154.9482">Info db (elasticsearch)</text><ellipse cx="279" cy="149.9531" fill="#F8F8F8" rx="8" ry="8" style="stroke: #383838; stroke-width: 2.0;"/><rect fill="#F8F8F8" height="36.2969" style="stroke: #383838; stroke-width: 1.5;" width="140" x="6" y="227.9531"/><rect fill="#F8F8F8" height="5" style="stroke: #383838; stroke-width: 1.5;" width="10" x="1" y="232.9531"/><rect fill="#F8F8F8" height="5" style="stroke: #383838; stroke-width: 1.5;" width="10" x="1" y="254.25"/><text fill="#000000" font-family="Courier" font-size="14" lengthAdjust="spacingAndGlyphs" textLength="120" x="16" y="250.9482">User db (mySQL)</text><ellipse cx="190" cy="245.9531" fill="#F8F8F8" rx="8" ry="8" style="stroke: #383838; stroke-width: 2.0;"/><rect fill="#F8F8F8" height="36.2969" style="stroke: #383838; stroke-width: 1.5;" width="148" x="203" y="28.9531"/><rect fill="#F8F8F8" height="5" style="stroke: #383838; stroke-width: 1.5;" width="10" x="198" y="33.9531"/><rect fill="#F8F8F8" height="5" style="stroke: #383838; stroke-width: 1.5;" width="10" x="198" y="55.25"/><text fill="#000000" font-family="Courier" font-size="14" lengthAdjust="spacingAndGlyphs" textLength="128" x="213" y="51.9482">Cache db (Redis)</text><ellipse cx="395" cy="46.9531" fill="#F8F8F8" rx="8" ry="8" style="stroke: #383838; stroke-width: 2.0;"/><ellipse cx="345" cy="149.9531" fill="#F8F8F8" rx="8" ry="8" style="stroke: #383838; stroke-width: 2.0;"/><ellipse cx="641" cy="46.9531" fill="#F8F8F8" rx="8" ry="8" style="stroke: #383838; stroke-width: 2.0;"/><path d="M216.17,437.9531 C227.7,437.9531 239.23,437.9531 250.76,437.9531 " fill="none" id="UI-UI_" style="stroke: #383838; stroke-width: 1.0;"/><path d="M224.11,341.9531 C235.65,341.9531 247.2,341.9531 258.74,341.9531 " fill="none" id="LS-LS_" style="stroke: #383838; stroke-width: 1.0;"/><path d="M396.33,341.9531 C407.81,341.9531 419.3,341.9531 430.79,341.9531 " fill="none" id="SA-SA_" style="stroke: #383838; stroke-width: 1.0;"/><path d="M310.12,245.9531 C321.66,245.9531 333.2,245.9531 344.74,245.9531 " fill="none" id="SRV-SRV_" style="stroke: #383838; stroke-width: 1.0;"/><path d="M235.09,149.9531 C246.64,149.9531 258.19,149.9531 269.74,149.9531 " fill="none" id="IDB-IDB_" style="stroke: #383838; stroke-width: 1.0;"/><path d="M146.36,245.9531 C157.84,245.9531 169.32,245.9531 180.79,245.9531 " fill="none" id="UDB-UDB_" style="stroke: #383838; stroke-width: 1.0;"/><path d="M351.21,46.9531 C362.73,46.9531 374.25,46.9531 385.76,46.9531 " fill="none" id="CDB-CDB_" style="stroke: #383838; stroke-width: 1.0;"/><path d="M386.8719,149.9531 C386.0388,149.9531 385.2056,149.9531 384.3725,149.9531 C381.04,149.9531 377.7075,149.9531 374.375,149.9531 C367.71,149.9531 361.045,149.9531 354.38,149.9531 " fill="none" id="AGG-AGG_" style="stroke: #383838; stroke-width: 1.0;"/><path d="M650.25,47.7231 C671.56,47.6131 725,49.8531 761,72.9531 C778.105,83.9281 791.7775,102.1031 801.33,117.9281 C803.7181,121.8844 805.8488,125.6938 807.7111,129.207 C807.9439,129.6462 808.1725,130.0807 808.3969,130.5103 C808.5091,130.7251 808.6203,130.9387 808.7304,131.151 C808.7854,131.2572 808.8402,131.363 808.8947,131.4686 " fill="none" id="EA_-EA" style="stroke: #383838; stroke-width: 1.0;"/><path d="M279.24,437.9531 C287.48,437.9531 295.72,437.9531 303.97,437.9531 " fill="none" id="UI_&lt;-APP" style="stroke: #383838; stroke-width: 1.0;"/><path d="M272.2582,446.4104 A9,9 0 0 0 272.2582 429.4959" fill="none" style="stroke: #383838; stroke-width: 1.5;"/><path d="M282.1,358.3631 C297.55,375.2531 322.28,402.2831 338.34,419.8331 " fill="none" id="LS_&lt;-APP" style="stroke: #383838; stroke-width: 1.0;"/><path d="M271.1757,358.947 A9,9 0 0 0 283.6443 347.5175" fill="none" style="stroke: #383838; stroke-width: 1.5;"/><path d="M425.9,358.3631 C410.45,375.2531 385.72,402.2831 369.66,419.8331 " fill="none" id="SA_&lt;-APP" style="stroke: #383838; stroke-width: 1.0;"/><path d="M424.3557,347.5175 A9,9 0 0 0 436.8243 358.947" fill="none" style="stroke: #383838; stroke-width: 1.5;"/><path d="M354,265.2131 C354,282.1731 354,307.2431 354,323.8331 " fill="none" id="SRV_&lt;-SA" style="stroke: #383838; stroke-width: 1.0;"/><path d="M345.5428,258.0413 A9,9 0 0 0 362.4572 258.0413" fill="none" style="stroke: #383838; stroke-width: 1.5;"/><path d="M209.31,245.9531 C217.52,245.9531 225.73,245.9531 233.94,245.9531 " fill="none" id="UDB_&lt;-SRV" style="stroke: #383838; stroke-width: 1.0;"/><path d="M202.3682,254.4104 A9,9 0 0 0 202.3682 237.4959" fill="none" style="stroke: #383838; stroke-width: 1.5;"/><path d="M277.64,169.2131 C276.38,186.1731 274.51,211.2431 273.28,227.8331 " fill="none" id="IDB_&lt;-SRV" style="stroke: #383838; stroke-width: 1.0;"/><path d="M269.7375,161.4045 A9,9 0 0 0 286.6052 162.6611" fill="none" style="stroke: #383838; stroke-width: 1.5;"/><path d="M332.31,167.2931 C319.15,184.2331 298.67,210.6031 285.3,227.8331 " fill="none" id="AGG_&lt;-SRV" style="stroke: #383838; stroke-width: 1.0;"/><path d="M330.211,156.2114 A9,9 0 0 0 343.5755 166.5791" fill="none" style="stroke: #383838; stroke-width: 1.5;"/><path d="M395,66.5531 C395,70.1344 395,74.0784 395,78.2422 C395,80.3241 395,82.4609 395,84.6348 C395,85.7218 395,86.818 395,87.9212 C395,88.197 395,88.4732 395,88.7499 " fill="none" id="CDB_&lt;-AGG" style="stroke: #383838; stroke-width: 1.0;"/><path d="M386.5428,59.3013 A9,9 0 0 0 403.4572 59.3013" fill="none" style="stroke: #383838; stroke-width: 1.5;"/><path d="M283.63,130.9331 C288.95,113.2331 299.42,87.4731 318,72.9531 C330.86,62.9031 338.28,67.1231 354.5,68.9531 C362.43,69.8431 366.18,67.5031 372,72.9531 C378.11,78.6756 382.6194,85.9456 385.9428,93.7233 C386.1505,94.2094 386.3536,94.6975 386.5522,95.1873 C386.6514,95.4322 386.7496,95.6775 386.8466,95.9233 C386.8951,96.0461 386.9433,96.1691 386.9913,96.2922 " fill="none" id="IDB_&lt;-AGG" style="stroke: #383838; stroke-width: 1.0;"/><path d="M289.9391,139.9875 A9,9 0 0 0 273.62 135.5391" fill="none" style="stroke: #383838; stroke-width: 1.5;"/><path d="M621.58,47.3631 C572.41,46.2731 444.69,46.1531 414,72.9531 C410.8238,75.7256 408.1381,78.9411 405.8709,82.4516 C404.7373,84.2069 403.7082,86.0359 402.7748,87.9202 C402.6581,88.1557 402.5429,88.3921 402.4292,88.6293 " fill="none" id="EA_&lt;-AGG" style="stroke: #383838; stroke-width: 1.0;"/><path d="M628.9502,39.0896 A9,9 0 0 0 628.5154 55.9984" fill="none" style="stroke: #383838; stroke-width: 1.5;"/></g></svg>