<?xml version="1.0" encoding="UTF-8" standalone="no"?><svg xmlns="http://www.w3.org/2000/svg" xmlns:xlink="http://www.w3.org/1999/xlink" contentScriptType="application/ecmascript" contentStyleType="text/css" height="344px" preserveAspectRatio="none" style="width:631px;height:344px;" version="1.1" viewBox="0 0 631 344" width="631px" zoomAndPan="magnify"><defs><filter height="300%" id="fpb0ew5ue5vf6" width="300%" x="-1" y="-1"><feGaussianBlur result="blurOut" stdDeviation="2.0"/><feColorMatrix in="blurOut" result="blurOut2" type="matrix" values="0 0 0 0 0 0 0 0 0 0 0 0 0 0 0 0 0 0 .4 0"/><feOffset dx="4.0" dy="4.0" in="blurOut2" result="blurOut3"/><feBlend in="SourceGraphic" in2="blurOut3" mode="normal"/></filter></defs><g><line style="stroke: #A80036; stroke-width: 1.0; stroke-dasharray: 5.0,5.0;" x1="30" x2="30" y1="38.2969" y2="304.3594"/><line style="stroke: #A80036; stroke-width: 1.0; stroke-dasharray: 5.0,5.0;" x1="204.5" x2="204.5" y1="38.2969" y2="304.3594"/><line style="stroke: #A80036; stroke-width: 1.0; stroke-dasharray: 5.0,5.0;" x1="285.5" x2="285.5" y1="38.2969" y2="304.3594"/><line style="stroke: #A80036; stroke-width: 1.0; stroke-dasharray: 5.0,5.0;" x1="438.5" x2="438.5" y1="38.2969" y2="304.3594"/><line style="stroke: #A80036; stroke-width: 1.0; stroke-dasharray: 5.0,5.0;" x1="546" x2="546" y1="38.2969" y2="304.3594"/><line style="stroke: #A80036; stroke-width: 1.0; stroke-dasharray: 5.0,5.0;" x1="610" x2="610" y1="38.2969" y2="304.3594"/><rect fill="#FEFECE" filter="url(#fpb0ew5ue5vf6)" height="30.2969" style="stroke: #A80036; stroke-width: 1.5;" width="41" x="8" y="3"/><text fill="#000000" font-family="sans-serif" font-size="14" lengthAdjust="spacingAndGlyphs" textLength="27" x="15" y="22.9951">Dev</text><rect fill="#FEFECE" filter="url(#fpb0ew5ue5vf6)" height="30.2969" style="stroke: #A80036; stroke-width: 1.5;" width="41" x="8" y="303.3594"/><text fill="#000000" font-family="sans-serif" font-size="14" lengthAdjust="spacingAndGlyphs" textLength="27" x="15" y="323.3545">Dev</text><rect fill="#FEFECE" filter="url(#fpb0ew5ue5vf6)" height="30.2969" style="stroke: #A80036; stroke-width: 1.5;" width="66" x="169.5" y="3"/><text fill="#000000" font-family="sans-serif" font-size="14" lengthAdjust="spacingAndGlyphs" textLength="52" x="176.5" y="22.9951">Dev API</text><rect fill="#FEFECE" filter="url(#fpb0ew5ue5vf6)" height="30.2969" style="stroke: #A80036; stroke-width: 1.5;" width="66" x="169.5" y="303.3594"/><text fill="#000000" font-family="sans-serif" font-size="14" lengthAdjust="spacingAndGlyphs" textLength="52" x="176.5" y="323.3545">Dev API</text><rect fill="#FEFECE" filter="url(#fpb0ew5ue5vf6)" height="30.2969" style="stroke: #A80036; stroke-width: 1.5;" width="68" x="249.5" y="3"/><text fill="#000000" font-family="sans-serif" font-size="14" lengthAdjust="spacingAndGlyphs" textLength="54" x="256.5" y="22.9951">Storage</text><rect fill="#FEFECE" filter="url(#fpb0ew5ue5vf6)" height="30.2969" style="stroke: #A80036; stroke-width: 1.5;" width="68" x="249.5" y="303.3594"/><text fill="#000000" font-family="sans-serif" font-size="14" lengthAdjust="spacingAndGlyphs" textLength="54" x="256.5" y="323.3545">Storage</text><rect fill="#FEFECE" filter="url(#fpb0ew5ue5vf6)" height="30.2969" style="stroke: #A80036; stroke-width: 1.5;" width="66" x="403.5" y="3"/><text fill="#000000" font-family="sans-serif" font-size="14" lengthAdjust="spacingAndGlyphs" textLength="52" x="410.5" y="22.9951">Monitor</text><rect fill="#FEFECE" filter="url(#fpb0ew5ue5vf6)" height="30.2969" style="stroke: #A80036; stroke-width: 1.5;" width="66" x="403.5" y="303.3594"/><text fill="#000000" font-family="sans-serif" font-size="14" lengthAdjust="spacingAndGlyphs" textLength="52" x="410.5" y="323.3545">Monitor</text><rect fill="#FEFECE" filter="url(#fpb0ew5ue5vf6)" height="30.2969" style="stroke: #A80036; stroke-width: 1.5;" width="77" x="506" y="3"/><text fill="#000000" font-family="sans-serif" font-size="14" lengthAdjust="spacingAndGlyphs" textLength="63" x="513" y="22.9951">Service 1</text><rect fill="#FEFECE" filter="url(#fpb0ew5ue5vf6)" height="30.2969" style="stroke: #A80036; stroke-width: 1.5;" width="77" x="506" y="303.3594"/><text fill="#000000" font-family="sans-serif" font-size="14" lengthAdjust="spacingAndGlyphs" textLength="63" x="513" y="323.3545">Service 1</text><rect fill="#FEFECE" filter="url(#fpb0ew5ue5vf6)" height="30.2969" style="stroke: #A80036; stroke-width: 1.5;" width="23" x="597" y="3"/><text fill="#000000" font-family="sans-serif" font-size="14" lengthAdjust="spacingAndGlyphs" textLength="9" x="604" y="22.9951">S</text><rect fill="#FEFECE" filter="url(#fpb0ew5ue5vf6)" height="30.2969" style="stroke: #A80036; stroke-width: 1.5;" width="23" x="597" y="303.3594"/><text fill="#000000" font-family="sans-serif" font-size="14" lengthAdjust="spacingAndGlyphs" textLength="9" x="604" y="323.3545">S</text><line style="stroke: #A80036; stroke-width: 1.0;" x1="438.5" x2="480.5" y1="69.4297" y2="69.4297"/><line style="stroke: #A80036; stroke-width: 1.0;" x1="480.5" x2="480.5" y1="69.4297" y2="82.4297"/><line style="stroke: #A80036; stroke-width: 1.0;" x1="439.5" x2="480.5" y1="82.4297" y2="82.4297"/><polygon fill="#A80036" points="449.5,78.4297,439.5,82.4297,449.5,86.4297,445.5,82.4297" style="stroke: #A80036; stroke-width: 1.0;"/><text fill="#000000" font-family="sans-serif" font-size="13" lengthAdjust="spacingAndGlyphs" textLength="50" x="445.5" y="64.3638">timeout</text><polygon fill="#A80036" points="534.5,107.5625,544.5,111.5625,534.5,115.5625,538.5,111.5625" style="stroke: #A80036; stroke-width: 1.0;"/><line style="stroke: #A80036; stroke-width: 1.0;" x1="438.5" x2="540.5" y1="111.5625" y2="111.5625"/><text fill="#000000" font-family="sans-serif" font-size="13" lengthAdjust="spacingAndGlyphs" textLength="84" x="445.5" y="106.4966">send request</text><polygon fill="#A80036" points="449.5,136.6953,439.5,140.6953,449.5,144.6953,445.5,140.6953" style="stroke: #A80036; stroke-width: 1.0;"/><line style="stroke: #A80036; stroke-width: 1.0;" x1="443.5" x2="545.5" y1="140.6953" y2="140.6953"/><text fill="#000000" font-family="sans-serif" font-size="13" lengthAdjust="spacingAndGlyphs" textLength="59" x="455.5" y="135.6294">response</text><polygon fill="#A80036" points="296.5,165.8281,286.5,169.8281,296.5,173.8281,292.5,169.8281" style="stroke: #A80036; stroke-width: 1.0;"/><line style="stroke: #A80036; stroke-width: 1.0;" x1="290.5" x2="437.5" y1="169.8281" y2="169.8281"/><text fill="#000000" font-family="sans-serif" font-size="13" lengthAdjust="spacingAndGlyphs" textLength="129" x="302.5" y="164.7622">store response time</text><polygon fill="#A80036" points="192.5,194.9609,202.5,198.9609,192.5,202.9609,196.5,198.9609" style="stroke: #A80036; stroke-width: 1.0;"/><line style="stroke: #A80036; stroke-width: 1.0;" x1="30.5" x2="198.5" y1="198.9609" y2="198.9609"/><text fill="#000000" font-family="sans-serif" font-size="13" lengthAdjust="spacingAndGlyphs" textLength="147" x="37.5" y="193.895">get uptime of service 1</text><polygon fill="#A80036" points="598.5,224.0938,608.5,228.0938,598.5,232.0938,602.5,228.0938" style="stroke: #A80036; stroke-width: 1.0;"/><line style="stroke: #A80036; stroke-width: 1.0;" x1="204.5" x2="604.5" y1="228.0938" y2="228.0938"/><text fill="#000000" font-family="sans-serif" font-size="13" lengthAdjust="spacingAndGlyphs" textLength="174" x="211.5" y="223.0278">query data of component 1</text><polygon fill="#A80036" points="215.5,253.2266,205.5,257.2266,215.5,261.2266,211.5,257.2266" style="stroke: #A80036; stroke-width: 1.0;"/><line style="stroke: #A80036; stroke-width: 1.0;" x1="209.5" x2="609.5" y1="257.2266" y2="257.2266"/><text fill="#000000" font-family="sans-serif" font-size="13" lengthAdjust="spacingAndGlyphs" textLength="134" x="221.5" y="252.1606">data of component 1</text><polygon fill="#A80036" points="41.5,282.3594,31.5,286.3594,41.5,290.3594,37.5,286.3594" style="stroke: #A80036; stroke-width: 1.0;"/><line style="stroke: #A80036; stroke-width: 1.0;" x1="35.5" x2="203.5" y1="286.3594" y2="286.3594"/><text fill="#000000" font-family="sans-serif" font-size="13" lengthAdjust="spacingAndGlyphs" textLength="150" x="47.5" y="281.2935">uptime of component 1</text></g></svg>