<?xml version="1.0" encoding="UTF-8" standalone="no"?><svg xmlns="http://www.w3.org/2000/svg" xmlns:xlink="http://www.w3.org/1999/xlink" contentScriptType="application/ecmascript" contentStyleType="text/css" height="579px" preserveAspectRatio="none" style="width:3408px;height:579px;" version="1.1" viewBox="0 0 3408 579" width="3408px" zoomAndPan="magnify"><defs/><g><text fill="#000000" font-family="Courier" font-size="18" lengthAdjust="spacingAndGlyphs" textLength="132" x="1653.5" y="16.708">Logical View</text><rect fill="#FFFFFF" height="249" style="stroke: #000000; stroke-width: 1.5;" width="801" x="22" y="44.9531"/><rect fill="#FFFFFF" height="10" style="stroke: #000000; stroke-width: 1.5;" width="15" x="803" y="49.9531"/><rect fill="#FFFFFF" height="2" style="stroke: #000000; stroke-width: 1.5;" width="4" x="801" y="51.9531"/><rect fill="#FFFFFF" height="2" style="stroke: #000000; stroke-width: 1.5;" width="4" x="801" y="55.9531"/><text fill="#000000" font-family="Courier" font-size="14" font-weight="bold" lengthAdjust="spacingAndGlyphs" textLength="80" x="382.5" y="70.9482">Mobile App</text><rect fill="#FFFFFF" height="345" style="stroke: #000000; stroke-width: 1.5;" width="830" x="855" y="139.9531"/><rect fill="#FFFFFF" height="10" style="stroke: #000000; stroke-width: 1.5;" width="15" x="1665" y="144.9531"/><rect fill="#FFFFFF" height="2" style="stroke: #000000; stroke-width: 1.5;" width="4" x="1663" y="146.9531"/><rect fill="#FFFFFF" height="2" style="stroke: #000000; stroke-width: 1.5;" width="4" x="1663" y="150.9531"/><text fill="#000000" font-family="Courier" font-size="14" font-weight="bold" lengthAdjust="spacingAndGlyphs" textLength="128" x="1206" y="165.9482">Skip API service</text><rect fill="#FFFFFF" height="246" style="stroke: #000000; stroke-width: 1.5;" width="469" x="1176" y="198.9531"/><rect fill="#FFFFFF" height="10" style="stroke: #000000; stroke-width: 1.5;" width="15" x="1625" y="203.9531"/><rect fill="#FFFFFF" height="2" style="stroke: #000000; stroke-width: 1.5;" width="4" x="1623" y="205.9531"/><rect fill="#FFFFFF" height="2" style="stroke: #000000; stroke-width: 1.5;" width="4" x="1623" y="209.9531"/><text fill="#000000" font-family="Courier" font-size="14" font-weight="bold" lengthAdjust="spacingAndGlyphs" textLength="288" x="1266.5" y="224.9482">Skip API (Kotlin + Spring framework)</text><rect fill="#FFFFFF" height="246" style="stroke: #000000; stroke-width: 1.5;" width="478" x="2322" y="198.9531"/><rect fill="#FFFFFF" height="10" style="stroke: #000000; stroke-width: 1.5;" width="15" x="2780" y="203.9531"/><rect fill="#FFFFFF" height="2" style="stroke: #000000; stroke-width: 1.5;" width="4" x="2778" y="205.9531"/><rect fill="#FFFFFF" height="2" style="stroke: #000000; stroke-width: 1.5;" width="4" x="2778" y="209.9531"/><text fill="#000000" font-family="Courier" font-size="14" font-weight="bold" lengthAdjust="spacingAndGlyphs" textLength="120" x="2501" y="224.9482">Data Collectors</text><rect fill="#FFFFFF" height="103" style="stroke: #000000; stroke-width: 1.5;" width="557" x="1725" y="341.9531"/><rect fill="#FFFFFF" height="10" style="stroke: #000000; stroke-width: 1.5;" width="15" x="2262" y="346.9531"/><rect fill="#FFFFFF" height="2" style="stroke: #000000; stroke-width: 1.5;" width="4" x="2260" y="348.9531"/><rect fill="#FFFFFF" height="2" style="stroke: #000000; stroke-width: 1.5;" width="4" x="2260" y="352.9531"/><text fill="#000000" font-family="Courier" font-size="14" font-weight="bold" lengthAdjust="spacingAndGlyphs" textLength="160" x="1923.5" y="367.9482">Info storage service</text><rect fill="#FFFFFF" height="103" style="stroke: #000000; stroke-width: 1.5;" width="557" x="2840" y="198.9531"/><rect fill="#FFFFFF" height="10" style="stroke: #000000; stroke-width: 1.5;" width="15" x="3377" y="203.9531"/><rect fill="#FFFFFF" height="2" style="stroke: #000000; stroke-width: 1.5;" width="4" x="3375" y="205.9531"/><rect fill="#FFFFFF" height="2" style="stroke: #000000; stroke-width: 1.5;" width="4" x="3375" y="209.9531"/><text fill="#000000" font-family="Courier" font-size="14" font-weight="bold" lengthAdjust="spacingAndGlyphs" textLength="160" x="3038.5" y="224.9482">User storage service</text><rect fill="#FFFFFF" height="227" style="stroke: #000000; stroke-width: 1.5;" width="270" x="2840" y="341.9531"/><rect fill="#FFFFFF" height="10" style="stroke: #000000; stroke-width: 1.5;" width="15" x="3090" y="346.9531"/><rect fill="#FFFFFF" height="2" style="stroke: #000000; stroke-width: 1.5;" width="4" x="3088" y="348.9531"/><rect fill="#FFFFFF" height="2" style="stroke: #000000; stroke-width: 1.5;" width="4" x="3088" y="352.9531"/><text fill="#000000" font-family="Courier" font-size="14" font-weight="bold" lengthAdjust="spacingAndGlyphs" textLength="96" x="2927" y="367.9482">External API</text><rect fill="#F8F8F8" height="36.2969" style="stroke: #383838; stroke-width: 1.5;" width="252" x="38" y="79.9531"/><rect fill="#F8F8F8" height="5" style="stroke: #383838; stroke-width: 1.5;" width="10" x="33" y="84.9531"/><rect fill="#F8F8F8" height="5" style="stroke: #383838; stroke-width: 1.5;" width="10" x="33" y="106.25"/><text fill="#000000" font-family="Courier" font-size="14" lengthAdjust="spacingAndGlyphs" textLength="232" x="48" y="102.9482">User Interface (React Native)</text><rect fill="#F8F8F8" height="36.2969" style="stroke: #383838; stroke-width: 1.5;" width="236" x="269" y="241.9531"/><rect fill="#F8F8F8" height="5" style="stroke: #383838; stroke-width: 1.5;" width="10" x="264" y="246.9531"/><rect fill="#F8F8F8" height="5" style="stroke: #383838; stroke-width: 1.5;" width="10" x="264" y="268.25"/><text fill="#000000" font-family="Courier" font-size="14" lengthAdjust="spacingAndGlyphs" textLength="216" x="279" y="264.9482">Redux Store (Redux + Thunk)</text><rect fill="#F8F8F8" height="36.2969" style="stroke: #383838; stroke-width: 1.5;" width="124" x="325" y="79.9531"/><rect fill="#F8F8F8" height="5" style="stroke: #383838; stroke-width: 1.5;" width="10" x="320" y="84.9531"/><rect fill="#F8F8F8" height="5" style="stroke: #383838; stroke-width: 1.5;" width="10" x="320" y="106.25"/><text fill="#000000" font-family="Courier" font-size="14" lengthAdjust="spacingAndGlyphs" textLength="104" x="335" y="102.9482">Redux Actions</text><rect fill="#F8F8F8" height="36.2969" style="stroke: #383838; stroke-width: 1.5;" width="164" x="484" y="79.9531"/><rect fill="#F8F8F8" height="5" style="stroke: #383838; stroke-width: 1.5;" width="10" x="479" y="84.9531"/><rect fill="#F8F8F8" height="5" style="stroke: #383838; stroke-width: 1.5;" width="10" x="479" y="106.25"/><text fill="#000000" font-family="Courier" font-size="14" lengthAdjust="spacingAndGlyphs" textLength="144" x="494" y="102.9482">LS Service (Realm)</text><rect fill="#F8F8F8" height="36.2969" style="stroke: #383838; stroke-width: 1.5;" width="124" x="683" y="79.9531"/><rect fill="#F8F8F8" height="5" style="stroke: #383838; stroke-width: 1.5;" width="10" x="678" y="84.9531"/><rect fill="#F8F8F8" height="5" style="stroke: #383838; stroke-width: 1.5;" width="10" x="678" y="106.25"/><text fill="#000000" font-family="Courier" font-size="14" lengthAdjust="spacingAndGlyphs" textLength="104" x="693" y="102.9482">Local Storage</text><rect fill="#F8F8F8" height="36.2969" style="stroke: #383838; stroke-width: 1.5;" width="124" x="898" y="241.9531"/><rect fill="#F8F8F8" height="5" style="stroke: #383838; stroke-width: 1.5;" width="10" x="893" y="246.9531"/><rect fill="#F8F8F8" height="5" style="stroke: #383838; stroke-width: 1.5;" width="10" x="893" y="268.25"/><text fill="#000000" font-family="Courier" font-size="14" lengthAdjust="spacingAndGlyphs" textLength="104" x="908" y="264.9482">Load Balancer</text><rect fill="#F8F8F8" height="36.2969" style="stroke: #383838; stroke-width: 1.5;" width="92" x="1057" y="241.9531"/><rect fill="#F8F8F8" height="5" style="stroke: #383838; stroke-width: 1.5;" width="10" x="1052" y="246.9531"/><rect fill="#F8F8F8" height="5" style="stroke: #383838; stroke-width: 1.5;" width="10" x="1052" y="268.25"/><text fill="#000000" font-family="Courier" font-size="14" lengthAdjust="spacingAndGlyphs" textLength="72" x="1067" y="264.9482">Directory</text><rect fill="#F8F8F8" height="36.2969" style="stroke: #383838; stroke-width: 1.5;" width="100" x="1219" y="241.9531"/><rect fill="#F8F8F8" height="5" style="stroke: #383838; stroke-width: 1.5;" width="10" x="1214" y="246.9531"/><rect fill="#F8F8F8" height="5" style="stroke: #383838; stroke-width: 1.5;" width="10" x="1214" y="268.25"/><text fill="#000000" font-family="Courier" font-size="14" lengthAdjust="spacingAndGlyphs" textLength="80" x="1229" y="264.9482">Controller</text><rect fill="#F8F8F8" height="36.2969" style="stroke: #383838; stroke-width: 1.5;" width="76" x="1354" y="241.9531"/><rect fill="#F8F8F8" height="5" style="stroke: #383838; stroke-width: 1.5;" width="10" x="1349" y="246.9531"/><rect fill="#F8F8F8" height="5" style="stroke: #383838; stroke-width: 1.5;" width="10" x="1349" y="268.25"/><text fill="#000000" font-family="Courier" font-size="14" lengthAdjust="spacingAndGlyphs" textLength="56" x="1364" y="264.9482">Service</text><rect fill="#F8F8F8" height="36.2969" style="stroke: #383838; stroke-width: 1.5;" width="156" x="1465" y="241.9531"/><rect fill="#F8F8F8" height="5" style="stroke: #383838; stroke-width: 1.5;" width="10" x="1460" y="246.9531"/><rect fill="#F8F8F8" height="5" style="stroke: #383838; stroke-width: 1.5;" width="10" x="1460" y="268.25"/><text fill="#000000" font-family="Courier" font-size="14" lengthAdjust="spacingAndGlyphs" textLength="136" x="1475" y="264.9482">User Repositories</text><rect fill="#F8F8F8" height="36.2969" style="stroke: #383838; stroke-width: 1.5;" width="148" x="1318" y="384.9531"/><rect fill="#F8F8F8" height="5" style="stroke: #383838; stroke-width: 1.5;" width="10" x="1313" y="389.9531"/><rect fill="#F8F8F8" height="5" style="stroke: #383838; stroke-width: 1.5;" width="10" x="1313" y="411.25"/><text fill="#000000" font-family="Courier" font-size="14" lengthAdjust="spacingAndGlyphs" textLength="128" x="1328" y="407.9482">Cache db (Redis)</text><rect fill="#FFFFFF" height="46.2969" style="stroke: #383838; stroke-width: 1.5;" width="160" x="1709" y="236.9531"/><rect fill="#FFFFFF" height="10" style="stroke: #383838; stroke-width: 1.5;" width="15" x="1849" y="241.9531"/><rect fill="#FFFFFF" height="2" style="stroke: #383838; stroke-width: 1.5;" width="4" x="1847" y="243.9531"/><rect fill="#FFFFFF" height="2" style="stroke: #383838; stroke-width: 1.5;" width="4" x="1847" y="247.9531"/><text fill="#000000" font-family="Courier" font-size="14" lengthAdjust="spacingAndGlyphs" textLength="120" x="1724" y="269.9482">Data Aggregator</text><rect fill="#F8F8F8" height="36.2969" style="stroke: #383838; stroke-width: 1.5;" width="220" x="2365" y="241.9531"/><rect fill="#F8F8F8" height="5" style="stroke: #383838; stroke-width: 1.5;" width="10" x="2360" y="246.9531"/><rect fill="#F8F8F8" height="5" style="stroke: #383838; stroke-width: 1.5;" width="10" x="2360" y="268.25"/><text fill="#000000" font-family="Courier" font-size="14" lengthAdjust="spacingAndGlyphs" textLength="200" x="2375" y="264.9482">Snow Conditions Collector</text><rect fill="#F8F8F8" height="36.2969" style="stroke: #383838; stroke-width: 1.5;" width="156" x="2620" y="241.9531"/><rect fill="#F8F8F8" height="5" style="stroke: #383838; stroke-width: 1.5;" width="10" x="2615" y="246.9531"/><rect fill="#F8F8F8" height="5" style="stroke: #383838; stroke-width: 1.5;" width="10" x="2615" y="268.25"/><text fill="#000000" font-family="Courier" font-size="14" lengthAdjust="spacingAndGlyphs" textLength="136" x="2630" y="264.9482">Weather Collector</text><rect fill="#F8F8F8" height="36.2969" style="stroke: #383838; stroke-width: 1.5;" width="188" x="2381" y="384.9531"/><rect fill="#F8F8F8" height="5" style="stroke: #383838; stroke-width: 1.5;" width="10" x="2376" y="389.9531"/><rect fill="#F8F8F8" height="5" style="stroke: #383838; stroke-width: 1.5;" width="10" x="2376" y="411.25"/><text fill="#000000" font-family="Courier" font-size="14" lengthAdjust="spacingAndGlyphs" textLength="168" x="2391" y="407.9482">Resort Info Collector</text><rect fill="#F8F8F8" height="36.2969" style="stroke: #383838; stroke-width: 1.5;" width="124" x="2604" y="384.9531"/><rect fill="#F8F8F8" height="5" style="stroke: #383838; stroke-width: 1.5;" width="10" x="2599" y="389.9531"/><rect fill="#F8F8F8" height="5" style="stroke: #383838; stroke-width: 1.5;" width="10" x="2599" y="411.25"/><text fill="#000000" font-family="Courier" font-size="14" lengthAdjust="spacingAndGlyphs" textLength="104" x="2614" y="407.9482">Geo Collector</text><rect fill="#F8F8F8" height="36.2969" style="stroke: #383838; stroke-width: 1.5;" width="204" x="2054" y="384.9531"/><rect fill="#F8F8F8" height="5" style="stroke: #383838; stroke-width: 1.5;" width="10" x="2049" y="389.9531"/><rect fill="#F8F8F8" height="5" style="stroke: #383838; stroke-width: 1.5;" width="10" x="2049" y="411.25"/><text fill="#000000" font-family="Courier" font-size="14" lengthAdjust="spacingAndGlyphs" textLength="184" x="2064" y="407.9482">Info db (elasticsearch)</text><rect fill="#F8F8F8" height="36.2969" style="stroke: #383838; stroke-width: 1.5;" width="124" x="1768" y="384.9531"/><rect fill="#F8F8F8" height="5" style="stroke: #383838; stroke-width: 1.5;" width="10" x="1763" y="389.9531"/><rect fill="#F8F8F8" height="5" style="stroke: #383838; stroke-width: 1.5;" width="10" x="1763" y="411.25"/><text fill="#000000" font-family="Courier" font-size="14" lengthAdjust="spacingAndGlyphs" textLength="104" x="1778" y="407.9482">Load Balancer</text><rect fill="#F8F8F8" height="36.2969" style="stroke: #383838; stroke-width: 1.5;" width="92" x="1927" y="384.9531"/><rect fill="#F8F8F8" height="5" style="stroke: #383838; stroke-width: 1.5;" width="10" x="1922" y="389.9531"/><rect fill="#F8F8F8" height="5" style="stroke: #383838; stroke-width: 1.5;" width="10" x="1922" y="411.25"/><text fill="#000000" font-family="Courier" font-size="14" lengthAdjust="spacingAndGlyphs" textLength="72" x="1937" y="407.9482">Directory</text><rect fill="#F8F8F8" height="36.2969" style="stroke: #383838; stroke-width: 1.5;" width="204" x="3169" y="241.9531"/><rect fill="#F8F8F8" height="5" style="stroke: #383838; stroke-width: 1.5;" width="10" x="3164" y="246.9531"/><rect fill="#F8F8F8" height="5" style="stroke: #383838; stroke-width: 1.5;" width="10" x="3164" y="268.25"/><text fill="#000000" font-family="Courier" font-size="14" lengthAdjust="spacingAndGlyphs" textLength="184" x="3179" y="264.9482">User db (mySQL cluster)</text><rect fill="#F8F8F8" height="36.2969" style="stroke: #383838; stroke-width: 1.5;" width="124" x="2883" y="241.9531"/><rect fill="#F8F8F8" height="5" style="stroke: #383838; stroke-width: 1.5;" width="10" x="2878" y="246.9531"/><rect fill="#F8F8F8" height="5" style="stroke: #383838; stroke-width: 1.5;" width="10" x="2878" y="268.25"/><text fill="#000000" font-family="Courier" font-size="14" lengthAdjust="spacingAndGlyphs" textLength="104" x="2893" y="264.9482">Load Balancer</text><rect fill="#F8F8F8" height="36.2969" style="stroke: #383838; stroke-width: 1.5;" width="92" x="3042" y="241.9531"/><rect fill="#F8F8F8" height="5" style="stroke: #383838; stroke-width: 1.5;" width="10" x="3037" y="246.9531"/><rect fill="#F8F8F8" height="5" style="stroke: #383838; stroke-width: 1.5;" width="10" x="3037" y="268.25"/><text fill="#000000" font-family="Courier" font-size="14" lengthAdjust="spacingAndGlyphs" textLength="72" x="3052" y="264.9482">Directory</text><rect fill="#F8F8F8" height="36.2969" style="stroke: #383838; stroke-width: 1.5;" width="100" x="2883" y="384.9531"/><rect fill="#F8F8F8" height="5" style="stroke: #383838; stroke-width: 1.5;" width="10" x="2878" y="389.9531"/><rect fill="#F8F8F8" height="5" style="stroke: #383838; stroke-width: 1.5;" width="10" x="2878" y="411.25"/><text fill="#000000" font-family="Courier" font-size="14" lengthAdjust="spacingAndGlyphs" textLength="80" x="2893" y="407.9482">weatherski</text><rect fill="#F8F8F8" height="36.2969" style="stroke: #383838; stroke-width: 1.5;" width="68" x="3018" y="384.9531"/><rect fill="#F8F8F8" height="5" style="stroke: #383838; stroke-width: 1.5;" width="10" x="3013" y="389.9531"/><rect fill="#F8F8F8" height="5" style="stroke: #383838; stroke-width: 1.5;" width="10" x="3013" y="411.25"/><text fill="#000000" font-family="Courier" font-size="14" lengthAdjust="spacingAndGlyphs" textLength="48" x="3028" y="407.9482">skiapi</text><rect fill="#F8F8F8" height="36.2969" style="stroke: #383838; stroke-width: 1.5;" width="92" x="2887" y="508.9531"/><rect fill="#F8F8F8" height="5" style="stroke: #383838; stroke-width: 1.5;" width="10" x="2882" y="513.9531"/><rect fill="#F8F8F8" height="5" style="stroke: #383838; stroke-width: 1.5;" width="10" x="2882" y="535.25"/><text fill="#000000" font-family="Courier" font-size="14" lengthAdjust="spacingAndGlyphs" textLength="72" x="2897" y="531.9482">onthesnow</text><path d="M290.31,97.9531 C300.06,97.9531 309.82,97.9531 319.58,97.9531 " fill="none" id="UI-&gt;REA" style="stroke: #383838; stroke-width: 1.0;"/><polygon fill="#383838" points="324.68,97.9531,315.68,93.9531,319.68,97.9531,315.68,101.9531,324.68,97.9531" style="stroke: #383838; stroke-width: 1.0;"/><path d="M387,116.0731 C387,145.0331 387,203.6931 387,236.1131 " fill="none" id="REA-&gt;RES" style="stroke: #383838; stroke-width: 1.0;"/><polygon fill="#383838" points="387,241.4731,391,232.4731,387,236.4731,383,232.4731,387,241.4731" style="stroke: #383838; stroke-width: 1.0;"/><path d="M449.23,97.9531 C459.07,97.9531 468.91,97.9531 478.75,97.9531 " fill="none" id="REA-&gt;MSRV" style="stroke: #383838; stroke-width: 1.0;"/><polygon fill="#383838" points="483.9,97.9531,474.9,93.9531,478.9,97.9531,474.9,101.9531,483.9,97.9531" style="stroke: #383838; stroke-width: 1.0;"/><path d="M648.16,97.9531 C658.04,97.9531 667.92,97.9531 677.79,97.9531 " fill="none" id="MSRV-&gt;LS" style="stroke: #383838; stroke-width: 1.0;"/><polygon fill="#383838" points="682.96,97.9531,673.96,93.9531,677.96,97.9531,673.96,101.9531,682.96,97.9531" style="stroke: #383838; stroke-width: 1.0;"/><path d="M1319.45,259.9531 C1329.18,259.9531 1338.92,259.9531 1348.65,259.9531 " fill="none" id="CTRL-&gt;SRV" style="stroke: #383838; stroke-width: 1.0;"/><polygon fill="#383838" points="1353.74,259.9531,1344.74,255.9531,1348.74,259.9531,1344.74,263.9531,1353.74,259.9531" style="stroke: #383838; stroke-width: 1.0;"/><path d="M1392,277.9631 C1392,303.4731 1392,351.6631 1392,379.8631 " fill="none" id="SRV-&gt;CDB" style="stroke: #383838; stroke-width: 1.0;"/><polygon fill="#383838" points="1392,384.8831,1396,375.8831,1392,379.8831,1388,375.8831,1392,384.8831" style="stroke: #383838; stroke-width: 1.0;"/><path d="M1430.04,259.9531 C1439.94,259.9531 1449.83,259.9531 1459.73,259.9531 " fill="none" id="SRV-&gt;UREP" style="stroke: #383838; stroke-width: 1.0;"/><polygon fill="#383838" points="1464.9,259.9531,1455.9,255.9531,1459.9,259.9531,1455.9,263.9531,1464.9,259.9531" style="stroke: #383838; stroke-width: 1.0;"/><path d="M965.32,241.7631 C974.93,212.2131 998.1,154.0631 1039,123.9531 C1051.24,114.9431 1104.97,113.4631 1162.5,119.9531 C1170.43,120.8431 1174.94,117.7931 1180,123.9531 C1189.1475,135.0856 1194.1625,148.6344 1196.4952,162.8159 C1197.6615,169.9067 1198.1572,177.1557 1198.1637,184.34 C1198.1669,187.9321 1198.0477,191.508 1197.829,195.0399 C1197.7743,195.9229 1197.7133,196.8031 1197.6465,197.6802 C1197.6298,197.8994 1197.6128,198.1185 1197.5953,198.3373 " fill="none" id="LB1-&gt;SA_" style="stroke: #383838; stroke-width: 1.0;"/><polygon fill="#383838" points="1197.5953,198.3373,1202.2972,189.6833,1197.9923,193.3531,1194.3225,189.0482,1197.5953,198.3373" style="stroke: #383838; stroke-width: 1.0;"/><path d="M1022,259.9531 C1031.88,259.9531 1041.76,259.9531 1051.64,259.9531 " fill="none" id="LB1-&gt;DIR1" style="stroke: #383838; stroke-width: 1.0;"/><polygon fill="#383838" points="1056.81,259.9531,1047.81,255.9531,1051.81,259.9531,1047.81,263.9531,1056.81,259.9531" style="stroke: #383838; stroke-width: 1.0;"/><path d="M1843.87,384.7731 C1858.4,367.0331 1882.87,340.6231 1910,325.9531 C1924.31,318.2231 1996.23,319.3231 2019.5,321.9531 C2064.47,327.0231 2107.91,358.9231 2133.28,381.1431 " fill="none" id="LB2-&gt;IDB_" style="stroke: #383838; stroke-width: 1.0;"/><polygon fill="#383838" points="2137.2,384.6131,2133.1138,375.652,2133.4567,381.2984,2127.8102,381.6413,2137.2,384.6131" style="stroke: #383838; stroke-width: 1.0;"/><path d="M1892,402.9531 C1901.88,402.9531 1911.76,402.9531 1921.64,402.9531 " fill="none" id="LB2-&gt;DIR2" style="stroke: #383838; stroke-width: 1.0;"/><polygon fill="#383838" points="1926.81,402.9531,1917.81,398.9531,1921.81,402.9531,1917.81,406.9531,1926.81,402.9531" style="stroke: #383838; stroke-width: 1.0;"/><path d="M2950.45,241.7631 C2960.28,212.2031 2983.89,154.0531 3025,123.9531 C3036.07,115.8531 3094.6,115.4531 3134.5,119.9531 C3197.77,127.0931 3241.61,198.9331 3260.52,236.8231 " fill="none" id="LB3-&gt;UDB_" style="stroke: #383838; stroke-width: 1.0;"/><polygon fill="#383838" points="3262.92,241.7131,3262.5606,231.8708,3260.7239,237.2212,3255.3736,235.3845,3262.92,241.7131" style="stroke: #383838; stroke-width: 1.0;"/><path d="M3007,259.9531 C3016.88,259.9531 3026.76,259.9531 3036.64,259.9531 " fill="none" id="LB3-&gt;DIR3" style="stroke: #383838; stroke-width: 1.0;"/><polygon fill="#383838" points="3041.81,259.9531,3032.81,255.9531,3036.81,259.9531,3032.81,263.9531,3041.81,259.9531" style="stroke: #383838; stroke-width: 1.0;"/><path d="M648.01,113.8131 C653.75,114.6131 659.45,115.3431 665,115.9531 C682.47,117.8931 809.19,113.0831 823,123.9531 C835.1025,133.4756 843.6706,146.4869 849.7111,160.6931 C851.2212,164.2447 852.5733,167.8709 853.7832,171.536 C854.0857,172.4523 854.3793,173.371 854.6642,174.2916 C854.7355,174.5217 854.8062,174.752 854.8763,174.9824 " fill="none" id="MSRV-&gt;SA" style="stroke: #383838; stroke-width: 1.0;"/><polygon fill="#383838" points="854.8763,174.9824,856.0808,165.2074,853.4196,170.1992,848.4278,167.5381,854.8763,174.9824" style="stroke: #383838; stroke-width: 1.0;"/><path d="M1403,278.0931 C1412.75,291.6131 1428.31,309.5531 1447,317.9531 C1485.54,335.2831 1597.39,311.2331 1637,325.9531 C1661.71,335.1381 1685.005,353.2556 1702.4588,369.4981 C1711.1856,377.6194 1718.4522,385.2719 1723.7052,391.1047 C1724.0335,391.4692 1724.3539,391.8267 1724.6664,392.1767 C1724.7445,392.2642 1724.8221,392.3512 1724.8992,392.4378 " fill="none" id="SRV-&gt;IDB" style="stroke: #383838; stroke-width: 1.0;"/><polygon fill="#383838" points="1724.8992,392.4378,1721.8998,383.0568,1721.5735,388.7042,1715.9261,388.3779,1724.8992,392.4378" style="stroke: #383838; stroke-width: 1.0;"/><path d="M1553.59,241.7231 C1575.84,205.9631 1631.34,129.3331 1702.67,121.2831 C1732.41,117.9331 2750.59,117.9331 2780.33,121.2831 C2785.62,121.8831 2787.94,120.5131 2792,123.9531 C2815.775,144.0781 2829.6075,175.9081 2837.575,203.7169 C2838.073,205.4549 2838.548,207.1773 2839.0012,208.8801 C2839.2277,209.7314 2839.4488,210.578 2839.6646,211.4191 C2839.7724,211.8397 2839.879,212.2589 2839.9842,212.6767 " fill="none" id="UREP-&gt;UDB" style="stroke: #383838; stroke-width: 1.0;"/><polygon fill="#383838" points="2839.9842,212.6767,2841.6655,202.9724,2838.7633,207.8281,2833.9077,204.9259,2839.9842,212.6767" style="stroke: #383838; stroke-width: 1.0;"/><path d="M2800.1444,330.9297 C2800.6661,331.299 2801.1836,331.6752 2801.6968,332.058 C2802.7231,332.8237 2803.7325,333.6159 2804.7249,334.4319 C2808.6943,337.6962 2812.3913,341.3427 2815.8158,345.2042 C2822.6647,352.9272 2828.4231,361.51 2833.0888,369.6144 C2835.4216,373.6666 2837.4812,377.5991 2839.2673,381.2448 C2839.4905,381.7005 2839.7095,382.1518 2839.9243,382.5982 " fill="none" id="COL-&gt;EA" style="stroke: #383838; stroke-width: 1.0;"/><polygon fill="#383838" points="2839.9243,382.5982,2839.628,372.7538,2837.757,378.0923,2832.4185,376.2214,2839.9243,382.5982" style="stroke: #383838; stroke-width: 1.0;"/><path d="M2321.7006,262.2408 C2321.3144,262.3002 2320.9153,262.3615 2320.5035,262.4247 C2319.6799,262.5511 2318.8056,262.6852 2317.8816,262.8266 C2310.4894,263.9581 2299.9176,265.5627 2286.7252,267.5292 C2260.3403,271.4622 2223.4731,276.8425 2180.5963,282.7794 C2094.8425,294.6531 1985.05,308.7531 1887,317.9531 C1872.04,319.3531 1763.56,316.3631 1752,325.9531 C1748.755,328.6456 1746.0173,331.8005 1743.7117,335.2662 C1742.5589,336.9991 1741.5141,338.8097 1740.568,340.6791 C1740.4497,340.9127 1740.3329,341.1473 1740.2177,341.3828 C1740.1601,341.5005 1740.1029,341.6185 1740.0461,341.7367 " fill="none" id="COL-&gt;IDB" style="stroke: #383838; stroke-width: 1.0;"/><polygon fill="#383838" points="1740.0461,341.7367,1747.5521,335.3603,1742.2135,337.2309,1740.3429,331.8923,1740.0461,341.7367" style="stroke: #383838; stroke-width: 1.0;"/><path d="M1774.41,283.0531 C1766.86,295.2931 1757.99,311.0031 1752,325.9531 C1750.4313,329.8669 1748.9638,333.9472 1747.596,338.0963 C1747.2541,339.1336 1746.9184,340.1752 1746.5889,341.2196 C1746.5477,341.3501 1746.5066,341.4807 1746.4656,341.6113 " fill="none" id="AGG-&gt;IDB" style="stroke: #383838; stroke-width: 1.0;"/><polygon fill="#383838" points="1746.4656,341.6113,1752.9768,334.2219,1747.9627,336.8407,1745.3438,331.8266,1746.4656,341.6113" style="stroke: #383838; stroke-width: 1.0;"/></g></svg>