<?xml version="1.0" encoding="UTF-8" standalone="no"?><svg xmlns="http://www.w3.org/2000/svg" xmlns:xlink="http://www.w3.org/1999/xlink" contentScriptType="application/ecmascript" contentStyleType="text/css" height="432px" preserveAspectRatio="none" style="width:436px;height:432px;" version="1.1" viewBox="0 0 436 432" width="436px" zoomAndPan="magnify"><defs><filter height="300%" id="fosygai9rwyg7" width="300%" x="-1" y="-1"><feGaussianBlur result="blurOut" stdDeviation="2.0"/><feColorMatrix in="blurOut" result="blurOut2" type="matrix" values="0 0 0 0 0 0 0 0 0 0 0 0 0 0 0 0 0 0 .4 0"/><feOffset dx="4.0" dy="4.0" in="blurOut2" result="blurOut3"/><feBlend in="SourceGraphic" in2="blurOut3" mode="normal"/></filter></defs><g><line style="stroke: #A80036; stroke-width: 1.0; stroke-dasharray: 5.0,5.0;" x1="38" x2="38" y1="38.2969" y2="391.7578"/><line style="stroke: #A80036; stroke-width: 1.0; stroke-dasharray: 5.0,5.0;" x1="156.5" x2="156.5" y1="38.2969" y2="391.7578"/><line style="stroke: #A80036; stroke-width: 1.0; stroke-dasharray: 5.0,5.0;" x1="293.5" x2="293.5" y1="38.2969" y2="391.7578"/><line style="stroke: #A80036; stroke-width: 1.0; stroke-dasharray: 5.0,5.0;" x1="407.5" x2="407.5" y1="38.2969" y2="391.7578"/><rect fill="#FEFECE" filter="url(#fosygai9rwyg7)" height="30.2969" style="stroke: #A80036; stroke-width: 1.5;" width="57" x="8" y="3"/><text fill="#000000" font-family="sans-serif" font-size="14" lengthAdjust="spacingAndGlyphs" textLength="43" x="15" y="22.9951">Admin</text><rect fill="#FEFECE" filter="url(#fosygai9rwyg7)" height="30.2969" style="stroke: #A80036; stroke-width: 1.5;" width="57" x="8" y="390.7578"/><text fill="#000000" font-family="sans-serif" font-size="14" lengthAdjust="spacingAndGlyphs" textLength="43" x="15" y="410.7529">Admin</text><rect fill="#FEFECE" filter="url(#fosygai9rwyg7)" height="30.2969" style="stroke: #A80036; stroke-width: 1.5;" width="84" x="112.5" y="3"/><text fill="#000000" font-family="sans-serif" font-size="14" lengthAdjust="spacingAndGlyphs" textLength="70" x="119.5" y="22.9951">Watchdog</text><rect fill="#FEFECE" filter="url(#fosygai9rwyg7)" height="30.2969" style="stroke: #A80036; stroke-width: 1.5;" width="84" x="112.5" y="390.7578"/><text fill="#000000" font-family="sans-serif" font-size="14" lengthAdjust="spacingAndGlyphs" textLength="70" x="119.5" y="410.7529">Watchdog</text><rect fill="#FEFECE" filter="url(#fosygai9rwyg7)" height="30.2969" style="stroke: #A80036; stroke-width: 1.5;" width="162" x="210.5" y="3"/><text fill="#000000" font-family="sans-serif" font-size="14" lengthAdjust="spacingAndGlyphs" textLength="148" x="217.5" y="22.9951">Stateless component</text><rect fill="#FEFECE" filter="url(#fosygai9rwyg7)" height="30.2969" style="stroke: #A80036; stroke-width: 1.5;" width="162" x="210.5" y="390.7578"/><text fill="#000000" font-family="sans-serif" font-size="14" lengthAdjust="spacingAndGlyphs" textLength="148" x="217.5" y="410.7529">Stateless component</text><rect fill="#FEFECE" filter="url(#fosygai9rwyg7)" height="30.2969" style="stroke: #A80036; stroke-width: 1.5;" width="39" x="386.5" y="3"/><text fill="#000000" font-family="sans-serif" font-size="14" lengthAdjust="spacingAndGlyphs" textLength="25" x="393.5" y="22.9951">Log</text><rect fill="#FEFECE" filter="url(#fosygai9rwyg7)" height="30.2969" style="stroke: #A80036; stroke-width: 1.5;" width="39" x="386.5" y="390.7578"/><text fill="#000000" font-family="sans-serif" font-size="14" lengthAdjust="spacingAndGlyphs" textLength="25" x="393.5" y="410.7529">Log</text><polygon fill="#A80036" points="281.5,65.4297,291.5,69.4297,281.5,73.4297,285.5,69.4297" style="stroke: #A80036; stroke-width: 1.0;"/><line style="stroke: #A80036; stroke-width: 1.0;" x1="156.5" x2="287.5" y1="69.4297" y2="69.4297"/><text fill="#000000" font-family="sans-serif" font-size="13" lengthAdjust="spacingAndGlyphs" textLength="49" x="163.5" y="64.3638">request</text><polygon fill="#A80036" points="167.5,94.5625,157.5,98.5625,167.5,102.5625,163.5,98.5625" style="stroke: #A80036; stroke-width: 1.0;"/><line style="stroke: #A80036; stroke-width: 1.0;" x1="161.5" x2="292.5" y1="98.5625" y2="98.5625"/><text fill="#000000" font-family="sans-serif" font-size="13" lengthAdjust="spacingAndGlyphs" textLength="59" x="173.5" y="93.4966">response</text><polygon fill="#A80036" points="396,123.6953,406,127.6953,396,131.6953,400,127.6953" style="stroke: #A80036; stroke-width: 1.0;"/><line style="stroke: #A80036; stroke-width: 1.0;" x1="156.5" x2="402" y1="127.6953" y2="127.6953"/><text fill="#000000" font-family="sans-serif" font-size="13" lengthAdjust="spacingAndGlyphs" textLength="82" x="163.5" y="122.6294">log response</text><polygon fill="#A80036" points="281.5,152.8281,291.5,156.8281,281.5,160.8281,285.5,156.8281" style="stroke: #A80036; stroke-width: 1.0;"/><line style="stroke: #A80036; stroke-width: 1.0;" x1="156.5" x2="287.5" y1="156.8281" y2="156.8281"/><text fill="#000000" font-family="sans-serif" font-size="13" lengthAdjust="spacingAndGlyphs" textLength="84" x="163.5" y="151.7622">send request</text><line style="stroke: #A80036; stroke-width: 2.0;" x1="162.5" x2="172.5" y1="180.9609" y2="190.9609"/><line style="stroke: #A80036; stroke-width: 2.0;" x1="162.5" x2="172.5" y1="190.9609" y2="180.9609"/><line style="stroke: #A80036; stroke-width: 1.0;" x1="168.5" x2="292.5" y1="185.9609" y2="185.9609"/><text fill="#000000" font-family="sans-serif" font-size="13" lengthAdjust="spacingAndGlyphs" textLength="59" x="173.5" y="180.895">response</text><polygon fill="#A80036" points="396,211.0938,406,215.0938,396,219.0938,400,215.0938" style="stroke: #A80036; stroke-width: 1.0;"/><line style="stroke: #A80036; stroke-width: 1.0;" x1="156.5" x2="402" y1="215.0938" y2="215.0938"/><text fill="#000000" font-family="sans-serif" font-size="13" lengthAdjust="spacingAndGlyphs" textLength="116" x="163.5" y="210.0278">log response miss</text><polygon fill="#A80036" points="281.5,240.2266,291.5,244.2266,281.5,248.2266,285.5,244.2266" style="stroke: #A80036; stroke-width: 1.0;"/><line style="stroke: #A80036; stroke-width: 1.0;" x1="156.5" x2="287.5" y1="244.2266" y2="244.2266"/><text fill="#000000" font-family="sans-serif" font-size="13" lengthAdjust="spacingAndGlyphs" textLength="93" x="163.5" y="239.1606">reboot system</text><line style="stroke: #A80036; stroke-width: 1.0;" x1="293.5" x2="335.5" y1="273.3594" y2="273.3594"/><line style="stroke: #A80036; stroke-width: 1.0;" x1="335.5" x2="335.5" y1="273.3594" y2="286.3594"/><line style="stroke: #A80036; stroke-width: 1.0;" x1="294.5" x2="335.5" y1="286.3594" y2="286.3594"/><polygon fill="#A80036" points="304.5,282.3594,294.5,286.3594,304.5,290.3594,300.5,286.3594" style="stroke: #A80036; stroke-width: 1.0;"/><text fill="#000000" font-family="sans-serif" font-size="13" lengthAdjust="spacingAndGlyphs" textLength="42" x="300.5" y="268.2935">reboot</text><polygon fill="#A80036" points="281.5,311.4922,291.5,315.4922,281.5,319.4922,285.5,315.4922" style="stroke: #A80036; stroke-width: 1.0;"/><line style="stroke: #A80036; stroke-width: 1.0;" x1="156.5" x2="287.5" y1="315.4922" y2="315.4922"/><text fill="#000000" font-family="sans-serif" font-size="13" lengthAdjust="spacingAndGlyphs" textLength="49" x="163.5" y="310.4263">request</text><line style="stroke: #A80036; stroke-width: 2.0;" x1="162.5" x2="172.5" y1="339.625" y2="349.625"/><line style="stroke: #A80036; stroke-width: 2.0;" x1="162.5" x2="172.5" y1="349.625" y2="339.625"/><line style="stroke: #A80036; stroke-width: 1.0;" x1="168.5" x2="292.5" y1="344.625" y2="344.625"/><text fill="#000000" font-family="sans-serif" font-size="13" lengthAdjust="spacingAndGlyphs" textLength="59" x="173.5" y="339.5591">response</text><polygon fill="#A80036" points="49.5,369.7578,39.5,373.7578,49.5,377.7578,45.5,373.7578" style="stroke: #A80036; stroke-width: 1.0;"/><line style="stroke: #A80036; stroke-width: 1.0;" x1="43.5" x2="155.5" y1="373.7578" y2="373.7578"/><text fill="#000000" font-family="sans-serif" font-size="13" lengthAdjust="spacingAndGlyphs" textLength="94" x="55.5" y="368.6919">send message</text></g></svg>