<?xml version="1.0" encoding="UTF-8" standalone="no"?><svg xmlns="http://www.w3.org/2000/svg" xmlns:xlink="http://www.w3.org/1999/xlink" contentScriptType="application/ecmascript" contentStyleType="text/css" height="477px" preserveAspectRatio="none" style="width:725px;height:477px;" version="1.1" viewBox="0 0 725 477" width="725px" zoomAndPan="magnify"><defs><filter height="300%" id="f19si0e8m5mz3i" width="300%" x="-1" y="-1"><feGaussianBlur result="blurOut" stdDeviation="2.0"/><feColorMatrix in="blurOut" result="blurOut2" type="matrix" values="0 0 0 0 0 0 0 0 0 0 0 0 0 0 0 0 0 0 .4 0"/><feOffset dx="4.0" dy="4.0" in="blurOut2" result="blurOut3"/><feBlend in="SourceGraphic" in2="blurOut3" mode="normal"/></filter></defs><g><line style="stroke: #A80036; stroke-width: 1.0; stroke-dasharray: 5.0,5.0;" x1="36" x2="36" y1="38.2969" y2="437.0234"/><line style="stroke: #A80036; stroke-width: 1.0; stroke-dasharray: 5.0,5.0;" x1="119.5" x2="119.5" y1="38.2969" y2="437.0234"/><line style="stroke: #A80036; stroke-width: 1.0; stroke-dasharray: 5.0,5.0;" x1="220.5" x2="220.5" y1="38.2969" y2="437.0234"/><line style="stroke: #A80036; stroke-width: 1.0; stroke-dasharray: 5.0,5.0;" x1="414" x2="414" y1="38.2969" y2="437.0234"/><line style="stroke: #A80036; stroke-width: 1.0; stroke-dasharray: 5.0,5.0;" x1="525" x2="525" y1="38.2969" y2="437.0234"/><line style="stroke: #A80036; stroke-width: 1.0; stroke-dasharray: 5.0,5.0;" x1="657" x2="657" y1="38.2969" y2="437.0234"/><rect fill="#FEFECE" filter="url(#f19si0e8m5mz3i)" height="30.2969" style="stroke: #A80036; stroke-width: 1.5;" width="53" x="8" y="3"/><text fill="#000000" font-family="sans-serif" font-size="14" lengthAdjust="spacingAndGlyphs" textLength="39" x="15" y="22.9951">Client</text><rect fill="#FEFECE" filter="url(#f19si0e8m5mz3i)" height="30.2969" style="stroke: #A80036; stroke-width: 1.5;" width="53" x="8" y="436.0234"/><text fill="#000000" font-family="sans-serif" font-size="14" lengthAdjust="spacingAndGlyphs" textLength="39" x="15" y="456.0186">Client</text><rect fill="#FEFECE" filter="url(#f19si0e8m5mz3i)" height="30.2969" style="stroke: #A80036; stroke-width: 1.5;" width="64" x="85.5" y="3"/><text fill="#000000" font-family="sans-serif" font-size="14" lengthAdjust="spacingAndGlyphs" textLength="50" x="92.5" y="22.9951">Service</text><rect fill="#FEFECE" filter="url(#f19si0e8m5mz3i)" height="30.2969" style="stroke: #A80036; stroke-width: 1.5;" width="64" x="85.5" y="436.0234"/><text fill="#000000" font-family="sans-serif" font-size="14" lengthAdjust="spacingAndGlyphs" textLength="50" x="92.5" y="456.0186">Service</text><rect fill="#FEFECE" filter="url(#f19si0e8m5mz3i)" height="30.2969" style="stroke: #A80036; stroke-width: 1.5;" width="111" x="163.5" y="3"/><text fill="#000000" font-family="sans-serif" font-size="14" lengthAdjust="spacingAndGlyphs" textLength="97" x="170.5" y="22.9951">Load Balancer</text><rect fill="#FEFECE" filter="url(#f19si0e8m5mz3i)" height="30.2969" style="stroke: #A80036; stroke-width: 1.5;" width="111" x="163.5" y="436.0234"/><text fill="#000000" font-family="sans-serif" font-size="14" lengthAdjust="spacingAndGlyphs" textLength="97" x="170.5" y="456.0186">Load Balancer</text><rect fill="#FEFECE" filter="url(#f19si0e8m5mz3i)" height="30.2969" style="stroke: #A80036; stroke-width: 1.5;" width="76" x="374" y="3"/><text fill="#000000" font-family="sans-serif" font-size="14" lengthAdjust="spacingAndGlyphs" textLength="62" x="381" y="22.9951">Directory</text><rect fill="#FEFECE" filter="url(#f19si0e8m5mz3i)" height="30.2969" style="stroke: #A80036; stroke-width: 1.5;" width="76" x="374" y="436.0234"/><text fill="#000000" font-family="sans-serif" font-size="14" lengthAdjust="spacingAndGlyphs" textLength="62" x="381" y="456.0186">Directory</text><rect fill="#FEFECE" filter="url(#f19si0e8m5mz3i)" height="30.2969" style="stroke: #A80036; stroke-width: 1.5;" width="118" x="464" y="3"/><text fill="#000000" font-family="sans-serif" font-size="14" lengthAdjust="spacingAndGlyphs" textLength="104" x="471" y="22.9951">Service Node 1</text><rect fill="#FEFECE" filter="url(#f19si0e8m5mz3i)" height="30.2969" style="stroke: #A80036; stroke-width: 1.5;" width="118" x="464" y="436.0234"/><text fill="#000000" font-family="sans-serif" font-size="14" lengthAdjust="spacingAndGlyphs" textLength="104" x="471" y="456.0186">Service Node 1</text><rect fill="#FEFECE" filter="url(#f19si0e8m5mz3i)" height="30.2969" style="stroke: #A80036; stroke-width: 1.5;" width="118" x="596" y="3"/><text fill="#000000" font-family="sans-serif" font-size="14" lengthAdjust="spacingAndGlyphs" textLength="104" x="603" y="22.9951">Service Node 2</text><rect fill="#FEFECE" filter="url(#f19si0e8m5mz3i)" height="30.2969" style="stroke: #A80036; stroke-width: 1.5;" width="118" x="596" y="436.0234"/><text fill="#000000" font-family="sans-serif" font-size="14" lengthAdjust="spacingAndGlyphs" textLength="104" x="603" y="456.0186">Service Node 2</text><polygon fill="#A80036" points="425,65.4297,415,69.4297,425,73.4297,421,69.4297" style="stroke: #A80036; stroke-width: 1.0;"/><line style="stroke: #A80036; stroke-width: 1.0;" x1="419" x2="524" y1="69.4297" y2="69.4297"/><text fill="#000000" font-family="sans-serif" font-size="13" lengthAdjust="spacingAndGlyphs" textLength="49" x="431" y="64.3638">register</text><polygon fill="#A80036" points="425,94.5625,415,98.5625,425,102.5625,421,98.5625" style="stroke: #A80036; stroke-width: 1.0;"/><line style="stroke: #A80036; stroke-width: 1.0;" x1="419" x2="656" y1="98.5625" y2="98.5625"/><text fill="#000000" font-family="sans-serif" font-size="13" lengthAdjust="spacingAndGlyphs" textLength="49" x="431" y="93.4966">register</text><polygon fill="#A80036" points="513,123.6953,523,127.6953,513,131.6953,517,127.6953" style="stroke: #A80036; stroke-width: 1.0;"/><line style="stroke: #A80036; stroke-width: 1.0;" x1="221" x2="519" y1="127.6953" y2="127.6953"/><text fill="#000000" font-family="sans-serif" font-size="13" lengthAdjust="spacingAndGlyphs" textLength="120" x="228" y="122.6294">monitor availability</text><polygon fill="#A80036" points="645,152.8281,655,156.8281,645,160.8281,649,156.8281" style="stroke: #A80036; stroke-width: 1.0;"/><line style="stroke: #A80036; stroke-width: 1.0;" x1="221" x2="651" y1="156.8281" y2="156.8281"/><text fill="#000000" font-family="sans-serif" font-size="13" lengthAdjust="spacingAndGlyphs" textLength="120" x="228" y="151.7622">monitor availability</text><polygon fill="#A80036" points="232,181.9609,222,185.9609,232,189.9609,228,185.9609" style="stroke: #A80036; stroke-width: 1.0;"/><line style="stroke: #A80036; stroke-width: 1.0;" x1="226" x2="524" y1="185.9609" y2="185.9609"/><text fill="#000000" font-family="sans-serif" font-size="13" lengthAdjust="spacingAndGlyphs" textLength="59" x="238" y="180.895">response</text><polygon fill="#A80036" points="107.5,211.0938,117.5,215.0938,107.5,219.0938,111.5,215.0938" style="stroke: #A80036; stroke-width: 1.0;"/><line style="stroke: #A80036; stroke-width: 1.0;" x1="36.5" x2="113.5" y1="215.0938" y2="215.0938"/><text fill="#000000" font-family="sans-serif" font-size="13" lengthAdjust="spacingAndGlyphs" textLength="49" x="43.5" y="210.0278">request</text><polygon fill="#A80036" points="209,240.2266,219,244.2266,209,248.2266,213,244.2266" style="stroke: #A80036; stroke-width: 1.0;"/><line style="stroke: #A80036; stroke-width: 1.0;" x1="119.5" x2="215" y1="244.2266" y2="244.2266"/><text fill="#000000" font-family="sans-serif" font-size="13" lengthAdjust="spacingAndGlyphs" textLength="49" x="126.5" y="239.1606">request</text><polygon fill="#A80036" points="402,269.3594,412,273.3594,402,277.3594,406,273.3594" style="stroke: #A80036; stroke-width: 1.0;"/><line style="stroke: #A80036; stroke-width: 1.0;" x1="221" x2="408" y1="273.3594" y2="273.3594"/><text fill="#000000" font-family="sans-serif" font-size="13" lengthAdjust="spacingAndGlyphs" textLength="146" x="228" y="268.2935">ask for available nodes</text><polygon fill="#A80036" points="232,298.4922,222,302.4922,232,306.4922,228,302.4922" style="stroke: #A80036; stroke-width: 1.0;"/><line style="stroke: #A80036; stroke-width: 1.0;" x1="226" x2="413" y1="302.4922" y2="302.4922"/><text fill="#000000" font-family="sans-serif" font-size="13" lengthAdjust="spacingAndGlyphs" textLength="169" x="238" y="297.4263">available nodes addresses</text><polygon fill="#A80036" points="513,327.625,523,331.625,513,335.625,517,331.625" style="stroke: #A80036; stroke-width: 1.0;"/><line style="stroke: #A80036; stroke-width: 1.0;" x1="221" x2="519" y1="331.625" y2="331.625"/><text fill="#000000" font-family="sans-serif" font-size="13" lengthAdjust="spacingAndGlyphs" textLength="162" x="228" y="326.5591">request to available node</text><polygon fill="#A80036" points="232,356.7578,222,360.7578,232,364.7578,228,360.7578" style="stroke: #A80036; stroke-width: 1.0;"/><line style="stroke: #A80036; stroke-width: 1.0;" x1="226" x2="524" y1="360.7578" y2="360.7578"/><text fill="#000000" font-family="sans-serif" font-size="13" lengthAdjust="spacingAndGlyphs" textLength="59" x="238" y="355.6919">response</text><polygon fill="#A80036" points="130.5,385.8906,120.5,389.8906,130.5,393.8906,126.5,389.8906" style="stroke: #A80036; stroke-width: 1.0;"/><line style="stroke: #A80036; stroke-width: 1.0;" x1="124.5" x2="220" y1="389.8906" y2="389.8906"/><text fill="#000000" font-family="sans-serif" font-size="13" lengthAdjust="spacingAndGlyphs" textLength="59" x="136.5" y="384.8247">response</text><polygon fill="#A80036" points="47.5,415.0234,37.5,419.0234,47.5,423.0234,43.5,419.0234" style="stroke: #A80036; stroke-width: 1.0;"/><line style="stroke: #A80036; stroke-width: 1.0;" x1="41.5" x2="118.5" y1="419.0234" y2="419.0234"/><text fill="#000000" font-family="sans-serif" font-size="13" lengthAdjust="spacingAndGlyphs" textLength="59" x="53.5" y="413.9575">response</text></g></svg>