<?xml version="1.0" encoding="UTF-8" standalone="no"?><svg xmlns="http://www.w3.org/2000/svg" xmlns:xlink="http://www.w3.org/1999/xlink" contentScriptType="application/ecmascript" contentStyleType="text/css" height="911px" preserveAspectRatio="none" style="width:2029px;height:911px;" version="1.1" viewBox="0 0 2029 911" width="2029px" zoomAndPan="magnify"><defs/><g><text fill="#000000" font-family="Courier" font-size="14" font-weight="bold" lengthAdjust="spacingAndGlyphs" textLength="176" x="925" y="22.9951">PV: Computing overview</text><line style="stroke: #383838; stroke-width: 1.0; stroke-dasharray: 5.0,5.0;" x1="43" x2="43" y1="64.5938" y2="871.1797"/><line style="stroke: #383838; stroke-width: 1.0; stroke-dasharray: 5.0,5.0;" x1="267" x2="267" y1="64.5938" y2="871.1797"/><line style="stroke: #383838; stroke-width: 1.0; stroke-dasharray: 5.0,5.0;" x1="515" x2="515" y1="64.5938" y2="871.1797"/><line style="stroke: #383838; stroke-width: 1.0; stroke-dasharray: 5.0,5.0;" x1="703" x2="703" y1="64.5938" y2="871.1797"/><line style="stroke: #383838; stroke-width: 1.0; stroke-dasharray: 5.0,5.0;" x1="879" x2="879" y1="64.5938" y2="871.1797"/><line style="stroke: #383838; stroke-width: 1.0; stroke-dasharray: 5.0,5.0;" x1="1059" x2="1059" y1="64.5938" y2="871.1797"/><line style="stroke: #383838; stroke-width: 1.0; stroke-dasharray: 5.0,5.0;" x1="1207" x2="1207" y1="64.5938" y2="871.1797"/><line style="stroke: #383838; stroke-width: 1.0; stroke-dasharray: 5.0,5.0;" x1="1355" x2="1355" y1="64.5938" y2="871.1797"/><line style="stroke: #383838; stroke-width: 1.0; stroke-dasharray: 5.0,5.0;" x1="1607" x2="1607" y1="64.5938" y2="871.1797"/><line style="stroke: #383838; stroke-width: 1.0; stroke-dasharray: 5.0,5.0;" x1="1815" x2="1815" y1="64.5938" y2="871.1797"/><line style="stroke: #383838; stroke-width: 1.0; stroke-dasharray: 5.0,5.0;" x1="1939" x2="1939" y1="64.5938" y2="871.1797"/><rect fill="#F8F8F8" height="30.2969" style="stroke: #383838; stroke-width: 1.5;" width="70" x="8" y="33.2969"/><text fill="#000000" font-family="Courier" font-size="14" lengthAdjust="spacingAndGlyphs" textLength="56" x="15" y="53.292">Service</text><rect fill="#F8F8F8" height="30.2969" style="stroke: #383838; stroke-width: 1.5;" width="70" x="8" y="870.1797"/><text fill="#000000" font-family="Courier" font-size="14" lengthAdjust="spacingAndGlyphs" textLength="56" x="15" y="890.1748">Service</text><rect fill="#F8F8F8" height="30.2969" style="stroke: #383838; stroke-width: 1.5;" width="134" x="200" y="33.2969"/><text fill="#000000" font-family="Courier" font-size="14" lengthAdjust="spacingAndGlyphs" textLength="120" x="207" y="53.292">Data Aggregator</text><rect fill="#F8F8F8" height="30.2969" style="stroke: #383838; stroke-width: 1.5;" width="134" x="200" y="870.1797"/><text fill="#000000" font-family="Courier" font-size="14" lengthAdjust="spacingAndGlyphs" textLength="120" x="207" y="890.1748">Data Aggregator</text><rect fill="#F8F8F8" height="30.2969" style="stroke: #383838; stroke-width: 1.5;" width="206" x="412" y="33.2969"/><text fill="#000000" font-family="Courier" font-size="14" lengthAdjust="spacingAndGlyphs" textLength="192" x="419" y="53.292">Snow Condition Collector</text><rect fill="#F8F8F8" height="30.2969" style="stroke: #383838; stroke-width: 1.5;" width="206" x="412" y="870.1797"/><text fill="#000000" font-family="Courier" font-size="14" lengthAdjust="spacingAndGlyphs" textLength="192" x="419" y="890.1748">Snow Condition Collector</text><rect fill="#F8F8F8" height="30.2969" style="stroke: #383838; stroke-width: 1.5;" width="150" x="628" y="33.2969"/><text fill="#000000" font-family="Courier" font-size="14" lengthAdjust="spacingAndGlyphs" textLength="136" x="635" y="53.292">Weather Collector</text><rect fill="#F8F8F8" height="30.2969" style="stroke: #383838; stroke-width: 1.5;" width="150" x="628" y="870.1797"/><text fill="#000000" font-family="Courier" font-size="14" lengthAdjust="spacingAndGlyphs" textLength="136" x="635" y="890.1748">Weather Collector</text><rect fill="#F8F8F8" height="30.2969" style="stroke: #383838; stroke-width: 1.5;" width="182" x="788" y="33.2969"/><text fill="#000000" font-family="Courier" font-size="14" lengthAdjust="spacingAndGlyphs" textLength="168" x="795" y="53.292">Resort Info Collector</text><rect fill="#F8F8F8" height="30.2969" style="stroke: #383838; stroke-width: 1.5;" width="182" x="788" y="870.1797"/><text fill="#000000" font-family="Courier" font-size="14" lengthAdjust="spacingAndGlyphs" textLength="168" x="795" y="890.1748">Resort Info Collector</text><rect fill="#F8F8F8" height="30.2969" style="stroke: #383838; stroke-width: 1.5;" width="158" x="980" y="33.2969"/><text fill="#000000" font-family="Courier" font-size="14" lengthAdjust="spacingAndGlyphs" textLength="144" x="987" y="53.292">Geo Info Collector</text><rect fill="#F8F8F8" height="30.2969" style="stroke: #383838; stroke-width: 1.5;" width="158" x="980" y="870.1797"/><text fill="#000000" font-family="Courier" font-size="14" lengthAdjust="spacingAndGlyphs" textLength="144" x="987" y="890.1748">Geo Info Collector</text><rect fill="#F8F8F8" height="30.2969" style="stroke: #383838; stroke-width: 1.5;" width="118" x="1148" y="33.2969"/><text fill="#000000" font-family="Courier" font-size="14" lengthAdjust="spacingAndGlyphs" textLength="104" x="1155" y="53.292">onthesnow.com</text><rect fill="#F8F8F8" height="30.2969" style="stroke: #383838; stroke-width: 1.5;" width="118" x="1148" y="870.1797"/><text fill="#000000" font-family="Courier" font-size="14" lengthAdjust="spacingAndGlyphs" textLength="104" x="1155" y="890.1748">onthesnow.com</text><rect fill="#F8F8F8" height="30.2969" style="stroke: #383838; stroke-width: 1.5;" width="158" x="1276" y="33.2969"/><text fill="#000000" font-family="Courier" font-size="14" lengthAdjust="spacingAndGlyphs" textLength="144" x="1283" y="53.292">openweathermap.org</text><rect fill="#F8F8F8" height="30.2969" style="stroke: #383838; stroke-width: 1.5;" width="158" x="1276" y="870.1797"/><text fill="#000000" font-family="Courier" font-size="14" lengthAdjust="spacingAndGlyphs" textLength="144" x="1283" y="890.1748">openweathermap.org</text><rect fill="#F8F8F8" height="30.2969" style="stroke: #383838; stroke-width: 1.5;" width="326" x="1444" y="33.2969"/><text fill="#000000" font-family="Courier" font-size="14" lengthAdjust="spacingAndGlyphs" textLength="312" x="1451" y="53.292">rapidapi.com/ski-resorts-and-conditions</text><rect fill="#F8F8F8" height="30.2969" style="stroke: #383838; stroke-width: 1.5;" width="326" x="1444" y="870.1797"/><text fill="#000000" font-family="Courier" font-size="14" lengthAdjust="spacingAndGlyphs" textLength="312" x="1451" y="890.1748">rapidapi.com/ski-resorts-and-conditions</text><rect fill="#F8F8F8" height="30.2969" style="stroke: #383838; stroke-width: 1.5;" width="70" x="1780" y="33.2969"/><text fill="#000000" font-family="Courier" font-size="14" lengthAdjust="spacingAndGlyphs" textLength="56" x="1787" y="53.292">info DB</text><rect fill="#F8F8F8" height="30.2969" style="stroke: #383838; stroke-width: 1.5;" width="70" x="1780" y="870.1797"/><text fill="#000000" font-family="Courier" font-size="14" lengthAdjust="spacingAndGlyphs" textLength="56" x="1787" y="890.1748">info DB</text><rect fill="#F8F8F8" height="30.2969" style="stroke: #383838; stroke-width: 1.5;" width="158" x="1860" y="33.2969"/><text fill="#000000" font-family="Courier" font-size="14" lengthAdjust="spacingAndGlyphs" textLength="144" x="1867" y="53.292">cache repositories</text><rect fill="#F8F8F8" height="30.2969" style="stroke: #383838; stroke-width: 1.5;" width="158" x="1860" y="870.1797"/><text fill="#000000" font-family="Courier" font-size="14" lengthAdjust="spacingAndGlyphs" textLength="144" x="1867" y="890.1748">cache repositories</text><polygon fill="#383838" points="255,91.7266,265,95.7266,255,99.7266,259,95.7266" style="stroke: #383838; stroke-width: 1.0;"/><line style="stroke: #383838; stroke-width: 1.0;" x1="43" x2="261" y1="95.7266" y2="95.7266"/><text fill="#000000" font-family="Courier" font-size="13" lengthAdjust="spacingAndGlyphs" textLength="192" x="50" y="90.6606">getHeatMapOverviewData()</text><polygon fill="#383838" points="1927,120.8594,1937,124.8594,1927,128.8594,1931,124.8594" style="stroke: #383838; stroke-width: 1.0;"/><line style="stroke: #383838; stroke-width: 1.0;" x1="267" x2="1933" y1="124.8594" y2="124.8594"/><text fill="#000000" font-family="Courier" font-size="13" lengthAdjust="spacingAndGlyphs" textLength="296" x="274" y="119.7935">cacheRepositories.HeatMap.search(nKm)</text><polygon fill="#383838" points="54,149.9922,44,153.9922,54,157.9922,50,153.9922" style="stroke: #383838; stroke-width: 1.0;"/><line style="stroke: #383838; stroke-width: 1.0;" x1="48" x2="1938" y1="153.9922" y2="153.9922"/><text fill="#000000" font-family="Courier" font-size="13" lengthAdjust="spacingAndGlyphs" textLength="32" x="60" y="148.9263">data</text><polygon fill="#383838" points="503,179.125,513,183.125,503,187.125,507,183.125" style="stroke: #383838; stroke-width: 1.0;"/><line style="stroke: #383838; stroke-width: 1.0;" x1="267" x2="509" y1="183.125" y2="183.125"/><text fill="#000000" font-family="Courier" font-size="13" lengthAdjust="spacingAndGlyphs" textLength="224" x="274" y="178.0591">getGlobalWeatherConditions()</text><polygon fill="#383838" points="1927,208.2578,1937,212.2578,1927,216.2578,1931,212.2578" style="stroke: #383838; stroke-width: 1.0;"/><line style="stroke: #383838; stroke-width: 1.0;" x1="515" x2="1933" y1="212.2578" y2="212.2578"/><text fill="#000000" font-family="Courier" font-size="13" lengthAdjust="spacingAndGlyphs" textLength="296" x="522" y="207.1919">cacheRepositories.Weather.search(nKm)</text><polygon fill="#383838" points="526,237.3906,516,241.3906,526,245.3906,522,241.3906" style="stroke: #383838; stroke-width: 1.0;"/><line style="stroke: #383838; stroke-width: 1.0;" x1="520" x2="1938" y1="241.3906" y2="241.3906"/><text fill="#000000" font-family="Courier" font-size="13" lengthAdjust="spacingAndGlyphs" textLength="32" x="532" y="236.3247">data</text><polygon fill="#383838" points="1343,266.5234,1353,270.5234,1343,274.5234,1347,270.5234" style="stroke: #383838; stroke-width: 1.0;"/><line style="stroke: #383838; stroke-width: 1.0;" x1="515" x2="1349" y1="270.5234" y2="270.5234"/><text fill="#000000" font-family="Courier" font-size="13" lengthAdjust="spacingAndGlyphs" textLength="168" x="522" y="265.4575">fetch(openWeatherUrl)</text><polygon fill="#383838" points="526,295.6563,516,299.6563,526,303.6563,522,299.6563" style="stroke: #383838; stroke-width: 1.0;"/><line style="stroke: #383838; stroke-width: 1.0;" x1="520" x2="1354" y1="299.6563" y2="299.6563"/><text fill="#000000" font-family="Courier" font-size="13" lengthAdjust="spacingAndGlyphs" textLength="32" x="532" y="294.5903">data</text><polygon fill="#383838" points="1927,324.7891,1937,328.7891,1927,332.7891,1931,328.7891" style="stroke: #383838; stroke-width: 1.0;"/><line style="stroke: #383838; stroke-width: 1.0;" x1="1355" x2="1933" y1="328.7891" y2="328.7891"/><text fill="#000000" font-family="Courier" font-size="13" lengthAdjust="spacingAndGlyphs" textLength="136" x="1362" y="323.7231">add data to cache</text><polygon fill="#383838" points="278,353.9219,268,357.9219,278,361.9219,274,357.9219" style="stroke: #383838; stroke-width: 1.0;"/><line style="stroke: #383838; stroke-width: 1.0;" x1="272" x2="514" y1="357.9219" y2="357.9219"/><text fill="#000000" font-family="Courier" font-size="13" lengthAdjust="spacingAndGlyphs" textLength="112" x="284" y="352.856">formatted data</text><polygon fill="#383838" points="691,383.0547,701,387.0547,691,391.0547,695,387.0547" style="stroke: #383838; stroke-width: 1.0;"/><line style="stroke: #383838; stroke-width: 1.0;" x1="267" x2="697" y1="387.0547" y2="387.0547"/><text fill="#000000" font-family="Courier" font-size="13" lengthAdjust="spacingAndGlyphs" textLength="200" x="274" y="381.9888">getGlobalSnowConditions()</text><polygon fill="#383838" points="1927,412.1875,1937,416.1875,1927,420.1875,1931,416.1875" style="stroke: #383838; stroke-width: 1.0;"/><line style="stroke: #383838; stroke-width: 1.0;" x1="703" x2="1933" y1="416.1875" y2="416.1875"/><text fill="#000000" font-family="Courier" font-size="13" lengthAdjust="spacingAndGlyphs" textLength="352" x="710" y="411.1216">cacheRepositories.SnowConditions.search(nKm)</text><polygon fill="#383838" points="714,441.3203,704,445.3203,714,449.3203,710,445.3203" style="stroke: #383838; stroke-width: 1.0;"/><line style="stroke: #383838; stroke-width: 1.0;" x1="708" x2="1938" y1="445.3203" y2="445.3203"/><text fill="#000000" font-family="Courier" font-size="13" lengthAdjust="spacingAndGlyphs" textLength="32" x="720" y="440.2544">data</text><polygon fill="#383838" points="1195,470.4531,1205,474.4531,1195,478.4531,1199,474.4531" style="stroke: #383838; stroke-width: 1.0;"/><line style="stroke: #383838; stroke-width: 1.0;" x1="703" x2="1201" y1="474.4531" y2="474.4531"/><text fill="#000000" font-family="Courier" font-size="13" lengthAdjust="spacingAndGlyphs" textLength="128" x="710" y="469.3872">fetch(onTheSnow)</text><polygon fill="#383838" points="714,499.5859,704,503.5859,714,507.5859,710,503.5859" style="stroke: #383838; stroke-width: 1.0;"/><line style="stroke: #383838; stroke-width: 1.0;" x1="708" x2="1206" y1="503.5859" y2="503.5859"/><text fill="#000000" font-family="Courier" font-size="13" lengthAdjust="spacingAndGlyphs" textLength="32" x="720" y="498.52">data</text><polygon fill="#383838" points="1595,528.7188,1605,532.7188,1595,536.7188,1599,532.7188" style="stroke: #383838; stroke-width: 1.0;"/><line style="stroke: #383838; stroke-width: 1.0;" x1="703" x2="1601" y1="532.7188" y2="532.7188"/><text fill="#000000" font-family="Courier" font-size="13" lengthAdjust="spacingAndGlyphs" textLength="160" x="710" y="527.6528">fetch(skiCondionUrl)</text><polygon fill="#383838" points="714,557.8516,704,561.8516,714,565.8516,710,561.8516" style="stroke: #383838; stroke-width: 1.0;"/><line style="stroke: #383838; stroke-width: 1.0;" x1="708" x2="1606" y1="561.8516" y2="561.8516"/><text fill="#000000" font-family="Courier" font-size="13" lengthAdjust="spacingAndGlyphs" textLength="32" x="720" y="556.7856">data</text><polygon fill="#383838" points="1803,586.9844,1813,590.9844,1803,594.9844,1807,590.9844" style="stroke: #383838; stroke-width: 1.0;"/><line style="stroke: #383838; stroke-width: 1.0;" x1="703" x2="1809" y1="590.9844" y2="590.9844"/><text fill="#000000" font-family="Courier" font-size="13" lengthAdjust="spacingAndGlyphs" textLength="320" x="710" y="585.9185">fetch(elasticSearchUrl, {body: esQuery})</text><polygon fill="#383838" points="1927,616.1172,1937,620.1172,1927,624.1172,1931,620.1172" style="stroke: #383838; stroke-width: 1.0;"/><line style="stroke: #383838; stroke-width: 1.0;" x1="703" x2="1933" y1="620.1172" y2="620.1172"/><text fill="#000000" font-family="Courier" font-size="13" lengthAdjust="spacingAndGlyphs" textLength="136" x="710" y="615.0513">add data to cache</text><polygon fill="#383838" points="714,645.25,704,649.25,714,653.25,710,649.25" style="stroke: #383838; stroke-width: 1.0;"/><line style="stroke: #383838; stroke-width: 1.0;" x1="708" x2="1814" y1="649.25" y2="649.25"/><text fill="#000000" font-family="Courier" font-size="13" lengthAdjust="spacingAndGlyphs" textLength="32" x="720" y="644.1841">data</text><polygon fill="#383838" points="278,674.3828,268,678.3828,278,682.3828,274,678.3828" style="stroke: #383838; stroke-width: 1.0;"/><line style="stroke: #383838; stroke-width: 1.0;" x1="272" x2="702" y1="678.3828" y2="678.3828"/><text fill="#000000" font-family="Courier" font-size="13" lengthAdjust="spacingAndGlyphs" textLength="112" x="284" y="673.3169">formatted data</text><polygon fill="#383838" points="867,703.5156,877,707.5156,867,711.5156,871,707.5156" style="stroke: #383838; stroke-width: 1.0;"/><line style="stroke: #383838; stroke-width: 1.0;" x1="267" x2="873" y1="707.5156" y2="707.5156"/><text fill="#000000" font-family="Courier" font-size="13" lengthAdjust="spacingAndGlyphs" textLength="168" x="274" y="702.4497">getGlobalResortList()</text><polygon fill="#383838" points="1927,732.6484,1937,736.6484,1927,740.6484,1931,736.6484" style="stroke: #383838; stroke-width: 1.0;"/><line style="stroke: #383838; stroke-width: 1.0;" x1="879" x2="1933" y1="736.6484" y2="736.6484"/><text fill="#000000" font-family="Courier" font-size="13" lengthAdjust="spacingAndGlyphs" textLength="272" x="886" y="731.5825">cacheRepositories.ResortList.get()</text><polygon fill="#383838" points="890,761.7813,880,765.7813,890,769.7813,886,765.7813" style="stroke: #383838; stroke-width: 1.0;"/><line style="stroke: #383838; stroke-width: 1.0;" x1="884" x2="1938" y1="765.7813" y2="765.7813"/><text fill="#000000" font-family="Courier" font-size="13" lengthAdjust="spacingAndGlyphs" textLength="32" x="896" y="760.7153">data</text><polygon fill="#383838" points="1927,790.9141,1937,794.9141,1927,798.9141,1931,794.9141" style="stroke: #383838; stroke-width: 1.0;"/><line style="stroke: #383838; stroke-width: 1.0;" x1="703" x2="1933" y1="794.9141" y2="794.9141"/><text fill="#000000" font-family="Courier" font-size="13" lengthAdjust="spacingAndGlyphs" textLength="136" x="710" y="789.8481">add data to cache</text><polygon fill="#383838" points="278,820.0469,268,824.0469,278,828.0469,274,824.0469" style="stroke: #383838; stroke-width: 1.0;"/><line style="stroke: #383838; stroke-width: 1.0;" x1="272" x2="878" y1="824.0469" y2="824.0469"/><text fill="#000000" font-family="Courier" font-size="13" lengthAdjust="spacingAndGlyphs" textLength="112" x="284" y="818.981">formatted data</text><polygon fill="#383838" points="54,849.1797,44,853.1797,54,857.1797,50,853.1797" style="stroke: #383838; stroke-width: 1.0;"/><line style="stroke: #383838; stroke-width: 1.0;" x1="48" x2="266" y1="853.1797" y2="853.1797"/><text fill="#000000" font-family="Courier" font-size="13" lengthAdjust="spacingAndGlyphs" textLength="200" x="60" y="848.1138">overView Data for heatmap</text></g></svg>