<?xml version="1.0" encoding="UTF-8" standalone="no"?><svg xmlns="http://www.w3.org/2000/svg" xmlns:xlink="http://www.w3.org/1999/xlink" contentScriptType="application/ecmascript" contentStyleType="text/css" height="871px" preserveAspectRatio="none" style="width:2059px;height:871px;" version="1.1" viewBox="0 0 2059 871" width="2059px" zoomAndPan="magnify"><defs/><g><text fill="#000000" font-family="Courier" font-size="18" lengthAdjust="spacingAndGlyphs" textLength="132" x="979" y="16.708">Logical View</text><rect fill="#FFFFFF" height="382" style="stroke: #000000; stroke-width: 1.5;" width="533" x="22" y="44.9531"/><rect fill="#FFFFFF" height="10" style="stroke: #000000; stroke-width: 1.5;" width="15" x="535" y="49.9531"/><rect fill="#FFFFFF" height="2" style="stroke: #000000; stroke-width: 1.5;" width="4" x="533" y="51.9531"/><rect fill="#FFFFFF" height="2" style="stroke: #000000; stroke-width: 1.5;" width="4" x="533" y="55.9531"/><text fill="#000000" font-family="Courier" font-size="14" font-weight="bold" lengthAdjust="spacingAndGlyphs" textLength="80" x="248.5" y="70.9482">Mobile App</text><rect fill="#FFFFFF" height="445" style="stroke: #000000; stroke-width: 1.5;" width="838" x="623" y="331.9531"/><rect fill="#FFFFFF" height="10" style="stroke: #000000; stroke-width: 1.5;" width="15" x="1441" y="336.9531"/><rect fill="#FFFFFF" height="2" style="stroke: #000000; stroke-width: 1.5;" width="4" x="1439" y="338.9531"/><rect fill="#FFFFFF" height="2" style="stroke: #000000; stroke-width: 1.5;" width="4" x="1439" y="342.9531"/><text fill="#000000" font-family="Courier" font-size="14" font-weight="bold" lengthAdjust="spacingAndGlyphs" textLength="288" x="898" y="357.9482">Skip API (Kotlin + Spring framework)</text><rect fill="#FFFFFF" height="206" style="stroke: #000000; stroke-width: 1.5;" width="478" x="663" y="530.9531"/><rect fill="#FFFFFF" height="10" style="stroke: #000000; stroke-width: 1.5;" width="15" x="1121" y="535.9531"/><rect fill="#FFFFFF" height="2" style="stroke: #000000; stroke-width: 1.5;" width="4" x="1119" y="537.9531"/><rect fill="#FFFFFF" height="2" style="stroke: #000000; stroke-width: 1.5;" width="4" x="1119" y="541.9531"/><text fill="#000000" font-family="Courier" font-size="14" font-weight="bold" lengthAdjust="spacingAndGlyphs" textLength="120" x="842" y="556.9482">Data Aggregator</text><rect fill="#FFFFFF" height="227" style="stroke: #000000; stroke-width: 1.5;" width="270" x="1778" y="633.9531"/><rect fill="#FFFFFF" height="10" style="stroke: #000000; stroke-width: 1.5;" width="15" x="2028" y="638.9531"/><rect fill="#FFFFFF" height="2" style="stroke: #000000; stroke-width: 1.5;" width="4" x="2026" y="640.9531"/><rect fill="#FFFFFF" height="2" style="stroke: #000000; stroke-width: 1.5;" width="4" x="2026" y="644.9531"/><text fill="#000000" font-family="Courier" font-size="14" font-weight="bold" lengthAdjust="spacingAndGlyphs" textLength="96" x="1865" y="659.9482">External API</text><rect fill="#F8F8F8" height="36.2969" style="stroke: #383838; stroke-width: 1.5;" width="252" x="287" y="374.9531"/><rect fill="#F8F8F8" height="5" style="stroke: #383838; stroke-width: 1.5;" width="10" x="282" y="379.9531"/><rect fill="#F8F8F8" height="5" style="stroke: #383838; stroke-width: 1.5;" width="10" x="282" y="401.25"/><text fill="#000000" font-family="Courier" font-size="14" lengthAdjust="spacingAndGlyphs" textLength="232" x="297" y="397.9482">User Interface (React Native)</text><rect fill="#F8F8F8" height="36.2969" style="stroke: #383838; stroke-width: 1.5;" width="236" x="38" y="271.9531"/><rect fill="#F8F8F8" height="5" style="stroke: #383838; stroke-width: 1.5;" width="10" x="33" y="276.9531"/><rect fill="#F8F8F8" height="5" style="stroke: #383838; stroke-width: 1.5;" width="10" x="33" y="298.25"/><text fill="#000000" font-family="Courier" font-size="14" lengthAdjust="spacingAndGlyphs" textLength="216" x="48" y="294.9482">Redux Store (Redux + Thunk)</text><ellipse cx="318" cy="289.9531" fill="#F8F8F8" rx="8" ry="8" style="stroke: #383838; stroke-width: 2.0;"/><rect fill="#F8F8F8" height="36.2969" style="stroke: #383838; stroke-width: 1.5;" width="124" x="362" y="271.9531"/><rect fill="#F8F8F8" height="5" style="stroke: #383838; stroke-width: 1.5;" width="10" x="357" y="276.9531"/><rect fill="#F8F8F8" height="5" style="stroke: #383838; stroke-width: 1.5;" width="10" x="357" y="298.25"/><text fill="#000000" font-family="Courier" font-size="14" lengthAdjust="spacingAndGlyphs" textLength="104" x="372" y="294.9482">Redux Actions</text><ellipse cx="530" cy="289.9531" fill="#F8F8F8" rx="8" ry="8" style="stroke: #383838; stroke-width: 2.0;"/><rect fill="#F8F8F8" height="36.2969" style="stroke: #383838; stroke-width: 1.5;" width="164" x="375" y="175.9531"/><rect fill="#F8F8F8" height="5" style="stroke: #383838; stroke-width: 1.5;" width="10" x="370" y="180.9531"/><rect fill="#F8F8F8" height="5" style="stroke: #383838; stroke-width: 1.5;" width="10" x="370" y="202.25"/><text fill="#000000" font-family="Courier" font-size="14" lengthAdjust="spacingAndGlyphs" textLength="144" x="385" y="198.9482">LS Service (Realm)</text><ellipse cx="331" cy="193.9531" fill="#F8F8F8" rx="8" ry="8" style="stroke: #383838; stroke-width: 2.0;"/><rect fill="#F8F8F8" height="36.2969" style="stroke: #383838; stroke-width: 1.5;" width="124" x="289" y="79.9531"/><rect fill="#F8F8F8" height="5" style="stroke: #383838; stroke-width: 1.5;" width="10" x="284" y="84.9531"/><rect fill="#F8F8F8" height="5" style="stroke: #383838; stroke-width: 1.5;" width="10" x="284" y="106.25"/><text fill="#000000" font-family="Courier" font-size="14" lengthAdjust="spacingAndGlyphs" textLength="104" x="299" y="102.9482">Local Storage</text><ellipse cx="457" cy="97.9531" fill="#F8F8F8" rx="8" ry="8" style="stroke: #383838; stroke-width: 2.0;"/><rect fill="#F8F8F8" height="36.2969" style="stroke: #383838; stroke-width: 1.5;" width="100" x="1329" y="676.9531"/><rect fill="#F8F8F8" height="5" style="stroke: #383838; stroke-width: 1.5;" width="10" x="1324" y="681.9531"/><rect fill="#F8F8F8" height="5" style="stroke: #383838; stroke-width: 1.5;" width="10" x="1324" y="703.25"/><text fill="#000000" font-family="Courier" font-size="14" lengthAdjust="spacingAndGlyphs" textLength="80" x="1339" y="699.9482">Controller</text><rect fill="#F8F8F8" height="36.2969" style="stroke: #383838; stroke-width: 1.5;" width="76" x="1165" y="676.9531"/><rect fill="#F8F8F8" height="5" style="stroke: #383838; stroke-width: 1.5;" width="10" x="1160" y="681.9531"/><rect fill="#F8F8F8" height="5" style="stroke: #383838; stroke-width: 1.5;" width="10" x="1160" y="703.25"/><text fill="#000000" font-family="Courier" font-size="14" lengthAdjust="spacingAndGlyphs" textLength="56" x="1175" y="699.9482">Service</text><ellipse cx="1285" cy="694.9531" fill="#F8F8F8" rx="8" ry="8" style="stroke: #383838; stroke-width: 2.0;"/><rect fill="#F8F8F8" height="36.2969" style="stroke: #383838; stroke-width: 1.5;" width="156" x="1196" y="470.9531"/><rect fill="#F8F8F8" height="5" style="stroke: #383838; stroke-width: 1.5;" width="10" x="1191" y="475.9531"/><rect fill="#F8F8F8" height="5" style="stroke: #383838; stroke-width: 1.5;" width="10" x="1191" y="497.25"/><text fill="#000000" font-family="Courier" font-size="14" lengthAdjust="spacingAndGlyphs" textLength="136" x="1206" y="493.9482">User Repositories</text><ellipse cx="1197" cy="591.9531" fill="#F8F8F8" rx="8" ry="8" style="stroke: #383838; stroke-width: 2.0;"/><rect fill="#F8F8F8" height="36.2969" style="stroke: #383838; stroke-width: 1.5;" width="164" x="666" y="374.9531"/><rect fill="#F8F8F8" height="5" style="stroke: #383838; stroke-width: 1.5;" width="10" x="661" y="379.9531"/><rect fill="#F8F8F8" height="5" style="stroke: #383838; stroke-width: 1.5;" width="10" x="661" y="401.25"/><text fill="#000000" font-family="Courier" font-size="14" lengthAdjust="spacingAndGlyphs" textLength="144" x="676" y="397.9482">Cache repositories</text><ellipse cx="711" cy="488.9531" fill="#F8F8F8" rx="8" ry="8" style="stroke: #383838; stroke-width: 2.0;"/><ellipse cx="1268" cy="591.9531" fill="#F8F8F8" rx="8" ry="8" style="stroke: #383838; stroke-width: 2.0;"/><rect fill="#F8F8F8" height="36.2969" style="stroke: #383838; stroke-width: 1.5;" width="220" x="706" y="573.9531"/><rect fill="#F8F8F8" height="5" style="stroke: #383838; stroke-width: 1.5;" width="10" x="701" y="578.9531"/><rect fill="#F8F8F8" height="5" style="stroke: #383838; stroke-width: 1.5;" width="10" x="701" y="600.25"/><text fill="#000000" font-family="Courier" font-size="14" lengthAdjust="spacingAndGlyphs" textLength="200" x="716" y="596.9482">Snow Conditions Collector</text><rect fill="#F8F8F8" height="36.2969" style="stroke: #383838; stroke-width: 1.5;" width="156" x="961" y="573.9531"/><rect fill="#F8F8F8" height="5" style="stroke: #383838; stroke-width: 1.5;" width="10" x="956" y="578.9531"/><rect fill="#F8F8F8" height="5" style="stroke: #383838; stroke-width: 1.5;" width="10" x="956" y="600.25"/><text fill="#000000" font-family="Courier" font-size="14" lengthAdjust="spacingAndGlyphs" textLength="136" x="971" y="596.9482">Weather Collector</text><rect fill="#F8F8F8" height="36.2969" style="stroke: #383838; stroke-width: 1.5;" width="188" x="722" y="676.9531"/><rect fill="#F8F8F8" height="5" style="stroke: #383838; stroke-width: 1.5;" width="10" x="717" y="681.9531"/><rect fill="#F8F8F8" height="5" style="stroke: #383838; stroke-width: 1.5;" width="10" x="717" y="703.25"/><text fill="#000000" font-family="Courier" font-size="14" lengthAdjust="spacingAndGlyphs" textLength="168" x="732" y="699.9482">Resort Info Collector</text><rect fill="#F8F8F8" height="36.2969" style="stroke: #383838; stroke-width: 1.5;" width="124" x="945" y="676.9531"/><rect fill="#F8F8F8" height="5" style="stroke: #383838; stroke-width: 1.5;" width="10" x="940" y="681.9531"/><rect fill="#F8F8F8" height="5" style="stroke: #383838; stroke-width: 1.5;" width="10" x="940" y="703.25"/><text fill="#000000" font-family="Courier" font-size="14" lengthAdjust="spacingAndGlyphs" textLength="104" x="955" y="699.9482">Geo Collector</text><rect fill="#F8F8F8" height="36.2969" style="stroke: #383838; stroke-width: 1.5;" width="100" x="1821" y="676.9531"/><rect fill="#F8F8F8" height="5" style="stroke: #383838; stroke-width: 1.5;" width="10" x="1816" y="681.9531"/><rect fill="#F8F8F8" height="5" style="stroke: #383838; stroke-width: 1.5;" width="10" x="1816" y="703.25"/><text fill="#000000" font-family="Courier" font-size="14" lengthAdjust="spacingAndGlyphs" textLength="80" x="1831" y="699.9482">weatherski</text><rect fill="#F8F8F8" height="36.2969" style="stroke: #383838; stroke-width: 1.5;" width="68" x="1956" y="676.9531"/><rect fill="#F8F8F8" height="5" style="stroke: #383838; stroke-width: 1.5;" width="10" x="1951" y="681.9531"/><rect fill="#F8F8F8" height="5" style="stroke: #383838; stroke-width: 1.5;" width="10" x="1951" y="703.25"/><text fill="#000000" font-family="Courier" font-size="14" lengthAdjust="spacingAndGlyphs" textLength="48" x="1966" y="699.9482">skiapi</text><rect fill="#F8F8F8" height="36.2969" style="stroke: #383838; stroke-width: 1.5;" width="92" x="1825" y="800.9531"/><rect fill="#F8F8F8" height="5" style="stroke: #383838; stroke-width: 1.5;" width="10" x="1820" y="805.9531"/><rect fill="#F8F8F8" height="5" style="stroke: #383838; stroke-width: 1.5;" width="10" x="1820" y="827.25"/><text fill="#000000" font-family="Courier" font-size="14" lengthAdjust="spacingAndGlyphs" textLength="72" x="1835" y="823.9482">onthesnow</text><ellipse cx="1136" cy="289.9531" fill="#F8F8F8" rx="8" ry="8" style="stroke: #383838; stroke-width: 2.0;"/><rect fill="#F8F8F8" height="36.2969" style="stroke: #383838; stroke-width: 1.5;" width="204" x="1485" y="573.9531"/><rect fill="#F8F8F8" height="5" style="stroke: #383838; stroke-width: 1.5;" width="10" x="1480" y="578.9531"/><rect fill="#F8F8F8" height="5" style="stroke: #383838; stroke-width: 1.5;" width="10" x="1480" y="600.25"/><text fill="#000000" font-family="Courier" font-size="14" lengthAdjust="spacingAndGlyphs" textLength="184" x="1495" y="596.9482">Info db (elasticsearch)</text><ellipse cx="1733" cy="591.9531" fill="#F8F8F8" rx="8" ry="8" style="stroke: #383838; stroke-width: 2.0;"/><rect fill="#F8F8F8" height="36.2969" style="stroke: #383838; stroke-width: 1.5;" width="140" x="1488" y="374.9531"/><rect fill="#F8F8F8" height="5" style="stroke: #383838; stroke-width: 1.5;" width="10" x="1483" y="379.9531"/><rect fill="#F8F8F8" height="5" style="stroke: #383838; stroke-width: 1.5;" width="10" x="1483" y="401.25"/><text fill="#000000" font-family="Courier" font-size="14" lengthAdjust="spacingAndGlyphs" textLength="120" x="1498" y="397.9482">User db (mySQL)</text><ellipse cx="1672" cy="392.9531" fill="#F8F8F8" rx="8" ry="8" style="stroke: #383838; stroke-width: 2.0;"/><rect fill="#F8F8F8" height="36.2969" style="stroke: #383838; stroke-width: 1.5;" width="148" x="574" y="271.9531"/><rect fill="#F8F8F8" height="5" style="stroke: #383838; stroke-width: 1.5;" width="10" x="569" y="276.9531"/><rect fill="#F8F8F8" height="5" style="stroke: #383838; stroke-width: 1.5;" width="10" x="569" y="298.25"/><text fill="#000000" font-family="Courier" font-size="14" lengthAdjust="spacingAndGlyphs" textLength="128" x="584" y="294.9482">Cache db (Redis)</text><ellipse cx="766" cy="289.9531" fill="#F8F8F8" rx="8" ry="8" style="stroke: #383838; stroke-width: 2.0;"/><ellipse cx="1786" cy="591.9531" fill="#F8F8F8" rx="8" ry="8" style="stroke: #383838; stroke-width: 2.0;"/><path d="M274.02,289.9531 C285.59,289.9531 297.16,289.9531 308.72,289.9531 " fill="none" id="RES-RES_" style="stroke: #383838; stroke-width: 1.0;"/><path d="M486.11,289.9531 C497.65,289.9531 509.2,289.9531 520.74,289.9531 " fill="none" id="REA-REA_" style="stroke: #383838; stroke-width: 1.0;"/><path d="M340.35,193.9531 C351.89,193.9531 363.44,193.9531 374.98,193.9531 " fill="none" id="MSRV_-MSRV" style="stroke: #383838; stroke-width: 1.0;"/><path d="M413.11,97.9531 C424.65,97.9531 436.2,97.9531 447.74,97.9531 " fill="none" id="LS-LS_" style="stroke: #383838; stroke-width: 1.0;"/><path d="M513.25,305.4131 C492.02,323.7331 455.5,355.2631 432.89,374.7831 " fill="none" id="REA_&lt;-UI" style="stroke: #383838; stroke-width: 1.0;"/><path d="M512.9613,294.4968 A9,9 0 0 0 524.0207 307.2948" fill="none" style="stroke: #383838; stroke-width: 1.5;"/><path d="M457,117.2131 C457,134.1731 457,159.2431 457,175.8331 " fill="none" id="LS_&lt;-MSRV" style="stroke: #383838; stroke-width: 1.0;"/><path d="M448.5428,110.0413 A9,9 0 0 0 465.4572 110.0413" fill="none" style="stroke: #383838; stroke-width: 1.5;"/><path d="M1241.12,694.9531 C1252.66,694.9531 1264.2,694.9531 1275.74,694.9531 " fill="none" id="SRV-SRV_" style="stroke: #383838; stroke-width: 1.0;"/><path d="M1248.91,507.2331 C1246.09,509.6631 1243.38,512.2631 1241,514.9531 C1221.82,536.6631 1206.87,568.0131 1200.44,582.7331 " fill="none" id="UREP-UREP_" style="stroke: #383838; stroke-width: 1.0;"/><path d="M741.21,411.1931 C733.2,431.5431 720.21,464.5431 714.22,479.7731 " fill="none" id="CREP-CREP_" style="stroke: #383838; stroke-width: 1.0;"/><path d="M679.1058,530.8082 C679.2152,530.5729 679.326,530.3383 679.4381,530.1044 C680.3346,528.2331 681.316,526.4084 682.3896,524.6463 C684.537,521.122 687.0538,517.8481 690,514.9531 C695.69,509.3631 699.57,511.8431 707.5,510.9531 C735.99,507.7431 1195.01,507.7431 1223.5,510.9531 C1231.43,511.8431 1235.05,509.6331 1241,514.9531 C1261.07,532.8831 1266.22,566.6131 1267.54,582.8131 " fill="none" id="AGG-AGG_" style="stroke: #383838; stroke-width: 1.0;"/><path d="M1689.09,591.9531 C1700.64,591.9531 1712.19,591.9531 1723.74,591.9531 " fill="none" id="IDB-IDB_" style="stroke: #383838; stroke-width: 1.0;"/><path d="M1628.36,392.9531 C1639.84,392.9531 1651.32,392.9531 1662.79,392.9531 " fill="none" id="UDB-UDB_" style="stroke: #383838; stroke-width: 1.0;"/><path d="M722.21,289.9531 C733.73,289.9531 745.25,289.9531 756.76,289.9531 " fill="none" id="CDB-CDB_" style="stroke: #383838; stroke-width: 1.0;"/><path d="M1786,601.2231 C1786,607.1581 1786,615.7881 1786,625.4272 C1786,627.837 1786,630.3098 1786,632.8193 C1786,633.133 1786,633.4473 1786,633.7621 " fill="none" id="EA_-EA" style="stroke: #383838; stroke-width: 1.0;"/><path d="M1304.24,694.9531 C1312.48,694.9531 1320.72,694.9531 1328.97,694.9531 " fill="none" id="SRV_&lt;-CTRL" style="stroke: #383838; stroke-width: 1.0;"/><path d="M1297.2582,703.4104 A9,9 0 0 0 1297.2582 686.4959" fill="none" style="stroke: #383838; stroke-width: 1.5;"/><path d="M1198.09,611.3831 C1199.2,630.0731 1200.91,658.7631 1201.99,676.9331 " fill="none" id="UREP_&lt;-SRV" style="stroke: #383838; stroke-width: 1.0;"/><path d="M1189.2326,604.803 A9,9 0 0 0 1206.1166 603.7885" fill="none" style="stroke: #383838; stroke-width: 1.5;"/><path d="M1715.07,606.0731 C1712.16,607.6531 1709.09,609.0331 1706,609.9531 C1682.15,617.0731 1280.07,606.4331 1258,617.9531 C1234.18,630.3931 1218.22,658.3631 1209.88,676.6831 " fill="none" id="IDB_&lt;-SRV" style="stroke: #383838; stroke-width: 1.0;"/><path d="M1716.4998,595.1513 A9,9 0 0 0 1725.562 609.4333" fill="none" style="stroke: #383838; stroke-width: 1.5;"/><path d="M1257.15,609.8131 C1245.16,628.4331 1225.98,658.2431 1213.96,676.9331 " fill="none" id="AGG_&lt;-SRV" style="stroke: #383838; stroke-width: 1.0;"/><path d="M1253.9038,599.2286 A9,9 0 0 0 1268.1209 608.3923" fill="none" style="stroke: #383838; stroke-width: 1.5;"/><path d="M695.85,505.8731 C693.65,508.7431 691.6,511.8231 690,514.9531 C688.0838,518.7081 686.353,522.6681 684.7908,526.7284 C684.4003,527.7435 684.0203,528.7648 683.6506,529.7908 C683.5582,530.0473 683.4664,530.3041 683.3752,530.5611 C683.3297,530.6897 683.2843,530.8182 683.239,530.9469 " fill="none" id="CREP_&lt;-AGG" style="stroke: #383838; stroke-width: 1.0;"/><path d="M694.1321,494.8855 A9,9 0 0 0 706.9865 505.8794" fill="none" style="stroke: #383838; stroke-width: 1.5;"/><path d="M1731.4,572.5731 C1728.89,555.0031 1722.47,529.6631 1706,514.9531 C1700.05,509.6331 1696.43,511.8431 1688.5,510.9531 C1661.42,507.8931 734.58,507.8931 707.5,510.9531 C699.57,511.8431 695.69,509.3631 690,514.9531 C687.0538,517.8481 684.537,521.122 682.3896,524.6463 C681.316,526.4084 680.3346,528.2331 679.4381,530.1044 C679.326,530.3383 679.2152,530.5729 679.1058,530.8082 " fill="none" id="IDB_&lt;-AGG" style="stroke: #383838; stroke-width: 1.0;"/><path d="M1740.6018,578.8122 A9,9 0 0 0 1723.7926 580.696" fill="none" style="stroke: #383838; stroke-width: 1.5;"/><path d="M1784.4,572.5731 C1781.89,555.0031 1775.47,529.6631 1759,514.9531 C1753.05,509.6331 1749.43,511.8431 1741.5,510.9531 C1712.96,507.7331 736.04,507.7331 707.5,510.9531 C699.57,511.8431 695.69,509.3631 690,514.9531 C687.0538,517.8481 684.537,521.122 682.3896,524.6463 C681.316,526.4084 680.3346,528.2331 679.4381,530.1044 C679.326,530.3383 679.2152,530.5729 679.1058,530.8082 " fill="none" id="EA_&lt;-AGG" style="stroke: #383838; stroke-width: 1.0;"/><path d="M1793.6018,578.8122 A9,9 0 0 0 1776.7926 580.696" fill="none" style="stroke: #383838; stroke-width: 1.5;"/><path d="M337.17,289.9531 C345.43,289.9531 353.68,289.9531 361.93,289.9531 " fill="none" id="RES_&lt;-REA" style="stroke: #383838; stroke-width: 1.0;"/><path d="M330.1882,298.4104 A9,9 0 0 0 330.1882 281.4959" fill="none" style="stroke: #383838; stroke-width: 1.5;"/><path d="M1664.79,411.2731 C1660.34,419.7831 1653.79,429.3731 1645,434.9531 C1597.75,464.9231 1446.51,478.5431 1352.36,484.2631 " fill="none" id="UDB_&lt;-UREP" style="stroke: #383838; stroke-width: 1.0;"/><path d="M1660.0831,401.3316 A9,9 0 0 0 1675.4231 408.458" fill="none" style="stroke: #383838; stroke-width: 1.5;"/><path d="M762.76,309.1131 C759.43,327.8031 754.29,356.6731 751.03,374.9331 " fill="none" id="CDB_&lt;-CREP" style="stroke: #383838; stroke-width: 1.0;"/><path d="M755.6656,300.7796 A9,9 0 0 0 772.321 303.7287" fill="none" style="stroke: #383838; stroke-width: 1.5;"/><path d="M1145.17,291.0131 C1194.09,291.4231 1423,294.4731 1445,315.9531 C1447.9438,318.8256 1450.2919,322.1169 1452.1455,325.6833 C1453.0723,327.4666 1453.8754,329.3186 1454.5676,331.2215 C1454.6541,331.4594 1454.7389,331.698 1454.822,331.9374 " fill="none" id="SA_-SA" style="stroke: #383838; stroke-width: 1.0;"/><path d="M1117.2,284.3631 C1041.33,262.6731 750.73,187.8531 520.5,241.9531 C495.91,247.7331 470.42,260.7631 451.81,271.7931 " fill="none" id="SA_&lt;-REA" style="stroke: #383838; stroke-width: 1.0;"/><path d="M1126.213,278.1823 A9,9 0 0 0 1121.4769 294.4202" fill="none" style="stroke: #383838; stroke-width: 1.5;"/><path d="M346.24,210.3631 C362.96,227.2531 389.7,254.2831 407.06,271.8331 " fill="none" id="MSRV_&lt;-REA" style="stroke: #383838; stroke-width: 1.0;"/><path d="M335.0771,211.0967 A9,9 0 0 0 347.1097 199.2091" fill="none" style="stroke: #383838; stroke-width: 1.5;"/></g></svg>