<?xml version="1.0" encoding="UTF-8" standalone="no"?><svg xmlns="http://www.w3.org/2000/svg" xmlns:xlink="http://www.w3.org/1999/xlink" contentScriptType="application/ecmascript" contentStyleType="text/css" height="635px" preserveAspectRatio="none" style="width:941px;height:635px;" version="1.1" viewBox="0 0 941 635" width="941px" zoomAndPan="magnify"><defs><filter height="300%" id="f1riwjppuhy4dn" width="300%" x="-1" y="-1"><feGaussianBlur result="blurOut" stdDeviation="2.0"/><feColorMatrix in="blurOut" result="blurOut2" type="matrix" values="0 0 0 0 0 0 0 0 0 0 0 0 0 0 0 0 0 0 .4 0"/><feOffset dx="4.0" dy="4.0" in="blurOut2" result="blurOut3"/><feBlend in="SourceGraphic" in2="blurOut3" mode="normal"/></filter></defs><g><line style="stroke: #A80036; stroke-width: 1.0; stroke-dasharray: 5.0,5.0;" x1="30" x2="30" y1="38.2969" y2="595.6875"/><line style="stroke: #A80036; stroke-width: 1.0; stroke-dasharray: 5.0,5.0;" x1="214.5" x2="214.5" y1="38.2969" y2="595.6875"/><line style="stroke: #A80036; stroke-width: 1.0; stroke-dasharray: 5.0,5.0;" x1="398.5" x2="398.5" y1="38.2969" y2="595.6875"/><line style="stroke: #A80036; stroke-width: 1.0; stroke-dasharray: 5.0,5.0;" x1="582.5" x2="582.5" y1="38.2969" y2="595.6875"/><line style="stroke: #A80036; stroke-width: 1.0; stroke-dasharray: 5.0,5.0;" x1="738.5" x2="738.5" y1="38.2969" y2="595.6875"/><line style="stroke: #A80036; stroke-width: 1.0; stroke-dasharray: 5.0,5.0;" x1="862.5" x2="862.5" y1="38.2969" y2="595.6875"/><rect fill="#FEFECE" filter="url(#f1riwjppuhy4dn)" height="30.2969" style="stroke: #A80036; stroke-width: 1.5;" width="41" x="8" y="3"/><text fill="#000000" font-family="sans-serif" font-size="14" lengthAdjust="spacingAndGlyphs" textLength="27" x="15" y="22.9951">Dev</text><rect fill="#FEFECE" filter="url(#f1riwjppuhy4dn)" height="30.2969" style="stroke: #A80036; stroke-width: 1.5;" width="41" x="8" y="594.6875"/><text fill="#000000" font-family="sans-serif" font-size="14" lengthAdjust="spacingAndGlyphs" textLength="27" x="15" y="614.6826">Dev</text><rect fill="#FEFECE" filter="url(#f1riwjppuhy4dn)" height="30.2969" style="stroke: #A80036; stroke-width: 1.5;" width="66" x="179.5" y="3"/><text fill="#000000" font-family="sans-serif" font-size="14" lengthAdjust="spacingAndGlyphs" textLength="52" x="186.5" y="22.9951">Dev API</text><rect fill="#FEFECE" filter="url(#f1riwjppuhy4dn)" height="30.2969" style="stroke: #A80036; stroke-width: 1.5;" width="66" x="179.5" y="594.6875"/><text fill="#000000" font-family="sans-serif" font-size="14" lengthAdjust="spacingAndGlyphs" textLength="52" x="186.5" y="614.6826">Dev API</text><rect fill="#FEFECE" filter="url(#f1riwjppuhy4dn)" height="30.2969" style="stroke: #A80036; stroke-width: 1.5;" width="100" x="346.5" y="3"/><text fill="#000000" font-family="sans-serif" font-size="14" lengthAdjust="spacingAndGlyphs" textLength="86" x="353.5" y="22.9951">Collector API</text><rect fill="#FEFECE" filter="url(#f1riwjppuhy4dn)" height="30.2969" style="stroke: #A80036; stroke-width: 1.5;" width="100" x="346.5" y="594.6875"/><text fill="#000000" font-family="sans-serif" font-size="14" lengthAdjust="spacingAndGlyphs" textLength="86" x="353.5" y="614.6826">Collector API</text><rect fill="#FEFECE" filter="url(#f1riwjppuhy4dn)" height="30.2969" style="stroke: #A80036; stroke-width: 1.5;" width="74" x="543.5" y="3"/><text fill="#000000" font-family="sans-serif" font-size="14" lengthAdjust="spacingAndGlyphs" textLength="60" x="550.5" y="22.9951">Manager</text><rect fill="#FEFECE" filter="url(#f1riwjppuhy4dn)" height="30.2969" style="stroke: #A80036; stroke-width: 1.5;" width="74" x="543.5" y="594.6875"/><text fill="#000000" font-family="sans-serif" font-size="14" lengthAdjust="spacingAndGlyphs" textLength="60" x="550.5" y="614.6826">Manager</text><rect fill="#FEFECE" filter="url(#f1riwjppuhy4dn)" height="30.2969" style="stroke: #A80036; stroke-width: 1.5;" width="82" x="695.5" y="3"/><text fill="#000000" font-family="sans-serif" font-size="14" lengthAdjust="spacingAndGlyphs" textLength="68" x="702.5" y="22.9951">Transpiler</text><rect fill="#FEFECE" filter="url(#f1riwjppuhy4dn)" height="30.2969" style="stroke: #A80036; stroke-width: 1.5;" width="82" x="695.5" y="594.6875"/><text fill="#000000" font-family="sans-serif" font-size="14" lengthAdjust="spacingAndGlyphs" textLength="68" x="702.5" y="614.6826">Transpiler</text><rect fill="#FEFECE" filter="url(#f1riwjppuhy4dn)" height="30.2969" style="stroke: #A80036; stroke-width: 1.5;" width="139" x="791.5" y="3"/><text fill="#000000" font-family="sans-serif" font-size="14" lengthAdjust="spacingAndGlyphs" textLength="125" x="798.5" y="22.9951">Collector directory</text><rect fill="#FEFECE" filter="url(#f1riwjppuhy4dn)" height="30.2969" style="stroke: #A80036; stroke-width: 1.5;" width="139" x="791.5" y="594.6875"/><text fill="#000000" font-family="sans-serif" font-size="14" lengthAdjust="spacingAndGlyphs" textLength="125" x="798.5" y="614.6826">Collector directory</text><polygon fill="#A80036" points="202.5,65.4297,212.5,69.4297,202.5,73.4297,206.5,69.4297" style="stroke: #A80036; stroke-width: 1.0;"/><line style="stroke: #A80036; stroke-width: 1.0;" x1="30.5" x2="208.5" y1="69.4297" y2="69.4297"/><text fill="#000000" font-family="sans-serif" font-size="13" lengthAdjust="spacingAndGlyphs" textLength="160" x="37.5" y="64.3638">add new collector as DSL</text><polygon fill="#A80036" points="386.5,94.5625,396.5,98.5625,386.5,102.5625,390.5,98.5625" style="stroke: #A80036; stroke-width: 1.0;"/><line style="stroke: #A80036; stroke-width: 1.0;" x1="214.5" x2="392.5" y1="98.5625" y2="98.5625"/><text fill="#000000" font-family="sans-serif" font-size="13" lengthAdjust="spacingAndGlyphs" textLength="160" x="221.5" y="93.4966">add new collector as DSL</text><polygon fill="#A80036" points="570.5,123.6953,580.5,127.6953,570.5,131.6953,574.5,127.6953" style="stroke: #A80036; stroke-width: 1.0;"/><line style="stroke: #A80036; stroke-width: 1.0;" x1="398.5" x2="576.5" y1="127.6953" y2="127.6953"/><text fill="#000000" font-family="sans-serif" font-size="13" lengthAdjust="spacingAndGlyphs" textLength="160" x="405.5" y="122.6294">add new collector as DSL</text><polygon fill="#A80036" points="726.5,152.8281,736.5,156.8281,726.5,160.8281,730.5,156.8281" style="stroke: #A80036; stroke-width: 1.0;"/><line style="stroke: #A80036; stroke-width: 1.0;" x1="582.5" x2="732.5" y1="156.8281" y2="156.8281"/><text fill="#000000" font-family="sans-serif" font-size="13" lengthAdjust="spacingAndGlyphs" textLength="113" x="589.5" y="151.7622">transpile collector</text><polygon fill="#A80036" points="593.5,181.9609,583.5,185.9609,593.5,189.9609,589.5,185.9609" style="stroke: #A80036; stroke-width: 1.0;"/><line style="stroke: #A80036; stroke-width: 1.0;" x1="587.5" x2="737.5" y1="185.9609" y2="185.9609"/><text fill="#000000" font-family="sans-serif" font-size="13" lengthAdjust="spacingAndGlyphs" textLength="121" x="599.5" y="180.895">transpiled collector</text><polygon fill="#A80036" points="851,211.0938,861,215.0938,851,219.0938,855,215.0938" style="stroke: #A80036; stroke-width: 1.0;"/><line style="stroke: #A80036; stroke-width: 1.0;" x1="582.5" x2="857" y1="215.0938" y2="215.0938"/><text fill="#000000" font-family="sans-serif" font-size="13" lengthAdjust="spacingAndGlyphs" textLength="118" x="589.5" y="210.0278">write DSL collector</text><polygon fill="#A80036" points="851,240.2266,861,244.2266,851,248.2266,855,244.2266" style="stroke: #A80036; stroke-width: 1.0;"/><line style="stroke: #A80036; stroke-width: 1.0;" x1="582.5" x2="857" y1="244.2266" y2="244.2266"/><text fill="#000000" font-family="sans-serif" font-size="13" lengthAdjust="spacingAndGlyphs" textLength="155" x="589.5" y="239.1606">write transpiled collector</text><polygon fill="#A80036" points="409.5,269.3594,399.5,273.3594,409.5,277.3594,405.5,273.3594" style="stroke: #A80036; stroke-width: 1.0;"/><line style="stroke: #A80036; stroke-width: 1.0;" x1="403.5" x2="581.5" y1="273.3594" y2="273.3594"/><text fill="#000000" font-family="sans-serif" font-size="13" lengthAdjust="spacingAndGlyphs" textLength="98" x="415.5" y="268.2935">added collector</text><polygon fill="#A80036" points="225.5,298.4922,215.5,302.4922,225.5,306.4922,221.5,302.4922" style="stroke: #A80036; stroke-width: 1.0;"/><line style="stroke: #A80036; stroke-width: 1.0;" x1="219.5" x2="397.5" y1="302.4922" y2="302.4922"/><text fill="#000000" font-family="sans-serif" font-size="13" lengthAdjust="spacingAndGlyphs" textLength="15" x="231.5" y="297.4263">ok</text><polygon fill="#A80036" points="41.5,327.625,31.5,331.625,41.5,335.625,37.5,331.625" style="stroke: #A80036; stroke-width: 1.0;"/><line style="stroke: #A80036; stroke-width: 1.0;" x1="35.5" x2="213.5" y1="331.625" y2="331.625"/><text fill="#000000" font-family="sans-serif" font-size="13" lengthAdjust="spacingAndGlyphs" textLength="15" x="47.5" y="326.5591">ok</text><polygon fill="#A80036" points="202.5,356.7578,212.5,360.7578,202.5,364.7578,206.5,360.7578" style="stroke: #A80036; stroke-width: 1.0;"/><line style="stroke: #A80036; stroke-width: 1.0;" x1="30.5" x2="208.5" y1="360.7578" y2="360.7578"/><text fill="#000000" font-family="sans-serif" font-size="13" lengthAdjust="spacingAndGlyphs" textLength="88" x="37.5" y="355.6919">start collector</text><polygon fill="#A80036" points="386.5,385.8906,396.5,389.8906,386.5,393.8906,390.5,389.8906" style="stroke: #A80036; stroke-width: 1.0;"/><line style="stroke: #A80036; stroke-width: 1.0;" x1="214.5" x2="392.5" y1="389.8906" y2="389.8906"/><text fill="#000000" font-family="sans-serif" font-size="13" lengthAdjust="spacingAndGlyphs" textLength="88" x="221.5" y="384.8247">start collector</text><polygon fill="#A80036" points="570.5,415.0234,580.5,419.0234,570.5,423.0234,574.5,419.0234" style="stroke: #A80036; stroke-width: 1.0;"/><line style="stroke: #A80036; stroke-width: 1.0;" x1="398.5" x2="576.5" y1="419.0234" y2="419.0234"/><text fill="#000000" font-family="sans-serif" font-size="13" lengthAdjust="spacingAndGlyphs" textLength="88" x="405.5" y="413.9575">start collector</text><polygon fill="#A80036" points="851,444.1563,861,448.1563,851,452.1563,855,448.1563" style="stroke: #A80036; stroke-width: 1.0;"/><line style="stroke: #A80036; stroke-width: 1.0;" x1="582.5" x2="857" y1="448.1563" y2="448.1563"/><text fill="#000000" font-family="sans-serif" font-size="13" lengthAdjust="spacingAndGlyphs" textLength="87" x="589.5" y="443.0903">read collector</text><line style="stroke: #A80036; stroke-width: 1.0;" x1="582.5" x2="624.5" y1="477.2891" y2="477.2891"/><line style="stroke: #A80036; stroke-width: 1.0;" x1="624.5" x2="624.5" y1="477.2891" y2="490.2891"/><line style="stroke: #A80036; stroke-width: 1.0;" x1="583.5" x2="624.5" y1="490.2891" y2="490.2891"/><polygon fill="#A80036" points="593.5,486.2891,583.5,490.2891,593.5,494.2891,589.5,490.2891" style="stroke: #A80036; stroke-width: 1.0;"/><text fill="#000000" font-family="sans-serif" font-size="13" lengthAdjust="spacingAndGlyphs" textLength="142" x="589.5" y="472.2231">start collector process</text><polygon fill="#A80036" points="409.5,515.4219,399.5,519.4219,409.5,523.4219,405.5,519.4219" style="stroke: #A80036; stroke-width: 1.0;"/><line style="stroke: #A80036; stroke-width: 1.0;" x1="403.5" x2="581.5" y1="519.4219" y2="519.4219"/><text fill="#000000" font-family="sans-serif" font-size="13" lengthAdjust="spacingAndGlyphs" textLength="104" x="415.5" y="514.356">started collector</text><polygon fill="#A80036" points="225.5,544.5547,215.5,548.5547,225.5,552.5547,221.5,548.5547" style="stroke: #A80036; stroke-width: 1.0;"/><line style="stroke: #A80036; stroke-width: 1.0;" x1="219.5" x2="397.5" y1="548.5547" y2="548.5547"/><text fill="#000000" font-family="sans-serif" font-size="13" lengthAdjust="spacingAndGlyphs" textLength="15" x="231.5" y="543.4888">ok</text><polygon fill="#A80036" points="41.5,573.6875,31.5,577.6875,41.5,581.6875,37.5,577.6875" style="stroke: #A80036; stroke-width: 1.0;"/><line style="stroke: #A80036; stroke-width: 1.0;" x1="35.5" x2="213.5" y1="577.6875" y2="577.6875"/><text fill="#000000" font-family="sans-serif" font-size="13" lengthAdjust="spacingAndGlyphs" textLength="15" x="47.5" y="572.6216">ok</text></g></svg>