<?xml version="1.0" encoding="UTF-8" standalone="no"?><svg xmlns="http://www.w3.org/2000/svg" xmlns:xlink="http://www.w3.org/1999/xlink" contentScriptType="application/ecmascript" contentStyleType="text/css" height="1437px" preserveAspectRatio="none" style="width:1983px;height:1437px;" version="1.1" viewBox="0 0 1983 1437" width="1983px" zoomAndPan="magnify"><defs><filter height="300%" id="f1l7dllmuzrnqj" width="300%" x="-1" y="-1"><feGaussianBlur result="blurOut" stdDeviation="2.0"/><feColorMatrix in="blurOut" result="blurOut2" type="matrix" values="0 0 0 0 0 0 0 0 0 0 0 0 0 0 0 0 0 0 .4 0"/><feOffset dx="4.0" dy="4.0" in="blurOut2" result="blurOut3"/><feBlend in="SourceGraphic" in2="blurOut3" mode="normal"/></filter></defs><g><text fill="#000000" font-family="sans-serif" font-size="14" font-weight="bold" lengthAdjust="spacingAndGlyphs" textLength="318" x="833" y="22.9951">PV: Computing overview and resort info</text><line style="stroke: #A80036; stroke-width: 1.0; stroke-dasharray: 5.0,5.0;" x1="42" x2="42" y1="68.5938" y2="1396.9063"/><line style="stroke: #A80036; stroke-width: 1.0; stroke-dasharray: 5.0,5.0;" x1="211.5" x2="211.5" y1="68.5938" y2="1396.9063"/><line style="stroke: #A80036; stroke-width: 1.0; stroke-dasharray: 5.0,5.0;" x1="414.5" x2="414.5" y1="68.5938" y2="1396.9063"/><line style="stroke: #A80036; stroke-width: 1.0; stroke-dasharray: 5.0,5.0;" x1="590.5" x2="590.5" y1="68.5938" y2="1396.9063"/><line style="stroke: #A80036; stroke-width: 1.0; stroke-dasharray: 5.0,5.0;" x1="750.5" x2="750.5" y1="68.5938" y2="1396.9063"/><line style="stroke: #A80036; stroke-width: 1.0; stroke-dasharray: 5.0,5.0;" x1="909.5" x2="909.5" y1="68.5938" y2="1396.9063"/><line style="stroke: #A80036; stroke-width: 1.0; stroke-dasharray: 5.0,5.0;" x1="1057" x2="1057" y1="68.5938" y2="1396.9063"/><line style="stroke: #A80036; stroke-width: 1.0; stroke-dasharray: 5.0,5.0;" x1="1215" x2="1215" y1="68.5938" y2="1396.9063"/><line style="stroke: #A80036; stroke-width: 1.0; stroke-dasharray: 5.0,5.0;" x1="1455" x2="1455" y1="68.5938" y2="1396.9063"/><line style="stroke: #A80036; stroke-width: 1.0; stroke-dasharray: 5.0,5.0;" x1="1676" x2="1676" y1="68.5938" y2="1396.9063"/><line style="stroke: #A80036; stroke-width: 1.0; stroke-dasharray: 5.0,5.0;" x1="1786" x2="1786" y1="68.5938" y2="1396.9063"/><line style="stroke: #A80036; stroke-width: 1.0; stroke-dasharray: 5.0,5.0;" x1="1903" x2="1903" y1="68.5938" y2="1396.9063"/><rect fill="#FEFECE" filter="url(#f1l7dllmuzrnqj)" height="30.2969" style="stroke: #A80036; stroke-width: 1.5;" width="64" x="8" y="33.2969"/><text fill="#000000" font-family="sans-serif" font-size="14" lengthAdjust="spacingAndGlyphs" textLength="50" x="15" y="53.292">Service</text><rect fill="#FEFECE" filter="url(#f1l7dllmuzrnqj)" height="30.2969" style="stroke: #A80036; stroke-width: 1.5;" width="64" x="8" y="1395.9063"/><text fill="#000000" font-family="sans-serif" font-size="14" lengthAdjust="spacingAndGlyphs" textLength="50" x="15" y="1415.9014">Service</text><rect fill="#FEFECE" filter="url(#f1l7dllmuzrnqj)" height="30.2969" style="stroke: #A80036; stroke-width: 1.5;" width="127" x="146.5" y="33.2969"/><text fill="#000000" font-family="sans-serif" font-size="14" lengthAdjust="spacingAndGlyphs" textLength="113" x="153.5" y="53.292">Data Aggregator</text><rect fill="#FEFECE" filter="url(#f1l7dllmuzrnqj)" height="30.2969" style="stroke: #A80036; stroke-width: 1.5;" width="127" x="146.5" y="1395.9063"/><text fill="#000000" font-family="sans-serif" font-size="14" lengthAdjust="spacingAndGlyphs" textLength="113" x="153.5" y="1415.9014">Data Aggregator</text><rect fill="#FEFECE" filter="url(#f1l7dllmuzrnqj)" height="30.2969" style="stroke: #A80036; stroke-width: 1.5;" width="187" x="319.5" y="33.2969"/><text fill="#000000" font-family="sans-serif" font-size="14" lengthAdjust="spacingAndGlyphs" textLength="173" x="326.5" y="53.292">Snow Condition Collector</text><rect fill="#FEFECE" filter="url(#f1l7dllmuzrnqj)" height="30.2969" style="stroke: #A80036; stroke-width: 1.5;" width="187" x="319.5" y="1395.9063"/><text fill="#000000" font-family="sans-serif" font-size="14" lengthAdjust="spacingAndGlyphs" textLength="173" x="326.5" y="1415.9014">Snow Condition Collector</text><rect fill="#FEFECE" filter="url(#f1l7dllmuzrnqj)" height="30.2969" style="stroke: #A80036; stroke-width: 1.5;" width="137" x="520.5" y="33.2969"/><text fill="#000000" font-family="sans-serif" font-size="14" lengthAdjust="spacingAndGlyphs" textLength="123" x="527.5" y="53.292">Weather Collector</text><rect fill="#FEFECE" filter="url(#f1l7dllmuzrnqj)" height="30.2969" style="stroke: #A80036; stroke-width: 1.5;" width="137" x="520.5" y="1395.9063"/><text fill="#000000" font-family="sans-serif" font-size="14" lengthAdjust="spacingAndGlyphs" textLength="123" x="527.5" y="1415.9014">Weather Collector</text><rect fill="#FEFECE" filter="url(#f1l7dllmuzrnqj)" height="30.2969" style="stroke: #A80036; stroke-width: 1.5;" width="154" x="671.5" y="33.2969"/><text fill="#000000" font-family="sans-serif" font-size="14" lengthAdjust="spacingAndGlyphs" textLength="140" x="678.5" y="53.292">Resort Info Collector</text><rect fill="#FEFECE" filter="url(#f1l7dllmuzrnqj)" height="30.2969" style="stroke: #A80036; stroke-width: 1.5;" width="154" x="671.5" y="1395.9063"/><text fill="#000000" font-family="sans-serif" font-size="14" lengthAdjust="spacingAndGlyphs" textLength="140" x="678.5" y="1415.9014">Resort Info Collector</text><rect fill="#FEFECE" filter="url(#f1l7dllmuzrnqj)" height="30.2969" style="stroke: #A80036; stroke-width: 1.5;" width="137" x="839.5" y="33.2969"/><text fill="#000000" font-family="sans-serif" font-size="14" lengthAdjust="spacingAndGlyphs" textLength="123" x="846.5" y="53.292">Geo Info Collector</text><rect fill="#FEFECE" filter="url(#f1l7dllmuzrnqj)" height="30.2969" style="stroke: #A80036; stroke-width: 1.5;" width="137" x="839.5" y="1395.9063"/><text fill="#000000" font-family="sans-serif" font-size="14" lengthAdjust="spacingAndGlyphs" textLength="123" x="846.5" y="1415.9014">Geo Info Collector</text><rect fill="#FEFECE" filter="url(#f1l7dllmuzrnqj)" height="30.2969" style="stroke: #A80036; stroke-width: 1.5;" width="126" x="992" y="33.2969"/><text fill="#000000" font-family="sans-serif" font-size="14" lengthAdjust="spacingAndGlyphs" textLength="112" x="999" y="53.292">onthesnow.com</text><rect fill="#FEFECE" filter="url(#f1l7dllmuzrnqj)" height="30.2969" style="stroke: #A80036; stroke-width: 1.5;" width="126" x="992" y="1395.9063"/><text fill="#000000" font-family="sans-serif" font-size="14" lengthAdjust="spacingAndGlyphs" textLength="112" x="999" y="1415.9014">onthesnow.com</text><rect fill="#FEFECE" filter="url(#f1l7dllmuzrnqj)" height="30.2969" style="stroke: #A80036; stroke-width: 1.5;" width="163" x="1132" y="33.2969"/><text fill="#000000" font-family="sans-serif" font-size="14" lengthAdjust="spacingAndGlyphs" textLength="149" x="1139" y="53.292">openweathermap.org</text><rect fill="#FEFECE" filter="url(#f1l7dllmuzrnqj)" height="30.2969" style="stroke: #A80036; stroke-width: 1.5;" width="163" x="1132" y="1395.9063"/><text fill="#000000" font-family="sans-serif" font-size="14" lengthAdjust="spacingAndGlyphs" textLength="149" x="1139" y="1415.9014">openweathermap.org</text><rect fill="#FEFECE" filter="url(#f1l7dllmuzrnqj)" height="30.2969" style="stroke: #A80036; stroke-width: 1.5;" width="288" x="1309" y="33.2969"/><text fill="#000000" font-family="sans-serif" font-size="14" lengthAdjust="spacingAndGlyphs" textLength="274" x="1316" y="53.292">rapidapi.com/ski-resorts-and-conditions</text><rect fill="#FEFECE" filter="url(#f1l7dllmuzrnqj)" height="30.2969" style="stroke: #A80036; stroke-width: 1.5;" width="288" x="1309" y="1395.9063"/><text fill="#000000" font-family="sans-serif" font-size="14" lengthAdjust="spacingAndGlyphs" textLength="274" x="1316" y="1415.9014">rapidapi.com/ski-resorts-and-conditions</text><rect fill="#FEFECE" filter="url(#f1l7dllmuzrnqj)" height="30.2969" style="stroke: #A80036; stroke-width: 1.5;" width="127" x="1611" y="33.2969"/><text fill="#000000" font-family="sans-serif" font-size="14" lengthAdjust="spacingAndGlyphs" textLength="113" x="1618" y="53.292">geo data source</text><rect fill="#FEFECE" filter="url(#f1l7dllmuzrnqj)" height="30.2969" style="stroke: #A80036; stroke-width: 1.5;" width="127" x="1611" y="1395.9063"/><text fill="#000000" font-family="sans-serif" font-size="14" lengthAdjust="spacingAndGlyphs" textLength="113" x="1618" y="1415.9014">geo data source</text><rect fill="#FEFECE" filter="url(#f1l7dllmuzrnqj)" height="30.2969" style="stroke: #A80036; stroke-width: 1.5;" width="64" x="1752" y="33.2969"/><text fill="#000000" font-family="sans-serif" font-size="14" lengthAdjust="spacingAndGlyphs" textLength="50" x="1759" y="53.292">info DB</text><rect fill="#FEFECE" filter="url(#f1l7dllmuzrnqj)" height="30.2969" style="stroke: #A80036; stroke-width: 1.5;" width="64" x="1752" y="1395.9063"/><text fill="#000000" font-family="sans-serif" font-size="14" lengthAdjust="spacingAndGlyphs" textLength="50" x="1759" y="1415.9014">info DB</text><rect fill="#FEFECE" filter="url(#f1l7dllmuzrnqj)" height="30.2969" style="stroke: #A80036; stroke-width: 1.5;" width="142" x="1830" y="33.2969"/><text fill="#000000" font-family="sans-serif" font-size="14" lengthAdjust="spacingAndGlyphs" textLength="128" x="1837" y="53.292">cache repositories</text><rect fill="#FEFECE" filter="url(#f1l7dllmuzrnqj)" height="30.2969" style="stroke: #A80036; stroke-width: 1.5;" width="142" x="1830" y="1395.9063"/><text fill="#000000" font-family="sans-serif" font-size="14" lengthAdjust="spacingAndGlyphs" textLength="128" x="1837" y="1415.9014">cache repositories</text><line style="stroke: #A80036; stroke-width: 1.0;" x1="212" x2="254" y1="99.7266" y2="99.7266"/><line style="stroke: #A80036; stroke-width: 1.0;" x1="254" x2="254" y1="99.7266" y2="112.7266"/><line style="stroke: #A80036; stroke-width: 1.0;" x1="213" x2="254" y1="112.7266" y2="112.7266"/><polygon fill="#A80036" points="223,108.7266,213,112.7266,223,116.7266,219,112.7266" style="stroke: #A80036; stroke-width: 1.0;"/><text fill="#000000" font-family="sans-serif" font-size="13" lengthAdjust="spacingAndGlyphs" textLength="107" x="219" y="94.6606">set update timer</text><line style="stroke: #A80036; stroke-width: 1.0;" x1="415" x2="457" y1="141.8594" y2="141.8594"/><line style="stroke: #A80036; stroke-width: 1.0;" x1="457" x2="457" y1="141.8594" y2="154.8594"/><line style="stroke: #A80036; stroke-width: 1.0;" x1="416" x2="457" y1="154.8594" y2="154.8594"/><polygon fill="#A80036" points="426,150.8594,416,154.8594,426,158.8594,422,154.8594" style="stroke: #A80036; stroke-width: 1.0;"/><text fill="#000000" font-family="sans-serif" font-size="13" lengthAdjust="spacingAndGlyphs" textLength="107" x="422" y="136.7935">set update timer</text><line style="stroke: #A80036; stroke-width: 1.0;" x1="591" x2="633" y1="183.9922" y2="183.9922"/><line style="stroke: #A80036; stroke-width: 1.0;" x1="633" x2="633" y1="183.9922" y2="196.9922"/><line style="stroke: #A80036; stroke-width: 1.0;" x1="592" x2="633" y1="196.9922" y2="196.9922"/><polygon fill="#A80036" points="602,192.9922,592,196.9922,602,200.9922,598,196.9922" style="stroke: #A80036; stroke-width: 1.0;"/><text fill="#000000" font-family="sans-serif" font-size="13" lengthAdjust="spacingAndGlyphs" textLength="107" x="598" y="178.9263">set update timer</text><line style="stroke: #A80036; stroke-width: 1.0;" x1="750.5" x2="792.5" y1="226.125" y2="226.125"/><line style="stroke: #A80036; stroke-width: 1.0;" x1="792.5" x2="792.5" y1="226.125" y2="239.125"/><line style="stroke: #A80036; stroke-width: 1.0;" x1="751.5" x2="792.5" y1="239.125" y2="239.125"/><polygon fill="#A80036" points="761.5,235.125,751.5,239.125,761.5,243.125,757.5,239.125" style="stroke: #A80036; stroke-width: 1.0;"/><text fill="#000000" font-family="sans-serif" font-size="13" lengthAdjust="spacingAndGlyphs" textLength="107" x="757.5" y="221.0591">set update timer</text><line style="stroke: #A80036; stroke-width: 1.0;" x1="910" x2="952" y1="268.2578" y2="268.2578"/><line style="stroke: #A80036; stroke-width: 1.0;" x1="952" x2="952" y1="268.2578" y2="281.2578"/><line style="stroke: #A80036; stroke-width: 1.0;" x1="911" x2="952" y1="281.2578" y2="281.2578"/><polygon fill="#A80036" points="921,277.2578,911,281.2578,921,285.2578,917,281.2578" style="stroke: #A80036; stroke-width: 1.0;"/><text fill="#000000" font-family="sans-serif" font-size="13" lengthAdjust="spacingAndGlyphs" textLength="107" x="917" y="263.1919">set update timer</text><line style="stroke: #A80036; stroke-width: 1.0;" x1="415" x2="457" y1="310.3906" y2="310.3906"/><line style="stroke: #A80036; stroke-width: 1.0;" x1="457" x2="457" y1="310.3906" y2="323.3906"/><line style="stroke: #A80036; stroke-width: 1.0;" x1="416" x2="457" y1="323.3906" y2="323.3906"/><polygon fill="#A80036" points="426,319.3906,416,323.3906,426,327.3906,422,323.3906" style="stroke: #A80036; stroke-width: 1.0;"/><text fill="#000000" font-family="sans-serif" font-size="13" lengthAdjust="spacingAndGlyphs" textLength="133" x="422" y="305.3247">update timer expires</text><polygon fill="#A80036" points="1203.5,348.5234,1213.5,352.5234,1203.5,356.5234,1207.5,352.5234" style="stroke: #A80036; stroke-width: 1.0;"/><line style="stroke: #A80036; stroke-width: 1.0;" x1="415" x2="1209.5" y1="352.5234" y2="352.5234"/><text fill="#000000" font-family="sans-serif" font-size="13" lengthAdjust="spacingAndGlyphs" textLength="282" x="422" y="347.4575">GET rapidapi.com/ski-resorts-and-conditions</text><polygon fill="#A80036" points="426,377.6563,416,381.6563,426,385.6563,422,381.6563" style="stroke: #A80036; stroke-width: 1.0;"/><line style="stroke: #A80036; stroke-width: 1.0;" x1="420" x2="1214.5" y1="381.6563" y2="381.6563"/><text fill="#000000" font-family="sans-serif" font-size="13" lengthAdjust="spacingAndGlyphs" textLength="29" x="432" y="376.5903">data</text><polygon fill="#A80036" points="1045,406.7891,1055,410.7891,1045,414.7891,1049,410.7891" style="stroke: #A80036; stroke-width: 1.0;"/><line style="stroke: #A80036; stroke-width: 1.0;" x1="415" x2="1051" y1="410.7891" y2="410.7891"/><text fill="#000000" font-family="sans-serif" font-size="13" lengthAdjust="spacingAndGlyphs" textLength="130" x="422" y="405.7231">GET onthesnow.com</text><polygon fill="#A80036" points="426,435.9219,416,439.9219,426,443.9219,422,439.9219" style="stroke: #A80036; stroke-width: 1.0;"/><line style="stroke: #A80036; stroke-width: 1.0;" x1="420" x2="1056" y1="439.9219" y2="439.9219"/><text fill="#000000" font-family="sans-serif" font-size="13" lengthAdjust="spacingAndGlyphs" textLength="29" x="432" y="434.856">data</text><polygon fill="#A80036" points="1774,465.0547,1784,469.0547,1774,473.0547,1778,469.0547" style="stroke: #A80036; stroke-width: 1.0;"/><line style="stroke: #A80036; stroke-width: 1.0;" x1="415" x2="1780" y1="469.0547" y2="469.0547"/><text fill="#000000" font-family="sans-serif" font-size="13" lengthAdjust="spacingAndGlyphs" textLength="132" x="422" y="463.9888">PUT  processed data</text><line style="stroke: #A80036; stroke-width: 1.0;" x1="591" x2="633" y1="498.1875" y2="498.1875"/><line style="stroke: #A80036; stroke-width: 1.0;" x1="633" x2="633" y1="498.1875" y2="511.1875"/><line style="stroke: #A80036; stroke-width: 1.0;" x1="592" x2="633" y1="511.1875" y2="511.1875"/><polygon fill="#A80036" points="602,507.1875,592,511.1875,602,515.1875,598,511.1875" style="stroke: #A80036; stroke-width: 1.0;"/><text fill="#000000" font-family="sans-serif" font-size="13" lengthAdjust="spacingAndGlyphs" textLength="133" x="598" y="493.1216">update timer expires</text><polygon fill="#A80036" points="1774,536.3203,1784,540.3203,1774,544.3203,1778,540.3203" style="stroke: #A80036; stroke-width: 1.0;"/><line style="stroke: #A80036; stroke-width: 1.0;" x1="591" x2="1780" y1="540.3203" y2="540.3203"/><text fill="#000000" font-family="sans-serif" font-size="13" lengthAdjust="spacingAndGlyphs" textLength="225" x="598" y="535.2544">GET elasticURL/resortIndex/_search</text><polygon fill="#A80036" points="602,565.4531,592,569.4531,602,573.4531,598,569.4531" style="stroke: #A80036; stroke-width: 1.0;"/><line style="stroke: #A80036; stroke-width: 1.0;" x1="596" x2="1785" y1="569.4531" y2="569.4531"/><text fill="#000000" font-family="sans-serif" font-size="13" lengthAdjust="spacingAndGlyphs" textLength="29" x="608" y="564.3872">data</text><polygon fill="#A80036" points="1045,594.5859,1055,598.5859,1045,602.5859,1049,598.5859" style="stroke: #A80036; stroke-width: 1.0;"/><line style="stroke: #A80036; stroke-width: 1.0;" x1="591" x2="1051" y1="598.5859" y2="598.5859"/><text fill="#000000" font-family="sans-serif" font-size="13" lengthAdjust="spacingAndGlyphs" textLength="304" x="598" y="593.52">GET openweathermap.org (for the resort areas)</text><polygon fill="#A80036" points="602,623.7188,592,627.7188,602,631.7188,598,627.7188" style="stroke: #A80036; stroke-width: 1.0;"/><line style="stroke: #A80036; stroke-width: 1.0;" x1="596" x2="1056" y1="627.7188" y2="627.7188"/><text fill="#000000" font-family="sans-serif" font-size="13" lengthAdjust="spacingAndGlyphs" textLength="29" x="608" y="622.6528">data</text><polygon fill="#A80036" points="1774,652.8516,1784,656.8516,1774,660.8516,1778,656.8516" style="stroke: #A80036; stroke-width: 1.0;"/><line style="stroke: #A80036; stroke-width: 1.0;" x1="591" x2="1780" y1="656.8516" y2="656.8516"/><text fill="#000000" font-family="sans-serif" font-size="13" lengthAdjust="spacingAndGlyphs" textLength="132" x="598" y="651.7856">PUT  processed data</text><line style="stroke: #A80036; stroke-width: 1.0;" x1="750.5" x2="792.5" y1="685.9844" y2="685.9844"/><line style="stroke: #A80036; stroke-width: 1.0;" x1="792.5" x2="792.5" y1="685.9844" y2="698.9844"/><line style="stroke: #A80036; stroke-width: 1.0;" x1="751.5" x2="792.5" y1="698.9844" y2="698.9844"/><polygon fill="#A80036" points="761.5,694.9844,751.5,698.9844,761.5,702.9844,757.5,698.9844" style="stroke: #A80036; stroke-width: 1.0;"/><text fill="#000000" font-family="sans-serif" font-size="13" lengthAdjust="spacingAndGlyphs" textLength="133" x="757.5" y="680.9185">update timer expires</text><polygon fill="#A80036" points="1203.5,724.1172,1213.5,728.1172,1203.5,732.1172,1207.5,728.1172" style="stroke: #A80036; stroke-width: 1.0;"/><line style="stroke: #A80036; stroke-width: 1.0;" x1="750.5" x2="1209.5" y1="728.1172" y2="728.1172"/><text fill="#000000" font-family="sans-serif" font-size="13" lengthAdjust="spacingAndGlyphs" textLength="282" x="757.5" y="723.0513">GET rapidapi.com/ski-resorts-and-conditions</text><polygon fill="#A80036" points="761.5,753.25,751.5,757.25,761.5,761.25,757.5,757.25" style="stroke: #A80036; stroke-width: 1.0;"/><line style="stroke: #A80036; stroke-width: 1.0;" x1="755.5" x2="1214.5" y1="757.25" y2="757.25"/><text fill="#000000" font-family="sans-serif" font-size="13" lengthAdjust="spacingAndGlyphs" textLength="29" x="767.5" y="752.1841">data</text><polygon fill="#A80036" points="1774,782.3828,1784,786.3828,1774,790.3828,1778,786.3828" style="stroke: #A80036; stroke-width: 1.0;"/><line style="stroke: #A80036; stroke-width: 1.0;" x1="750.5" x2="1780" y1="786.3828" y2="786.3828"/><text fill="#000000" font-family="sans-serif" font-size="13" lengthAdjust="spacingAndGlyphs" textLength="132" x="757.5" y="781.3169">PUT  processed data</text><line style="stroke: #A80036; stroke-width: 1.0;" x1="212" x2="254" y1="815.5156" y2="815.5156"/><line style="stroke: #A80036; stroke-width: 1.0;" x1="254" x2="254" y1="815.5156" y2="828.5156"/><line style="stroke: #A80036; stroke-width: 1.0;" x1="213" x2="254" y1="828.5156" y2="828.5156"/><polygon fill="#A80036" points="223,824.5156,213,828.5156,223,832.5156,219,828.5156" style="stroke: #A80036; stroke-width: 1.0;"/><text fill="#000000" font-family="sans-serif" font-size="13" lengthAdjust="spacingAndGlyphs" textLength="133" x="219" y="810.4497">update timer expires</text><polygon fill="#A80036" points="1774,853.6484,1784,857.6484,1774,861.6484,1778,857.6484" style="stroke: #A80036; stroke-width: 1.0;"/><line style="stroke: #A80036; stroke-width: 1.0;" x1="212" x2="1780" y1="857.6484" y2="857.6484"/><text fill="#000000" font-family="sans-serif" font-size="13" lengthAdjust="spacingAndGlyphs" textLength="225" x="219" y="852.5825">GET elasticURL/resortIndex/_search</text><polygon fill="#A80036" points="1774,882.7813,1784,886.7813,1774,890.7813,1778,886.7813" style="stroke: #A80036; stroke-width: 1.0;"/><line style="stroke: #A80036; stroke-width: 1.0;" x1="212" x2="1780" y1="886.7813" y2="886.7813"/><text fill="#000000" font-family="sans-serif" font-size="13" lengthAdjust="spacingAndGlyphs" textLength="211" x="219" y="881.7153">GET elasticURL/geoIndex/_search</text><polygon fill="#A80036" points="1774,911.9141,1784,915.9141,1774,919.9141,1778,915.9141" style="stroke: #A80036; stroke-width: 1.0;"/><line style="stroke: #A80036; stroke-width: 1.0;" x1="212" x2="1780" y1="915.9141" y2="915.9141"/><text fill="#000000" font-family="sans-serif" font-size="13" lengthAdjust="spacingAndGlyphs" textLength="238" x="219" y="910.8481">GET elasticURL/weatherIndex/_search</text><polygon fill="#A80036" points="1774,941.0469,1784,945.0469,1774,949.0469,1778,945.0469" style="stroke: #A80036; stroke-width: 1.0;"/><line style="stroke: #A80036; stroke-width: 1.0;" x1="212" x2="1780" y1="945.0469" y2="945.0469"/><text fill="#000000" font-family="sans-serif" font-size="13" lengthAdjust="spacingAndGlyphs" textLength="219" x="219" y="939.981">GET elasticURL/snowIndex/_search</text><line style="stroke: #A80036; stroke-width: 1.0;" x1="212" x2="254" y1="974.1797" y2="974.1797"/><line style="stroke: #A80036; stroke-width: 1.0;" x1="254" x2="254" y1="974.1797" y2="987.1797"/><line style="stroke: #A80036; stroke-width: 1.0;" x1="213" x2="254" y1="987.1797" y2="987.1797"/><polygon fill="#A80036" points="223,983.1797,213,987.1797,223,991.1797,219,987.1797" style="stroke: #A80036; stroke-width: 1.0;"/><text fill="#000000" font-family="sans-serif" font-size="13" lengthAdjust="spacingAndGlyphs" textLength="189" x="219" y="969.1138">aggreagate and process data</text><polygon fill="#A80036" points="1891,1012.3125,1901,1016.3125,1891,1020.3125,1895,1016.3125" style="stroke: #A80036; stroke-width: 1.0;"/><line style="stroke: #A80036; stroke-width: 1.0;" x1="212" x2="1897" y1="1016.3125" y2="1016.3125"/><text fill="#000000" font-family="sans-serif" font-size="13" lengthAdjust="spacingAndGlyphs" textLength="123" x="219" y="1011.2466">set data "GBL_ALL"</text><polygon fill="#A80036" points="1891,1041.4453,1901,1045.4453,1891,1049.4453,1895,1045.4453" style="stroke: #A80036; stroke-width: 1.0;"/><line style="stroke: #A80036; stroke-width: 1.0;" x1="212" x2="1897" y1="1045.4453" y2="1045.4453"/><text fill="#000000" font-family="sans-serif" font-size="13" lengthAdjust="spacingAndGlyphs" textLength="79" x="219" y="1040.3794">set data "..."</text><polygon fill="#A80036" points="1891,1070.5781,1901,1074.5781,1891,1078.5781,1895,1074.5781" style="stroke: #A80036; stroke-width: 1.0;"/><line style="stroke: #A80036; stroke-width: 1.0;" x1="212" x2="1897" y1="1074.5781" y2="1074.5781"/><text fill="#000000" font-family="sans-serif" font-size="13" lengthAdjust="spacingAndGlyphs" textLength="195" x="219" y="1069.5122">set data "RESORT_&lt;resortId&gt;"</text><line style="stroke: #A80036; stroke-width: 1.0;" x1="910" x2="952" y1="1103.7109" y2="1103.7109"/><line style="stroke: #A80036; stroke-width: 1.0;" x1="952" x2="952" y1="1103.7109" y2="1116.7109"/><line style="stroke: #A80036; stroke-width: 1.0;" x1="911" x2="952" y1="1116.7109" y2="1116.7109"/><polygon fill="#A80036" points="921,1112.7109,911,1116.7109,921,1120.7109,917,1116.7109" style="stroke: #A80036; stroke-width: 1.0;"/><text fill="#000000" font-family="sans-serif" font-size="13" lengthAdjust="spacingAndGlyphs" textLength="133" x="917" y="1098.645">update timer expires</text><polygon fill="#A80036" points="1664.5,1141.8438,1674.5,1145.8438,1664.5,1149.8438,1668.5,1145.8438" style="stroke: #A80036; stroke-width: 1.0;"/><line style="stroke: #A80036; stroke-width: 1.0;" x1="910" x2="1670.5" y1="1145.8438" y2="1145.8438"/><text fill="#000000" font-family="sans-serif" font-size="13" lengthAdjust="spacingAndGlyphs" textLength="91" x="917" y="1140.7778">query geo info</text><polygon fill="#A80036" points="921,1170.9766,911,1174.9766,921,1178.9766,917,1174.9766" style="stroke: #A80036; stroke-width: 1.0;"/><line style="stroke: #A80036; stroke-width: 1.0;" x1="915" x2="1675.5" y1="1174.9766" y2="1174.9766"/><text fill="#000000" font-family="sans-serif" font-size="13" lengthAdjust="spacingAndGlyphs" textLength="29" x="927" y="1169.9106">data</text><polygon fill="#A80036" points="1774,1200.1094,1784,1204.1094,1774,1208.1094,1778,1204.1094" style="stroke: #A80036; stroke-width: 1.0;"/><line style="stroke: #A80036; stroke-width: 1.0;" x1="910" x2="1780" y1="1204.1094" y2="1204.1094"/><text fill="#000000" font-family="sans-serif" font-size="13" lengthAdjust="spacingAndGlyphs" textLength="132" x="917" y="1199.0435">PUT  processed data</text><polygon fill="#A80036" points="200,1229.2422,210,1233.2422,200,1237.2422,204,1233.2422" style="stroke: #A80036; stroke-width: 1.0;"/><line style="stroke: #A80036; stroke-width: 1.0;" x1="42" x2="206" y1="1233.2422" y2="1233.2422"/><text fill="#000000" font-family="sans-serif" font-size="13" lengthAdjust="spacingAndGlyphs" textLength="146" x="49" y="1228.1763">getHeatMapOverview()</text><polygon fill="#A80036" points="1891,1258.375,1901,1262.375,1891,1266.375,1895,1262.375" style="stroke: #A80036; stroke-width: 1.0;"/><line style="stroke: #A80036; stroke-width: 1.0;" x1="212" x2="1897" y1="1262.375" y2="1262.375"/><text fill="#000000" font-family="sans-serif" font-size="13" lengthAdjust="spacingAndGlyphs" textLength="124" x="219" y="1257.3091">get data "GBL_ALL"</text><polygon fill="#A80036" points="53,1287.5078,43,1291.5078,53,1295.5078,49,1291.5078" style="stroke: #A80036; stroke-width: 1.0;"/><line style="stroke: #A80036; stroke-width: 1.0;" x1="47" x2="211" y1="1291.5078" y2="1291.5078"/><text fill="#000000" font-family="sans-serif" font-size="13" lengthAdjust="spacingAndGlyphs" textLength="29" x="59" y="1286.4419">data</text><polygon fill="#A80036" points="200,1316.6406,210,1320.6406,200,1324.6406,204,1320.6406" style="stroke: #A80036; stroke-width: 1.0;"/><line style="stroke: #A80036; stroke-width: 1.0;" x1="42" x2="206" y1="1320.6406" y2="1320.6406"/><text fill="#000000" font-family="sans-serif" font-size="13" lengthAdjust="spacingAndGlyphs" textLength="144" x="49" y="1315.5747">getResortInfo(resortId)</text><polygon fill="#A80036" points="1891,1345.7734,1901,1349.7734,1891,1353.7734,1895,1349.7734" style="stroke: #A80036; stroke-width: 1.0;"/><line style="stroke: #A80036; stroke-width: 1.0;" x1="212" x2="1897" y1="1349.7734" y2="1349.7734"/><text fill="#000000" font-family="sans-serif" font-size="13" lengthAdjust="spacingAndGlyphs" textLength="196" x="219" y="1344.7075">get data "RESORT_&lt;resortId&gt;"</text><polygon fill="#A80036" points="53,1374.9063,43,1378.9063,53,1382.9063,49,1378.9063" style="stroke: #A80036; stroke-width: 1.0;"/><line style="stroke: #A80036; stroke-width: 1.0;" x1="47" x2="211" y1="1378.9063" y2="1378.9063"/><text fill="#000000" font-family="sans-serif" font-size="13" lengthAdjust="spacingAndGlyphs" textLength="29" x="59" y="1373.8403">data</text></g></svg>