<?xml version="1.0" encoding="UTF-8" standalone="no"?><svg xmlns="http://www.w3.org/2000/svg" xmlns:xlink="http://www.w3.org/1999/xlink" contentScriptType="application/ecmascript" contentStyleType="text/css" height="366px" preserveAspectRatio="none" style="width:420px;height:366px;" version="1.1" viewBox="0 0 420 366" width="420px" zoomAndPan="magnify"><defs><filter height="300%" id="fxj8z64li7xmd" width="300%" x="-1" y="-1"><feGaussianBlur result="blurOut" stdDeviation="2.0"/><feColorMatrix in="blurOut" result="blurOut2" type="matrix" values="0 0 0 0 0 0 0 0 0 0 0 0 0 0 0 0 0 0 .4 0"/><feOffset dx="4.0" dy="4.0" in="blurOut2" result="blurOut3"/><feBlend in="SourceGraphic" in2="blurOut3" mode="normal"/></filter></defs><g><rect fill="#FFFFFF" filter="url(#fxj8z64li7xmd)" height="103" style="stroke: #000000; stroke-width: 1.5;" width="332" x="47" y="32"/><rect fill="#FFFFFF" height="10" style="stroke: #000000; stroke-width: 1.5;" width="15" x="359" y="37"/><rect fill="#FFFFFF" height="2" style="stroke: #000000; stroke-width: 1.5;" width="4" x="357" y="39"/><rect fill="#FFFFFF" height="2" style="stroke: #000000; stroke-width: 1.5;" width="4" x="357" y="43"/><text fill="#000000" font-family="sans-serif" font-size="14" font-weight="bold" lengthAdjust="spacingAndGlyphs" textLength="89" x="168.5" y="57.9951">Mobile_App</text><rect fill="#FEFECE" filter="url(#fxj8z64li7xmd)" height="36.2969" style="stroke: #A80036; stroke-width: 1.5;" width="116" x="239" y="75"/><rect fill="#FEFECE" height="5" style="stroke: #A80036; stroke-width: 1.5;" width="10" x="234" y="80"/><rect fill="#FEFECE" height="5" style="stroke: #A80036; stroke-width: 1.5;" width="10" x="234" y="101.2969"/><text fill="#000000" font-family="sans-serif" font-size="14" lengthAdjust="spacingAndGlyphs" textLength="96" x="249" y="97.9951">User Interface</text><rect fill="#FEFECE" filter="url(#fxj8z64li7xmd)" height="36.2969" style="stroke: #A80036; stroke-width: 1.5;" width="113" x="90.5" y="75"/><rect fill="#FEFECE" height="5" style="stroke: #A80036; stroke-width: 1.5;" width="10" x="85.5" y="80"/><rect fill="#FEFECE" height="5" style="stroke: #A80036; stroke-width: 1.5;" width="10" x="85.5" y="101.2969"/><text fill="#000000" font-family="sans-serif" font-size="14" lengthAdjust="spacingAndGlyphs" textLength="93" x="100.5" y="97.9951">Local Storage</text><rect fill="#FEFECE" filter="url(#fxj8z64li7xmd)" height="36.2969" style="stroke: #A80036; stroke-width: 1.5;" width="74" x="18" y="206"/><rect fill="#FEFECE" height="5" style="stroke: #A80036; stroke-width: 1.5;" width="10" x="13" y="211"/><rect fill="#FEFECE" height="5" style="stroke: #A80036; stroke-width: 1.5;" width="10" x="13" y="232.2969"/><text fill="#000000" font-family="sans-serif" font-size="14" lengthAdjust="spacingAndGlyphs" textLength="54" x="28" y="228.9951">Skip API</text><rect fill="#FEFECE" filter="url(#fxj8z64li7xmd)" height="36.2969" style="stroke: #A80036; stroke-width: 1.5;" width="70" x="150" y="206"/><rect fill="#FEFECE" height="5" style="stroke: #A80036; stroke-width: 1.5;" width="10" x="145" y="211"/><rect fill="#FEFECE" height="5" style="stroke: #A80036; stroke-width: 1.5;" width="10" x="145" y="232.2969"/><text fill="#000000" font-family="sans-serif" font-size="14" lengthAdjust="spacingAndGlyphs" textLength="50" x="160" y="228.9951">Service</text><rect fill="#FEFECE" filter="url(#fxj8z64li7xmd)" height="36.2969" style="stroke: #A80036; stroke-width: 1.5;" width="132" x="277" y="206"/><rect fill="#FEFECE" height="5" style="stroke: #A80036; stroke-width: 1.5;" width="10" x="272" y="211"/><rect fill="#FEFECE" height="5" style="stroke: #A80036; stroke-width: 1.5;" width="10" x="272" y="232.2969"/><text fill="#000000" font-family="sans-serif" font-size="14" lengthAdjust="spacingAndGlyphs" textLength="112" x="287" y="228.9951">User DB (mySql)</text><rect fill="#FEFECE" filter="url(#fxj8z64li7xmd)" height="36.2969" style="stroke: #A80036; stroke-width: 1.5;" width="172" x="6" y="319"/><rect fill="#FEFECE" height="5" style="stroke: #A80036; stroke-width: 1.5;" width="10" x="1" y="324"/><rect fill="#FEFECE" height="5" style="stroke: #A80036; stroke-width: 1.5;" width="10" x="1" y="345.2969"/><text fill="#000000" font-family="sans-serif" font-size="14" lengthAdjust="spacingAndGlyphs" textLength="152" x="16" y="341.9951">Info db (elasticsearch)</text><rect fill="#FEFECE" filter="url(#fxj8z64li7xmd)" height="36.2969" style="stroke: #A80036; stroke-width: 1.5;" width="132" x="213" y="319"/><rect fill="#FEFECE" height="5" style="stroke: #A80036; stroke-width: 1.5;" width="10" x="208" y="324"/><rect fill="#FEFECE" height="5" style="stroke: #A80036; stroke-width: 1.5;" width="10" x="208" y="345.2969"/><text fill="#000000" font-family="sans-serif" font-size="14" lengthAdjust="spacingAndGlyphs" textLength="112" x="223" y="341.9951">Data aggregator</text><path d="M55,135.454 C55,135.6247 55,135.7957 55,135.9669 C55,136.3094 55,136.6528 55,136.9971 C55,137.6858 55,138.3782 55,139.0739 C55,140.4653 55,141.87 55,143.2851 C55,146.1153 55,148.9868 55,151.8763 C55,157.6553 55,163.5059 55,169.24 C55,180.7081 55,191.71 55,200.74 " fill="none" id="APP-&gt;API" style="stroke: #A80036; stroke-width: 1.0;"/><polygon fill="#A80036" points="55,205.83,59,196.83,55,200.83,51,196.83,55,205.83" style="stroke: #A80036; stroke-width: 1.0;"/><text fill="#000000" font-family="sans-serif" font-size="13" lengthAdjust="spacingAndGlyphs" textLength="25" x="56" y="172.0669">web</text><path d="M92.25,224 C108.71,224 128.08,224 144.86,224 " fill="none" id="API-&gt;SERV1" style="stroke: #A80036; stroke-width: 1.0;"/><polygon fill="#A80036" points="149.97,224,140.97,220,144.97,224,140.97,228,149.97,224" style="stroke: #A80036; stroke-width: 1.0;"/><text fill="#000000" font-family="sans-serif" font-size="13" lengthAdjust="spacingAndGlyphs" textLength="21" x="110.5" y="217.0669">call</text><path d="M220.07,224 C235.36,224 253.87,224 271.83,224 " fill="none" id="SERV1-&gt;DB1" style="stroke: #A80036; stroke-width: 1.0;"/><polygon fill="#A80036" points="276.88,224,267.88,220,271.88,224,267.88,228,276.88,224" style="stroke: #A80036; stroke-width: 1.0;"/><text fill="#000000" font-family="sans-serif" font-size="13" lengthAdjust="spacingAndGlyphs" textLength="20" x="238.5" y="217.0669">rpc</text><path d="M170.47,242.34 C154.09,261.89 127.45,293.69 109.83,314.72 " fill="none" id="SERV1-&gt;DB2" style="stroke: #A80036; stroke-width: 1.0;"/><polygon fill="#A80036" points="106.43,318.78,115.2804,314.4591,109.645,314.9506,109.1534,309.3152,106.43,318.78" style="stroke: #A80036; stroke-width: 1.0;"/><text fill="#000000" font-family="sans-serif" font-size="13" lengthAdjust="spacingAndGlyphs" textLength="25" x="146" y="285.0669">web</text><path d="M199.69,242.34 C216.24,261.89 243.17,293.69 260.98,314.72 " fill="none" id="SERV1-&gt;DT" style="stroke: #A80036; stroke-width: 1.0;"/><polygon fill="#A80036" points="264.42,318.78,261.6585,309.3262,261.1896,314.9636,255.5523,314.4948,264.42,318.78" style="stroke: #A80036; stroke-width: 1.0;"/><text fill="#000000" font-family="sans-serif" font-size="13" lengthAdjust="spacingAndGlyphs" textLength="21" x="239" y="285.0669">call</text></g></svg>