<?xml version="1.0" encoding="UTF-8" standalone="no"?><svg xmlns="http://www.w3.org/2000/svg" xmlns:xlink="http://www.w3.org/1999/xlink" contentScriptType="application/ecmascript" contentStyleType="text/css" height="684px" preserveAspectRatio="none" style="width:4261px;height:684px;" version="1.1" viewBox="0 0 4261 684" width="4261px" zoomAndPan="magnify"><defs/><g><text fill="#000000" font-family="Courier" font-size="18" lengthAdjust="spacingAndGlyphs" textLength="132" x="2080" y="16.708">Logical View</text><rect fill="#FFFFFF" height="298" style="stroke: #000000; stroke-width: 1.5;" width="801" x="22" y="60.9531"/><rect fill="#FFFFFF" height="10" style="stroke: #000000; stroke-width: 1.5;" width="15" x="803" y="65.9531"/><rect fill="#FFFFFF" height="2" style="stroke: #000000; stroke-width: 1.5;" width="4" x="801" y="67.9531"/><rect fill="#FFFFFF" height="2" style="stroke: #000000; stroke-width: 1.5;" width="4" x="801" y="71.9531"/><text fill="#000000" font-family="Courier" font-size="14" font-weight="bold" lengthAdjust="spacingAndGlyphs" textLength="80" x="382.5" y="86.9482">Mobile App</text><rect fill="#FFFFFF" height="354" style="stroke: #000000; stroke-width: 1.5;" width="830" x="855" y="204.9531"/><rect fill="#FFFFFF" height="10" style="stroke: #000000; stroke-width: 1.5;" width="15" x="1665" y="209.9531"/><rect fill="#FFFFFF" height="2" style="stroke: #000000; stroke-width: 1.5;" width="4" x="1663" y="211.9531"/><rect fill="#FFFFFF" height="2" style="stroke: #000000; stroke-width: 1.5;" width="4" x="1663" y="215.9531"/><text fill="#000000" font-family="Courier" font-size="14" font-weight="bold" lengthAdjust="spacingAndGlyphs" textLength="128" x="1206" y="230.9482">Skip API service</text><rect fill="#FFFFFF" height="255" style="stroke: #000000; stroke-width: 1.5;" width="469" x="1176" y="263.9531"/><rect fill="#FFFFFF" height="10" style="stroke: #000000; stroke-width: 1.5;" width="15" x="1625" y="268.9531"/><rect fill="#FFFFFF" height="2" style="stroke: #000000; stroke-width: 1.5;" width="4" x="1623" y="270.9531"/><rect fill="#FFFFFF" height="2" style="stroke: #000000; stroke-width: 1.5;" width="4" x="1623" y="274.9531"/><text fill="#000000" font-family="Courier" font-size="14" font-weight="bold" lengthAdjust="spacingAndGlyphs" textLength="288" x="1266.5" y="289.9482">Skip API (Kotlin + Spring framework)</text><rect fill="#FFFFFF" height="410" style="stroke: #000000; stroke-width: 1.5;" width="188" x="2322" y="263.9531"/><rect fill="#FFFFFF" height="10" style="stroke: #000000; stroke-width: 1.5;" width="15" x="2490" y="268.9531"/><rect fill="#FFFFFF" height="2" style="stroke: #000000; stroke-width: 1.5;" width="4" x="2488" y="270.9531"/><rect fill="#FFFFFF" height="2" style="stroke: #000000; stroke-width: 1.5;" width="4" x="2488" y="274.9531"/><text fill="#000000" font-family="Courier" font-size="14" font-weight="bold" lengthAdjust="spacingAndGlyphs" textLength="152" x="2340" y="289.9482">Data Aggregator API</text><rect fill="#FFFFFF" height="410" style="stroke: #000000; stroke-width: 1.5;" width="442" x="2562" y="263.9531"/><rect fill="#FFFFFF" height="10" style="stroke: #000000; stroke-width: 1.5;" width="15" x="2984" y="268.9531"/><rect fill="#FFFFFF" height="2" style="stroke: #000000; stroke-width: 1.5;" width="4" x="2982" y="270.9531"/><rect fill="#FFFFFF" height="2" style="stroke: #000000; stroke-width: 1.5;" width="4" x="2982" y="274.9531"/><text fill="#000000" font-family="Courier" font-size="14" font-weight="bold" lengthAdjust="spacingAndGlyphs" textLength="144" x="2711" y="289.9482">Data Collector API</text><rect fill="#FFFFFF" height="255" style="stroke: #000000; stroke-width: 1.5;" width="243" x="3354" y="263.9531"/><rect fill="#FFFFFF" height="10" style="stroke: #000000; stroke-width: 1.5;" width="15" x="3577" y="268.9531"/><rect fill="#FFFFFF" height="2" style="stroke: #000000; stroke-width: 1.5;" width="4" x="3575" y="270.9531"/><rect fill="#FFFFFF" height="2" style="stroke: #000000; stroke-width: 1.5;" width="4" x="3575" y="274.9531"/><text fill="#000000" font-family="Courier" font-size="14" font-weight="bold" lengthAdjust="spacingAndGlyphs" textLength="56" x="3447.5" y="289.9482">Dev API</text><rect fill="#FFFFFF" height="103" style="stroke: #000000; stroke-width: 1.5;" width="368" x="3619" y="52.9531"/><rect fill="#FFFFFF" height="10" style="stroke: #000000; stroke-width: 1.5;" width="15" x="3967" y="57.9531"/><rect fill="#FFFFFF" height="2" style="stroke: #000000; stroke-width: 1.5;" width="4" x="3965" y="59.9531"/><rect fill="#FFFFFF" height="2" style="stroke: #000000; stroke-width: 1.5;" width="4" x="3965" y="63.9531"/><text fill="#000000" font-family="Courier" font-size="14" font-weight="bold" lengthAdjust="spacingAndGlyphs" textLength="72" x="3767" y="78.9482">Watchdogs</text><rect fill="#FFFFFF" height="258" style="stroke: #000000; stroke-width: 1.5;" width="462" x="3638" y="415.9531"/><rect fill="#FFFFFF" height="10" style="stroke: #000000; stroke-width: 1.5;" width="15" x="4080" y="420.9531"/><rect fill="#FFFFFF" height="2" style="stroke: #000000; stroke-width: 1.5;" width="4" x="4078" y="422.9531"/><rect fill="#FFFFFF" height="2" style="stroke: #000000; stroke-width: 1.5;" width="4" x="4078" y="426.9531"/><text fill="#000000" font-family="Courier" font-size="14" font-weight="bold" lengthAdjust="spacingAndGlyphs" textLength="368" x="3685" y="441.9482">Services collection to save arrows on this uml</text><rect fill="#FFFFFF" height="103" style="stroke: #000000; stroke-width: 1.5;" width="557" x="1725" y="415.9531"/><rect fill="#FFFFFF" height="10" style="stroke: #000000; stroke-width: 1.5;" width="15" x="2262" y="420.9531"/><rect fill="#FFFFFF" height="2" style="stroke: #000000; stroke-width: 1.5;" width="4" x="2260" y="422.9531"/><rect fill="#FFFFFF" height="2" style="stroke: #000000; stroke-width: 1.5;" width="4" x="2260" y="426.9531"/><text fill="#000000" font-family="Courier" font-size="14" font-weight="bold" lengthAdjust="spacingAndGlyphs" textLength="160" x="1923.5" y="441.9482">Info storage service</text><rect fill="#FFFFFF" height="103" style="stroke: #000000; stroke-width: 1.5;" width="557" x="3693" y="263.9531"/><rect fill="#FFFFFF" height="10" style="stroke: #000000; stroke-width: 1.5;" width="15" x="4230" y="268.9531"/><rect fill="#FFFFFF" height="2" style="stroke: #000000; stroke-width: 1.5;" width="4" x="4228" y="270.9531"/><rect fill="#FFFFFF" height="2" style="stroke: #000000; stroke-width: 1.5;" width="4" x="4228" y="274.9531"/><text fill="#000000" font-family="Courier" font-size="14" font-weight="bold" lengthAdjust="spacingAndGlyphs" textLength="160" x="3891.5" y="289.9482">User storage service</text><rect fill="#FFFFFF" height="258" style="stroke: #000000; stroke-width: 1.5;" width="270" x="3044" y="415.9531"/><rect fill="#FFFFFF" height="10" style="stroke: #000000; stroke-width: 1.5;" width="15" x="3294" y="420.9531"/><rect fill="#FFFFFF" height="2" style="stroke: #000000; stroke-width: 1.5;" width="4" x="3292" y="422.9531"/><rect fill="#FFFFFF" height="2" style="stroke: #000000; stroke-width: 1.5;" width="4" x="3292" y="426.9531"/><text fill="#000000" font-family="Courier" font-size="14" font-weight="bold" lengthAdjust="spacingAndGlyphs" textLength="96" x="3131" y="441.9482">External API</text><rect fill="#F8F8F8" height="36.2969" style="stroke: #383838; stroke-width: 1.5;" width="252" x="38" y="95.9531"/><rect fill="#F8F8F8" height="5" style="stroke: #383838; stroke-width: 1.5;" width="10" x="33" y="100.9531"/><rect fill="#F8F8F8" height="5" style="stroke: #383838; stroke-width: 1.5;" width="10" x="33" y="122.25"/><text fill="#000000" font-family="Courier" font-size="14" lengthAdjust="spacingAndGlyphs" textLength="232" x="48" y="118.9482">User Interface (React Native)</text><rect fill="#F8F8F8" height="36.2969" style="stroke: #383838; stroke-width: 1.5;" width="236" x="269" y="306.9531"/><rect fill="#F8F8F8" height="5" style="stroke: #383838; stroke-width: 1.5;" width="10" x="264" y="311.9531"/><rect fill="#F8F8F8" height="5" style="stroke: #383838; stroke-width: 1.5;" width="10" x="264" y="333.25"/><text fill="#000000" font-family="Courier" font-size="14" lengthAdjust="spacingAndGlyphs" textLength="216" x="279" y="329.9482">Redux Store (Redux + Thunk)</text><rect fill="#F8F8F8" height="36.2969" style="stroke: #383838; stroke-width: 1.5;" width="124" x="325" y="95.9531"/><rect fill="#F8F8F8" height="5" style="stroke: #383838; stroke-width: 1.5;" width="10" x="320" y="100.9531"/><rect fill="#F8F8F8" height="5" style="stroke: #383838; stroke-width: 1.5;" width="10" x="320" y="122.25"/><text fill="#000000" font-family="Courier" font-size="14" lengthAdjust="spacingAndGlyphs" textLength="104" x="335" y="118.9482">Redux Actions</text><rect fill="#F8F8F8" height="36.2969" style="stroke: #383838; stroke-width: 1.5;" width="164" x="484" y="95.9531"/><rect fill="#F8F8F8" height="5" style="stroke: #383838; stroke-width: 1.5;" width="10" x="479" y="100.9531"/><rect fill="#F8F8F8" height="5" style="stroke: #383838; stroke-width: 1.5;" width="10" x="479" y="122.25"/><text fill="#000000" font-family="Courier" font-size="14" lengthAdjust="spacingAndGlyphs" textLength="144" x="494" y="118.9482">LS Service (Realm)</text><rect fill="#F8F8F8" height="36.2969" style="stroke: #383838; stroke-width: 1.5;" width="124" x="683" y="95.9531"/><rect fill="#F8F8F8" height="5" style="stroke: #383838; stroke-width: 1.5;" width="10" x="678" y="100.9531"/><rect fill="#F8F8F8" height="5" style="stroke: #383838; stroke-width: 1.5;" width="10" x="678" y="122.25"/><text fill="#000000" font-family="Courier" font-size="14" lengthAdjust="spacingAndGlyphs" textLength="104" x="693" y="118.9482">Local Storage</text><rect fill="#F8F8F8" height="36.2969" style="stroke: #383838; stroke-width: 1.5;" width="124" x="898" y="306.9531"/><rect fill="#F8F8F8" height="5" style="stroke: #383838; stroke-width: 1.5;" width="10" x="893" y="311.9531"/><rect fill="#F8F8F8" height="5" style="stroke: #383838; stroke-width: 1.5;" width="10" x="893" y="333.25"/><text fill="#000000" font-family="Courier" font-size="14" lengthAdjust="spacingAndGlyphs" textLength="104" x="908" y="329.9482">Load Balancer</text><rect fill="#F8F8F8" height="36.2969" style="stroke: #383838; stroke-width: 1.5;" width="92" x="1057" y="306.9531"/><rect fill="#F8F8F8" height="5" style="stroke: #383838; stroke-width: 1.5;" width="10" x="1052" y="311.9531"/><rect fill="#F8F8F8" height="5" style="stroke: #383838; stroke-width: 1.5;" width="10" x="1052" y="333.25"/><text fill="#000000" font-family="Courier" font-size="14" lengthAdjust="spacingAndGlyphs" textLength="72" x="1067" y="329.9482">Directory</text><rect fill="#F8F8F8" height="36.2969" style="stroke: #383838; stroke-width: 1.5;" width="100" x="1219" y="306.9531"/><rect fill="#F8F8F8" height="5" style="stroke: #383838; stroke-width: 1.5;" width="10" x="1214" y="311.9531"/><rect fill="#F8F8F8" height="5" style="stroke: #383838; stroke-width: 1.5;" width="10" x="1214" y="333.25"/><text fill="#000000" font-family="Courier" font-size="14" lengthAdjust="spacingAndGlyphs" textLength="80" x="1229" y="329.9482">Controller</text><rect fill="#F8F8F8" height="36.2969" style="stroke: #383838; stroke-width: 1.5;" width="76" x="1354" y="306.9531"/><rect fill="#F8F8F8" height="5" style="stroke: #383838; stroke-width: 1.5;" width="10" x="1349" y="311.9531"/><rect fill="#F8F8F8" height="5" style="stroke: #383838; stroke-width: 1.5;" width="10" x="1349" y="333.25"/><text fill="#000000" font-family="Courier" font-size="14" lengthAdjust="spacingAndGlyphs" textLength="56" x="1364" y="329.9482">Service</text><rect fill="#F8F8F8" height="36.2969" style="stroke: #383838; stroke-width: 1.5;" width="156" x="1465" y="306.9531"/><rect fill="#F8F8F8" height="5" style="stroke: #383838; stroke-width: 1.5;" width="10" x="1460" y="311.9531"/><rect fill="#F8F8F8" height="5" style="stroke: #383838; stroke-width: 1.5;" width="10" x="1460" y="333.25"/><text fill="#000000" font-family="Courier" font-size="14" lengthAdjust="spacingAndGlyphs" textLength="136" x="1475" y="329.9482">User Repositories</text><rect fill="#F8F8F8" height="36.2969" style="stroke: #383838; stroke-width: 1.5;" width="148" x="1318" y="458.9531"/><rect fill="#F8F8F8" height="5" style="stroke: #383838; stroke-width: 1.5;" width="10" x="1313" y="463.9531"/><rect fill="#F8F8F8" height="5" style="stroke: #383838; stroke-width: 1.5;" width="10" x="1313" y="485.25"/><text fill="#000000" font-family="Courier" font-size="14" lengthAdjust="spacingAndGlyphs" textLength="128" x="1328" y="481.9482">Cache db (Redis)</text><rect fill="#F8F8F8" height="36.2969" style="stroke: #383838; stroke-width: 1.5;" width="100" x="2370" y="306.9531"/><rect fill="#F8F8F8" height="5" style="stroke: #383838; stroke-width: 1.5;" width="10" x="2365" y="311.9531"/><rect fill="#F8F8F8" height="5" style="stroke: #383838; stroke-width: 1.5;" width="10" x="2365" y="333.25"/><text fill="#000000" font-family="Courier" font-size="14" lengthAdjust="spacingAndGlyphs" textLength="80" x="2380" y="329.9482">Controller</text><rect fill="#F8F8F8" height="36.2969" style="stroke: #383838; stroke-width: 1.5;" width="76" x="2382" y="458.9531"/><rect fill="#F8F8F8" height="5" style="stroke: #383838; stroke-width: 1.5;" width="10" x="2377" y="463.9531"/><rect fill="#F8F8F8" height="5" style="stroke: #383838; stroke-width: 1.5;" width="10" x="2377" y="485.25"/><text fill="#000000" font-family="Courier" font-size="14" lengthAdjust="spacingAndGlyphs" textLength="56" x="2392" y="481.9482">Manager</text><rect fill="#F8F8F8" height="36.2969" style="stroke: #383838; stroke-width: 1.5;" width="132" x="2354" y="613.9531"/><rect fill="#F8F8F8" height="5" style="stroke: #383838; stroke-width: 1.5;" width="10" x="2349" y="618.9531"/><rect fill="#F8F8F8" height="5" style="stroke: #383838; stroke-width: 1.5;" width="10" x="2349" y="640.25"/><text fill="#000000" font-family="Courier" font-size="14" lengthAdjust="spacingAndGlyphs" textLength="112" x="2364" y="636.9482">Data Aggregato</text><rect fill="#F8F8F8" height="36.2969" style="stroke: #383838; stroke-width: 1.5;" width="100" x="2844" y="306.9531"/><rect fill="#F8F8F8" height="5" style="stroke: #383838; stroke-width: 1.5;" width="10" x="2839" y="311.9531"/><rect fill="#F8F8F8" height="5" style="stroke: #383838; stroke-width: 1.5;" width="10" x="2839" y="333.25"/><text fill="#000000" font-family="Courier" font-size="14" lengthAdjust="spacingAndGlyphs" textLength="80" x="2854" y="329.9482">Controller</text><rect fill="#F8F8F8" height="36.2969" style="stroke: #383838; stroke-width: 1.5;" width="76" x="2816" y="458.9531"/><rect fill="#F8F8F8" height="5" style="stroke: #383838; stroke-width: 1.5;" width="10" x="2811" y="463.9531"/><rect fill="#F8F8F8" height="5" style="stroke: #383838; stroke-width: 1.5;" width="10" x="2811" y="485.25"/><text fill="#000000" font-family="Courier" font-size="14" lengthAdjust="spacingAndGlyphs" textLength="56" x="2826" y="481.9482">Manager</text><rect fill="#F8F8F8" height="36.2969" style="stroke: #383838; stroke-width: 1.5;" width="100" x="2594" y="613.9531"/><rect fill="#F8F8F8" height="5" style="stroke: #383838; stroke-width: 1.5;" width="10" x="2589" y="618.9531"/><rect fill="#F8F8F8" height="5" style="stroke: #383838; stroke-width: 1.5;" width="10" x="2589" y="640.25"/><text fill="#000000" font-family="Courier" font-size="14" lengthAdjust="spacingAndGlyphs" textLength="80" x="2604" y="636.9482">Transpiler</text><rect fill="#F8F8F8" height="36.2969" style="stroke: #383838; stroke-width: 1.5;" width="204" x="2605" y="306.9531"/><rect fill="#F8F8F8" height="5" style="stroke: #383838; stroke-width: 1.5;" width="10" x="2600" y="311.9531"/><rect fill="#F8F8F8" height="5" style="stroke: #383838; stroke-width: 1.5;" width="10" x="2600" y="333.25"/><text fill="#000000" font-family="Courier" font-size="14" lengthAdjust="spacingAndGlyphs" textLength="184" x="2615" y="329.9482">Directory of Collectors</text><rect fill="#F8F8F8" height="36.2969" style="stroke: #383838; stroke-width: 1.5;" width="108" x="2729" y="613.9531"/><rect fill="#F8F8F8" height="5" style="stroke: #383838; stroke-width: 1.5;" width="10" x="2724" y="618.9531"/><rect fill="#F8F8F8" height="5" style="stroke: #383838; stroke-width: 1.5;" width="10" x="2724" y="640.25"/><text fill="#000000" font-family="Courier" font-size="14" lengthAdjust="spacingAndGlyphs" textLength="88" x="2739" y="636.9482">Collector 1</text><rect fill="#F8F8F8" height="36.2969" style="stroke: #383838; stroke-width: 1.5;" width="108" x="2872" y="613.9531"/><rect fill="#F8F8F8" height="5" style="stroke: #383838; stroke-width: 1.5;" width="10" x="2867" y="618.9531"/><rect fill="#F8F8F8" height="5" style="stroke: #383838; stroke-width: 1.5;" width="10" x="2867" y="640.25"/><text fill="#000000" font-family="Courier" font-size="14" lengthAdjust="spacingAndGlyphs" textLength="88" x="2882" y="636.9482">Collector 2</text><rect fill="#F8F8F8" height="36.2969" style="stroke: #383838; stroke-width: 1.5;" width="100" x="3416" y="306.9531"/><rect fill="#F8F8F8" height="5" style="stroke: #383838; stroke-width: 1.5;" width="10" x="3411" y="311.9531"/><rect fill="#F8F8F8" height="5" style="stroke: #383838; stroke-width: 1.5;" width="10" x="3411" y="333.25"/><text fill="#000000" font-family="Courier" font-size="14" lengthAdjust="spacingAndGlyphs" textLength="80" x="3426" y="329.9482">Controller</text><rect fill="#F8F8F8" height="36.2969" style="stroke: #383838; stroke-width: 1.5;" width="76" x="3378" y="458.9531"/><rect fill="#F8F8F8" height="5" style="stroke: #383838; stroke-width: 1.5;" width="10" x="3373" y="463.9531"/><rect fill="#F8F8F8" height="5" style="stroke: #383838; stroke-width: 1.5;" width="10" x="3373" y="485.25"/><text fill="#000000" font-family="Courier" font-size="14" lengthAdjust="spacingAndGlyphs" textLength="56" x="3388" y="481.9482">Monitor</text><rect fill="#F8F8F8" height="36.2969" style="stroke: #383838; stroke-width: 1.5;" width="76" x="3489" y="458.9531"/><rect fill="#F8F8F8" height="5" style="stroke: #383838; stroke-width: 1.5;" width="10" x="3484" y="463.9531"/><rect fill="#F8F8F8" height="5" style="stroke: #383838; stroke-width: 1.5;" width="10" x="3484" y="485.25"/><text fill="#000000" font-family="Courier" font-size="14" lengthAdjust="spacingAndGlyphs" textLength="56" x="3499" y="481.9482">Storage</text><rect fill="#F8F8F8" height="36.2969" style="stroke: #383838; stroke-width: 1.5;" width="100" x="3863" y="95.9531"/><rect fill="#F8F8F8" height="5" style="stroke: #383838; stroke-width: 1.5;" width="10" x="3858" y="100.9531"/><rect fill="#F8F8F8" height="5" style="stroke: #383838; stroke-width: 1.5;" width="10" x="3858" y="122.25"/><text fill="#000000" font-family="Courier" font-size="14" lengthAdjust="spacingAndGlyphs" textLength="80" x="3873" y="118.9482">Watchdog 1</text><rect fill="#F8F8F8" height="36.2969" style="stroke: #383838; stroke-width: 1.5;" width="100" x="3662" y="95.9531"/><rect fill="#F8F8F8" height="5" style="stroke: #383838; stroke-width: 1.5;" width="10" x="3657" y="100.9531"/><rect fill="#F8F8F8" height="5" style="stroke: #383838; stroke-width: 1.5;" width="10" x="3657" y="122.25"/><text fill="#000000" font-family="Courier" font-size="14" lengthAdjust="spacingAndGlyphs" textLength="80" x="3672" y="118.9482">Watchdog 2</text><rect fill="#F8F8F8" height="36.2969" style="stroke: #383838; stroke-width: 1.5;" width="180" x="3681" y="458.9531"/><rect fill="#F8F8F8" height="5" style="stroke: #383838; stroke-width: 1.5;" width="10" x="3676" y="463.9531"/><rect fill="#F8F8F8" height="5" style="stroke: #383838; stroke-width: 1.5;" width="10" x="3676" y="485.25"/><text fill="#000000" font-family="Courier" font-size="14" lengthAdjust="spacingAndGlyphs" textLength="160" x="3691" y="481.9482">Info storage service</text><rect fill="#F8F8F8" height="36.2969" style="stroke: #383838; stroke-width: 1.5;" width="180" x="3896" y="458.9531"/><rect fill="#F8F8F8" height="5" style="stroke: #383838; stroke-width: 1.5;" width="10" x="3891" y="463.9531"/><rect fill="#F8F8F8" height="5" style="stroke: #383838; stroke-width: 1.5;" width="10" x="3891" y="485.25"/><text fill="#000000" font-family="Courier" font-size="14" lengthAdjust="spacingAndGlyphs" textLength="160" x="3906" y="481.9482">User storage service</text><rect fill="#F8F8F8" height="36.2969" style="stroke: #383838; stroke-width: 1.5;" width="164" x="3689" y="613.9531"/><rect fill="#F8F8F8" height="5" style="stroke: #383838; stroke-width: 1.5;" width="10" x="3684" y="618.9531"/><rect fill="#F8F8F8" height="5" style="stroke: #383838; stroke-width: 1.5;" width="10" x="3684" y="640.25"/><text fill="#000000" font-family="Courier" font-size="14" lengthAdjust="spacingAndGlyphs" textLength="144" x="3699" y="636.9482">Data Collector API</text><rect fill="#F8F8F8" height="36.2969" style="stroke: #383838; stroke-width: 1.5;" width="148" x="3888" y="613.9531"/><rect fill="#F8F8F8" height="5" style="stroke: #383838; stroke-width: 1.5;" width="10" x="3883" y="618.9531"/><rect fill="#F8F8F8" height="5" style="stroke: #383838; stroke-width: 1.5;" width="10" x="3883" y="640.25"/><text fill="#000000" font-family="Courier" font-size="14" lengthAdjust="spacingAndGlyphs" textLength="128" x="3898" y="636.9482">Skip API service</text><rect fill="#F8F8F8" height="36.2969" style="stroke: #383838; stroke-width: 1.5;" width="204" x="2054" y="458.9531"/><rect fill="#F8F8F8" height="5" style="stroke: #383838; stroke-width: 1.5;" width="10" x="2049" y="463.9531"/><rect fill="#F8F8F8" height="5" style="stroke: #383838; stroke-width: 1.5;" width="10" x="2049" y="485.25"/><text fill="#000000" font-family="Courier" font-size="14" lengthAdjust="spacingAndGlyphs" textLength="184" x="2064" y="481.9482">Info db (elasticsearch)</text><rect fill="#F8F8F8" height="36.2969" style="stroke: #383838; stroke-width: 1.5;" width="124" x="1768" y="458.9531"/><rect fill="#F8F8F8" height="5" style="stroke: #383838; stroke-width: 1.5;" width="10" x="1763" y="463.9531"/><rect fill="#F8F8F8" height="5" style="stroke: #383838; stroke-width: 1.5;" width="10" x="1763" y="485.25"/><text fill="#000000" font-family="Courier" font-size="14" lengthAdjust="spacingAndGlyphs" textLength="104" x="1778" y="481.9482">Load Balancer</text><rect fill="#F8F8F8" height="36.2969" style="stroke: #383838; stroke-width: 1.5;" width="92" x="1927" y="458.9531"/><rect fill="#F8F8F8" height="5" style="stroke: #383838; stroke-width: 1.5;" width="10" x="1922" y="463.9531"/><rect fill="#F8F8F8" height="5" style="stroke: #383838; stroke-width: 1.5;" width="10" x="1922" y="485.25"/><text fill="#000000" font-family="Courier" font-size="14" lengthAdjust="spacingAndGlyphs" textLength="72" x="1937" y="481.9482">Directory</text><rect fill="#F8F8F8" height="36.2969" style="stroke: #383838; stroke-width: 1.5;" width="204" x="4022" y="306.9531"/><rect fill="#F8F8F8" height="5" style="stroke: #383838; stroke-width: 1.5;" width="10" x="4017" y="311.9531"/><rect fill="#F8F8F8" height="5" style="stroke: #383838; stroke-width: 1.5;" width="10" x="4017" y="333.25"/><text fill="#000000" font-family="Courier" font-size="14" lengthAdjust="spacingAndGlyphs" textLength="184" x="4032" y="329.9482">User db (mySQL cluster)</text><rect fill="#F8F8F8" height="36.2969" style="stroke: #383838; stroke-width: 1.5;" width="124" x="3736" y="306.9531"/><rect fill="#F8F8F8" height="5" style="stroke: #383838; stroke-width: 1.5;" width="10" x="3731" y="311.9531"/><rect fill="#F8F8F8" height="5" style="stroke: #383838; stroke-width: 1.5;" width="10" x="3731" y="333.25"/><text fill="#000000" font-family="Courier" font-size="14" lengthAdjust="spacingAndGlyphs" textLength="104" x="3746" y="329.9482">Load Balancer</text><rect fill="#F8F8F8" height="36.2969" style="stroke: #383838; stroke-width: 1.5;" width="92" x="3895" y="306.9531"/><rect fill="#F8F8F8" height="5" style="stroke: #383838; stroke-width: 1.5;" width="10" x="3890" y="311.9531"/><rect fill="#F8F8F8" height="5" style="stroke: #383838; stroke-width: 1.5;" width="10" x="3890" y="333.25"/><text fill="#000000" font-family="Courier" font-size="14" lengthAdjust="spacingAndGlyphs" textLength="72" x="3905" y="329.9482">Directory</text><rect fill="#F8F8F8" height="36.2969" style="stroke: #383838; stroke-width: 1.5;" width="100" x="3087" y="458.9531"/><rect fill="#F8F8F8" height="5" style="stroke: #383838; stroke-width: 1.5;" width="10" x="3082" y="463.9531"/><rect fill="#F8F8F8" height="5" style="stroke: #383838; stroke-width: 1.5;" width="10" x="3082" y="485.25"/><text fill="#000000" font-family="Courier" font-size="14" lengthAdjust="spacingAndGlyphs" textLength="80" x="3097" y="481.9482">weatherski</text><rect fill="#F8F8F8" height="36.2969" style="stroke: #383838; stroke-width: 1.5;" width="68" x="3222" y="458.9531"/><rect fill="#F8F8F8" height="5" style="stroke: #383838; stroke-width: 1.5;" width="10" x="3217" y="463.9531"/><rect fill="#F8F8F8" height="5" style="stroke: #383838; stroke-width: 1.5;" width="10" x="3217" y="485.25"/><text fill="#000000" font-family="Courier" font-size="14" lengthAdjust="spacingAndGlyphs" textLength="48" x="3232" y="481.9482">skiapi</text><rect fill="#F8F8F8" height="36.2969" style="stroke: #383838; stroke-width: 1.5;" width="92" x="3091" y="613.9531"/><rect fill="#F8F8F8" height="5" style="stroke: #383838; stroke-width: 1.5;" width="10" x="3086" y="618.9531"/><rect fill="#F8F8F8" height="5" style="stroke: #383838; stroke-width: 1.5;" width="10" x="3086" y="640.25"/><text fill="#000000" font-family="Courier" font-size="14" lengthAdjust="spacingAndGlyphs" textLength="72" x="3101" y="636.9482">onthesnow</text><path d="M290.31,113.9531 C300.06,113.9531 309.82,113.9531 319.58,113.9531 " fill="none" id="UI-&gt;REA" style="stroke: #383838; stroke-width: 1.0;"/><polygon fill="#383838" points="324.68,113.9531,315.68,109.9531,319.68,113.9531,315.68,117.9531,324.68,113.9531" style="stroke: #383838; stroke-width: 1.0;"/><path d="M387,132.0531 C387,169.7331 387,259.8631 387,301.8031 " fill="none" id="REA-&gt;RES" style="stroke: #383838; stroke-width: 1.0;"/><polygon fill="#383838" points="387,306.9031,391,297.9031,387,301.9031,383,297.9031,387,306.9031" style="stroke: #383838; stroke-width: 1.0;"/><path d="M449.23,113.9531 C459.07,113.9531 468.91,113.9531 478.75,113.9531 " fill="none" id="REA-&gt;MSRV" style="stroke: #383838; stroke-width: 1.0;"/><polygon fill="#383838" points="483.9,113.9531,474.9,109.9531,478.9,113.9531,474.9,117.9531,483.9,113.9531" style="stroke: #383838; stroke-width: 1.0;"/><path d="M648.16,113.9531 C658.04,113.9531 667.92,113.9531 677.79,113.9531 " fill="none" id="MSRV-&gt;LS" style="stroke: #383838; stroke-width: 1.0;"/><polygon fill="#383838" points="682.96,113.9531,673.96,109.9531,677.96,113.9531,673.96,117.9531,682.96,113.9531" style="stroke: #383838; stroke-width: 1.0;"/><path d="M1319.45,324.9531 C1329.18,324.9531 1338.92,324.9531 1348.65,324.9531 " fill="none" id="CTRL-&gt;SRV" style="stroke: #383838; stroke-width: 1.0;"/><polygon fill="#383838" points="1353.74,324.9531,1344.74,320.9531,1348.74,324.9531,1344.74,328.9531,1353.74,324.9531" style="stroke: #383838; stroke-width: 1.0;"/><path d="M1392,343.1631 C1392,370.4031 1392,423.4431 1392,453.5931 " fill="none" id="SRV-&gt;CDB" style="stroke: #383838; stroke-width: 1.0;"/><polygon fill="#383838" points="1392,458.9431,1396,449.9431,1392,453.9431,1388,449.9431,1392,458.9431" style="stroke: #383838; stroke-width: 1.0;"/><path d="M1430.04,324.9531 C1439.94,324.9531 1449.83,324.9531 1459.73,324.9531 " fill="none" id="SRV-&gt;UREP" style="stroke: #383838; stroke-width: 1.0;"/><polygon fill="#383838" points="1464.9,324.9531,1455.9,320.9531,1459.9,324.9531,1455.9,328.9531,1464.9,324.9531" style="stroke: #383838; stroke-width: 1.0;"/><path d="M966.64,306.8431 C977.84,278.4431 1002.97,223.1431 1040,188.9531 C1046.35,183.0831 1049.07,182.3931 1057.5,180.4531 C1102.98,169.9931 1117.02,169.9931 1162.5,180.4531 C1170.93,182.3931 1175.3,181.6931 1180,188.9531 C1187.825,201.0531 1192.1481,215.1088 1194.1939,229.5009 C1195.2168,236.697 1195.6704,243.9773 1195.7076,251.1393 C1195.7263,254.7203 1195.6409,258.2717 1195.4705,261.7683 C1195.4492,262.2053 1195.4266,262.6416 1195.4027,263.0769 C1195.3907,263.2945 1195.3784,263.5119 1195.3658,263.7291 " fill="none" id="LB1-&gt;SA_" style="stroke: #383838; stroke-width: 1.0;"/><polygon fill="#383838" points="1195.3658,263.7291,1199.8802,254.9758,1195.6553,258.7375,1191.8936,254.5126,1195.3658,263.7291" style="stroke: #383838; stroke-width: 1.0;"/><path d="M1022,324.9531 C1031.88,324.9531 1041.76,324.9531 1051.64,324.9531 " fill="none" id="LB1-&gt;DIR1" style="stroke: #383838; stroke-width: 1.0;"/><polygon fill="#383838" points="1056.81,324.9531,1047.81,320.9531,1051.81,324.9531,1047.81,328.9531,1056.81,324.9531" style="stroke: #383838; stroke-width: 1.0;"/><path d="M2420,343.1631 C2420,370.4031 2420,423.4431 2420,453.5931 " fill="none" id="ACTRL-&gt;AMAN" style="stroke: #383838; stroke-width: 1.0;"/><polygon fill="#383838" points="2420,458.9431,2424,449.9431,2420,453.9431,2416,449.9431,2420,458.9431" style="stroke: #383838; stroke-width: 1.0;"/><path d="M2420,495.2031 C2420,522.9831 2420,577.6131 2420,608.4331 " fill="none" id="AMAN-&gt;AGG_" style="stroke: #383838; stroke-width: 1.0;"/><polygon fill="#383838" points="2420,613.5231,2424,604.5231,2420,608.5231,2416,604.5231,2420,613.5231" style="stroke: #383838; stroke-width: 1.0;"/><path d="M2845.99,495.2031 C2833.05,523.1031 2807.54,578.0631 2793.28,608.8131 " fill="none" id="CMAN-&gt;COL1" style="stroke: #383838; stroke-width: 1.0;"/><polygon fill="#383838" points="2791.09,613.5231,2798.514,607.0513,2793.1997,608.99,2791.2611,603.6758,2791.09,613.5231" style="stroke: #383838; stroke-width: 1.0;"/><path d="M2862.12,495.2031 C2875.25,523.1031 2901.11,578.0631 2915.58,608.8131 " fill="none" id="CMAN-&gt;COL2" style="stroke: #383838; stroke-width: 1.0;"/><polygon fill="#383838" points="2917.8,613.5231,2917.5796,603.6767,2915.6676,609.0007,2910.3436,607.0886,2917.8,613.5231" style="stroke: #383838; stroke-width: 1.0;"/><path d="M2889.41,343.1631 C2882.12,370.5131 2867.88,423.8831 2859.86,453.9731 " fill="none" id="CCTRL-&gt;CMAN" style="stroke: #383838; stroke-width: 1.0;"/><polygon fill="#383838" points="2858.53,458.9431,2864.7111,451.2754,2859.8165,454.1115,2856.9804,449.2169,2858.53,458.9431" style="stroke: #383838; stroke-width: 1.0;"/><path d="M2830.32,495.2031 C2791.22,523.6931 2713.37,580.4131 2671.75,610.7331 " fill="none" id="CMAN-&gt;TRS" style="stroke: #383838; stroke-width: 1.0;"/><polygon fill="#383838" points="2667.59,613.7631,2677.2204,611.7005,2671.6324,610.8206,2672.5124,605.2326,2667.59,613.7631" style="stroke: #383838; stroke-width: 1.0;"/><path d="M3460.26,343.1631 C3451.15,370.5131 3433.36,423.8831 3423.33,453.9731 " fill="none" id="DCTRL-&gt;DM" style="stroke: #383838; stroke-width: 1.0;"/><polygon fill="#383838" points="3421.67,458.9431,3428.2976,451.6579,3423.2426,454.1969,3420.7036,449.1418,3421.67,458.9431" style="stroke: #383838; stroke-width: 1.0;"/><path d="M3473,343.1631 C3484.12,370.5131 3505.83,423.8831 3518.06,453.9731 " fill="none" id="DCTRL-&gt;DS" style="stroke: #383838; stroke-width: 1.0;"/><polygon fill="#383838" points="3520.08,458.9431,3520.3887,449.0991,3518.1935,454.3127,3512.98,452.1175,3520.08,458.9431" style="stroke: #383838; stroke-width: 1.0;"/><path d="M3862.74,113.9531 C3833.71,113.9531 3797.15,113.9531 3767.31,113.9531 " fill="none" id="W1-&gt;W2" style="stroke: #383838; stroke-width: 1.0;"/><polygon fill="#383838" points="3762.2,113.9531,3771.2,117.9531,3767.2,113.9531,3771.2,109.9531,3762.2,113.9531" style="stroke: #383838; stroke-width: 1.0;"/><text fill="#000000" font-family="Courier" font-size="13" lengthAdjust="spacingAndGlyphs" textLength="64" x="3780.5" y="107.02">monitors</text><path d="M3762.14,130.5331 C3767.94,131.9331 3773.81,133.1331 3779.5,133.9531 C3808.53,138.1631 3816.47,138.1631 3845.5,133.9531 C3849.59,133.3631 3853.77,132.5731 3857.95,131.6631 " fill="none" id="W2-&gt;W1" style="stroke: #383838; stroke-width: 1.0;"/><polygon fill="#383838" points="3862.86,130.5331,3853.1906,128.6614,3857.9883,131.6585,3854.9912,136.4561,3862.86,130.5331" style="stroke: #383838; stroke-width: 1.0;"/><text fill="#000000" font-family="Courier" font-size="13" lengthAdjust="spacingAndGlyphs" textLength="64" x="3780.5" y="130.02">monitors</text><path d="M1845.79,458.7631 C1861.03,441.9931 1885.34,417.1631 1910,399.9531 C1917.09,395.0031 1919.07,393.3931 1927.5,391.4531 C1967.35,382.2831 1979.65,382.2831 2019.5,391.4531 C2063.99,401.6831 2107.25,433.6431 2132.76,455.4531 " fill="none" id="LB2-&gt;IDB_" style="stroke: #383838; stroke-width: 1.0;"/><polygon fill="#383838" points="2136.69,458.8631,2132.4957,449.952,2132.9068,455.5939,2127.265,456.0051,2136.69,458.8631" style="stroke: #383838; stroke-width: 1.0;"/><path d="M1892,476.9531 C1901.88,476.9531 1911.76,476.9531 1921.64,476.9531 " fill="none" id="LB2-&gt;DIR2" style="stroke: #383838; stroke-width: 1.0;"/><polygon fill="#383838" points="1926.81,476.9531,1917.81,472.9531,1921.81,476.9531,1917.81,480.9531,1926.81,476.9531" style="stroke: #383838; stroke-width: 1.0;"/><path d="M3804.64,306.8431 C3815.84,278.4431 3840.97,223.1431 3878,188.9531 C3909.76,159.6231 3984.75,179.8231 3987.5,180.4531 C4050.26,194.8931 4094.06,265.0731 4113.19,302.0431 " fill="none" id="LB3-&gt;UDB_" style="stroke: #383838; stroke-width: 1.0;"/><polygon fill="#383838" points="4115.61,306.8231,4115.1125,296.9868,4113.3511,302.3625,4107.9754,300.6011,4115.61,306.8231" style="stroke: #383838; stroke-width: 1.0;"/><path d="M3860,324.9531 C3869.88,324.9531 3879.76,324.9531 3889.64,324.9531 " fill="none" id="LB3-&gt;DIR3" style="stroke: #383838; stroke-width: 1.0;"/><polygon fill="#383838" points="3894.81,324.9531,3885.81,320.9531,3889.81,324.9531,3885.81,328.9531,3894.81,324.9531" style="stroke: #383838; stroke-width: 1.0;"/><path d="M589.09,131.9731 C608.36,145.2331 637.09,162.8631 665,171.9531 C698.58,182.8831 795.88,166.3431 823,188.9531 C834.8275,198.8156 843.2562,212 849.2428,226.2739 C850.7395,229.8424 852.0835,233.479 853.2898,237.1487 C853.8929,238.9836 854.4617,240.8268 854.9978,242.674 " fill="none" id="MSRV-&gt;SA" style="stroke: #383838; stroke-width: 1.0;"/><polygon fill="#383838" points="854.9978,242.674,856.3304,232.9157,853.604,237.8722,848.6475,235.1458,854.9978,242.674" style="stroke: #383838; stroke-width: 1.0;"/><path d="M1403.58,343.1431 C1413.62,356.4931 1429.44,374.1731 1448,382.9531 C1524.23,419.0231 1558.67,368.6931 1637,399.9531 C1661.48,409.7231 1684.7675,427.8606 1702.275,443.9669 C1711.0288,452.02 1718.3375,459.5653 1723.6278,465.303 C1723.9585,465.6616 1724.2812,466.0131 1724.596,466.3573 C1724.6746,466.4433 1724.7528,466.5289 1724.8305,466.614 " fill="none" id="SRV-&gt;IDB" style="stroke: #383838; stroke-width: 1.0;"/><polygon fill="#383838" points="1724.8305,466.614,1721.718,457.2699,1721.46,462.9209,1715.809,462.6628,1724.8305,466.614" style="stroke: #383838; stroke-width: 1.0;"/><path d="M1617.13,306.9431 C1755.39,274.3831 2062.46,206.9131 2325.67,183.2831 C2362.65,179.9631 3626.15,174.9631 3662.33,183.2831 C3693.14,190.3731 3703.175,223.8331 3705.3325,256.4544 C3705.4673,258.4932 3705.5714,260.5288 3705.6479,262.5544 C3705.6574,262.8076 3705.6665,263.0606 3705.6752,263.3135 " fill="none" id="UREP-&gt;UDB" style="stroke: #383838; stroke-width: 1.0;"/><polygon fill="#383838" points="3705.6752,263.3135,3709.3635,254.1813,3705.5033,258.3165,3701.3682,254.4564,3705.6752,263.3135" style="stroke: #383838; stroke-width: 1.0;"/><path d="M3004.1024,405.0099 C3004.6218,405.3836 3005.137,405.7641 3005.648,406.1511 C3006.6701,406.9251 3007.6754,407.7249 3008.6641,408.548 C3012.6189,411.8404 3016.3066,415.5052 3019.7256,419.3772 C3026.5638,427.1213 3032.3275,435.6944 3037.005,443.7756 C3039.3438,447.8162 3041.4109,451.7339 3043.2051,455.3635 C3043.4293,455.8172 3043.6493,456.2664 3043.8651,456.7107 C3043.892,456.7663 3043.9189,456.8218 3043.9458,456.8772 " fill="none" id="COL-&gt;EA" style="stroke: #383838; stroke-width: 1.0;"/><polygon fill="#383838" points="3043.9458,456.8772,3043.6222,447.0336,3041.7661,452.3773,3036.4224,450.5212,3043.9458,456.8772" style="stroke: #383838; stroke-width: 1.0;"/><path d="M2561.9142,336.0783 C2561.8509,336.1528 2561.7872,336.2275 2561.7232,336.3026 C2561.5952,336.4527 2561.4659,336.6039 2561.3353,336.7564 C2561.0741,337.0612 2560.8075,337.3706 2560.5358,337.6844 C2559.449,338.9395 2558.2791,340.264 2557.0317,341.6419 C2554.5371,344.3977 2551.7328,347.3672 2548.6637,350.4219 C2536.3875,362.6406 2519.875,376.2231 2502,382.9531 C2463,397.6431 1784.56,373.9331 1752,399.9531 C1748.7063,402.5856 1745.9316,405.695 1743.5985,409.1271 C1742.432,410.8432 1741.3759,412.64 1740.4206,414.4982 C1740.1817,414.9627 1739.9492,415.4311 1739.7228,415.9031 " fill="none" id="COL-&gt;IDB" style="stroke: #383838; stroke-width: 1.0;"/><polygon fill="#383838" points="1739.7228,415.9031,1747.2221,409.5186,1741.8855,411.395,1740.0091,406.0584,1739.7228,415.9031" style="stroke: #383838; stroke-width: 1.0;"/><path d="M2321.7136,325.7895 C2321.1753,325.7802 2320.612,325.7707 2320.0243,325.761 C2318.8489,325.7416 2317.5756,325.7216 2316.2075,325.7013 C2313.4715,325.6608 2310.3568,325.6194 2306.8892,325.5804 C2293.0187,325.4245 2273.5017,325.3068 2249.9897,325.4373 C2202.9656,325.6984 2139.9613,326.9525 2074.1875,330.8794 C1942.64,338.7331 1800.015,357.2781 1752,399.9531 C1748.8488,402.7544 1746.182,405.9916 1743.9287,409.518 C1742.8021,411.2813 1741.7787,413.1169 1740.8499,415.0064 C1740.7338,415.2426 1740.6192,415.4796 1740.506,415.7175 " fill="none" id="AGG-&gt;IDB" style="stroke: #383838; stroke-width: 1.0;"/><polygon fill="#383838" points="1740.506,415.7175,1747.9849,409.3092,1742.6543,411.2025,1740.761,405.8719,1740.506,415.7175" style="stroke: #383838; stroke-width: 1.0;"/><path d="M3629.1896,156.6155 C3629.214,157.0787 3629.2385,157.545 3629.2633,158.0143 C3629.3127,158.953 3629.3627,159.9038 3629.4134,160.8664 C3629.6161,164.7169 3629.8288,168.7566 3630.0503,172.9644 C3631.8225,206.6269 3634.1613,251.0506 3636.5,295.4731 C3637.6694,317.6844 3638.8388,339.8953 3639.9373,360.7606 C3640.4866,371.1933 3641.0182,381.2895 3641.5232,390.8812 C3641.7757,395.6771 3642.0215,400.3467 3642.2597,404.8693 C3642.3787,407.1305 3642.4959,409.355 3642.6109,411.5401 C3642.6684,412.6326 3642.7254,413.7153 3642.7819,414.7878 C3642.796,415.0559 3642.8101,415.3234 3642.8242,415.5902 " fill="none" id="WS-&gt;SRVS" style="stroke: #383838; stroke-width: 1.0;"/><polygon fill="#383838" points="3642.8242,415.5902,3646.3454,406.3924,3642.5613,410.5971,3638.3565,406.813,3642.8242,415.5902" style="stroke: #383838; stroke-width: 1.0;"/><path d="M3597.2077,347.5538 C3597.2862,347.7603 3597.3651,347.9679 3597.4444,348.1766 C3597.7617,349.0115 3598.0858,349.8641 3598.4161,350.7333 C3603.7016,364.6409 3610.6069,382.8113 3617.5112,400.9794 C3624.4156,419.1475 3631.3191,437.3134 3636.6008,451.2123 C3636.9309,452.081 3637.2547,452.933 3637.5717,453.7673 C3637.651,453.9759 3637.7298,454.1834 3637.8082,454.3897 C3637.8474,454.4929 3637.8865,454.5958 3637.9255,454.6984 " fill="none" id="DAPI-&gt;SRVS" style="stroke: #383838; stroke-width: 1.0;"/><polygon fill="#383838" points="3637.9255,454.6984,3638.4676,444.8645,3636.1494,450.0245,3630.9894,447.7063,3637.9255,454.6984" style="stroke: #383838; stroke-width: 1.0;"/><path d="M3619.5279,156.0428 C3619.4693,156.3648 3619.4106,156.688 3619.3516,157.0126 C3618.8795,159.6089 3618.3927,162.2865 3617.8933,165.0336 C3616.8944,170.5279 3615.8449,176.3005 3614.7616,182.2586 C3612.5952,194.1748 3610.2938,206.8331 3607.9925,219.4906 C3605.6913,232.1481 3603.3902,244.8048 3601.2243,256.718 C3600.1414,262.6745 3599.0922,268.4452 3598.0938,273.9371 C3597.8442,275.3101 3597.5978,276.6656 3597.3548,278.0023 C3597.294,278.3365 3597.2335,278.6695 3597.1732,279.0013 C3597.143,279.1672 3597.1129,279.3328 3597.0828,279.4981 " fill="none" id="WS-&gt;DAPI" style="stroke: #383838; stroke-width: 1.0;"/><polygon fill="#383838" points="3597.0828,279.4981,3602.6281,271.3587,3597.9772,274.5787,3594.7571,269.9277,3597.0828,279.4981" style="stroke: #383838; stroke-width: 1.0;"/></g></svg>