<?xml version="1.0" encoding="UTF-8" standalone="no"?><svg xmlns="http://www.w3.org/2000/svg" xmlns:xlink="http://www.w3.org/1999/xlink" contentScriptType="application/ecmascript" contentStyleType="text/css" height="487px" preserveAspectRatio="none" style="width:518px;height:487px;" version="1.1" viewBox="0 0 518 487" width="518px" zoomAndPan="magnify"><defs/><g><rect fill="#FFFFFF" height="146" style="stroke: #444444; stroke-width: 1.0; stroke-dasharray: 7.0,7.0;" width="265" x="96.5" y="201"/><text fill="#000000" font-family="sans-serif" font-size="14" font-style="italic" lengthAdjust="spacingAndGlyphs" textLength="84" x="187" y="215.9951">«boundary»</text><text fill="#444444" font-family="sans-serif" font-size="16" font-weight="bold" lengthAdjust="spacingAndGlyphs" textLength="77" x="190.5" y="234.1484">Skip App</text><text fill="#444444" font-family="sans-serif" font-size="12" font-weight="bold" lengthAdjust="spacingAndGlyphs" textLength="62" x="198" y="249.0605">[System]</text><rect fill="#FEFECE" height="62.5938" style="stroke: #444444; stroke-width: 1.0; stroke-dasharray: 7.0,7.0;" width="101" x="244" y="268"/><text fill="#000000" font-family="sans-serif" font-size="0" font-style="italic" lengthAdjust="spacingAndGlyphs" textLength="0" x="294.5" y="278">«boundary»</text><text fill="#444444" font-family="sans-serif" font-size="16" font-weight="bold" lengthAdjust="spacingAndGlyphs" textLength="81" x="254" y="302.8516">Frontend</text><text fill="#444444" font-family="sans-serif" font-size="12" lengthAdjust="spacingAndGlyphs" textLength="55" x="267" y="317.7637">[System]</text><rect fill="#FEFECE" height="62.5938" style="stroke: #444444; stroke-width: 1.0; stroke-dasharray: 7.0,7.0;" width="96" x="112.5" y="268"/><text fill="#000000" font-family="sans-serif" font-size="0" font-style="italic" lengthAdjust="spacingAndGlyphs" textLength="0" x="160.5" y="278">«boundary»</text><text fill="#444444" font-family="sans-serif" font-size="16" font-weight="bold" lengthAdjust="spacingAndGlyphs" textLength="76" x="122.5" y="302.8516">Backend</text><text fill="#444444" font-family="sans-serif" font-size="12" lengthAdjust="spacingAndGlyphs" textLength="55" x="133" y="317.7637">[System]</text><rect fill="#08427B" height="85.1875" style="stroke: #073B6F; stroke-width: 1.5;" width="77" x="176" y="8"/><text fill="#FFFFFF" font-family="sans-serif" font-size="12" font-style="italic" lengthAdjust="spacingAndGlyphs" textLength="57" x="186" y="29.1387">«person»</text><text fill="#FFFFFF" font-family="sans-serif" font-size="16" font-weight="bold" lengthAdjust="spacingAndGlyphs" textLength="52" x="188.5" y="46.8203">Skiing</text><text fill="#FFFFFF" font-family="sans-serif" font-size="14" lengthAdjust="spacingAndGlyphs" textLength="0" x="216.5" y="63.5889"/><text fill="#FFFFFF" font-family="sans-serif" font-size="14" lengthAdjust="spacingAndGlyphs" textLength="0" x="216.5" y="79.8857"/><rect fill="#08427B" height="85.1875" style="stroke: #073B6F; stroke-width: 1.5;" width="150" x="300.5" y="8"/><text fill="#FFFFFF" font-family="sans-serif" font-size="12" font-style="italic" lengthAdjust="spacingAndGlyphs" textLength="57" x="347" y="29.1387">«person»</text><text fill="#FFFFFF" font-family="sans-serif" font-size="16" font-weight="bold" lengthAdjust="spacingAndGlyphs" textLength="130" x="310.5" y="46.8203">Planning to ski</text><text fill="#FFFFFF" font-family="sans-serif" font-size="14" lengthAdjust="spacingAndGlyphs" textLength="0" x="377.5" y="63.5889"/><text fill="#FFFFFF" font-family="sans-serif" font-size="14" lengthAdjust="spacingAndGlyphs" textLength="0" x="377.5" y="79.8857"/><rect fill="#999999" height="52.5938" style="stroke: #8A8A8A; stroke-width: 1.5;" width="135" x="6" y="424"/><text fill="#FFFFFF" font-family="sans-serif" font-size="12" font-style="italic" lengthAdjust="spacingAndGlyphs" textLength="115" x="16" y="445.1387">«external_system»</text><text fill="#FFFFFF" font-family="sans-serif" font-size="16" font-weight="bold" lengthAdjust="spacingAndGlyphs" textLength="113" x="17" y="462.8203">Weather API</text><rect fill="#999999" height="52.5938" style="stroke: #8A8A8A; stroke-width: 1.5;" width="135" x="180" y="424"/><text fill="#FFFFFF" font-family="sans-serif" font-size="12" font-style="italic" lengthAdjust="spacingAndGlyphs" textLength="115" x="190" y="445.1387">«external_system»</text><text fill="#FFFFFF" font-family="sans-serif" font-size="16" font-weight="bold" lengthAdjust="spacingAndGlyphs" textLength="96" x="199.5" y="462.8203">Resort API</text><path d="M202.88,93.11 C197.55,120.96 195.5,157.43 211.5,185 C215.1,191.2 220.28,188.09 225.5,193 C246.92,213.17 264.87,241.25 277.09,263.37 " fill="none" id="user_s-&gt;fe" style="stroke: #666666; stroke-width: 1.0;"/><polygon fill="#666666" points="279.61,268,278.8231,258.1826,277.2208,263.6078,271.7956,262.0054,279.61,268" style="stroke: #666666; stroke-width: 1.0;"/><text fill="#666666" font-family="sans-serif" font-size="13" font-weight="bold" lengthAdjust="spacingAndGlyphs" textLength="109" x="215" y="151.0669">Reviews resort</text><text fill="#666666" font-family="sans-serif" font-size="13" font-weight="bold" lengthAdjust="spacingAndGlyphs" textLength="119" x="212.5" y="166.1997">snow conditions</text><path d="M364.12,93.22 C356.71,119.67 346.58,154.51 336.5,185 C327.79,211.34 316.9,240.69 308.38,262.95 " fill="none" id="user_p-&gt;fe" style="stroke: #666666; stroke-width: 1.0;"/><polygon fill="#666666" points="306.5,267.88,313.4499,260.9015,308.2853,263.2096,305.9773,258.045,306.5,267.88" style="stroke: #666666; stroke-width: 1.0;"/><text fill="#666666" font-family="sans-serif" font-size="13" font-weight="bold" lengthAdjust="spacingAndGlyphs" textLength="146" x="359" y="136.0669">Reads resorts snow</text><text fill="#666666" font-family="sans-serif" font-size="13" font-weight="bold" lengthAdjust="spacingAndGlyphs" textLength="92" x="383.5" y="151.1997">conditions +</text><text fill="#666666" font-family="sans-serif" font-size="13" font-weight="bold" lengthAdjust="spacingAndGlyphs" textLength="149" x="357.5" y="166.3325">weather + affluency</text><text fill="#666666" font-family="sans-serif" font-size="13" font-weight="bold" lengthAdjust="spacingAndGlyphs" textLength="44" x="410" y="181.4653">+ info</text><path d="M112.22,322.18 C95.92,332.13 79.58,345.64 70.5,363 C61.66,379.89 62.32,401.29 65.24,418.57 " fill="none" id="be-&gt;wApi" style="stroke: #666666; stroke-width: 1.0;"/><polygon fill="#666666" points="66.2,423.8,68.4863,414.2202,65.2855,418.8843,60.6213,415.6835,66.2,423.8" style="stroke: #666666; stroke-width: 1.0;"/><text fill="#666666" font-family="sans-serif" font-size="13" font-weight="bold" lengthAdjust="spacingAndGlyphs" textLength="41" x="117" y="376.0669">Fetch</text><text fill="#666666" font-family="sans-serif" font-size="12" font-style="italic" lengthAdjust="spacingAndGlyphs" textLength="132" x="71.5" y="390.2715">[Weather conditions]</text><path d="M186.4,331.29 C194.02,341.09 202.04,352.2 208.5,363 C219.17,380.83 228.79,402.09 235.81,419.07 " fill="none" id="be-&gt;resApi" style="stroke: #666666; stroke-width: 1.0;"/><polygon fill="#666666" points="237.72,423.74,238.0027,413.8952,235.8213,419.1145,230.6019,416.9332,237.72,423.74" style="stroke: #666666; stroke-width: 1.0;"/><text fill="#666666" font-family="sans-serif" font-size="13" font-weight="bold" lengthAdjust="spacingAndGlyphs" textLength="41" x="243.5" y="376.0669">Fetch</text><text fill="#666666" font-family="sans-serif" font-size="12" font-style="italic" lengthAdjust="spacingAndGlyphs" textLength="77" x="225.5" y="390.2715">[Resort info]</text></g></svg>