<?xml version="1.0" encoding="UTF-8" standalone="no"?><svg xmlns="http://www.w3.org/2000/svg" xmlns:xlink="http://www.w3.org/1999/xlink" contentScriptType="application/ecmascript" contentStyleType="text/css" height="426px" preserveAspectRatio="none" style="width:981px;height:426px;" version="1.1" viewBox="0 0 981 426" width="981px" zoomAndPan="magnify"><defs/><g><text fill="#000000" font-family="Courier" font-size="14" font-weight="bold" lengthAdjust="spacingAndGlyphs" textLength="208" x="385" y="22.9951">PV: requesting resort info</text><line style="stroke: #383838; stroke-width: 1.0; stroke-dasharray: 5.0,5.0;" x1="71" x2="71" y1="64.5938" y2="385.7891"/><line style="stroke: #383838; stroke-width: 1.0; stroke-dasharray: 5.0,5.0;" x1="399" x2="399" y1="64.5938" y2="385.7891"/><line style="stroke: #383838; stroke-width: 1.0; stroke-dasharray: 5.0,5.0;" x1="831" x2="831" y1="64.5938" y2="385.7891"/><line style="stroke: #383838; stroke-width: 1.0; stroke-dasharray: 5.0,5.0;" x1="931" x2="931" y1="64.5938" y2="385.7891"/><rect fill="#F8F8F8" height="30.2969" style="stroke: #383838; stroke-width: 1.5;" width="126" x="8" y="33.2969"/><text fill="#000000" font-family="Courier" font-size="14" lengthAdjust="spacingAndGlyphs" textLength="112" x="15" y="53.292">User Interface</text><rect fill="#F8F8F8" height="30.2969" style="stroke: #383838; stroke-width: 1.5;" width="126" x="8" y="384.7891"/><text fill="#000000" font-family="Courier" font-size="14" lengthAdjust="spacingAndGlyphs" textLength="112" x="15" y="404.7842">User Interface</text><rect fill="#F8F8F8" height="30.2969" style="stroke: #383838; stroke-width: 1.5;" width="118" x="340" y="33.2969"/><text fill="#000000" font-family="Courier" font-size="14" lengthAdjust="spacingAndGlyphs" textLength="104" x="347" y="53.292">Redux Actions</text><rect fill="#F8F8F8" height="30.2969" style="stroke: #383838; stroke-width: 1.5;" width="118" x="340" y="384.7891"/><text fill="#000000" font-family="Courier" font-size="14" lengthAdjust="spacingAndGlyphs" textLength="104" x="347" y="404.7842">Redux Actions</text><rect fill="#F8F8F8" height="30.2969" style="stroke: #383838; stroke-width: 1.5;" width="102" x="780" y="33.2969"/><text fill="#000000" font-family="Courier" font-size="14" lengthAdjust="spacingAndGlyphs" textLength="88" x="787" y="53.292">Redux Store</text><rect fill="#F8F8F8" height="30.2969" style="stroke: #383838; stroke-width: 1.5;" width="102" x="780" y="384.7891"/><text fill="#000000" font-family="Courier" font-size="14" lengthAdjust="spacingAndGlyphs" textLength="88" x="787" y="404.7842">Redux Store</text><rect fill="#F8F8F8" height="30.2969" style="stroke: #383838; stroke-width: 1.5;" width="78" x="892" y="33.2969"/><text fill="#000000" font-family="Courier" font-size="14" lengthAdjust="spacingAndGlyphs" textLength="64" x="899" y="53.292">Skip API</text><rect fill="#F8F8F8" height="30.2969" style="stroke: #383838; stroke-width: 1.5;" width="78" x="892" y="384.7891"/><text fill="#000000" font-family="Courier" font-size="14" lengthAdjust="spacingAndGlyphs" textLength="64" x="899" y="404.7842">Skip API</text><polygon fill="#383838" points="387,91.7266,397,95.7266,387,99.7266,391,95.7266" style="stroke: #383838; stroke-width: 1.0;"/><line style="stroke: #383838; stroke-width: 1.0;" x1="71" x2="393" y1="95.7266" y2="95.7266"/><text fill="#000000" font-family="Courier" font-size="13" lengthAdjust="spacingAndGlyphs" textLength="304" x="78" y="90.6606">dispatchShowResort(dispatch, resortId)</text><polygon fill="#383838" points="819,120.8594,829,124.8594,819,128.8594,823,124.8594" style="stroke: #383838; stroke-width: 1.0;"/><line style="stroke: #383838; stroke-width: 1.0;" x1="399" x2="825" y1="124.8594" y2="124.8594"/><text fill="#000000" font-family="Courier" font-size="13" lengthAdjust="spacingAndGlyphs" textLength="256" x="406" y="119.7935">dispatch("FETCHING_RESORT_INFO")</text><line style="stroke: #383838; stroke-width: 1.0;" x1="71" x2="113" y1="153.9922" y2="153.9922"/><line style="stroke: #383838; stroke-width: 1.0;" x1="113" x2="113" y1="153.9922" y2="166.9922"/><line style="stroke: #383838; stroke-width: 1.0;" x1="72" x2="113" y1="166.9922" y2="166.9922"/><polygon fill="#383838" points="82,162.9922,72,166.9922,82,170.9922,78,166.9922" style="stroke: #383838; stroke-width: 1.0;"/><text fill="#000000" font-family="Courier" font-size="13" lengthAdjust="spacingAndGlyphs" textLength="56" x="78" y="148.9263">refresh</text><polygon fill="#383838" points="919,192.125,929,196.125,919,200.125,923,196.125" style="stroke: #383838; stroke-width: 1.0;"/><line style="stroke: #383838; stroke-width: 1.0;" x1="399" x2="925" y1="196.125" y2="196.125"/><text fill="#000000" font-family="Courier" font-size="13" lengthAdjust="spacingAndGlyphs" textLength="104" x="406" y="191.0591">fetch(apiURL)</text><polygon fill="#383838" points="410,221.2578,400,225.2578,410,229.2578,406,225.2578" style="stroke: #383838; stroke-width: 1.0;"/><line style="stroke: #383838; stroke-width: 1.0;" x1="404" x2="930" y1="225.2578" y2="225.2578"/><text fill="#000000" font-family="Courier" font-size="13" lengthAdjust="spacingAndGlyphs" textLength="144" x="416" y="220.1919">return resort info</text><polygon fill="#383838" points="819,250.3906,829,254.3906,819,258.3906,823,254.3906" style="stroke: #383838; stroke-width: 1.0;"/><line style="stroke: #383838; stroke-width: 1.0;" x1="399" x2="825" y1="254.3906" y2="254.3906"/><text fill="#000000" font-family="Courier" font-size="13" lengthAdjust="spacingAndGlyphs" textLength="408" x="406" y="249.3247">dispatch("FETCHED_RESORT_INFO_SUCCESS", resortInfo)</text><line style="stroke: #383838; stroke-width: 1.0;" x1="71" x2="113" y1="283.5234" y2="283.5234"/><line style="stroke: #383838; stroke-width: 1.0;" x1="113" x2="113" y1="283.5234" y2="296.5234"/><line style="stroke: #383838; stroke-width: 1.0;" x1="72" x2="113" y1="296.5234" y2="296.5234"/><polygon fill="#383838" points="82,292.5234,72,296.5234,82,300.5234,78,296.5234" style="stroke: #383838; stroke-width: 1.0;"/><text fill="#000000" font-family="Courier" font-size="13" lengthAdjust="spacingAndGlyphs" textLength="56" x="78" y="278.4575">refresh</text><polygon fill="#383838" points="819,321.6563,829,325.6563,819,329.6563,823,325.6563" style="stroke: #383838; stroke-width: 1.0;"/><line style="stroke: #383838; stroke-width: 1.0;" x1="399" x2="825" y1="325.6563" y2="325.6563"/><text fill="#000000" font-family="Courier" font-size="13" lengthAdjust="spacingAndGlyphs" textLength="304" x="406" y="320.5903">dispatch("SHOW_RESORT_INFO", resortId)</text><line style="stroke: #383838; stroke-width: 1.0;" x1="71" x2="113" y1="354.7891" y2="354.7891"/><line style="stroke: #383838; stroke-width: 1.0;" x1="113" x2="113" y1="354.7891" y2="367.7891"/><line style="stroke: #383838; stroke-width: 1.0;" x1="72" x2="113" y1="367.7891" y2="367.7891"/><polygon fill="#383838" points="82,363.7891,72,367.7891,82,371.7891,78,367.7891" style="stroke: #383838; stroke-width: 1.0;"/><text fill="#000000" font-family="Courier" font-size="13" lengthAdjust="spacingAndGlyphs" textLength="56" x="78" y="349.7231">refresh</text></g></svg>