<?xml version="1.0" encoding="UTF-8" standalone="no"?><svg xmlns="http://www.w3.org/2000/svg" xmlns:xlink="http://www.w3.org/1999/xlink" contentScriptType="application/ecmascript" contentStyleType="text/css" height="1482px" preserveAspectRatio="none" style="width:3645px;height:1482px;" version="1.1" viewBox="0 0 3645 1482" width="3645px" zoomAndPan="magnify"><defs/><g><text fill="#000000" font-family="Courier" font-size="18" lengthAdjust="spacingAndGlyphs" textLength="132" x="1760" y="16.708">Logical View</text><rect fill="#FFFFFF" height="730" style="stroke: #000000; stroke-width: 1.5;" width="533" x="22" y="44.9531"/><rect fill="#FFFFFF" height="10" style="stroke: #000000; stroke-width: 1.5;" width="15" x="535" y="49.9531"/><rect fill="#FFFFFF" height="2" style="stroke: #000000; stroke-width: 1.5;" width="4" x="533" y="51.9531"/><rect fill="#FFFFFF" height="2" style="stroke: #000000; stroke-width: 1.5;" width="4" x="533" y="55.9531"/><text fill="#000000" font-family="Courier" font-size="14" font-weight="bold" lengthAdjust="spacingAndGlyphs" textLength="80" x="248.5" y="70.9482">Mobile App</text><rect fill="#FFFFFF" height="792" style="stroke: #000000; stroke-width: 1.5;" width="838" x="980" y="679.9531"/><rect fill="#FFFFFF" height="10" style="stroke: #000000; stroke-width: 1.5;" width="15" x="1798" y="684.9531"/><rect fill="#FFFFFF" height="2" style="stroke: #000000; stroke-width: 1.5;" width="4" x="1796" y="686.9531"/><rect fill="#FFFFFF" height="2" style="stroke: #000000; stroke-width: 1.5;" width="4" x="1796" y="690.9531"/><text fill="#000000" font-family="Courier" font-size="14" font-weight="bold" lengthAdjust="spacingAndGlyphs" textLength="288" x="1255" y="705.9482">Skip API (Kotlin + Spring framework)</text><rect fill="#FFFFFF" height="318.5" style="stroke: #000000; stroke-width: 1.5;" width="478" x="1028" y="1113.4531"/><rect fill="#FFFFFF" height="10" style="stroke: #000000; stroke-width: 1.5;" width="15" x="1486" y="1118.4531"/><rect fill="#FFFFFF" height="2" style="stroke: #000000; stroke-width: 1.5;" width="4" x="1484" y="1120.4531"/><rect fill="#FFFFFF" height="2" style="stroke: #000000; stroke-width: 1.5;" width="4" x="1484" y="1124.4531"/><text fill="#000000" font-family="Courier" font-size="14" font-weight="bold" lengthAdjust="spacingAndGlyphs" textLength="120" x="1207" y="1139.4482">Data Aggregator</text><rect fill="#FFFFFF" height="103" style="stroke: #000000; stroke-width: 1.5;" width="429" x="2848" y="1328.9531"/><rect fill="#FFFFFF" height="10" style="stroke: #000000; stroke-width: 1.5;" width="15" x="3257" y="1333.9531"/><rect fill="#FFFFFF" height="2" style="stroke: #000000; stroke-width: 1.5;" width="4" x="3255" y="1335.9531"/><rect fill="#FFFFFF" height="2" style="stroke: #000000; stroke-width: 1.5;" width="4" x="3255" y="1339.9531"/><text fill="#000000" font-family="Courier" font-size="14" font-weight="bold" lengthAdjust="spacingAndGlyphs" textLength="96" x="3014.5" y="1354.9482">External API</text><rect fill="#F8F8F8" height="36.2969" style="stroke: #383838; stroke-width: 1.5;" width="252" x="287" y="722.9531"/><rect fill="#F8F8F8" height="5" style="stroke: #383838; stroke-width: 1.5;" width="10" x="282" y="727.9531"/><rect fill="#F8F8F8" height="5" style="stroke: #383838; stroke-width: 1.5;" width="10" x="282" y="749.25"/><text fill="#000000" font-family="Courier" font-size="14" lengthAdjust="spacingAndGlyphs" textLength="232" x="297" y="745.9482">User Interface (React Native)</text><rect fill="#F8F8F8" height="36.2969" style="stroke: #383838; stroke-width: 1.5;" width="236" x="38" y="473.4531"/><rect fill="#F8F8F8" height="5" style="stroke: #383838; stroke-width: 1.5;" width="10" x="33" y="478.4531"/><rect fill="#F8F8F8" height="5" style="stroke: #383838; stroke-width: 1.5;" width="10" x="33" y="499.75"/><text fill="#000000" font-family="Courier" font-size="14" lengthAdjust="spacingAndGlyphs" textLength="216" x="48" y="496.4482">Redux Store (Redux + Thunk)</text><ellipse cx="318" cy="491.4531" fill="#F8F8F8" rx="8" ry="8" style="stroke: #383838; stroke-width: 2.0;"/><rect fill="#F8F8F8" height="36.2969" style="stroke: #383838; stroke-width: 1.5;" width="124" x="362" y="473.4531"/><rect fill="#F8F8F8" height="5" style="stroke: #383838; stroke-width: 1.5;" width="10" x="357" y="478.4531"/><rect fill="#F8F8F8" height="5" style="stroke: #383838; stroke-width: 1.5;" width="10" x="357" y="499.75"/><text fill="#000000" font-family="Courier" font-size="14" lengthAdjust="spacingAndGlyphs" textLength="104" x="372" y="496.4482">Redux Actions</text><ellipse cx="530" cy="491.4531" fill="#F8F8F8" rx="8" ry="8" style="stroke: #383838; stroke-width: 2.0;"/><rect fill="#F8F8F8" height="36.2969" style="stroke: #383838; stroke-width: 1.5;" width="164" x="373" y="223.9531"/><rect fill="#F8F8F8" height="5" style="stroke: #383838; stroke-width: 1.5;" width="10" x="368" y="228.9531"/><rect fill="#F8F8F8" height="5" style="stroke: #383838; stroke-width: 1.5;" width="10" x="368" y="250.25"/><text fill="#000000" font-family="Courier" font-size="14" lengthAdjust="spacingAndGlyphs" textLength="144" x="383" y="246.9482">LS Service (Realm)</text><ellipse cx="329" cy="241.9531" fill="#F8F8F8" rx="8" ry="8" style="stroke: #383838; stroke-width: 2.0;"/><rect fill="#F8F8F8" height="36.2969" style="stroke: #383838; stroke-width: 1.5;" width="124" x="287" y="79.9531"/><rect fill="#F8F8F8" height="5" style="stroke: #383838; stroke-width: 1.5;" width="10" x="282" y="84.9531"/><rect fill="#F8F8F8" height="5" style="stroke: #383838; stroke-width: 1.5;" width="10" x="282" y="106.25"/><text fill="#000000" font-family="Courier" font-size="14" lengthAdjust="spacingAndGlyphs" textLength="104" x="297" y="102.9482">Local Storage</text><ellipse cx="455" cy="97.9531" fill="#F8F8F8" rx="8" ry="8" style="stroke: #383838; stroke-width: 2.0;"/><rect fill="#F8F8F8" height="36.2969" style="stroke: #383838; stroke-width: 1.5;" width="100" x="1694" y="1371.9531"/><rect fill="#F8F8F8" height="5" style="stroke: #383838; stroke-width: 1.5;" width="10" x="1689" y="1376.9531"/><rect fill="#F8F8F8" height="5" style="stroke: #383838; stroke-width: 1.5;" width="10" x="1689" y="1398.25"/><text fill="#000000" font-family="Courier" font-size="14" lengthAdjust="spacingAndGlyphs" textLength="80" x="1704" y="1394.9482">Controller</text><rect fill="#F8F8F8" height="36.2969" style="stroke: #383838; stroke-width: 1.5;" width="76" x="1530" y="1371.9531"/><rect fill="#F8F8F8" height="5" style="stroke: #383838; stroke-width: 1.5;" width="10" x="1525" y="1376.9531"/><rect fill="#F8F8F8" height="5" style="stroke: #383838; stroke-width: 1.5;" width="10" x="1525" y="1398.25"/><text fill="#000000" font-family="Courier" font-size="14" lengthAdjust="spacingAndGlyphs" textLength="56" x="1540" y="1394.9482">Service</text><ellipse cx="1650" cy="1389.9531" fill="#F8F8F8" rx="8" ry="8" style="stroke: #383838; stroke-width: 2.0;"/><rect fill="#F8F8F8" height="36.2969" style="stroke: #383838; stroke-width: 1.5;" width="156" x="1638" y="907.4531"/><rect fill="#F8F8F8" height="5" style="stroke: #383838; stroke-width: 1.5;" width="10" x="1633" y="912.4531"/><rect fill="#F8F8F8" height="5" style="stroke: #383838; stroke-width: 1.5;" width="10" x="1633" y="933.75"/><text fill="#000000" font-family="Courier" font-size="14" lengthAdjust="spacingAndGlyphs" textLength="136" x="1648" y="930.4482">User Repositories</text><ellipse cx="1563" cy="1174.4531" fill="#F8F8F8" rx="8" ry="8" style="stroke: #383838; stroke-width: 2.0;"/><rect fill="#F8F8F8" height="36.2969" style="stroke: #383838; stroke-width: 1.5;" width="164" x="1112" y="722.9531"/><rect fill="#F8F8F8" height="5" style="stroke: #383838; stroke-width: 1.5;" width="10" x="1107" y="727.9531"/><rect fill="#F8F8F8" height="5" style="stroke: #383838; stroke-width: 1.5;" width="10" x="1107" y="749.25"/><text fill="#000000" font-family="Courier" font-size="14" lengthAdjust="spacingAndGlyphs" textLength="144" x="1122" y="745.9482">Cache repositories</text><ellipse cx="1117" cy="925.4531" fill="#F8F8F8" rx="8" ry="8" style="stroke: #383838; stroke-width: 2.0;"/><ellipse cx="1634" cy="1174.4531" fill="#F8F8F8" rx="8" ry="8" style="stroke: #383838; stroke-width: 2.0;"/><rect fill="#F8F8F8" height="36.2969" style="stroke: #383838; stroke-width: 1.5;" width="220" x="1071" y="1156.4531"/><rect fill="#F8F8F8" height="5" style="stroke: #383838; stroke-width: 1.5;" width="10" x="1066" y="1161.4531"/><rect fill="#F8F8F8" height="5" style="stroke: #383838; stroke-width: 1.5;" width="10" x="1066" y="1182.75"/><text fill="#000000" font-family="Courier" font-size="14" lengthAdjust="spacingAndGlyphs" textLength="200" x="1081" y="1179.4482">Snow Conditions Collector</text><rect fill="#F8F8F8" height="36.2969" style="stroke: #383838; stroke-width: 1.5;" width="156" x="1326" y="1156.4531"/><rect fill="#F8F8F8" height="5" style="stroke: #383838; stroke-width: 1.5;" width="10" x="1321" y="1161.4531"/><rect fill="#F8F8F8" height="5" style="stroke: #383838; stroke-width: 1.5;" width="10" x="1321" y="1182.75"/><text fill="#000000" font-family="Courier" font-size="14" lengthAdjust="spacingAndGlyphs" textLength="136" x="1336" y="1179.4482">Weather Collector</text><rect fill="#F8F8F8" height="36.2969" style="stroke: #383838; stroke-width: 1.5;" width="188" x="1087" y="1371.9531"/><rect fill="#F8F8F8" height="5" style="stroke: #383838; stroke-width: 1.5;" width="10" x="1082" y="1376.9531"/><rect fill="#F8F8F8" height="5" style="stroke: #383838; stroke-width: 1.5;" width="10" x="1082" y="1398.25"/><text fill="#000000" font-family="Courier" font-size="14" lengthAdjust="spacingAndGlyphs" textLength="168" x="1097" y="1394.9482">Resort Info Collector</text><rect fill="#F8F8F8" height="36.2969" style="stroke: #383838; stroke-width: 1.5;" width="124" x="1310" y="1371.9531"/><rect fill="#F8F8F8" height="5" style="stroke: #383838; stroke-width: 1.5;" width="10" x="1305" y="1376.9531"/><rect fill="#F8F8F8" height="5" style="stroke: #383838; stroke-width: 1.5;" width="10" x="1305" y="1398.25"/><text fill="#000000" font-family="Courier" font-size="14" lengthAdjust="spacingAndGlyphs" textLength="104" x="1320" y="1394.9482">Geo Collector</text><rect fill="#F8F8F8" height="36.2969" style="stroke: #383838; stroke-width: 1.5;" width="132" x="2891" y="1371.9531"/><rect fill="#F8F8F8" height="5" style="stroke: #383838; stroke-width: 1.5;" width="10" x="2886" y="1376.9531"/><rect fill="#F8F8F8" height="5" style="stroke: #383838; stroke-width: 1.5;" width="10" x="2886" y="1398.25"/><text fill="#000000" font-family="Courier" font-size="14" lengthAdjust="spacingAndGlyphs" textLength="112" x="2901" y="1394.9482">openweathermap</text><rect fill="#F8F8F8" height="36.2969" style="stroke: #383838; stroke-width: 1.5;" width="68" x="3058" y="1371.9531"/><rect fill="#F8F8F8" height="5" style="stroke: #383838; stroke-width: 1.5;" width="10" x="3053" y="1376.9531"/><rect fill="#F8F8F8" height="5" style="stroke: #383838; stroke-width: 1.5;" width="10" x="3053" y="1398.25"/><text fill="#000000" font-family="Courier" font-size="14" lengthAdjust="spacingAndGlyphs" textLength="48" x="3068" y="1394.9482">skiapi</text><rect fill="#F8F8F8" height="36.2969" style="stroke: #383838; stroke-width: 1.5;" width="92" x="3161" y="1371.9531"/><rect fill="#F8F8F8" height="5" style="stroke: #383838; stroke-width: 1.5;" width="10" x="3156" y="1376.9531"/><rect fill="#F8F8F8" height="5" style="stroke: #383838; stroke-width: 1.5;" width="10" x="3156" y="1398.25"/><text fill="#000000" font-family="Courier" font-size="14" lengthAdjust="spacingAndGlyphs" textLength="72" x="3171" y="1394.9482">onthesnow</text><ellipse cx="782" cy="491.4531" fill="#F8F8F8" rx="8" ry="8" style="stroke: #383838; stroke-width: 2.0;"/><rect fill="#F8F8F8" height="36.2969" style="stroke: #383838; stroke-width: 1.5;" width="204" x="1842" y="1156.4531"/><rect fill="#F8F8F8" height="5" style="stroke: #383838; stroke-width: 1.5;" width="10" x="1837" y="1161.4531"/><rect fill="#F8F8F8" height="5" style="stroke: #383838; stroke-width: 1.5;" width="10" x="1837" y="1182.75"/><text fill="#000000" font-family="Courier" font-size="14" lengthAdjust="spacingAndGlyphs" textLength="184" x="1852" y="1179.4482">Info db (elasticsearch)</text><ellipse cx="2090" cy="1174.4531" fill="#F8F8F8" rx="8" ry="8" style="stroke: #383838; stroke-width: 2.0;"/><rect fill="#F8F8F8" height="36.2969" style="stroke: #383838; stroke-width: 1.5;" width="140" x="1842" y="722.9531"/><rect fill="#F8F8F8" height="5" style="stroke: #383838; stroke-width: 1.5;" width="10" x="1837" y="727.9531"/><rect fill="#F8F8F8" height="5" style="stroke: #383838; stroke-width: 1.5;" width="10" x="1837" y="749.25"/><text fill="#000000" font-family="Courier" font-size="14" lengthAdjust="spacingAndGlyphs" textLength="120" x="1852" y="745.9482">User db (mySQL)</text><ellipse cx="2026" cy="740.9531" fill="#F8F8F8" rx="8" ry="8" style="stroke: #383838; stroke-width: 2.0;"/><rect fill="#F8F8F8" height="36.2969" style="stroke: #383838; stroke-width: 1.5;" width="148" x="590" y="473.4531"/><rect fill="#F8F8F8" height="5" style="stroke: #383838; stroke-width: 1.5;" width="10" x="585" y="478.4531"/><rect fill="#F8F8F8" height="5" style="stroke: #383838; stroke-width: 1.5;" width="10" x="585" y="499.75"/><text fill="#000000" font-family="Courier" font-size="14" lengthAdjust="spacingAndGlyphs" textLength="128" x="600" y="496.4482">Cache db (Redis)</text><ellipse cx="1194" cy="491.4531" fill="#F8F8F8" rx="8" ry="8" style="stroke: #383838; stroke-width: 2.0;"/><ellipse cx="2720" cy="1174.4531" fill="#F8F8F8" rx="8" ry="8" style="stroke: #383838; stroke-width: 2.0;"/><path d="M1765.5,367.9531 L1765.5,614.6797 A0,0 0 0 0 1765.5,614.6797 L1908,614.6797 L1912,722.7531 L1916,614.6797 L2058.5,614.6797 A0,0 0 0 0 2058.5,614.6797 L2058.5,377.9531 L2048.5,367.9531 L1765.5,367.9531 A0,0 0 0 0 1765.5,367.9531 " fill="#ECECEC" style="stroke: #383838; stroke-width: 1.0;"/><path d="M2048.5,367.9531 L2048.5,377.9531 L2058.5,377.9531 L2048.5,367.9531 " fill="#ECECEC" style="stroke: #383838; stroke-width: 1.0;"/><text fill="#000000" font-family="Courier" font-size="13" lengthAdjust="spacingAndGlyphs" textLength="80" x="1771.5" y="385.02">operation:</text><line style="stroke: #383838; stroke-width: 1.0; stroke-dasharray: 1.0,2.0;" x1="1766.5" x2="2057.5" y1="388.0859" y2="388.0859"/><text fill="#000000" font-family="Courier" font-size="13" lengthAdjust="spacingAndGlyphs" textLength="272" x="1771.5" y="404.1528">createRepository(Repository.class)</text><line style="stroke: #383838; stroke-width: 1.0;" x1="1766.5" x2="2057.5" y1="411.2188" y2="411.2188"/><text fill="#000000" font-family="Courier" font-size="13" lengthAdjust="spacingAndGlyphs" textLength="88" x="1771.5" y="427.2856">properties:</text><line style="stroke: #383838; stroke-width: 1.0; stroke-dasharray: 1.0,2.0;" x1="1766.5" x2="2057.5" y1="434.3516" y2="434.3516"/><text fill="#000000" font-family="Courier" font-size="13" lengthAdjust="spacingAndGlyphs" textLength="48" x="1771.5" y="450.4185">_users</text><text fill="#000000" font-family="Courier" font-size="13" lengthAdjust="spacingAndGlyphs" textLength="48" x="1771.5" y="465.5513">_trips</text><line style="stroke: #383838; stroke-width: 1.0;" x1="1766.5" x2="2057.5" y1="472.6172" y2="472.6172"/><text fill="#000000" font-family="Courier" font-size="13" lengthAdjust="spacingAndGlyphs" textLength="48" x="1771.5" y="488.6841">extra:</text><text fill="#000000" font-family="Courier" font-size="13" lengthAdjust="spacingAndGlyphs" textLength="0" x="1779.5" y="503.8169"/><line style="stroke: #383838; stroke-width: 1.0; stroke-dasharray: 1.0,2.0;" x1="1766.5" x2="2057.5" y1="510.8828" y2="510.8828"/><text fill="#000000" font-family="Courier" font-size="13" lengthAdjust="spacingAndGlyphs" textLength="184" x="1771.5" y="526.9497">A driver interacts with</text><text fill="#000000" font-family="Courier" font-size="13" lengthAdjust="spacingAndGlyphs" textLength="176" x="1771.5" y="542.0825">the specific database.</text><text fill="#000000" font-family="Courier" font-size="13" lengthAdjust="spacingAndGlyphs" textLength="176" x="1779.5" y="557.2153">Here we denote that we</text><text fill="#000000" font-family="Courier" font-size="13" lengthAdjust="spacingAndGlyphs" textLength="192" x="1771.5" y="572.3481">have the possibility the</text><text fill="#000000" font-family="Courier" font-size="13" lengthAdjust="spacingAndGlyphs" textLength="224" x="1771.5" y="587.481">create a repository with our</text><text fill="#000000" font-family="Courier" font-size="13" lengthAdjust="spacingAndGlyphs" textLength="232" x="1771.5" y="602.6138">framework through the driver.</text><path d="M2070.5,678.9531 L2070.5,802.8828 L2339.5,802.8828 L2339.5,688.9531 L2329.5,678.9531 L2070.5,678.9531 " fill="#ECECEC" style="stroke: #383838; stroke-width: 1.0;"/><path d="M2329.5,678.9531 L2329.5,688.9531 L2339.5,688.9531 L2329.5,678.9531 " fill="#ECECEC" style="stroke: #383838; stroke-width: 1.0;"/><text fill="#000000" font-family="Courier" font-size="13" lengthAdjust="spacingAndGlyphs" textLength="80" x="2076.5" y="696.02">operation:</text><line style="stroke: #383838; stroke-width: 1.0; stroke-dasharray: 1.0,2.0;" x1="2071.5" x2="2338.5" y1="699.0859" y2="699.0859"/><text fill="#000000" font-family="Courier" font-size="13" lengthAdjust="spacingAndGlyphs" textLength="176" x="2076.5" y="715.1528">User.create(userInfo])</text><text fill="#000000" font-family="Courier" font-size="13" lengthAdjust="spacingAndGlyphs" textLength="136" x="2076.5" y="730.2856">User.find(userId)</text><text fill="#000000" font-family="Courier" font-size="13" lengthAdjust="spacingAndGlyphs" textLength="248" x="2076.5" y="745.4185">User.auth(userId, userPassword)</text><text fill="#000000" font-family="Courier" font-size="13" lengthAdjust="spacingAndGlyphs" textLength="248" x="2076.5" y="760.5513">Trip.create(usersId, startDate,</text><text fill="#000000" font-family="Courier" font-size="13" lengthAdjust="spacingAndGlyphs" textLength="144" x="2084.5" y="775.6841">endDate, resortId,</text><text fill="#000000" font-family="Courier" font-size="13" lengthAdjust="spacingAndGlyphs" textLength="224" x="2076.5" y="790.8169">travelType, available spots)</text><path d="M2374.5,674.9531 L2374.5,806.8828 L2595.5,806.8828 L2595.5,684.9531 L2585.5,674.9531 L2374.5,674.9531 " fill="#ECECEC" style="stroke: #383838; stroke-width: 1.0;"/><path d="M2585.5,674.9531 L2585.5,684.9531 L2595.5,684.9531 L2585.5,674.9531 " fill="#ECECEC" style="stroke: #383838; stroke-width: 1.0;"/><text fill="#000000" font-family="Courier" font-size="13" lengthAdjust="spacingAndGlyphs" textLength="80" x="2380.5" y="692.02">operation:</text><line style="stroke: #383838; stroke-width: 1.0; stroke-dasharray: 1.0,2.0;" x1="2375.5" x2="2594.5" y1="695.0859" y2="695.0859"/><text fill="#000000" font-family="Courier" font-size="13" lengthAdjust="spacingAndGlyphs" textLength="160" x="2380.5" y="711.1528">createUser(userInfo)</text><text fill="#000000" font-family="Courier" font-size="13" lengthAdjust="spacingAndGlyphs" textLength="160" x="2380.5" y="726.2856">createTrip(tripInfo)</text><text fill="#000000" font-family="Courier" font-size="13" lengthAdjust="spacingAndGlyphs" textLength="200" x="2380.5" y="741.4185">findMatchingTrips(userId)</text><line style="stroke: #383838; stroke-width: 1.0;" x1="2375.5" x2="2594.5" y1="748.4844" y2="748.4844"/><text fill="#000000" font-family="Courier" font-size="13" lengthAdjust="spacingAndGlyphs" textLength="72" x="2380.5" y="764.5513">requires:</text><text fill="#000000" font-family="Courier" font-size="13" lengthAdjust="spacingAndGlyphs" textLength="104" x="2380.5" y="779.6841">UserDB.User.*</text><text fill="#000000" font-family="Courier" font-size="13" lengthAdjust="spacingAndGlyphs" textLength="104" x="2380.5" y="794.8169">UserDB.Trip.*</text><path d="M1849.5,866.9531 L1849.5,983.75 A0,0 0 0 0 1849.5,983.75 L1940,983.75 L1944,1156.3231 L1948,983.75 L2038.5,983.75 A0,0 0 0 0 2038.5,983.75 L2038.5,876.9531 L2028.5,866.9531 L1849.5,866.9531 A0,0 0 0 0 1849.5,866.9531 " fill="#ECECEC" style="stroke: #383838; stroke-width: 1.0;"/><path d="M2028.5,866.9531 L2028.5,876.9531 L2038.5,876.9531 L2028.5,866.9531 " fill="#ECECEC" style="stroke: #383838; stroke-width: 1.0;"/><text fill="#000000" font-family="Courier" font-size="13" lengthAdjust="spacingAndGlyphs" textLength="80" x="1855.5" y="884.02">operation:</text><line style="stroke: #383838; stroke-width: 1.0; stroke-dasharray: 1.0,2.0;" x1="1850.5" x2="2037.5" y1="887.0859" y2="887.0859"/><text fill="#000000" font-family="Courier" font-size="13" lengthAdjust="spacingAndGlyphs" textLength="104" x="1855.5" y="903.1528">search(query)</text><text fill="#000000" font-family="Courier" font-size="13" lengthAdjust="spacingAndGlyphs" textLength="168" x="1855.5" y="918.2856">addDocument(document)</text><line style="stroke: #383838; stroke-width: 1.0;" x1="1850.5" x2="2037.5" y1="925.3516" y2="925.3516"/><text fill="#000000" font-family="Courier" font-size="13" lengthAdjust="spacingAndGlyphs" textLength="48" x="1855.5" y="941.4185">extra:</text><text fill="#000000" font-family="Courier" font-size="13" lengthAdjust="spacingAndGlyphs" textLength="136" x="1855.5" y="956.5513">methods represent</text><text fill="#000000" font-family="Courier" font-size="13" lengthAdjust="spacingAndGlyphs" textLength="128" x="1855.5" y="971.6841">routes of ES API</text><path d="M2764.5,1127.4531 L2764.5,1221.1172 A0,0 0 0 0 2764.5,1221.1172 L2898.1,1221.1172 L2951.32,1371.6131 L2906.1,1221.1172 L3009.5,1221.1172 A0,0 0 0 0 3009.5,1221.1172 L3009.5,1137.4531 L2999.5,1127.4531 L2764.5,1127.4531 A0,0 0 0 0 2764.5,1127.4531 " fill="#ECECEC" style="stroke: #383838; stroke-width: 1.0;"/><path d="M2999.5,1127.4531 L2999.5,1137.4531 L3009.5,1137.4531 L2999.5,1127.4531 " fill="#ECECEC" style="stroke: #383838; stroke-width: 1.0;"/><text fill="#000000" font-family="Courier" font-size="13" lengthAdjust="spacingAndGlyphs" textLength="80" x="2770.5" y="1144.52">operation:</text><line style="stroke: #383838; stroke-width: 1.0; stroke-dasharray: 1.0,2.0;" x1="2765.5" x2="3008.5" y1="1147.5859" y2="1147.5859"/><text fill="#000000" font-family="Courier" font-size="13" lengthAdjust="spacingAndGlyphs" textLength="216" x="2770.5" y="1163.6528">getWeatherHistory(lat, lon)</text><text fill="#000000" font-family="Courier" font-size="13" lengthAdjust="spacingAndGlyphs" textLength="224" x="2770.5" y="1178.7856">getWeatherForecast(lat, lon)</text><text fill="#000000" font-family="Courier" font-size="13" lengthAdjust="spacingAndGlyphs" textLength="0" x="2778.5" y="1193.9185"/><text fill="#000000" font-family="Courier" font-size="13" lengthAdjust="spacingAndGlyphs" textLength="0" x="2778.5" y="1209.0513"/><path d="M3044.5,1127.4531 L3044.5,1221.1172 A0,0 0 0 0 3044.5,1221.1172 L3143.68,1221.1172 L3097.77,1371.6131 L3151.68,1221.1172 L3281.5,1221.1172 A0,0 0 0 0 3281.5,1221.1172 L3281.5,1137.4531 L3271.5,1127.4531 L3044.5,1127.4531 A0,0 0 0 0 3044.5,1127.4531 " fill="#ECECEC" style="stroke: #383838; stroke-width: 1.0;"/><path d="M3271.5,1127.4531 L3271.5,1137.4531 L3281.5,1137.4531 L3271.5,1127.4531 " fill="#ECECEC" style="stroke: #383838; stroke-width: 1.0;"/><text fill="#000000" font-family="Courier" font-size="13" lengthAdjust="spacingAndGlyphs" textLength="80" x="3050.5" y="1144.52">operation:</text><line style="stroke: #383838; stroke-width: 1.0; stroke-dasharray: 1.0,2.0;" x1="3045.5" x2="3280.5" y1="1147.5859" y2="1147.5859"/><text fill="#000000" font-family="Courier" font-size="13" lengthAdjust="spacingAndGlyphs" textLength="216" x="3050.5" y="1163.6528">getResortTweets(resortName)</text><text fill="#000000" font-family="Courier" font-size="13" lengthAdjust="spacingAndGlyphs" textLength="200" x="3050.5" y="1178.7856">getResortSnow(resortName)</text><text fill="#000000" font-family="Courier" font-size="13" lengthAdjust="spacingAndGlyphs" textLength="0" x="3058.5" y="1193.9185"/><text fill="#000000" font-family="Courier" font-size="13" lengthAdjust="spacingAndGlyphs" textLength="0" x="3058.5" y="1209.0513"/><path d="M3316.5,1142.9531 L3316.5,1206.3516 A0,0 0 0 0 3316.5,1206.3516 L3432.6,1206.3516 L3228.53,1371.8031 L3440.6,1206.3516 L3633.5,1206.3516 A0,0 0 0 0 3633.5,1206.3516 L3633.5,1152.9531 L3623.5,1142.9531 L3316.5,1142.9531 A0,0 0 0 0 3316.5,1142.9531 " fill="#ECECEC" style="stroke: #383838; stroke-width: 1.0;"/><path d="M3623.5,1142.9531 L3623.5,1152.9531 L3633.5,1152.9531 L3623.5,1142.9531 " fill="#ECECEC" style="stroke: #383838; stroke-width: 1.0;"/><text fill="#000000" font-family="Courier" font-size="13" lengthAdjust="spacingAndGlyphs" textLength="80" x="3322.5" y="1160.02">operation:</text><line style="stroke: #383838; stroke-width: 1.0; stroke-dasharray: 1.0,2.0;" x1="3317.5" x2="3632.5" y1="1163.0859" y2="1163.0859"/><text fill="#000000" font-family="Courier" font-size="13" lengthAdjust="spacingAndGlyphs" textLength="296" x="3322.5" y="1179.1528">getResortsInRadius(lat, long, radius)</text><text fill="#000000" font-family="Courier" font-size="13" lengthAdjust="spacingAndGlyphs" textLength="184" x="3322.5" y="1194.2856">getResortInfo(resortId)</text><path d="M825.5,421.9531 L825.5,561.0156 L1150.5,561.0156 L1150.5,431.9531 L1140.5,421.9531 L825.5,421.9531 " fill="#ECECEC" style="stroke: #383838; stroke-width: 1.0;"/><path d="M1140.5,421.9531 L1140.5,431.9531 L1150.5,431.9531 L1140.5,421.9531 " fill="#ECECEC" style="stroke: #383838; stroke-width: 1.0;"/><text fill="#000000" font-family="Courier" font-size="13" lengthAdjust="spacingAndGlyphs" textLength="80" x="831.5" y="439.02">operation:</text><line style="stroke: #383838; stroke-width: 1.0; stroke-dasharray: 1.0,2.0;" x1="826.5" x2="1149.5" y1="442.0859" y2="442.0859"/><text fill="#000000" font-family="Courier" font-size="13" lengthAdjust="spacingAndGlyphs" textLength="160" x="831.5" y="458.1528">createUser(userInfo)</text><text fill="#000000" font-family="Courier" font-size="13" lengthAdjust="spacingAndGlyphs" textLength="304" x="831.5" y="473.2856">createTrip(userId, userAuth, tripInfo)</text><text fill="#000000" font-family="Courier" font-size="13" lengthAdjust="spacingAndGlyphs" textLength="256" x="831.5" y="488.4185">matchUserTrips(userId, userAuth)</text><text fill="#000000" font-family="Courier" font-size="13" lengthAdjust="spacingAndGlyphs" textLength="208" x="831.5" y="503.5513">authUser(userId, password)</text><text fill="#000000" font-family="Courier" font-size="13" lengthAdjust="spacingAndGlyphs" textLength="184" x="831.5" y="518.6841">getResortInfo(resortId)</text><text fill="#000000" font-family="Courier" font-size="13" lengthAdjust="spacingAndGlyphs" textLength="240" x="831.5" y="533.8169">getCloseResorts(lat,lon, dist)</text><text fill="#000000" font-family="Courier" font-size="13" lengthAdjust="spacingAndGlyphs" textLength="216" x="831.5" y="548.9497">getOverview(lat, lon, dist)</text><path d="M2134.5,1043.9531 L2134.5,1304.9453 L2395.5,1304.9453 L2395.5,1053.9531 L2385.5,1043.9531 L2134.5,1043.9531 " fill="#ECECEC" style="stroke: #383838; stroke-width: 1.0;"/><path d="M2385.5,1043.9531 L2385.5,1053.9531 L2395.5,1053.9531 L2385.5,1043.9531 " fill="#ECECEC" style="stroke: #383838; stroke-width: 1.0;"/><text fill="#000000" font-family="Courier" font-size="13" lengthAdjust="spacingAndGlyphs" textLength="80" x="2140.5" y="1061.02">operation:</text><line style="stroke: #383838; stroke-width: 1.0; stroke-dasharray: 1.0,2.0;" x1="2135.5" x2="2394.5" y1="1064.0859" y2="1064.0859"/><text fill="#000000" font-family="Courier" font-size="13" lengthAdjust="spacingAndGlyphs" textLength="160" x="2140.5" y="1080.1528">createUser(userInfo)</text><text fill="#000000" font-family="Courier" font-size="13" lengthAdjust="spacingAndGlyphs" textLength="224" x="2140.5" y="1095.2856">createTrip(userId, tripInfo)</text><text fill="#000000" font-family="Courier" font-size="13" lengthAdjust="spacingAndGlyphs" textLength="128" x="2140.5" y="1110.4185">findUser(userId)</text><text fill="#000000" font-family="Courier" font-size="13" lengthAdjust="spacingAndGlyphs" textLength="176" x="2140.5" y="1125.5513">matchUserTrips(userId)</text><text fill="#000000" font-family="Courier" font-size="13" lengthAdjust="spacingAndGlyphs" textLength="208" x="2140.5" y="1140.6841">authUser(userId, password)</text><text fill="#000000" font-family="Courier" font-size="13" lengthAdjust="spacingAndGlyphs" textLength="184" x="2140.5" y="1155.8169">getResortInfo(resortId)</text><text fill="#000000" font-family="Courier" font-size="13" lengthAdjust="spacingAndGlyphs" textLength="240" x="2140.5" y="1170.9497">getCloseResorts(lat,lon, dist)</text><text fill="#000000" font-family="Courier" font-size="13" lengthAdjust="spacingAndGlyphs" textLength="216" x="2140.5" y="1186.0825">getOverview(lat, lon, dist)</text><text fill="#000000" font-family="Courier" font-size="13" lengthAdjust="spacingAndGlyphs" textLength="200" x="2140.5" y="1201.2153">addSnowUpdate(snowUpdate)</text><line style="stroke: #383838; stroke-width: 1.0;" x1="2135.5" x2="2394.5" y1="1208.2813" y2="1208.2813"/><text fill="#000000" font-family="Courier" font-size="13" lengthAdjust="spacingAndGlyphs" textLength="72" x="2140.5" y="1224.3481">requires:</text><line style="stroke: #383838; stroke-width: 1.0; stroke-dasharray: 1.0,2.0;" x1="2135.5" x2="2394.5" y1="1231.4141" y2="1231.4141"/><text fill="#000000" font-family="Courier" font-size="13" lengthAdjust="spacingAndGlyphs" textLength="128" x="2140.5" y="1247.481">DataAggregator.*</text><text fill="#000000" font-family="Courier" font-size="13" lengthAdjust="spacingAndGlyphs" textLength="144" x="2140.5" y="1262.6138">UserRepositories.*</text><text fill="#000000" font-family="Courier" font-size="13" lengthAdjust="spacingAndGlyphs" textLength="224" x="2140.5" y="1277.7466">InfoDb.addDocument(document)</text><text fill="#000000" font-family="Courier" font-size="13" lengthAdjust="spacingAndGlyphs" textLength="0" x="2148.5" y="1292.8794"/><path d="M2430.5,1096.9531 L2430.5,1252.0156 L2675.5,1252.0156 L2675.5,1106.9531 L2665.5,1096.9531 L2430.5,1096.9531 " fill="#ECECEC" style="stroke: #383838; stroke-width: 1.0;"/><path d="M2665.5,1096.9531 L2665.5,1106.9531 L2675.5,1106.9531 L2665.5,1096.9531 " fill="#ECECEC" style="stroke: #383838; stroke-width: 1.0;"/><text fill="#000000" font-family="Courier" font-size="13" lengthAdjust="spacingAndGlyphs" textLength="80" x="2436.5" y="1114.02">operation:</text><line style="stroke: #383838; stroke-width: 1.0; stroke-dasharray: 1.0,2.0;" x1="2431.5" x2="2674.5" y1="1117.0859" y2="1117.0859"/><text fill="#000000" font-family="Courier" font-size="13" lengthAdjust="spacingAndGlyphs" textLength="192" x="2436.5" y="1133.1528">handleUserRoute(request)</text><text fill="#000000" font-family="Courier" font-size="13" lengthAdjust="spacingAndGlyphs" textLength="208" x="2436.5" y="1148.2856">handleResortRoute(request)</text><text fill="#000000" font-family="Courier" font-size="13" lengthAdjust="spacingAndGlyphs" textLength="192" x="2436.5" y="1163.4185">handleTripRoute(request)</text><text fill="#000000" font-family="Courier" font-size="13" lengthAdjust="spacingAndGlyphs" textLength="224" x="2436.5" y="1178.5513">handleOverviewRoute(request)</text><line style="stroke: #383838; stroke-width: 1.0;" x1="2431.5" x2="2674.5" y1="1185.6172" y2="1185.6172"/><text fill="#000000" font-family="Courier" font-size="13" lengthAdjust="spacingAndGlyphs" textLength="72" x="2436.5" y="1201.6841">requires:</text><line style="stroke: #383838; stroke-width: 1.0; stroke-dasharray: 1.0,2.0;" x1="2431.5" x2="2674.5" y1="1208.75" y2="1208.75"/><text fill="#000000" font-family="Courier" font-size="13" lengthAdjust="spacingAndGlyphs" textLength="72" x="2436.5" y="1224.8169">Service.*</text><text fill="#000000" font-family="Courier" font-size="13" lengthAdjust="spacingAndGlyphs" textLength="0" x="2444.5" y="1239.9497"/><path d="M572.5,175.9531 L572.5,307.8828 A0,0 0 0 0 572.5,307.8828 L674.01,307.8828 L665.32,473.3031 L682.01,307.8828 L793.5,307.8828 A0,0 0 0 0 793.5,307.8828 L793.5,185.9531 L783.5,175.9531 L572.5,175.9531 A0,0 0 0 0 572.5,175.9531 " fill="#ECECEC" style="stroke: #383838; stroke-width: 1.0;"/><path d="M783.5,175.9531 L783.5,185.9531 L793.5,185.9531 L783.5,175.9531 " fill="#ECECEC" style="stroke: #383838; stroke-width: 1.0;"/><text fill="#000000" font-family="Courier" font-size="13" lengthAdjust="spacingAndGlyphs" textLength="80" x="578.5" y="193.02">operation:</text><line style="stroke: #383838; stroke-width: 1.0; stroke-dasharray: 1.0,2.0;" x1="573.5" x2="792.5" y1="196.0859" y2="196.0859"/><text fill="#000000" font-family="Courier" font-size="13" lengthAdjust="spacingAndGlyphs" textLength="200" x="578.5" y="212.1528">put(key, value, duration)</text><text fill="#000000" font-family="Courier" font-size="13" lengthAdjust="spacingAndGlyphs" textLength="88" x="578.5" y="227.2856">delete(key)</text><text fill="#000000" font-family="Courier" font-size="13" lengthAdjust="spacingAndGlyphs" textLength="64" x="578.5" y="242.4185">get(key)</text><line style="stroke: #383838; stroke-width: 1.0;" x1="573.5" x2="792.5" y1="249.4844" y2="249.4844"/><text fill="#000000" font-family="Courier" font-size="13" lengthAdjust="spacingAndGlyphs" textLength="48" x="578.5" y="265.5513">event:</text><text fill="#000000" font-family="Courier" font-size="13" lengthAdjust="spacingAndGlyphs" textLength="96" x="578.5" y="280.6841">data expires</text><text fill="#000000" font-family="Courier" font-size="13" lengthAdjust="spacingAndGlyphs" textLength="0" x="586.5" y="295.8169"/><path d="M1238.5,395.4531 L1238.5,587.9141 A0,0 0 0 0 1238.5,587.9141 L1319.72,587.9141 L1208.87,722.5031 L1327.72,587.9141 L1571.5,587.9141 A0,0 0 0 0 1571.5,587.9141 L1571.5,405.4531 L1561.5,395.4531 L1238.5,395.4531 A0,0 0 0 0 1238.5,395.4531 " fill="#ECECEC" style="stroke: #383838; stroke-width: 1.0;"/><path d="M1561.5,395.4531 L1561.5,405.4531 L1571.5,405.4531 L1561.5,395.4531 " fill="#ECECEC" style="stroke: #383838; stroke-width: 1.0;"/><text fill="#000000" font-family="Courier" font-size="13" lengthAdjust="spacingAndGlyphs" textLength="80" x="1244.5" y="412.52">operation:</text><line style="stroke: #383838; stroke-width: 1.0; stroke-dasharray: 1.0,2.0;" x1="1239.5" x2="1570.5" y1="415.5859" y2="415.5859"/><text fill="#000000" font-family="Courier" font-size="13" lengthAdjust="spacingAndGlyphs" textLength="136" x="1244.5" y="431.6528">Requests.get(src)</text><text fill="#000000" font-family="Courier" font-size="13" lengthAdjust="spacingAndGlyphs" textLength="264" x="1244.5" y="446.7856">Requests.put(src, data, duration)</text><text fill="#000000" font-family="Courier" font-size="13" lengthAdjust="spacingAndGlyphs" textLength="0" x="1252.5" y="461.9185"/><text fill="#000000" font-family="Courier" font-size="13" lengthAdjust="spacingAndGlyphs" textLength="176" x="1244.5" y="477.0513">Overview.get(lat, lon)</text><text fill="#000000" font-family="Courier" font-size="13" lengthAdjust="spacingAndGlyphs" textLength="112" x="1244.5" y="492.1841">Overview.get()</text><text fill="#000000" font-family="Courier" font-size="13" lengthAdjust="spacingAndGlyphs" textLength="312" x="1244.5" y="507.3169">Overview.put(lat, long, data, duration)</text><text fill="#000000" font-family="Courier" font-size="13" lengthAdjust="spacingAndGlyphs" textLength="0" x="1252.5" y="522.4497"/><line style="stroke: #383838; stroke-width: 1.0;" x1="1239.5" x2="1570.5" y1="529.5156" y2="529.5156"/><text fill="#000000" font-family="Courier" font-size="13" lengthAdjust="spacingAndGlyphs" textLength="48" x="1244.5" y="545.5825">event:</text><text fill="#000000" font-family="Courier" font-size="13" lengthAdjust="spacingAndGlyphs" textLength="96" x="1244.5" y="560.7153">data expires</text><text fill="#000000" font-family="Courier" font-size="13" lengthAdjust="spacingAndGlyphs" textLength="0" x="1252.5" y="575.8481"/><path d="M274.02,491.4531 C285.59,491.4531 297.16,491.4531 308.72,491.4531 " fill="none" id="RES-RES_" style="stroke: #383838; stroke-width: 1.0;"/><path d="M486.11,491.4531 C497.65,491.4531 509.2,491.4531 520.74,491.4531 " fill="none" id="REA-REA_" style="stroke: #383838; stroke-width: 1.0;"/><path d="M338.35,241.9531 C349.89,241.9531 361.44,241.9531 372.98,241.9531 " fill="none" id="MSRV_-MSRV" style="stroke: #383838; stroke-width: 1.0;"/><path d="M411.11,97.9531 C422.65,97.9531 434.2,97.9531 445.74,97.9531 " fill="none" id="LS-LS_" style="stroke: #383838; stroke-width: 1.0;"/><path d="M528.33,510.5731 C525.55,535.1331 518.66,579.9431 503,614.9531 C484.01,657.4331 449.25,699.9131 428.94,722.7731 " fill="none" id="REA_&lt;-UI" style="stroke: #383838; stroke-width: 1.0;"/><path d="M520.6344,502.7484 A9,9 0 0 0 537.4617 504.4625" fill="none" style="stroke: #383838; stroke-width: 1.5;"/><path d="M455,117.1831 C455,144.7831 455,196.7931 455,223.7631 " fill="none" id="LS_&lt;-MSRV" style="stroke: #383838; stroke-width: 1.0;"/><path d="M446.5428,110.0713 A9,9 0 0 0 463.4572 110.0713" fill="none" style="stroke: #383838; stroke-width: 1.5;"/><path d="M1606.12,1389.9531 C1617.66,1389.9531 1629.2,1389.9531 1640.74,1389.9531 " fill="none" id="SRV-SRV_" style="stroke: #383838; stroke-width: 1.0;"/><path d="M1695.56,943.5731 C1671.34,964.8431 1631.23,1003.3231 1607,1043.9531 C1581.95,1085.9631 1568.72,1144.2231 1564.51,1165.3731 " fill="none" id="UREP-UREP_" style="stroke: #383838; stroke-width: 1.0;"/><path d="M1186.76,759.1231 C1170.58,797.4531 1132.04,888.8031 1120.39,916.4131 " fill="none" id="CREP-CREP_" style="stroke: #383838; stroke-width: 1.0;"/><path d="M1030.3358,1113.3749 C1030.3389,1113.1099 1030.3425,1112.8444 1030.3464,1112.5787 C1030.3543,1112.0472 1030.3639,1111.5144 1030.3752,1110.9804 C1030.4203,1108.8443 1030.4929,1106.6887 1030.5963,1104.5194 C1032.25,1069.8106 1041.775,1031.6031 1072.5,1013.9531 C1122.31,985.3431 1539.69,985.3431 1589.5,1013.9531 C1643.16,1044.7731 1638.2,1136.2231 1635.13,1165.4031 " fill="none" id="AGG-AGG_" style="stroke: #383838; stroke-width: 1.0;"/><path d="M2046.09,1174.4531 C2057.64,1174.4531 2069.19,1174.4531 2080.74,1174.4531 " fill="none" id="IDB-IDB_" style="stroke: #383838; stroke-width: 1.0;"/><path d="M1982.36,740.9531 C1993.84,740.9531 2005.32,740.9531 2016.79,740.9531 " fill="none" id="UDB-UDB_" style="stroke: #383838; stroke-width: 1.0;"/><path d="M670.32,473.4031 C683.3,439.4531 716.57,366.9131 772.5,337.9531 C809.8,318.6431 1114.08,317.0331 1150.5,337.9531 C1201.66,367.3331 1197.8,454.0931 1195.06,482.4031 " fill="none" id="CDB-CDB_" style="stroke: #383838; stroke-width: 1.0;"/><path d="M2719.81,1183.7531 C2719.7,1205.4431 2721.87,1264.8631 2747,1304.9531 C2762.985,1330.4581 2789.64,1351.2056 2812.5888,1365.7006 C2824.0631,1372.9481 2834.6109,1378.6325 2842.4352,1382.5669 C2844.3912,1383.5505 2846.177,1384.4247 2847.7646,1385.1866 " fill="none" id="EA_-EA" style="stroke: #383838; stroke-width: 1.0;"/><path d="M1669.24,1389.9531 C1677.48,1389.9531 1685.72,1389.9531 1693.97,1389.9531 " fill="none" id="SRV_&lt;-CTRL" style="stroke: #383838; stroke-width: 1.0;"/><path d="M1662.2582,1398.4104 A9,9 0 0 0 1662.2582 1381.4959" fill="none" style="stroke: #383838; stroke-width: 1.5;"/><path d="M1563.43,1193.6131 C1564.38,1234.2631 1566.67,1332.0931 1567.6,1371.7831 " fill="none" id="UREP_&lt;-SRV" style="stroke: #383838; stroke-width: 1.0;"/><path d="M1554.8101,1186.846 A9,9 0 0 0 1571.7196 1186.4348" fill="none" style="stroke: #383838; stroke-width: 1.5;"/><path d="M2092.49,1193.7531 C2095.25,1222.5531 2095.65,1277.9131 2063,1304.9531 C2044.17,1320.5431 1644.67,1301.6331 1623,1312.9531 C1599.18,1325.3931 1583.22,1353.3731 1574.88,1371.6831 " fill="none" id="IDB_&lt;-SRV" style="stroke: #383838; stroke-width: 1.0;"/><path d="M2083.256,1187.5496 A9,9 0 0 0 2100.0567 1185.5916" fill="none" style="stroke: #383838; stroke-width: 1.5;"/><path d="M1631.58,1193.4831 C1627.87,1218.8231 1619.85,1266.2031 1607,1304.9531 C1599.06,1328.9131 1586.19,1355.0831 1577.42,1371.7331 " fill="none" id="AGG_&lt;-SRV" style="stroke: #383838; stroke-width: 1.0;"/><path d="M1624.1777,1185.3792 A9,9 0 0 0 1640.9289 1187.7239" fill="none" style="stroke: #383838; stroke-width: 1.5;"/><path d="M1105.88,943.0731 C1091.68,965.1331 1067.47,1005.7531 1055,1043.9531 C1050.5575,1057.5606 1047.1506,1072.3138 1044.5388,1086.8245 C1043.2328,1094.0799 1042.1256,1101.2747 1041.1871,1108.2354 C1040.9525,1109.9756 1040.7284,1111.7012 1040.5144,1113.4094 " fill="none" id="CREP_&lt;-AGG" style="stroke: #383838; stroke-width: 1.0;"/><path d="M1102.6891,932.5024 A9,9 0 0 0 1116.8366 941.7731" fill="none" style="stroke: #383838; stroke-width: 1.5;"/><path d="M2092.03,1155.1831 C2094.61,1118.9431 2093.92,1041.7631 2045.5,1013.9531 C1998.63,987.0331 1119.37,987.0331 1072.5,1013.9531 C1041.775,1031.6031 1032.25,1069.8106 1030.5963,1104.5194 C1030.4929,1106.6887 1030.4203,1108.8443 1030.3752,1110.9804 C1030.3639,1111.5144 1030.3543,1112.0472 1030.3464,1112.5787 C1030.3425,1112.8444 1030.3389,1113.1099 1030.3358,1113.3749 " fill="none" id="IDB_&lt;-AGG" style="stroke: #383838; stroke-width: 1.0;"/><path d="M2099.8234,1163.074 A9,9 0 0 0 2082.9733 1161.5993" fill="none" style="stroke: #383838; stroke-width: 1.5;"/><path d="M2722.03,1155.1831 C2724.61,1118.9431 2723.92,1041.7631 2675.5,1013.9531 C2636.89,991.7731 1111.11,991.7731 1072.5,1013.9531 C1041.775,1031.6031 1032.25,1069.8106 1030.5963,1104.5194 C1030.4929,1106.6887 1030.4203,1108.8443 1030.3752,1110.9804 C1030.3639,1111.5144 1030.3543,1112.0472 1030.3464,1112.5787 C1030.3425,1112.8444 1030.3389,1113.1099 1030.3358,1113.3749 " fill="none" id="EA_&lt;-AGG" style="stroke: #383838; stroke-width: 1.0;"/><path d="M2729.8234,1163.074 A9,9 0 0 0 2712.9733 1161.5993" fill="none" style="stroke: #383838; stroke-width: 1.5;"/><path d="M337.17,491.4531 C345.43,491.4531 353.68,491.4531 361.93,491.4531 " fill="none" id="RES_&lt;-REA" style="stroke: #383838; stroke-width: 1.0;"/><path d="M330.1882,499.9104 A9,9 0 0 0 330.1882 482.9959" fill="none" style="stroke: #383838; stroke-width: 1.5;"/><path d="M2022.65,760.1731 C2019.09,774.6431 2012.12,794.4631 1999,806.9531 C1941.89,861.3431 1904.56,836.0531 1832,866.9531 C1803.05,879.2831 1771.07,895.3231 1748.03,907.3231 " fill="none" id="UDB_&lt;-UREP" style="stroke: #383838; stroke-width: 1.0;"/><path d="M2015.8269,751.6107 A9,9 0 0 0 2032.3698 755.1366" fill="none" style="stroke: #383838; stroke-width: 1.5;"/><path d="M1194,510.7131 C1194,556.8331 1194,677.5131 1194,722.6131 " fill="none" id="CDB_&lt;-CREP" style="stroke: #383838; stroke-width: 1.0;"/><path d="M1185.5428,503.7613 A9,9 0 0 0 1202.4572 503.7613" fill="none" style="stroke: #383838; stroke-width: 1.5;"/><path d="M781.75,500.6831 C781.5,521.6131 783.33,577.8331 808,614.9531 C834.53,654.8831 878.55,685.7881 916.4163,706.8794 C935.3494,717.425 952.7441,725.5172 965.6448,731.0573 C968.87,732.4424 971.8144,733.6679 974.4316,734.7324 C975.7403,735.2647 976.9672,735.7566 978.1065,736.2082 C978.6762,736.4339 979.224,736.6496 979.7491,736.8551 " fill="none" id="SA_-SA" style="stroke: #383838; stroke-width: 1.0;"/><path d="M783.73,472.0931 C785.62,437.0831 783.54,364.4031 737.5,337.9531 C695.68,313.9331 562.71,314.6331 520.5,337.9531 C467.46,367.2531 439.62,439.2831 429.08,473.2131 " fill="none" id="SA_&lt;-REA" style="stroke: #383838; stroke-width: 1.0;"/><path d="M791.6456,479.9371 A9,9 0 0 0 774.7743 478.7285" fill="none" style="stroke: #383838; stroke-width: 1.5;"/><path d="M335.79,260.6331 C353.32,306.3031 399.96,427.8231 417.35,473.1131 " fill="none" id="MSRV_&lt;-REA" style="stroke: #383838; stroke-width: 1.0;"/><path d="M325.3624,257.0816 A9,9 0 0 0 341.1588 251.034" fill="none" style="stroke: #383838; stroke-width: 1.5;"/><path d="M2070.23,800.3831 C2064.1,802.6631 2058,804.8731 2052,806.9531 C1956.25,840.1731 1926.74,830.9431 1832,866.9531 C1801.95,878.3731 1769.28,894.9731 1746.29,907.4131 " fill="none" id="GMN69-UREP" style="stroke: #383838; stroke-width: 1.0; stroke-dasharray: 7.0,7.0;"/><path d="M2374.28,801.1031 C2368.51,803.2631 2362.73,805.2331 2357,806.9531 C2132.08,874.5231 2057.25,800.4731 1832,866.9531 C1800.09,876.3731 1766.31,894.1131 1743.48,907.4131 " fill="none" id="GMN72-UREP" style="stroke: #383838; stroke-width: 1.0; stroke-dasharray: 7.0,7.0;"/><path d="M988,561.0631 C988,597.1181 988,641.0181 988,676.3056 C988,677.4084 988,678.5027 988,679.5881 " fill="none" id="GMN87-SA" style="stroke: #383838; stroke-width: 1.0; stroke-dasharray: 7.0,7.0;"/><path d="M2134.44,1296.6931 C2128.4,1299.7831 2122.24,1302.5631 2116,1304.9531 C2090.42,1314.7531 1647.29,1300.2931 1623,1312.9531 C1599.17,1325.3731 1583.21,1353.3531 1574.87,1371.6731 " fill="none" id="GMN90-SRV" style="stroke: #383838; stroke-width: 1.0; stroke-dasharray: 7.0,7.0;"/><path d="M2487.18,1251.9931 C2465.62,1272.4231 2440.16,1292.3031 2413,1304.9531 C2302.63,1356.3331 1929.97,1379.6731 1794.1,1386.6231 " fill="none" id="GMN93-CTRL" style="stroke: #383838; stroke-width: 1.0; stroke-dasharray: 7.0,7.0;"/></g></svg>