<?xml version="1.0" encoding="UTF-8" standalone="no"?><svg xmlns="http://www.w3.org/2000/svg" xmlns:xlink="http://www.w3.org/1999/xlink" contentScriptType="application/ecmascript" contentStyleType="text/css" height="1378px" preserveAspectRatio="none" style="width:1769px;height:1378px;" version="1.1" viewBox="0 0 1769 1378" width="1769px" zoomAndPan="magnify"><defs/><g><rect fill="#FFFFFF" height="1196" style="stroke: #444444; stroke-width: 1.0; stroke-dasharray: 7.0,7.0;" width="1736" x="22" y="171"/><text fill="#000000" font-family="sans-serif" font-size="14" font-style="italic" lengthAdjust="spacingAndGlyphs" textLength="84" x="848" y="185.9951">«boundary»</text><text fill="#444444" font-family="sans-serif" font-size="16" font-weight="bold" lengthAdjust="spacingAndGlyphs" textLength="36" x="872" y="204.1484">skip</text><text fill="#444444" font-family="sans-serif" font-size="12" font-weight="bold" lengthAdjust="spacingAndGlyphs" textLength="62" x="859" y="219.0605">[System]</text><rect fill="#438DD5" height="266" style="stroke: #3C7FC0; stroke-width: 1.5;" width="257" x="54" y="875"/><text fill="#000000" font-family="sans-serif" font-size="14" font-style="italic" lengthAdjust="spacingAndGlyphs" textLength="83" x="141" y="889.9951">«container»</text><text fill="#FFFFFF" font-family="sans-serif" font-size="16" font-weight="bold" lengthAdjust="spacingAndGlyphs" textLength="220" x="72.5" y="908.1484">User Database container</text><text fill="#FFFFFF" font-family="sans-serif" font-size="12" font-style="italic" font-weight="bold" lengthAdjust="spacingAndGlyphs" textLength="57" x="154" y="923.0605">[MySQL]</text><text fill="#FFFFFF" font-family="sans-serif" font-size="14" font-weight="bold" lengthAdjust="spacingAndGlyphs" textLength="0" x="185" y="938.8857"/><text fill="#FFFFFF" font-family="sans-serif" font-size="14" font-weight="bold" lengthAdjust="spacingAndGlyphs" textLength="0" x="185" y="955.1826"/><rect fill="#438DD5" height="450.5" style="stroke: #3C7FC0; stroke-width: 1.5;" width="492" x="351" y="884.5"/><text fill="#000000" font-family="sans-serif" font-size="14" font-style="italic" lengthAdjust="spacingAndGlyphs" textLength="83" x="555.5" y="899.4951">«container»</text><text fill="#FFFFFF" font-family="sans-serif" font-size="16" font-weight="bold" lengthAdjust="spacingAndGlyphs" textLength="116" x="539" y="917.6484">Info Provider</text><text fill="#FFFFFF" font-family="sans-serif" font-size="12" font-style="italic" font-weight="bold" lengthAdjust="spacingAndGlyphs" textLength="57" x="568.5" y="932.5605">[Docker]</text><text fill="#FFFFFF" font-family="sans-serif" font-size="14" font-weight="bold" lengthAdjust="spacingAndGlyphs" textLength="0" x="599.5" y="948.3857"/><text fill="#FFFFFF" font-family="sans-serif" font-size="14" font-weight="bold" lengthAdjust="spacingAndGlyphs" textLength="0" x="599.5" y="964.6826"/><rect fill="#438DD5" height="198" style="stroke: #3C7FC0; stroke-width: 1.5;" width="332" x="65" y="564.5"/><text fill="#000000" font-family="sans-serif" font-size="14" font-style="italic" lengthAdjust="spacingAndGlyphs" textLength="83" x="189.5" y="579.4951">«container»</text><text fill="#FFFFFF" font-family="sans-serif" font-size="16" font-weight="bold" lengthAdjust="spacingAndGlyphs" textLength="73" x="194.5" y="597.6484">Skip API</text><text fill="#FFFFFF" font-family="sans-serif" font-size="12" font-style="italic" font-weight="bold" lengthAdjust="spacingAndGlyphs" textLength="57" x="202.5" y="612.5605">[Docker]</text><rect fill="#438DD5" height="233" style="stroke: #3C7FC0; stroke-width: 1.5;" width="277" x="437" y="547"/><text fill="#000000" font-family="sans-serif" font-size="14" font-style="italic" lengthAdjust="spacingAndGlyphs" textLength="83" x="534" y="561.9951">«container»</text><text fill="#FFFFFF" font-family="sans-serif" font-size="16" font-weight="bold" lengthAdjust="spacingAndGlyphs" textLength="189" x="481" y="580.1484">aggregator container</text><text fill="#FFFFFF" font-family="sans-serif" font-size="12" font-style="italic" font-weight="bold" lengthAdjust="spacingAndGlyphs" textLength="57" x="547" y="595.0605">[Docker]</text><rect fill="#438DD5" height="559" style="stroke: #3C7FC0; stroke-width: 1.5;" width="506" x="883" y="564.5"/><text fill="#000000" font-family="sans-serif" font-size="14" font-style="italic" lengthAdjust="spacingAndGlyphs" textLength="83" x="1094.5" y="579.4951">«container»</text><text fill="#FFFFFF" font-family="sans-serif" font-size="16" font-weight="bold" lengthAdjust="spacingAndGlyphs" textLength="167" x="1052.5" y="597.6484">collector container</text><text fill="#FFFFFF" font-family="sans-serif" font-size="12" font-style="italic" font-weight="bold" lengthAdjust="spacingAndGlyphs" textLength="57" x="1107.5" y="612.5605">[Docker]</text><rect fill="#438DD5" height="198" style="stroke: #3C7FC0; stroke-width: 1.5;" width="173" x="65" y="254"/><text fill="#000000" font-family="sans-serif" font-size="14" font-style="italic" lengthAdjust="spacingAndGlyphs" textLength="83" x="110" y="268.9951">«container»</text><text fill="#FFFFFF" font-family="sans-serif" font-size="16" font-weight="bold" lengthAdjust="spacingAndGlyphs" textLength="95" x="104" y="287.1484">mobile app</text><text fill="#FFFFFF" font-family="sans-serif" font-size="12" font-style="italic" font-weight="bold" lengthAdjust="spacingAndGlyphs" textLength="115" x="94" y="302.0605">[External Device]</text><rect fill="#85BBF0" height="134.0781" style="stroke: #78A8D8; stroke-width: 1.5;" width="190" x="97" y="983"/><text fill="#FFFFFF" font-family="sans-serif" font-size="12" font-style="italic" lengthAdjust="spacingAndGlyphs" textLength="85" x="149.5" y="1004.1387">«component»</text><text fill="#000000" font-family="sans-serif" font-size="16" font-weight="bold" lengthAdjust="spacingAndGlyphs" textLength="130" x="124" y="1021.8203">User Database</text><text fill="#000000" font-family="sans-serif" font-size="16" font-weight="bold" lengthAdjust="spacingAndGlyphs" textLength="84" x="150" y="1040.4453">container</text><text fill="#000000" font-family="sans-serif" font-size="12" font-style="italic" lengthAdjust="spacingAndGlyphs" textLength="50" x="167" y="1055.3574">[MySQL]</text><text fill="#000000" font-family="sans-serif" font-size="14" lengthAdjust="spacingAndGlyphs" textLength="0" x="194" y="1071.1826"/><text fill="#000000" font-family="sans-serif" font-size="14" lengthAdjust="spacingAndGlyphs" textLength="166" x="107" y="1087.4795">Contains data about the</text><text fill="#000000" font-family="sans-serif" font-size="14" lengthAdjust="spacingAndGlyphs" textLength="39" x="172.5" y="1103.7764">users</text><rect fill="#85BBF0" height="115.4531" style="stroke: #78A8D8; stroke-width: 1.5;" width="190" x="394" y="992.5"/><text fill="#FFFFFF" font-family="sans-serif" font-size="12" font-style="italic" lengthAdjust="spacingAndGlyphs" textLength="85" x="446.5" y="1013.6387">«component»</text><text fill="#000000" font-family="sans-serif" font-size="16" font-weight="bold" lengthAdjust="spacingAndGlyphs" textLength="124" x="427" y="1031.3203">Info Database</text><text fill="#000000" font-family="sans-serif" font-size="12" font-style="italic" lengthAdjust="spacingAndGlyphs" textLength="92" x="443" y="1046.2324">[Elasticsearch]</text><text fill="#000000" font-family="sans-serif" font-size="14" lengthAdjust="spacingAndGlyphs" textLength="0" x="491" y="1062.0576"/><text fill="#000000" font-family="sans-serif" font-size="14" lengthAdjust="spacingAndGlyphs" textLength="166" x="404" y="1078.3545">Contains data about the</text><text fill="#000000" font-family="sans-serif" font-size="14" lengthAdjust="spacingAndGlyphs" textLength="49" x="464.5" y="1094.6514">resorts</text><rect fill="#85BBF0" height="115.4531" style="stroke: #78A8D8; stroke-width: 1.5;" width="199" x="619.5" y="992.5"/><text fill="#FFFFFF" font-family="sans-serif" font-size="12" font-style="italic" lengthAdjust="spacingAndGlyphs" textLength="85" x="676.5" y="1013.6387">«component»</text><text fill="#000000" font-family="sans-serif" font-size="16" font-weight="bold" lengthAdjust="spacingAndGlyphs" textLength="129" x="654.5" y="1031.3203">Reverse proxy</text><text fill="#000000" font-family="sans-serif" font-size="12" font-style="italic" lengthAdjust="spacingAndGlyphs" textLength="45" x="696.5" y="1046.2324">[Kotlin]</text><text fill="#000000" font-family="sans-serif" font-size="14" lengthAdjust="spacingAndGlyphs" textLength="0" x="721" y="1062.0576"/><text fill="#000000" font-family="sans-serif" font-size="14" lengthAdjust="spacingAndGlyphs" textLength="175" x="629.5" y="1078.3545">if possible uses cache for</text><text fill="#000000" font-family="sans-serif" font-size="14" lengthAdjust="spacingAndGlyphs" textLength="148" x="645" y="1094.6514">expensive operations</text><rect fill="#85BBF0" height="115.4531" style="stroke: #78A8D8; stroke-width: 1.5;" width="168" x="405" y="1196"/><text fill="#FFFFFF" font-family="sans-serif" font-size="12" font-style="italic" lengthAdjust="spacingAndGlyphs" textLength="85" x="446.5" y="1217.1387">«component»</text><text fill="#000000" font-family="sans-serif" font-size="16" font-weight="bold" lengthAdjust="spacingAndGlyphs" textLength="80" x="449" y="1234.8203">cache db</text><text fill="#000000" font-family="sans-serif" font-size="12" font-style="italic" lengthAdjust="spacingAndGlyphs" textLength="45" x="466.5" y="1249.7324">[Kotlin]</text><text fill="#000000" font-family="sans-serif" font-size="14" lengthAdjust="spacingAndGlyphs" textLength="0" x="491" y="1265.5576"/><text fill="#000000" font-family="sans-serif" font-size="14" lengthAdjust="spacingAndGlyphs" textLength="127" x="423.5" y="1281.8545">caches reusults of</text><text fill="#000000" font-family="sans-serif" font-size="14" lengthAdjust="spacingAndGlyphs" textLength="148" x="415" y="1298.1514">expensive operations</text><rect fill="#85BBF0" height="99.1563" style="stroke: #78A8D8; stroke-width: 1.5;" width="124" x="249" y="639.5"/><text fill="#FFFFFF" font-family="sans-serif" font-size="12" font-style="italic" lengthAdjust="spacingAndGlyphs" textLength="85" x="268.5" y="660.6387">«component»</text><text fill="#000000" font-family="sans-serif" font-size="16" font-weight="bold" lengthAdjust="spacingAndGlyphs" textLength="86" x="268" y="678.3203">controller</text><text fill="#000000" font-family="sans-serif" font-size="12" font-style="italic" lengthAdjust="spacingAndGlyphs" textLength="104" x="259" y="693.2324">[MVC: controller]</text><text fill="#000000" font-family="sans-serif" font-size="14" lengthAdjust="spacingAndGlyphs" textLength="0" x="313" y="709.0576"/><text fill="#000000" font-family="sans-serif" font-size="14" lengthAdjust="spacingAndGlyphs" textLength="38" x="292" y="725.3545">Kotlin</text><rect fill="#85BBF0" height="99.1563" style="stroke: #78A8D8; stroke-width: 1.5;" width="105" x="108.5" y="639.5"/><text fill="#FFFFFF" font-family="sans-serif" font-size="12" font-style="italic" lengthAdjust="spacingAndGlyphs" textLength="85" x="118.5" y="660.6387">«component»</text><text fill="#000000" font-family="sans-serif" font-size="16" font-weight="bold" lengthAdjust="spacingAndGlyphs" textLength="64" x="129" y="678.3203">service</text><text fill="#000000" font-family="sans-serif" font-size="12" font-style="italic" lengthAdjust="spacingAndGlyphs" textLength="82" x="120" y="693.2324">[MVC: model]</text><text fill="#000000" font-family="sans-serif" font-size="14" lengthAdjust="spacingAndGlyphs" textLength="0" x="163" y="709.0576"/><text fill="#000000" font-family="sans-serif" font-size="14" lengthAdjust="spacingAndGlyphs" textLength="38" x="142" y="725.3545">Kotlin</text><rect fill="#85BBF0" height="134.0781" style="stroke: #78A8D8; stroke-width: 1.5;" width="210" x="480" y="622"/><text fill="#FFFFFF" font-family="sans-serif" font-size="12" font-style="italic" lengthAdjust="spacingAndGlyphs" textLength="85" x="542.5" y="643.1387">«component»</text><text fill="#000000" font-family="sans-serif" font-size="16" font-weight="bold" lengthAdjust="spacingAndGlyphs" textLength="99" x="532.5" y="660.8203">aggregator</text><text fill="#000000" font-family="sans-serif" font-size="16" font-weight="bold" lengthAdjust="spacingAndGlyphs" textLength="100" x="535" y="679.4453">component</text><text fill="#000000" font-family="sans-serif" font-size="12" font-style="italic" lengthAdjust="spacingAndGlyphs" textLength="53" x="558.5" y="694.3574">[Python]</text><text fill="#000000" font-family="sans-serif" font-size="14" lengthAdjust="spacingAndGlyphs" textLength="0" x="587" y="710.1826"/><text fill="#000000" font-family="sans-serif" font-size="14" lengthAdjust="spacingAndGlyphs" textLength="186" x="490" y="726.4795">aggregates content for the</text><text fill="#000000" font-family="sans-serif" font-size="14" lengthAdjust="spacingAndGlyphs" textLength="49" x="560.5" y="742.7764">service</text><rect fill="#85BBF0" height="99.1563" style="stroke: #78A8D8; stroke-width: 1.5;" width="202" x="907" y="639.5"/><text fill="#FFFFFF" font-family="sans-serif" font-size="12" font-style="italic" lengthAdjust="spacingAndGlyphs" textLength="85" x="965.5" y="660.6387">«component»</text><text fill="#000000" font-family="sans-serif" font-size="16" font-weight="bold" lengthAdjust="spacingAndGlyphs" textLength="94" x="961" y="678.3203">collector 1</text><text fill="#000000" font-family="sans-serif" font-size="12" font-style="italic" lengthAdjust="spacingAndGlyphs" textLength="53" x="981.5" y="693.2324">[Python]</text><text fill="#000000" font-family="sans-serif" font-size="14" lengthAdjust="spacingAndGlyphs" textLength="0" x="1010" y="709.0576"/><text fill="#000000" font-family="sans-serif" font-size="14" lengthAdjust="spacingAndGlyphs" textLength="182" x="917" y="725.3545">collects data from sources</text><rect fill="#85BBF0" height="99.1563" style="stroke: #78A8D8; stroke-width: 1.5;" width="202" x="1144" y="639.5"/><text fill="#FFFFFF" font-family="sans-serif" font-size="12" font-style="italic" lengthAdjust="spacingAndGlyphs" textLength="85" x="1202.5" y="660.6387">«component»</text><text fill="#000000" font-family="sans-serif" font-size="16" font-weight="bold" lengthAdjust="spacingAndGlyphs" textLength="94" x="1198" y="678.3203">collector 2</text><text fill="#000000" font-family="sans-serif" font-size="12" font-style="italic" lengthAdjust="spacingAndGlyphs" textLength="53" x="1218.5" y="693.2324">[Python]</text><text fill="#000000" font-family="sans-serif" font-size="14" lengthAdjust="spacingAndGlyphs" textLength="0" x="1247" y="709.0576"/><text fill="#000000" font-family="sans-serif" font-size="14" lengthAdjust="spacingAndGlyphs" textLength="182" x="1154" y="725.3545">collects data from sources</text><rect fill="#85BBF0" height="99.1563" style="stroke: #78A8D8; stroke-width: 1.5;" width="202" x="907" y="1000.5"/><text fill="#FFFFFF" font-family="sans-serif" font-size="12" font-style="italic" lengthAdjust="spacingAndGlyphs" textLength="85" x="965.5" y="1021.6387">«component»</text><text fill="#000000" font-family="sans-serif" font-size="16" font-weight="bold" lengthAdjust="spacingAndGlyphs" textLength="96" x="960" y="1039.3203">collector N</text><text fill="#000000" font-family="sans-serif" font-size="12" font-style="italic" lengthAdjust="spacingAndGlyphs" textLength="53" x="981.5" y="1054.2324">[Python]</text><text fill="#000000" font-family="sans-serif" font-size="14" lengthAdjust="spacingAndGlyphs" textLength="0" x="1010" y="1070.0576"/><text fill="#000000" font-family="sans-serif" font-size="14" lengthAdjust="spacingAndGlyphs" textLength="182" x="917" y="1086.3545">collects data from sources</text><rect fill="#85BBF0" height="99.1563" style="stroke: #78A8D8; stroke-width: 1.5;" width="105" x="108.5" y="329"/><text fill="#FFFFFF" font-family="sans-serif" font-size="12" font-style="italic" lengthAdjust="spacingAndGlyphs" textLength="85" x="118.5" y="350.1387">«component»</text><text fill="#000000" font-family="sans-serif" font-size="16" font-weight="bold" lengthAdjust="spacingAndGlyphs" textLength="18" x="152" y="367.8203">UI</text><text fill="#000000" font-family="sans-serif" font-size="12" font-style="italic" lengthAdjust="spacingAndGlyphs" textLength="22" x="150" y="382.7324">[JS]</text><text fill="#000000" font-family="sans-serif" font-size="14" lengthAdjust="spacingAndGlyphs" textLength="0" x="163" y="398.5576"/><text fill="#000000" font-family="sans-serif" font-size="14" lengthAdjust="spacingAndGlyphs" textLength="0" x="163" y="414.8545"/><rect fill="#438DD5" height="99.1563" style="stroke: #3C7FC0; stroke-width: 1.5;" width="146" x="1413" y="1000.5"/><text fill="#FFFFFF" font-family="sans-serif" font-size="12" font-style="italic" lengthAdjust="spacingAndGlyphs" textLength="74" x="1449" y="1021.6387">«container»</text><text fill="#FFFFFF" font-family="sans-serif" font-size="16" font-weight="bold" lengthAdjust="spacingAndGlyphs" textLength="126" x="1423" y="1039.3203">external API 1</text><text fill="#FFFFFF" font-family="sans-serif" font-size="12" font-style="italic" lengthAdjust="spacingAndGlyphs" textLength="106" x="1433" y="1054.2324">[external device]</text><text fill="#FFFFFF" font-family="sans-serif" font-size="14" lengthAdjust="spacingAndGlyphs" textLength="0" x="1488" y="1070.0576"/><text fill="#FFFFFF" font-family="sans-serif" font-size="14" lengthAdjust="spacingAndGlyphs" textLength="90" x="1441" y="1086.3545">info soruce 1</text><rect fill="#438DD5" height="99.1563" style="stroke: #3C7FC0; stroke-width: 1.5;" width="148" x="1594" y="1000.5"/><text fill="#FFFFFF" font-family="sans-serif" font-size="12" font-style="italic" lengthAdjust="spacingAndGlyphs" textLength="74" x="1631" y="1021.6387">«container»</text><text fill="#FFFFFF" font-family="sans-serif" font-size="16" font-weight="bold" lengthAdjust="spacingAndGlyphs" textLength="128" x="1604" y="1039.3203">external API N</text><text fill="#FFFFFF" font-family="sans-serif" font-size="12" font-style="italic" lengthAdjust="spacingAndGlyphs" textLength="106" x="1615" y="1054.2324">[external device]</text><text fill="#FFFFFF" font-family="sans-serif" font-size="14" lengthAdjust="spacingAndGlyphs" textLength="0" x="1670" y="1070.0576"/><text fill="#FFFFFF" font-family="sans-serif" font-size="14" lengthAdjust="spacingAndGlyphs" textLength="91" x="1622.5" y="1086.3545">info source N</text><rect fill="#08427B" height="85.1875" style="stroke: #073B6F; stroke-width: 1.5;" width="98" x="24" y="8"/><text fill="#FFFFFF" font-family="sans-serif" font-size="12" font-style="italic" lengthAdjust="spacingAndGlyphs" textLength="57" x="44.5" y="29.1387">«person»</text><text fill="#FFFFFF" font-family="sans-serif" font-size="16" font-weight="bold" lengthAdjust="spacingAndGlyphs" textLength="78" x="34" y="46.8203">app user</text><text fill="#FFFFFF" font-family="sans-serif" font-size="14" lengthAdjust="spacingAndGlyphs" textLength="0" x="75" y="63.5889"/><text fill="#FFFFFF" font-family="sans-serif" font-size="14" lengthAdjust="spacingAndGlyphs" textLength="0" x="75" y="79.8857"/><path d="M73,93.12 C73,114.7475 73,142.9531 73,173.1894 C73,188.3075 73,203.9333 73,219.4983 C73,227.2808 73,235.0481 73,242.7291 C73,244.6494 73,246.5643 73,248.4726 C73,249.4268 73,250.3794 73,251.3302 C73,251.8056 73,252.2805 73,252.755 " fill="none" id="user-&gt;mobileApp" style="stroke: #666666; stroke-width: 1.0;"/><polygon fill="#666666" points="73,252.755,77,243.755,73,247.755,69,243.755,73,252.755" style="stroke: #666666; stroke-width: 1.0;"/><text fill="#666666" font-family="sans-serif" font-size="13" font-weight="bold" lengthAdjust="spacingAndGlyphs" textLength="103" x="74" y="136.0669">uses to watch</text><text fill="#666666" font-family="sans-serif" font-size="13" font-weight="bold" lengthAdjust="spacingAndGlyphs" textLength="77" x="89.5" y="151.1997">resort info</text><path d="M882.7652,802.2442 C881.4799,802.2406 880.197,802.237 878.9166,802.2334 C837.944,802.1191 799.5277,802.0298 766.2534,802.0441 C699.705,802.0725 653.725,802.515 649,804 C613.6,815.13 615.24,839.37 580,851 C558.67,858.04 394.35,843.6 378,859 C347.59,887.635 342.5125,934.11 345.1975,973.9263 C345.8688,983.8803 347.0252,993.4182 348.3922,1002.1571 C349.0757,1006.5266 349.8119,1010.6963 350.5664,1014.6184 C350.6607,1015.1087 350.7553,1015.5951 350.8501,1016.0775 C350.8975,1016.3188 350.945,1016.559 350.9925,1016.7982 " fill="none" id="collector-&gt;info" style="stroke: #666666; stroke-width: 1.0;"/><polygon fill="#666666" points="350.9925,1016.7982,353.1627,1007.1914,350.0185,1011.894,345.3159,1008.7498,350.9925,1016.7982" style="stroke: #666666; stroke-width: 1.0;"/><text fill="#666666" font-family="sans-serif" font-size="13" font-weight="bold" lengthAdjust="spacingAndGlyphs" textLength="74" x="650" y="832.0669">ingests to</text><path d="M1389.018,726.951 C1389.0653,727.1625 1389.1128,727.3747 1389.1605,727.5875 C1389.2559,728.0132 1389.352,728.4416 1389.4487,728.8726 C1389.8358,730.5967 1390.2338,732.363 1390.6422,734.1684 C1391.4592,737.7791 1392.3181,741.5461 1393.215,745.4438 C1400.39,776.625 1409.995,816.17 1420,851 C1434.18,900.36 1452.89,955.76 1466.77,995.38 " fill="none" id="collector-&gt;EAPI1" style="stroke: #666666; stroke-width: 1.0;"/><polygon fill="#666666" points="1468.43,1000.13,1469.219,990.3128,1466.7719,995.4129,1461.6717,992.9658,1468.43,1000.13" style="stroke: #666666; stroke-width: 1.0;"/><text fill="#666666" font-family="sans-serif" font-size="13" font-weight="bold" lengthAdjust="spacingAndGlyphs" textLength="134" x="1421" y="832.0669">fetches data from</text><path d="M1389.1121,693.1203 C1389.2381,693.1705 1389.3656,693.2214 1389.4943,693.2728 C1389.7518,693.3757 1390.0146,693.481 1390.2826,693.5887 C1391.3546,694.0193 1392.5099,694.4879 1393.7437,694.9942 C1396.2111,696.0068 1398.992,697.17 1402.0458,698.4806 C1414.2609,703.7231 1430.8431,711.325 1449.2038,721.0875 C1485.925,740.6125 1529.76,768.78 1560,804 C1608.4,860.37 1638.47,941.87 1654.22,995.13 " fill="none" id="collector-&gt;EAPIN" style="stroke: #666666; stroke-width: 1.0;"/><polygon fill="#666666" points="1655.7,1000.2,1657.02,990.44,1654.3,995.4,1649.34,992.68,1655.7,1000.2" style="stroke: #666666; stroke-width: 1.0;"/><text fill="#666666" font-family="sans-serif" font-size="13" font-weight="bold" lengthAdjust="spacingAndGlyphs" textLength="134" x="1590" y="832.0669">fetches data from</text><path d="M439.2518,780.3688 C439.1903,780.6437 439.1283,780.9186 439.0657,781.1935 C438.8154,782.2933 438.5566,783.3938 438.289,784.4944 C437.7537,786.6956 437.1831,788.8972 436.5752,791.0945 C435.3593,795.4891 433.9939,799.8664 432.462,804.1888 C426.3344,821.4781 417.5425,837.8875 405,851 C396.35,860.04 385.98,849.36 378,859 C351.375,891.185 346.355,937.715 348.1225,976.6725 C348.5644,986.4119 349.4305,995.678 350.4893,1004.1283 C350.6216,1005.1846 350.757,1006.2282 350.8949,1007.2583 C350.9294,1007.5158 350.964,1007.7725 350.9988,1008.0284 " fill="none" id="aggregator-&gt;info" style="stroke: #666666; stroke-width: 1.0;"/><polygon fill="#666666" points="350.9988,1008.0284,353.7496,998.5715,350.3251,1003.074,345.8225,999.6494,350.9988,1008.0284" style="stroke: #666666; stroke-width: 1.0;"/><text fill="#666666" font-family="sans-serif" font-size="13" font-weight="bold" lengthAdjust="spacingAndGlyphs" textLength="134" x="432" y="817.0669">fetches data from</text><text fill="#666666" font-family="sans-serif" font-size="13" font-weight="bold" lengthAdjust="spacingAndGlyphs" textLength="74" x="462" y="832.1997">and posts</text><text fill="#666666" font-family="sans-serif" font-size="13" font-weight="bold" lengthAdjust="spacingAndGlyphs" textLength="98" x="452.5" y="847.3325">aggregate to</text><path d="M73.0765,762.8048 C73.1236,762.9827 73.1711,763.1605 73.2192,763.3381 C73.3153,763.6933 73.4134,764.0479 73.5135,764.4018 C73.7138,765.1095 73.9222,765.8145 74.1389,766.5162 C77.6069,777.7444 83.2175,788.15 92,796 C112.26,814.11 190.32,790.69 214,804 C236.25,816.51 225.24,837.65 247,851 C268.43,864.15 283.98,842.55 303,859 C319.3875,873.1725 331.1006,891.8763 339.4477,912.0227 C343.6212,922.0959 346.9532,932.5297 349.6072,942.9382 C349.9389,944.2392 350.2601,945.5399 350.571,946.8394 C350.6487,947.1643 350.7258,947.4891 350.8022,947.8138 " fill="none" id="api-&gt;info" style="stroke: #666666; stroke-width: 1.0;"/><polygon fill="#666666" points="350.8022,947.8138,352.6335,938.1367,349.6565,942.9468,344.8463,939.9698,350.8022,947.8138" style="stroke: #666666; stroke-width: 1.0;"/><text fill="#666666" font-family="sans-serif" font-size="13" font-weight="bold" lengthAdjust="spacingAndGlyphs" textLength="148" x="248" y="824.5669">fetches aggregated</text><text fill="#666666" font-family="sans-serif" font-size="13" font-weight="bold" lengthAdjust="spacingAndGlyphs" textLength="68" x="288" y="839.6997">info from</text><path d="M70.7298,764.1208 C70.6948,765.2632 70.6595,766.4145 70.6239,767.5743 C70.5529,769.8938 70.4807,772.2473 70.4076,774.6321 C70.1153,784.1716 69.8076,794.2126 69.4896,804.5881 C68.8537,825.3391 68.1769,847.4278 67.5,869.5163 C67.4577,870.8968 67.4154,872.2773 67.3731,873.6575 C67.3625,874.0026 67.3519,874.3476 67.3414,874.6926 " fill="none" id="api-&gt;userDb" style="stroke: #666666; stroke-width: 1.0;"/><polygon fill="#666666" points="67.3414,874.6926,71.6152,865.8193,67.4945,869.6949,63.6189,865.5743,67.3414,874.6926" style="stroke: #666666; stroke-width: 1.0;"/><text fill="#666666" font-family="sans-serif" font-size="13" font-weight="bold" lengthAdjust="spacingAndGlyphs" textLength="128" x="72" y="824.5669">fetches from and</text><text fill="#666666" font-family="sans-serif" font-size="13" font-weight="bold" lengthAdjust="spacingAndGlyphs" textLength="137" x="70" y="839.6997">posts user data to</text><path d="M73,452.2257 C73,460.4231 73,469.0516 73,477.9674 C73,495.7991 73,514.7803 73,533.7613 C73,543.2517 73,552.7421 73,562.0888 C73,562.6729 73,563.2565 73,563.8395 " fill="none" id="mobileApp-&gt;api" style="stroke: #666666; stroke-width: 1.0;"/><polygon fill="#666666" points="73,563.8395,77,554.8395,73,558.8395,69,554.8395,73,563.8395" style="stroke: #666666; stroke-width: 1.0;"/><text fill="#666666" font-family="sans-serif" font-size="13" font-weight="bold" lengthAdjust="spacingAndGlyphs" textLength="118" x="74" y="489.0669">exchanges data</text><text fill="#666666" font-family="sans-serif" font-size="13" font-weight="bold" lengthAdjust="spacingAndGlyphs" textLength="101" x="82.5" y="504.1997">with, certifies</text><text fill="#666666" font-family="sans-serif" font-size="13" font-weight="bold" lengthAdjust="spacingAndGlyphs" textLength="122" x="74.5" y="519.3325">credentials from</text></g></svg>