<?xml version="1.0" encoding="UTF-8" standalone="no"?><svg xmlns="http://www.w3.org/2000/svg" xmlns:xlink="http://www.w3.org/1999/xlink" contentScriptType="application/ecmascript" contentStyleType="text/css" height="880px" preserveAspectRatio="none" style="width:1390px;height:880px;" version="1.1" viewBox="0 0 1390 880" width="1390px" zoomAndPan="magnify"><defs><filter height="300%" id="f14myvyg2ho4uy" width="300%" x="-1" y="-1"><feGaussianBlur result="blurOut" stdDeviation="2.0"/><feColorMatrix in="blurOut" result="blurOut2" type="matrix" values="0 0 0 0 0 0 0 0 0 0 0 0 0 0 0 0 0 0 .4 0"/><feOffset dx="4.0" dy="4.0" in="blurOut2" result="blurOut3"/><feBlend in="SourceGraphic" in2="blurOut3" mode="normal"/></filter></defs><g><rect fill="#FFFFFF" height="201" style="stroke: #444444; stroke-width: 1.0; stroke-dasharray: 7.0,7.0;" width="148" x="604" y="149"/><text fill="#000000" font-family="sans-serif" font-size="14" font-style="italic" lengthAdjust="spacingAndGlyphs" textLength="84" x="636" y="163.9951">«boundary»</text><text fill="#444444" font-family="sans-serif" font-size="16" font-weight="bold" lengthAdjust="spacingAndGlyphs" textLength="103" x="626.5" y="182.1484">user device</text><text fill="#444444" font-family="sans-serif" font-size="12" font-weight="bold" lengthAdjust="spacingAndGlyphs" textLength="62" x="647" y="197.0605">[System]</text><rect fill="#FFFFFF" height="219" style="stroke: #444444; stroke-width: 1.0; stroke-dasharray: 7.0,7.0;" width="188" x="584" y="650"/><text fill="#000000" font-family="sans-serif" font-size="14" font-style="italic" lengthAdjust="spacingAndGlyphs" textLength="84" x="636" y="664.9951">«boundary»</text><text fill="#444444" font-family="sans-serif" font-size="16" font-weight="bold" lengthAdjust="spacingAndGlyphs" textLength="136" x="610" y="683.1484">User DB server</text><text fill="#444444" font-family="sans-serif" font-size="12" font-weight="bold" lengthAdjust="spacingAndGlyphs" textLength="62" x="647" y="698.0605">[System]</text><rect fill="#FFFFFF" height="201" style="stroke: #444444; stroke-width: 1.0; stroke-dasharray: 7.0,7.0;" width="168" x="799" y="659"/><text fill="#000000" font-family="sans-serif" font-size="14" font-style="italic" lengthAdjust="spacingAndGlyphs" textLength="84" x="841" y="673.9951">«boundary»</text><text fill="#444444" font-family="sans-serif" font-size="16" font-weight="bold" lengthAdjust="spacingAndGlyphs" textLength="130" x="818" y="692.1484">Info DB server</text><text fill="#444444" font-family="sans-serif" font-size="12" font-weight="bold" lengthAdjust="spacingAndGlyphs" textLength="62" x="852" y="707.0605">[System]</text><rect fill="#FFFFFF" height="201" style="stroke: #444444; stroke-width: 1.0; stroke-dasharray: 7.0,7.0;" width="126" x="615" y="399"/><text fill="#000000" font-family="sans-serif" font-size="14" font-style="italic" lengthAdjust="spacingAndGlyphs" textLength="84" x="636" y="413.9951">«boundary»</text><text fill="#444444" font-family="sans-serif" font-size="16" font-weight="bold" lengthAdjust="spacingAndGlyphs" textLength="94" x="631" y="432.1484">API server</text><text fill="#444444" font-family="sans-serif" font-size="12" font-weight="bold" lengthAdjust="spacingAndGlyphs" textLength="62" x="647" y="447.0605">[System]</text><rect fill="#FFFFFF" height="201" style="stroke: #444444; stroke-width: 1.0; stroke-dasharray: 7.0,7.0;" width="217" x="765" y="399"/><text fill="#000000" font-family="sans-serif" font-size="14" font-style="italic" lengthAdjust="spacingAndGlyphs" textLength="84" x="831.5" y="413.9951">«boundary»</text><text fill="#444444" font-family="sans-serif" font-size="16" font-weight="bold" lengthAdjust="spacingAndGlyphs" textLength="201" x="773" y="432.1484">Aggregator API server</text><text fill="#444444" font-family="sans-serif" font-size="12" font-weight="bold" lengthAdjust="spacingAndGlyphs" textLength="62" x="842.5" y="447.0605">[System]</text><rect fill="#FFFFFF" height="201" style="stroke: #444444; stroke-width: 1.0; stroke-dasharray: 7.0,7.0;" width="166" x="1006" y="399"/><text fill="#000000" font-family="sans-serif" font-size="14" font-style="italic" lengthAdjust="spacingAndGlyphs" textLength="84" x="1047" y="413.9951">«boundary»</text><text fill="#444444" font-family="sans-serif" font-size="16" font-weight="bold" lengthAdjust="spacingAndGlyphs" textLength="143" x="1017.5" y="432.1484">Collector server</text><text fill="#444444" font-family="sans-serif" font-size="12" font-weight="bold" lengthAdjust="spacingAndGlyphs" textLength="62" x="1058" y="447.0605">[System]</text><rect fill="#FFFFFF" height="201" style="stroke: #444444; stroke-width: 1.0; stroke-dasharray: 7.0,7.0;" width="178" x="997" y="659"/><text fill="#000000" font-family="sans-serif" font-size="14" font-style="italic" lengthAdjust="spacingAndGlyphs" textLength="84" x="1044" y="673.9951">«boundary»</text><text fill="#444444" font-family="sans-serif" font-size="16" font-weight="bold" lengthAdjust="spacingAndGlyphs" textLength="153" x="1009.5" y="692.1484">External server 1</text><text fill="#444444" font-family="sans-serif" font-size="12" font-weight="bold" lengthAdjust="spacingAndGlyphs" textLength="62" x="1055" y="707.0605">[System]</text><rect fill="#FFFFFF" height="201" style="stroke: #444444; stroke-width: 1.0; stroke-dasharray: 7.0,7.0;" width="180" x="1199" y="659"/><text fill="#000000" font-family="sans-serif" font-size="14" font-style="italic" lengthAdjust="spacingAndGlyphs" textLength="84" x="1247" y="673.9951">«boundary»</text><text fill="#444444" font-family="sans-serif" font-size="16" font-weight="bold" lengthAdjust="spacingAndGlyphs" textLength="155" x="1211.5" y="692.1484">External server N</text><text fill="#444444" font-family="sans-serif" font-size="12" font-weight="bold" lengthAdjust="spacingAndGlyphs" textLength="62" x="1258" y="707.0605">[System]</text><rect fill="#FFFFFF" height="201" style="stroke: #444444; stroke-width: 1.0; stroke-dasharray: 7.0,7.0;" width="150" x="226" y="399"/><text fill="#000000" font-family="sans-serif" font-size="14" font-style="italic" lengthAdjust="spacingAndGlyphs" textLength="84" x="259" y="413.9951">«boundary»</text><text fill="#444444" font-family="sans-serif" font-size="16" font-weight="bold" lengthAdjust="spacingAndGlyphs" textLength="134" x="234" y="432.1484">Dev API server</text><text fill="#444444" font-family="sans-serif" font-size="12" font-weight="bold" lengthAdjust="spacingAndGlyphs" textLength="62" x="270" y="447.0605">[System]</text><rect fill="#FFFFFF" height="201" style="stroke: #444444; stroke-width: 1.0; stroke-dasharray: 7.0,7.0;" width="142" x="230" y="149"/><text fill="#000000" font-family="sans-serif" font-size="14" font-style="italic" lengthAdjust="spacingAndGlyphs" textLength="84" x="259" y="163.9951">«boundary»</text><text fill="#444444" font-family="sans-serif" font-size="16" font-weight="bold" lengthAdjust="spacingAndGlyphs" textLength="95" x="253.5" y="182.1484">dev device</text><text fill="#444444" font-family="sans-serif" font-size="12" font-weight="bold" lengthAdjust="spacingAndGlyphs" textLength="62" x="270" y="197.0605">[System]</text><rect fill="#FFFFFF" height="201" style="stroke: #444444; stroke-width: 1.0; stroke-dasharray: 7.0,7.0;" width="184" x="22" y="149"/><text fill="#000000" font-family="sans-serif" font-size="14" font-style="italic" lengthAdjust="spacingAndGlyphs" textLength="84" x="72" y="163.9951">«boundary»</text><text fill="#444444" font-family="sans-serif" font-size="16" font-weight="bold" lengthAdjust="spacingAndGlyphs" textLength="168" x="30" y="182.1484">watchdog server 1</text><text fill="#444444" font-family="sans-serif" font-size="12" font-weight="bold" lengthAdjust="spacingAndGlyphs" textLength="62" x="83" y="197.0605">[System]</text><rect fill="#FFFFFF" height="201" style="stroke: #444444; stroke-width: 1.0; stroke-dasharray: 7.0,7.0;" width="184" x="396" y="149"/><text fill="#000000" font-family="sans-serif" font-size="14" font-style="italic" lengthAdjust="spacingAndGlyphs" textLength="84" x="446" y="163.9951">«boundary»</text><text fill="#444444" font-family="sans-serif" font-size="16" font-weight="bold" lengthAdjust="spacingAndGlyphs" textLength="168" x="404" y="182.1484">watchdog server 2</text><text fill="#444444" font-family="sans-serif" font-size="12" font-weight="bold" lengthAdjust="spacingAndGlyphs" textLength="62" x="457" y="197.0605">[System]</text><rect fill="#438DD5" height="66.5625" style="stroke: #3C7FC0; stroke-width: 1.5;" width="115" x="620.5" y="267"/><text fill="#FFFFFF" font-family="sans-serif" font-size="12" font-style="italic" lengthAdjust="spacingAndGlyphs" textLength="74" x="641" y="288.1387">«container»</text><text fill="#FFFFFF" font-family="sans-serif" font-size="16" font-weight="bold" lengthAdjust="spacingAndGlyphs" textLength="95" x="630.5" y="305.8203">mobile app</text><text fill="#FFFFFF" font-family="sans-serif" font-size="12" font-style="italic" lengthAdjust="spacingAndGlyphs" textLength="10" x="673" y="320.7324">[]</text><rect fill="#438DD5" height="85.1875" style="stroke: #3C7FC0; stroke-width: 1.5;" width="156" x="600" y="768"/><text fill="#FFFFFF" font-family="sans-serif" font-size="12" font-style="italic" lengthAdjust="spacingAndGlyphs" textLength="74" x="641" y="789.1387">«container»</text><text fill="#FFFFFF" font-family="sans-serif" font-size="16" font-weight="bold" lengthAdjust="spacingAndGlyphs" textLength="130" x="610" y="806.8203">User Database</text><text fill="#FFFFFF" font-family="sans-serif" font-size="16" font-weight="bold" lengthAdjust="spacingAndGlyphs" textLength="84" x="636" y="825.4453">container</text><text fill="#FFFFFF" font-family="sans-serif" font-size="12" font-style="italic" lengthAdjust="spacingAndGlyphs" textLength="10" x="673" y="840.3574">[]</text><rect fill="#438DD5" height="66.5625" style="stroke: #3C7FC0; stroke-width: 1.5;" width="136" x="815" y="777"/><text fill="#FFFFFF" font-family="sans-serif" font-size="12" font-style="italic" lengthAdjust="spacingAndGlyphs" textLength="74" x="846" y="798.1387">«container»</text><text fill="#FFFFFF" font-family="sans-serif" font-size="16" font-weight="bold" lengthAdjust="spacingAndGlyphs" textLength="116" x="825" y="815.8203">Info Provider</text><text fill="#FFFFFF" font-family="sans-serif" font-size="12" font-style="italic" lengthAdjust="spacingAndGlyphs" textLength="10" x="878" y="830.7324">[]</text><rect fill="#438DD5" height="66.5625" style="stroke: #3C7FC0; stroke-width: 1.5;" width="94" x="631" y="517"/><text fill="#FFFFFF" font-family="sans-serif" font-size="12" font-style="italic" lengthAdjust="spacingAndGlyphs" textLength="74" x="641" y="538.1387">«container»</text><text fill="#FFFFFF" font-family="sans-serif" font-size="16" font-weight="bold" lengthAdjust="spacingAndGlyphs" textLength="73" x="641.5" y="555.8203">Skip API</text><text fill="#FFFFFF" font-family="sans-serif" font-size="12" font-style="italic" lengthAdjust="spacingAndGlyphs" textLength="10" x="673" y="570.7324">[]</text><rect fill="#438DD5" height="66.5625" style="stroke: #3C7FC0; stroke-width: 1.5;" width="155" x="805.5" y="517"/><text fill="#FFFFFF" font-family="sans-serif" font-size="12" font-style="italic" lengthAdjust="spacingAndGlyphs" textLength="74" x="846" y="538.1387">«container»</text><text fill="#FFFFFF" font-family="sans-serif" font-size="16" font-weight="bold" lengthAdjust="spacingAndGlyphs" textLength="135" x="815.5" y="555.8203">aggregator API</text><text fill="#FFFFFF" font-family="sans-serif" font-size="12" font-style="italic" lengthAdjust="spacingAndGlyphs" textLength="10" x="878" y="570.7324">[]</text><rect fill="#438DD5" height="66.5625" style="stroke: #3C7FC0; stroke-width: 1.5;" width="133" x="1022.5" y="517"/><text fill="#FFFFFF" font-family="sans-serif" font-size="12" font-style="italic" lengthAdjust="spacingAndGlyphs" textLength="74" x="1052" y="538.1387">«container»</text><text fill="#FFFFFF" font-family="sans-serif" font-size="16" font-weight="bold" lengthAdjust="spacingAndGlyphs" textLength="113" x="1032.5" y="555.8203">collector API</text><text fill="#FFFFFF" font-family="sans-serif" font-size="12" font-style="italic" lengthAdjust="spacingAndGlyphs" textLength="10" x="1084" y="570.7324">[]</text><rect fill="#438DD5" height="66.5625" style="stroke: #3C7FC0; stroke-width: 1.5;" width="146" x="1013" y="777"/><text fill="#FFFFFF" font-family="sans-serif" font-size="12" font-style="italic" lengthAdjust="spacingAndGlyphs" textLength="74" x="1049" y="798.1387">«container»</text><text fill="#FFFFFF" font-family="sans-serif" font-size="16" font-weight="bold" lengthAdjust="spacingAndGlyphs" textLength="126" x="1023" y="815.8203">external API 1</text><text fill="#FFFFFF" font-family="sans-serif" font-size="12" font-style="italic" lengthAdjust="spacingAndGlyphs" textLength="10" x="1081" y="830.7324">[]</text><rect fill="#438DD5" height="66.5625" style="stroke: #3C7FC0; stroke-width: 1.5;" width="148" x="1215" y="777"/><text fill="#FFFFFF" font-family="sans-serif" font-size="12" font-style="italic" lengthAdjust="spacingAndGlyphs" textLength="74" x="1252" y="798.1387">«container»</text><text fill="#FFFFFF" font-family="sans-serif" font-size="16" font-weight="bold" lengthAdjust="spacingAndGlyphs" textLength="128" x="1225" y="815.8203">external API N</text><text fill="#FFFFFF" font-family="sans-serif" font-size="12" font-style="italic" lengthAdjust="spacingAndGlyphs" textLength="10" x="1284" y="830.7324">[]</text><rect fill="#438DD5" height="66.5625" style="stroke: #3C7FC0; stroke-width: 1.5;" width="94" x="254" y="517"/><text fill="#FFFFFF" font-family="sans-serif" font-size="12" font-style="italic" lengthAdjust="spacingAndGlyphs" textLength="74" x="264" y="538.1387">«container»</text><text fill="#FFFFFF" font-family="sans-serif" font-size="16" font-weight="bold" lengthAdjust="spacingAndGlyphs" textLength="70" x="266" y="555.8203">Dev API</text><text fill="#FFFFFF" font-family="sans-serif" font-size="12" font-style="italic" lengthAdjust="spacingAndGlyphs" textLength="10" x="296" y="570.7324">[]</text><rect fill="#438DD5" height="66.5625" style="stroke: #3C7FC0; stroke-width: 1.5;" width="109" x="246.5" y="267"/><text fill="#FFFFFF" font-family="sans-serif" font-size="12" font-style="italic" lengthAdjust="spacingAndGlyphs" textLength="74" x="264" y="288.1387">«container»</text><text fill="#FFFFFF" font-family="sans-serif" font-size="16" font-weight="bold" lengthAdjust="spacingAndGlyphs" textLength="89" x="256.5" y="305.8203">dev api FE</text><text fill="#FFFFFF" font-family="sans-serif" font-size="12" font-style="italic" lengthAdjust="spacingAndGlyphs" textLength="10" x="296" y="320.7324">[]</text><rect fill="#438DD5" height="66.5625" style="stroke: #3C7FC0; stroke-width: 1.5;" width="124" x="66" y="267"/><text fill="#FFFFFF" font-family="sans-serif" font-size="12" font-style="italic" lengthAdjust="spacingAndGlyphs" textLength="74" x="91" y="288.1387">«container»</text><text fill="#FFFFFF" font-family="sans-serif" font-size="16" font-weight="bold" lengthAdjust="spacingAndGlyphs" textLength="104" x="76" y="305.8203">watchdog 1</text><text fill="#FFFFFF" font-family="sans-serif" font-size="12" font-style="italic" lengthAdjust="spacingAndGlyphs" textLength="10" x="123" y="320.7324">[]</text><rect fill="#438DD5" height="66.5625" style="stroke: #3C7FC0; stroke-width: 1.5;" width="124" x="412" y="267"/><text fill="#FFFFFF" font-family="sans-serif" font-size="12" font-style="italic" lengthAdjust="spacingAndGlyphs" textLength="74" x="437" y="288.1387">«container»</text><text fill="#FFFFFF" font-family="sans-serif" font-size="16" font-weight="bold" lengthAdjust="spacingAndGlyphs" textLength="104" x="422" y="305.8203">watchdog 2</text><text fill="#FFFFFF" font-family="sans-serif" font-size="12" font-style="italic" lengthAdjust="spacingAndGlyphs" textLength="10" x="469" y="320.7324">[]</text><ellipse cx="301" cy="810.5" fill="#FEFECE" filter="url(#f14myvyg2ho4uy)" rx="8" ry="8" style="stroke: #A80036; stroke-width: 2.0;"/><text fill="#000000" font-family="sans-serif" font-size="14" lengthAdjust="spacingAndGlyphs" textLength="164" x="217" y="840.4951">services and APIs of the</text><text fill="#000000" font-family="sans-serif" font-size="14" lengthAdjust="spacingAndGlyphs" textLength="187" x="207.5" y="856.792">system (less arrows in uml)</text><path d="M1052.39,584.35 C1034.81,600.89 1013.94,621.7 997,642 C961.73,684.25 926.98,737.43 905.3,772.39 " fill="none" id="collectors-&gt;info" style="stroke: #666666; stroke-width: 1.0;"/><polygon fill="#666666" points="902.46,776.99,910.5918,771.4336,905.0869,772.7356,903.7848,767.2307,902.46,776.99" style="stroke: #666666; stroke-width: 1.0;"/><text fill="#666666" font-family="sans-serif" font-size="13" font-weight="bold" lengthAdjust="spacingAndGlyphs" textLength="31" x="1019" y="629.5669">web</text><path d="M1088.62,584.18 C1088.06,632.02 1087.03,720.95 1086.44,771.6 " fill="none" id="collectors-&gt;EAPI1" style="stroke: #666666; stroke-width: 1.0;"/><polygon fill="#666666" points="1086.38,776.68,1090.4826,767.7263,1086.4371,771.6803,1082.4831,767.6349,1086.38,776.68" style="stroke: #666666; stroke-width: 1.0;"/><text fill="#666666" font-family="sans-serif" font-size="13" font-weight="bold" lengthAdjust="spacingAndGlyphs" textLength="31" x="1089" y="629.5669">web</text><path d="M1122.61,584.27 C1139.09,600.96 1158.81,621.92 1175,642 C1209.45,684.71 1244.25,737.57 1266.17,772.34 " fill="none" id="collectors-&gt;EAPIN" style="stroke: #666666; stroke-width: 1.0;"/><polygon fill="#666666" points="1269.05,776.91,1267.6484,767.1614,1266.3897,772.6764,1260.8747,771.4178,1269.05,776.91" style="stroke: #666666; stroke-width: 1.0;"/><text fill="#666666" font-family="sans-serif" font-size="13" font-weight="bold" lengthAdjust="spacingAndGlyphs" textLength="31" x="1167" y="629.5669">web</text><path d="M883,584.18 C883,632.02 883,720.95 883,771.6 " fill="none" id="aggregator-&gt;info" style="stroke: #666666; stroke-width: 1.0;"/><polygon fill="#666666" points="883,776.68,887,767.68,883,771.68,879,767.68,883,776.68" style="stroke: #666666; stroke-width: 1.0;"/><text fill="#666666" font-family="sans-serif" font-size="13" font-weight="bold" lengthAdjust="spacingAndGlyphs" textLength="31" x="884" y="629.5669">web</text><path d="M715.58,584.14 C733.58,600.63 754.89,621.47 772,642 C806.95,683.93 840.64,737.18 861.56,772.25 " fill="none" id="api-&gt;info" style="stroke: #666666; stroke-width: 1.0;"/><polygon fill="#666666" points="864.3,776.86,863.1619,767.0771,861.7549,772.5562,856.2758,771.1493,864.3,776.86" style="stroke: #666666; stroke-width: 1.0;"/><text fill="#666666" font-family="sans-serif" font-size="13" font-weight="bold" lengthAdjust="spacingAndGlyphs" textLength="31" x="766" y="629.5669">web</text><path d="M141.84,266.71 C157.63,233.18 186.96,183.76 230,162 C286.32,133.53 315.68,133.53 372,162 C413.02,182.74 441.59,228.61 457.85,261.89 " fill="none" id="watchdog1-&gt;watchdog2" style="stroke: #666666; stroke-width: 1.0;"/><polygon fill="#666666" points="460.16,266.71,459.8512,256.866,457.9871,262.2069,452.6462,260.3427,460.16,266.71" style="stroke: #666666; stroke-width: 1.0;"/><text fill="#666666" font-family="sans-serif" font-size="13" font-weight="bold" lengthAdjust="spacingAndGlyphs" textLength="30" x="267" y="129.0669">RPC</text><path d="M460.16,266.71 C444.37,233.18 415.04,183.76 372,162 C315.68,133.53 286.32,133.53 230,162 C188.98,182.74 160.41,228.61 144.15,261.89 " fill="none" id="watchdog2-&gt;watchdog1" style="stroke: #666666; stroke-width: 1.0;"/><polygon fill="#666666" points="141.84,266.71,149.3538,260.3427,144.0129,262.2069,142.1488,256.866,141.84,266.71" style="stroke: #666666; stroke-width: 1.0;"/><text fill="#666666" font-family="sans-serif" font-size="13" font-weight="bold" lengthAdjust="spacingAndGlyphs" textLength="30" x="325" y="129.0669">RPC</text><path d="M430.53,334.14 C419.46,343.67 408.13,354.61 399,366 C362.32,411.77 332.74,473.32 316.01,512.2 " fill="none" id="watchdog2-&gt;DAPI" style="stroke: #666666; stroke-width: 1.0;"/><polygon fill="#666666" points="314.04,516.83,321.2619,510.1334,316.0096,512.2343,313.9087,506.982,314.04,516.83" style="stroke: #666666; stroke-width: 1.0;"/><text fill="#666666" font-family="sans-serif" font-size="13" font-weight="bold" lengthAdjust="spacingAndGlyphs" textLength="30" x="400" y="379.0669">RPC</text><path d="M150.79,334.18 C182.95,380.27 241.45,464.13 275.17,512.47 " fill="none" id="watchdog1-&gt;DAPI" style="stroke: #666666; stroke-width: 1.0;"/><polygon fill="#666666" points="278.15,516.75,276.2861,507.0791,275.2913,512.6478,269.7226,511.653,278.15,516.75" style="stroke: #666666; stroke-width: 1.0;"/><text fill="#666666" font-family="sans-serif" font-size="13" font-weight="bold" lengthAdjust="spacingAndGlyphs" textLength="30" x="185" y="379.0669">RPC</text><path d="M137.57,334.38 C154.14,390.73 189.7,509.24 224,608 C248.96,679.86 282.79,764.55 295.7,796.46 " fill="none" id="watchdog1-&gt;SRVS" style="stroke: #666666; stroke-width: 1.0;"/><polygon fill="#666666" points="297.59,801.12,297.9248,791.2768,295.7158,796.4846,290.5081,794.2756,297.59,801.12" style="stroke: #666666; stroke-width: 1.0;"/><text fill="#666666" font-family="sans-serif" font-size="14" font-weight="bold" lengthAdjust="spacingAndGlyphs" textLength="12" x="225" y="555.4951">=</text><path d="M462.91,334.05 C429.04,433.52 327.83,730.71 305.43,796.51 " fill="none" id="watchdog2-&gt;SRVS" style="stroke: #666666; stroke-width: 1.0;"/><polygon fill="#666666" points="303.73,801.5,310.4232,794.275,305.3454,796.7681,302.8522,791.6903,303.73,801.5" style="stroke: #666666; stroke-width: 1.0;"/><text fill="#666666" font-family="sans-serif" font-size="14" font-weight="bold" lengthAdjust="spacingAndGlyphs" textLength="12" x="443" y="555.4951">=</text><path d="M301,584.18 C301,641.3 301,756.97 301,796.17 " fill="none" id="DAPI-&gt;SRVS" style="stroke: #666666; stroke-width: 1.0;"/><polygon fill="#666666" points="301,801.38,305,792.38,301,796.38,297,792.38,301,801.38" style="stroke: #666666; stroke-width: 1.0;"/><text fill="#666666" font-family="sans-serif" font-size="14" font-weight="bold" lengthAdjust="spacingAndGlyphs" textLength="12" x="302" y="629.9951">=</text><path d="M678,584.18 C678,629.27 678,710.85 678,762.5 " fill="none" id="api-&gt;userDb" style="stroke: #666666; stroke-width: 1.0;"/><polygon fill="#666666" points="678,767.71,682,758.71,678,762.71,674,758.71,678,767.71" style="stroke: #666666; stroke-width: 1.0;"/><text fill="#666666" font-family="sans-serif" font-size="13" font-weight="bold" lengthAdjust="spacingAndGlyphs" textLength="30" x="679" y="629.5669">RPC</text><path d="M301,334.18 C301,379.99 301,463.12 301,511.59 " fill="none" id="browser-&gt;DAPI" style="stroke: #666666; stroke-width: 1.0;"/><polygon fill="#666666" points="301,516.75,305,507.75,301,511.75,297,507.75,301,516.75" style="stroke: #666666; stroke-width: 1.0;"/><text fill="#666666" font-family="sans-serif" font-size="13" font-weight="bold" lengthAdjust="spacingAndGlyphs" textLength="31" x="302" y="379.0669">web</text><path d="M678,334.18 C678,379.99 678,463.12 678,511.59 " fill="none" id="mobileApp-&gt;api" style="stroke: #666666; stroke-width: 1.0;"/><polygon fill="#666666" points="678,516.75,682,507.75,678,511.75,674,507.75,678,516.75" style="stroke: #666666; stroke-width: 1.0;"/><text fill="#666666" font-family="sans-serif" font-size="13" font-weight="bold" lengthAdjust="spacingAndGlyphs" textLength="31" x="679" y="379.0669">web</text></g></svg>