<?xml version="1.0" encoding="UTF-8" standalone="no"?><svg xmlns="http://www.w3.org/2000/svg" xmlns:xlink="http://www.w3.org/1999/xlink" contentScriptType="application/ecmascript" contentStyleType="text/css" height="365px" preserveAspectRatio="none" style="width:1288px;height:365px;" version="1.1" viewBox="0 0 1288 365" width="1288px" zoomAndPan="magnify"><defs><filter height="300%" id="fajpdy694lqox" width="300%" x="-1" y="-1"><feGaussianBlur result="blurOut" stdDeviation="2.0"/><feColorMatrix in="blurOut" result="blurOut2" type="matrix" values="0 0 0 0 0 0 0 0 0 0 0 0 0 0 0 0 0 0 .4 0"/><feOffset dx="4.0" dy="4.0" in="blurOut2" result="blurOut3"/><feBlend in="SourceGraphic" in2="blurOut3" mode="normal"/></filter></defs><g><rect fill="#FFFFFF" filter="url(#fajpdy694lqox)" height="122" style="stroke: #000000; stroke-width: 1.5;" width="327" x="794.5" y="125"/><rect fill="#FFFFFF" height="10" style="stroke: #000000; stroke-width: 1.5;" width="15" x="1101.5" y="130"/><rect fill="#FFFFFF" height="2" style="stroke: #000000; stroke-width: 1.5;" width="4" x="1099.5" y="132"/><rect fill="#FFFFFF" height="2" style="stroke: #000000; stroke-width: 1.5;" width="4" x="1099.5" y="136"/><text fill="#000000" font-family="sans-serif" font-size="14" font-weight="bold" lengthAdjust="spacingAndGlyphs" textLength="87" x="914.5" y="150.9951">watchdogs</text><rect fill="#FFFFFF" filter="url(#fajpdy694lqox)" height="46.2969" style="stroke: #A80036; stroke-width: 1.5;" width="119" x="6" y="8"/><rect fill="#FFFFFF" height="10" style="stroke: #A80036; stroke-width: 1.5;" width="15" x="105" y="13"/><rect fill="#FFFFFF" height="2" style="stroke: #A80036; stroke-width: 1.5;" width="4" x="103" y="15"/><rect fill="#FFFFFF" height="2" style="stroke: #A80036; stroke-width: 1.5;" width="4" x="103" y="19"/><text fill="#000000" font-family="sans-serif" font-size="14" lengthAdjust="spacingAndGlyphs" textLength="79" x="21" y="40.9951">Mobile_App</text><rect fill="#FFFFFF" filter="url(#fajpdy694lqox)" height="46.2969" style="stroke: #A80036; stroke-width: 1.5;" width="143" x="455" y="182"/><rect fill="#FFFFFF" height="10" style="stroke: #A80036; stroke-width: 1.5;" width="15" x="578" y="187"/><rect fill="#FFFFFF" height="2" style="stroke: #A80036; stroke-width: 1.5;" width="4" x="576" y="189"/><rect fill="#FFFFFF" height="2" style="stroke: #A80036; stroke-width: 1.5;" width="4" x="576" y="193"/><text fill="#000000" font-family="sans-serif" font-size="14" lengthAdjust="spacingAndGlyphs" textLength="103" x="470" y="214.9951">Data collectors</text><rect fill="#FEFECE" filter="url(#fajpdy694lqox)" height="36.2969" style="stroke: #A80036; stroke-width: 1.5;" width="101" x="996" y="187"/><rect fill="#FEFECE" height="5" style="stroke: #A80036; stroke-width: 1.5;" width="10" x="991" y="192"/><rect fill="#FEFECE" height="5" style="stroke: #A80036; stroke-width: 1.5;" width="10" x="991" y="213.2969"/><text fill="#000000" font-family="sans-serif" font-size="14" lengthAdjust="spacingAndGlyphs" textLength="81" x="1006" y="209.9951">watchdog 1</text><rect fill="#FEFECE" filter="url(#fajpdy694lqox)" height="36.2969" style="stroke: #A80036; stroke-width: 1.5;" width="101" x="838" y="187"/><rect fill="#FEFECE" height="5" style="stroke: #A80036; stroke-width: 1.5;" width="10" x="833" y="192"/><rect fill="#FEFECE" height="5" style="stroke: #A80036; stroke-width: 1.5;" width="10" x="833" y="213.2969"/><text fill="#000000" font-family="sans-serif" font-size="14" lengthAdjust="spacingAndGlyphs" textLength="81" x="848" y="209.9951">watchdog 2</text><rect fill="#FEFECE" filter="url(#fajpdy694lqox)" height="36.2969" style="stroke: #A80036; stroke-width: 1.5;" width="113" x="599" y="318"/><rect fill="#FEFECE" height="5" style="stroke: #A80036; stroke-width: 1.5;" width="10" x="594" y="323"/><rect fill="#FEFECE" height="5" style="stroke: #A80036; stroke-width: 1.5;" width="10" x="594" y="344.2969"/><text fill="#000000" font-family="sans-serif" font-size="14" lengthAdjust="spacingAndGlyphs" textLength="93" x="609" y="340.9951">reverse proxy</text><rect fill="#FEFECE" filter="url(#fajpdy694lqox)" height="36.2969" style="stroke: #A80036; stroke-width: 1.5;" width="74" x="28.5" y="187"/><rect fill="#FEFECE" height="5" style="stroke: #A80036; stroke-width: 1.5;" width="10" x="23.5" y="192"/><rect fill="#FEFECE" height="5" style="stroke: #A80036; stroke-width: 1.5;" width="10" x="23.5" y="213.2969"/><text fill="#000000" font-family="sans-serif" font-size="14" lengthAdjust="spacingAndGlyphs" textLength="54" x="38.5" y="209.9951">Skip API</text><rect fill="#FEFECE" filter="url(#fajpdy694lqox)" height="36.2969" style="stroke: #A80036; stroke-width: 1.5;" width="70" x="160.5" y="187"/><rect fill="#FEFECE" height="5" style="stroke: #A80036; stroke-width: 1.5;" width="10" x="155.5" y="192"/><rect fill="#FEFECE" height="5" style="stroke: #A80036; stroke-width: 1.5;" width="10" x="155.5" y="213.2969"/><text fill="#000000" font-family="sans-serif" font-size="14" lengthAdjust="spacingAndGlyphs" textLength="50" x="170.5" y="209.9951">Service</text><rect fill="#FEFECE" filter="url(#fajpdy694lqox)" height="36.2969" style="stroke: #A80036; stroke-width: 1.5;" width="132" x="287.5" y="187"/><rect fill="#FEFECE" height="5" style="stroke: #A80036; stroke-width: 1.5;" width="10" x="282.5" y="192"/><rect fill="#FEFECE" height="5" style="stroke: #A80036; stroke-width: 1.5;" width="10" x="282.5" y="213.2969"/><text fill="#000000" font-family="sans-serif" font-size="14" lengthAdjust="spacingAndGlyphs" textLength="112" x="297.5" y="209.9951">User DB (mySql)</text><rect fill="#FEFECE" filter="url(#fajpdy694lqox)" height="36.2969" style="stroke: #A80036; stroke-width: 1.5;" width="172" x="773.5" y="318"/><rect fill="#FEFECE" height="5" style="stroke: #A80036; stroke-width: 1.5;" width="10" x="768.5" y="323"/><rect fill="#FEFECE" height="5" style="stroke: #A80036; stroke-width: 1.5;" width="10" x="768.5" y="344.2969"/><text fill="#000000" font-family="sans-serif" font-size="14" lengthAdjust="spacingAndGlyphs" textLength="152" x="783.5" y="340.9951">Info db (elasticsearch)</text><rect fill="#FEFECE" filter="url(#fajpdy694lqox)" height="36.2969" style="stroke: #A80036; stroke-width: 1.5;" width="141" x="400" y="318"/><rect fill="#FEFECE" height="5" style="stroke: #A80036; stroke-width: 1.5;" width="10" x="395" y="323"/><rect fill="#FEFECE" height="5" style="stroke: #A80036; stroke-width: 1.5;" width="10" x="395" y="344.2969"/><text fill="#000000" font-family="sans-serif" font-size="14" lengthAdjust="spacingAndGlyphs" textLength="121" x="410" y="340.9951">cache db (reddis)</text><rect fill="#FEFECE" filter="url(#fajpdy694lqox)" height="36.2969" style="stroke: #A80036; stroke-width: 1.5;" width="132" x="1145.5" y="187"/><rect fill="#FEFECE" height="5" style="stroke: #A80036; stroke-width: 1.5;" width="10" x="1140.5" y="192"/><rect fill="#FEFECE" height="5" style="stroke: #A80036; stroke-width: 1.5;" width="10" x="1140.5" y="213.2969"/><text fill="#000000" font-family="sans-serif" font-size="14" lengthAdjust="spacingAndGlyphs" textLength="112" x="1155.5" y="209.9951">Data aggregator</text><rect fill="#FEFECE" filter="url(#fajpdy694lqox)" height="36.2969" style="stroke: #A80036; stroke-width: 1.5;" width="108" x="659.5" y="187"/><rect fill="#FEFECE" height="5" style="stroke: #A80036; stroke-width: 1.5;" width="10" x="654.5" y="192"/><rect fill="#FEFECE" height="5" style="stroke: #A80036; stroke-width: 1.5;" width="10" x="654.5" y="213.2969"/><text fill="#000000" font-family="sans-serif" font-size="14" lengthAdjust="spacingAndGlyphs" textLength="88" x="669.5" y="209.9951">External APIs</text><path d="M65.5,54.13 C65.5,87.03 65.5,148.5 65.5,181.57 " fill="none" id="APP-&gt;API" style="stroke: #A80036; stroke-width: 1.0;"/><polygon fill="#A80036" points="65.5,186.62,69.5,177.62,65.5,181.62,61.5,177.62,65.5,186.62" style="stroke: #A80036; stroke-width: 1.0;"/><text fill="#000000" font-family="sans-serif" font-size="13" lengthAdjust="spacingAndGlyphs" textLength="25" x="66.5" y="97.0669">web</text><path d="M102.75,205 C119.21,205 138.58,205 155.36,205 " fill="none" id="API-&gt;SERV1" style="stroke: #A80036; stroke-width: 1.0;"/><polygon fill="#A80036" points="160.47,205,151.47,201,155.47,205,151.47,209,160.47,205" style="stroke: #A80036; stroke-width: 1.0;"/><text fill="#000000" font-family="sans-serif" font-size="13" lengthAdjust="spacingAndGlyphs" textLength="21" x="121" y="198.0669">call</text><path d="M230.57,205 C245.86,205 264.37,205 282.33,205 " fill="none" id="SERV1-&gt;DB1" style="stroke: #A80036; stroke-width: 1.0;"/><polygon fill="#A80036" points="287.38,205,278.38,201,282.38,205,278.38,209,287.38,205" style="stroke: #A80036; stroke-width: 1.0;"/><text fill="#000000" font-family="sans-serif" font-size="13" lengthAdjust="spacingAndGlyphs" textLength="20" x="249" y="198.0669">rpc</text><path d="M212.77,223.18 C226.86,236.16 247.89,253.34 269.5,263 C276.9,266.31 486.44,304.46 593.62,323.84 " fill="none" id="SERV1-&gt;PX" style="stroke: #A80036; stroke-width: 1.0;"/><polygon fill="#A80036" points="598.65,324.75,590.5022,319.2171,593.7293,323.8631,589.0832,327.0902,598.65,324.75" style="stroke: #A80036; stroke-width: 1.0;"/><text fill="#000000" font-family="sans-serif" font-size="13" lengthAdjust="spacingAndGlyphs" textLength="25" x="389.5" y="284.0669">web</text><path d="M546.63,336 C564.11,336 582.4,336 598.88,336 " fill="none" id="DB3&lt;-PX" style="stroke: #A80036; stroke-width: 1.0;"/><polygon fill="#A80036" points="541.23,336,550.23,340,546.23,336,550.23,332,541.23,336" style="stroke: #A80036; stroke-width: 1.0;"/><text fill="#000000" font-family="sans-serif" font-size="13" lengthAdjust="spacingAndGlyphs" textLength="21" x="559.5" y="329.0669">call</text><path d="M712.05,336 C729.41,336 748.97,336 768.03,336 " fill="none" id="PX-&gt;DB2" style="stroke: #A80036; stroke-width: 1.0;"/><polygon fill="#A80036" points="773.39,336,764.39,332,768.39,336,764.39,340,773.39,336" style="stroke: #A80036; stroke-width: 1.0;"/><text fill="#000000" font-family="sans-serif" font-size="13" lengthAdjust="spacingAndGlyphs" textLength="25" x="730.25" y="329.0669">web</text><path d="M995.73,205 C979.39,205 961.19,205 944.49,205 " fill="none" id="W1-&gt;W2" style="stroke: #A80036; stroke-width: 1.0;"/><polygon fill="#A80036" points="939.36,205,948.36,209,944.36,205,948.36,201,939.36,205" style="stroke: #A80036; stroke-width: 1.0;"/><text fill="#000000" font-family="sans-serif" font-size="13" lengthAdjust="spacingAndGlyphs" textLength="20" x="957.5" y="198.0669">rpc</text><path d="M939.02,221.58 C944.86,222.98 950.78,224.18 956.5,225 C967.63,226.6 979.43,225.82 990.69,223.84 " fill="none" id="W2-&gt;W1" style="stroke: #A80036; stroke-width: 1.0;"/><polygon fill="#A80036" points="995.82,222.85,986.2275,220.6175,990.9096,223.7921,987.7349,228.4742,995.82,222.85" style="stroke: #A80036; stroke-width: 1.0;"/><text fill="#000000" font-family="sans-serif" font-size="13" lengthAdjust="spacingAndGlyphs" textLength="20" x="957.5" y="221.0669">rpc</text><path d="M598.26,205 C616.65,205 636.23,205 653.93,205 " fill="none" id="DC-&gt;APIS" style="stroke: #A80036; stroke-width: 1.0;"/><polygon fill="#A80036" points="659.36,205,650.36,201,654.36,205,650.36,209,659.36,205" style="stroke: #A80036; stroke-width: 1.0;"/><text fill="#000000" font-family="sans-serif" font-size="13" lengthAdjust="spacingAndGlyphs" textLength="25" x="616.25" y="198.0669">web</text><path d="M548.68,228.18 C572.75,252.25 610.89,290.39 634.49,313.99 " fill="none" id="DC-&gt;PX" style="stroke: #A80036; stroke-width: 1.0;"/><polygon fill="#A80036" points="638.15,317.65,634.6145,308.4576,634.6145,314.1145,628.9576,314.1145,638.15,317.65" style="stroke: #A80036; stroke-width: 1.0;"/><text fill="#000000" font-family="sans-serif" font-size="13" lengthAdjust="spacingAndGlyphs" textLength="25" x="607.5" y="284.0669">web</text><path d="M1187.78,223.23 C1168.66,236.23 1140.6,253.43 1113.5,263 C961.72,316.63 914.41,292.29 755.5,318 C743.07,320.01 729.78,322.23 717.08,324.37 " fill="none" id="DT-&gt;PX" style="stroke: #A80036; stroke-width: 1.0;"/><polygon fill="#A80036" points="712.06,325.22,721.5986,327.6725,716.9908,324.3911,720.2723,319.7833,712.06,325.22" style="stroke: #A80036; stroke-width: 1.0;"/><text fill="#000000" font-family="sans-serif" font-size="13" lengthAdjust="spacingAndGlyphs" textLength="25" x="1087.5" y="284.0669">web</text><path d="M797.7038,124.605 C797.5597,124.3235 797.4134,124.0433 797.2648,123.7645 C796.6708,122.6491 796.0416,121.5552 795.3755,120.4856 C792.7111,116.2072 789.4563,112.3175 785.5,109 C758.13,86.05 174.71,93.55 142.5,109 C111.08,124.08 88.44,158.92 76.14,182.22 " fill="none" id="WS-&gt;API" style="stroke: #A80036; stroke-width: 1.0;"/><polygon fill="#A80036" points="73.82,186.71,81.4942,180.5369,76.1074,182.2639,74.3804,176.8771,73.82,186.71" style="stroke: #A80036; stroke-width: 1.0;"/><text fill="#000000" font-family="sans-serif" font-size="13" lengthAdjust="spacingAndGlyphs" textLength="25" x="440" y="97.0669">web</text><path d="M794.4739,247.1384 C794.3217,247.518 794.1667,247.8968 794.0088,248.2745 C793.6929,249.0298 793.3652,249.7808 793.0254,250.5259 C792.3458,252.0163 791.6174,253.4835 790.8369,254.9159 C789.2759,257.7806 787.5063,260.5063 785.5,263 C766.24,286.94 736.77,304.19 710.75,315.79 " fill="none" id="WS-&gt;PX" style="stroke: #A80036; stroke-width: 1.0;"/><polygon fill="#A80036" points="705.94,317.89,715.7887,317.9473,710.5208,315.8859,712.5821,310.618,705.94,317.89" style="stroke: #A80036; stroke-width: 1.0;"/><text fill="#000000" font-family="sans-serif" font-size="13" lengthAdjust="spacingAndGlyphs" textLength="25" x="778.5" y="284.0669">web</text></g></svg>