<?xml version="1.0" encoding="UTF-8" standalone="no"?><svg xmlns="http://www.w3.org/2000/svg" xmlns:xlink="http://www.w3.org/1999/xlink" contentScriptType="application/ecmascript" contentStyleType="text/css" height="535px" preserveAspectRatio="none" style="width:2235px;height:535px;" version="1.1" viewBox="0 0 2235 535" width="2235px" zoomAndPan="magnify"><defs/><g><rect fill="#90EE90" height="36.2969" style="stroke: #000000; stroke-width: 1.5;" width="52" x="732.04" y="8"/><text fill="#000000" font-family="Courier" font-size="14" lengthAdjust="spacingAndGlyphs" textLength="32" x="742.04" y="30.9951">Skip</text><rect fill="#90EE90" height="36.2969" style="stroke: #000000; stroke-width: 1.5;" width="108" x="991.04" y="104"/><text fill="#000000" font-family="Courier" font-size="14" lengthAdjust="spacingAndGlyphs" textLength="88" x="1001.04" y="126.9951">Data Source</text><rect fill="#90EE90" height="36.2969" style="stroke: #000000; stroke-width: 1.5;" width="140" x="2084.04" y="296"/><text fill="#000000" font-family="Courier" font-size="14" lengthAdjust="spacingAndGlyphs" textLength="120" x="2094.04" y="318.9951">Device position</text><rect fill="#90EE90" height="36.2969" style="stroke: #000000; stroke-width: 1.5;" width="116" x="1329.04" y="296"/><text fill="#000000" font-family="Courier" font-size="14" lengthAdjust="spacingAndGlyphs" textLength="96" x="1339.04" y="318.9951">External API</text><rect fill="#90EE90" height="36.2969" style="stroke: #000000; stroke-width: 1.5;" width="52" x="714.04" y="200"/><text fill="#000000" font-family="Courier" font-size="14" lengthAdjust="spacingAndGlyphs" textLength="32" x="724.04" y="222.9951">User</text><rect fill="#90EE90" height="36.2969" style="stroke: #000000; stroke-width: 1.5;" width="124" x="99.04" y="296"/><text fill="#000000" font-family="Courier" font-size="14" lengthAdjust="spacingAndGlyphs" textLength="104" x="109.04" y="318.9951">Resort review</text><rect fill="#90EE90" height="36.2969" style="stroke: #000000; stroke-width: 1.5;" width="108" x="369.04" y="296"/><text fill="#000000" font-family="Courier" font-size="14" lengthAdjust="spacingAndGlyphs" textLength="88" x="379.04" y="318.9951">Snow review</text><rect fill="#90EE90" height="36.2969" style="stroke: #000000; stroke-width: 1.5;" width="44" x="2175.04" y="392"/><text fill="#000000" font-family="Courier" font-size="14" lengthAdjust="spacingAndGlyphs" textLength="24" x="2185.04" y="414.9951">GPS</text><rect fill="#90EE90" height="36.2969" style="stroke: #000000; stroke-width: 1.5;" width="60" x="2080.04" y="392"/><text fill="#000000" font-family="Courier" font-size="14" lengthAdjust="spacingAndGlyphs" textLength="40" x="2090.04" y="414.9951">Wi Fi</text><rect fill="#90EE90" height="36.2969" style="stroke: #000000; stroke-width: 1.5;" width="76" x="258.04" y="296"/><text fill="#000000" font-family="Courier" font-size="14" lengthAdjust="spacingAndGlyphs" textLength="56" x="268.04" y="318.9951">Account</text><rect fill="#90EE90" height="36.2969" style="stroke: #000000; stroke-width: 1.5;" width="148" x="297.04" y="392"/><text fill="#000000" font-family="Courier" font-size="14" lengthAdjust="spacingAndGlyphs" textLength="128" x="307.04" y="414.9951">Favorite Resorts</text><rect fill="#90EE90" height="36.2969" style="stroke: #000000; stroke-width: 1.5;" width="84" x="178.04" y="392"/><text fill="#000000" font-family="Courier" font-size="14" lengthAdjust="spacingAndGlyphs" textLength="64" x="188.04" y="414.9951">Contacts</text><rect fill="#90EE90" height="36.2969" style="stroke: #000000; stroke-width: 1.5;" width="52" x="303.04" y="488"/><text fill="#000000" font-family="Courier" font-size="14" lengthAdjust="spacingAndGlyphs" textLength="32" x="313.04" y="510.9951">List</text><rect fill="#90EE90" height="36.2969" style="stroke: #000000; stroke-width: 1.5;" width="44" x="390.04" y="488"/><text fill="#000000" font-family="Courier" font-size="14" lengthAdjust="spacingAndGlyphs" textLength="24" x="400.04" y="510.9951">Map</text><rect fill="#90EE90" height="36.2969" style="stroke: #000000; stroke-width: 1.5;" width="108" x="801.04" y="200"/><text fill="#000000" font-family="Courier" font-size="14" lengthAdjust="spacingAndGlyphs" textLength="88" x="811.04" y="222.9951">Resort info</text><rect fill="#90EE90" height="36.2969" style="stroke: #000000; stroke-width: 1.5;" width="76" x="766.04" y="296"/><text fill="#000000" font-family="Courier" font-size="14" lengthAdjust="spacingAndGlyphs" textLength="56" x="776.04" y="318.9951">Weather</text><rect fill="#90EE90" height="36.2969" style="stroke: #000000; stroke-width: 1.5;" width="92" x="877.04" y="296"/><text fill="#000000" font-family="Courier" font-size="14" lengthAdjust="spacingAndGlyphs" textLength="72" x="887.04" y="318.9951">Affluence</text><rect fill="#90EE90" height="36.2969" style="stroke: #000000; stroke-width: 1.5;" width="60" x="893.04" y="392"/><text fill="#000000" font-family="Courier" font-size="14" lengthAdjust="spacingAndGlyphs" textLength="40" x="903.04" y="414.9951">Today</text><rect fill="#90EE90" height="36.2969" style="stroke: #000000; stroke-width: 1.5;" width="52" x="988.04" y="392"/><text fill="#000000" font-family="Courier" font-size="14" lengthAdjust="spacingAndGlyphs" textLength="32" x="998.04" y="414.9951">Week</text><rect fill="#90EE90" height="36.2969" style="stroke: #000000; stroke-width: 1.5;" width="68" x="790.04" y="392"/><text fill="#000000" font-family="Courier" font-size="14" lengthAdjust="spacingAndGlyphs" textLength="48" x="800.04" y="414.9951">Season</text><rect fill="#90EE90" height="36.2969" style="stroke: #000000; stroke-width: 1.5;" width="68" x="1004.04" y="296"/><text fill="#000000" font-family="Courier" font-size="14" lengthAdjust="spacingAndGlyphs" textLength="48" x="1014.04" y="318.9951">Slopes</text><rect fill="#90EE90" height="36.2969" style="stroke: #000000; stroke-width: 1.5;" width="116" x="512.04" y="296"/><text fill="#000000" font-family="Courier" font-size="14" lengthAdjust="spacingAndGlyphs" textLength="96" x="522.04" y="318.9951">Opening time</text><rect fill="#90EE90" height="36.2969" style="stroke: #000000; stroke-width: 1.5;" width="68" x="663.04" y="296"/><text fill="#000000" font-family="Courier" font-size="14" lengthAdjust="spacingAndGlyphs" textLength="48" x="673.04" y="318.9951">Prices</text><rect fill="#90EE90" height="36.2969" style="stroke: #000000; stroke-width: 1.5;" width="76" x="94.04" y="104"/><text fill="#000000" font-family="Courier" font-size="14" lengthAdjust="spacingAndGlyphs" textLength="56" x="104.04" y="126.9951">Rewards</text><rect fill="#90EE90" height="36.2969" style="stroke: #000000; stroke-width: 1.5;" width="76" x="32.04" y="200"/><text fill="#000000" font-family="Courier" font-size="14" lengthAdjust="spacingAndGlyphs" textLength="56" x="42.04" y="222.9951">Lottery</text><rect fill="#FEFECE" height="36.2969" style="stroke: #000000; stroke-width: 1.5;" width="100" x="143.04" y="200"/><text fill="#000000" font-family="Courier" font-size="14" lengthAdjust="spacingAndGlyphs" textLength="80" x="153.04" y="222.9951">Direct pay</text><rect fill="#90EE90" height="36.2969" style="stroke: #000000; stroke-width: 1.5;" width="132" x="423.04" y="104"/><text fill="#000000" font-family="Courier" font-size="14" lengthAdjust="spacingAndGlyphs" textLength="112" x="433.04" y="126.9951">Travel Sharing</text><rect fill="#90EE90" height="36.2969" style="stroke: #000000; stroke-width: 1.5;" width="172" x="349.04" y="200"/><text fill="#000000" font-family="Courier" font-size="14" lengthAdjust="spacingAndGlyphs" textLength="152" x="359.04" y="222.9951">Destination Picking</text><rect fill="#90EE90" height="36.2969" style="stroke: #000000; stroke-width: 1.5;" width="52" x="556.04" y="200"/><text fill="#000000" font-family="Courier" font-size="14" lengthAdjust="spacingAndGlyphs" textLength="32" x="566.04" y="222.9951">Chat</text><rect fill="#90EE90" height="36.2969" style="stroke: #000000; stroke-width: 1.5;" width="84" x="1484.04" y="104"/><text fill="#000000" font-family="Courier" font-size="14" lengthAdjust="spacingAndGlyphs" textLength="64" x="1494.04" y="126.9951">Overview</text><rect fill="#90EE90" height="36.2969" style="stroke: #000000; stroke-width: 1.5;" width="76" x="1696.04" y="200"/><text fill="#000000" font-family="Courier" font-size="14" lengthAdjust="spacingAndGlyphs" textLength="56" x="1706.04" y="222.9951">Heatmap</text><rect fill="#90EE90" height="36.2969" style="stroke: #000000; stroke-width: 1.5;" width="140" x="1909.04" y="296"/><text fill="#000000" font-family="Courier" font-size="14" lengthAdjust="spacingAndGlyphs" textLength="120" x="1919.04" y="318.9951">Snow Conditions</text><rect fill="#90EE90" height="36.2969" style="stroke: #000000; stroke-width: 1.5;" width="76" x="1218.04" y="296"/><text fill="#000000" font-family="Courier" font-size="14" lengthAdjust="spacingAndGlyphs" textLength="56" x="1228.04" y="318.9951">Weather</text><rect fill="#90EE90" height="36.2969" style="stroke: #000000; stroke-width: 1.5;" width="92" x="1782.04" y="296"/><text fill="#000000" font-family="Courier" font-size="14" lengthAdjust="spacingAndGlyphs" textLength="72" x="1792.04" y="318.9951">Affluence</text><rect fill="#90EE90" height="36.2969" style="stroke: #000000; stroke-width: 1.5;" width="84" x="1484.04" y="200"/><text fill="#000000" font-family="Courier" font-size="14" lengthAdjust="spacingAndGlyphs" textLength="64" x="1494.04" y="222.9951">Top List</text><rect fill="#90EE90" height="36.2969" style="stroke: #000000; stroke-width: 1.5;" width="140" x="1607.04" y="296"/><text fill="#000000" font-family="Courier" font-size="14" lengthAdjust="spacingAndGlyphs" textLength="120" x="1617.04" y="318.9951">Snow Conditions</text><rect fill="#90EE90" height="36.2969" style="stroke: #000000; stroke-width: 1.5;" width="76" x="1107.04" y="296"/><text fill="#000000" font-family="Courier" font-size="14" lengthAdjust="spacingAndGlyphs" textLength="56" x="1117.04" y="318.9951">Weather</text><rect fill="#90EE90" height="36.2969" style="stroke: #000000; stroke-width: 1.5;" width="92" x="1480.04" y="296"/><text fill="#000000" font-family="Courier" font-size="14" lengthAdjust="spacingAndGlyphs" textLength="72" x="1490.04" y="318.9951">Affluence</text><path d="M784.27,35.59 C830.26,50.65 926.42,82.15 988.24,102.4 " fill="none" id="A0-&gt;B0" style="stroke: #A80036; stroke-width: 1.0;"/><ellipse cx="987.2994" cy="102.0784" fill="#A80036" rx="6" ry="6" style="stroke: #A80036; stroke-width: 1.5;"/><path d="M752.48,44.04 C738.38,84.38 697.21,186.13 626.04,236 C523.59,307.78 472.02,264.17 351.04,296 C347.16,297.02 343.16,298.14 339.15,299.29 " fill="none" id="A0-&gt;C0" style="stroke: #A80036; stroke-width: 1.0;"/><ellipse cx="339.8454" cy="299.0842" fill="#FFFFFF" rx="6" ry="6" style="stroke: #A80036; stroke-width: 1.5;"/><path d="M766.82,44.2 C784.49,78.82 824.34,156.86 843.85,195.08 " fill="none" id="A0-&gt;D0" style="stroke: #A80036; stroke-width: 1.0;"/><ellipse cx="843.6187" cy="194.6377" fill="#A80036" rx="6" ry="6" style="stroke: #A80036; stroke-width: 1.5;"/><path d="M731.94,30.92 C635.26,45.44 296.92,96.24 175.68,114.45 " fill="none" id="A0-&gt;E0" style="stroke: #A80036; stroke-width: 1.0;"/><ellipse cx="176.3537" cy="114.3508" fill="#FFFFFF" rx="6" ry="6" style="stroke: #A80036; stroke-width: 1.5;"/><path d="M731.76,36.18 C688.1,51.44 599.79,82.3 542.59,102.29 " fill="none" id="A0-&gt;F0" style="stroke: #A80036; stroke-width: 1.0;"/><ellipse cx="543.5077" cy="101.9809" fill="#FFFFFF" rx="6" ry="6" style="stroke: #A80036; stroke-width: 1.5;"/><path d="M784.47,30.24 C896.56,43.95 1333.45,97.43 1478.75,115.21 " fill="none" id="A0-&gt;H0" style="stroke: #A80036; stroke-width: 1.0;"/><ellipse cx="1477.8455" cy="115.0921" fill="#A80036" rx="6" ry="6" style="stroke: #A80036; stroke-width: 1.5;"/><path d="M1099.35,124.93 C1223.09,130.13 1534.95,147.76 1790.04,200 C1900.8,222.68 2025.86,265.43 2096.79,291.35 " fill="none" id="B0-&gt;B1" style="stroke: #A80036; stroke-width: 1.0;"/><polygon fill="#A80036" points="2109.39,295.98,2105.139,290.1552,2098.1272,291.8389,2102.3782,297.6637,2109.39,295.98" style="stroke: #A80036; stroke-width: 1.0;"/><path d="M1075.69,140.03 C1137.06,174.13 1275.13,250.83 1344.93,289.61 " fill="none" id="B0-&gt;B2" style="stroke: #A80036; stroke-width: 1.0;"/><polygon fill="#A80036" points="1356.33,295.94,1353.0263,289.5302,1345.8389,290.1145,1349.1426,296.5243,1356.33,295.94" style="stroke: #A80036; stroke-width: 1.0;"/><path d="M990.9,137.58 C937.83,152.19 854.82,175.93 784.04,200 C782.34,200.58 780.6,201.18 778.85,201.81 " fill="none" id="B0-&gt;B3" style="stroke: #A80036; stroke-width: 1.0;"/><polygon fill="#A80036" points="766.44,206.4,773.4552,208.0692,777.6943,202.2357,770.679,200.5664,766.44,206.4" style="stroke: #A80036; stroke-width: 1.0;"/><path d="M2161.93,332.24 C2167.99,345.49 2176.5,364.1 2183.63,379.68 " fill="none" id="B1-&gt;B6" style="stroke: #A80036; stroke-width: 1.0;"/><polygon fill="#A80036" points="2189.2,391.87,2190.3366,384.749,2184.2006,380.961,2183.064,388.082,2189.2,391.87" style="stroke: #A80036; stroke-width: 1.0;"/><path d="M2145.97,332.24 C2139.77,345.49 2131.05,364.1 2123.76,379.68 " fill="none" id="B1-&gt;B7" style="stroke: #A80036; stroke-width: 1.0;"/><polygon fill="#A80036" points="2118.06,391.87,2124.2238,388.1273,2123.1397,380.9982,2116.9759,384.7409,2118.06,391.87" style="stroke: #A80036; stroke-width: 1.0;"/><path d="M714.03,222.91 C618.11,237.36 287.22,287.3 240.04,296 C238.66,296.25 237.27,296.51 235.86,296.78 " fill="none" id="B3-&gt;B4" style="stroke: #A80036; stroke-width: 1.0;"/><polygon fill="#A80036" points="223.07,299.29,229.7272,302.0615,234.846,296.9823,228.1888,294.2108,223.07,299.29" style="stroke: #A80036; stroke-width: 1.0;"/><path d="M713.93,227.53 C705.38,230.28 695.82,233.31 687.04,236 C620.19,256.47 543.45,278.71 489.99,294 " fill="none" id="B3-&gt;B5" style="stroke: #A80036; stroke-width: 1.0;"/><polygon fill="#A80036" points="477.26,297.64,484.128,299.8378,488.7983,294.3433,481.9303,292.1456,477.26,297.64" style="stroke: #A80036; stroke-width: 1.0;"/><path d="M223.27,314 C233.11,314 242.95,314 252.8,314 " fill="none" id="B4-&gt;C0" style="stroke: #A80036; stroke-width: 1.0; stroke-dasharray: 1.0,3.0;"/><polygon fill="#A80036" points="257.95,314,248.95,310,252.95,314,248.95,318,257.95,314" style="stroke: #A80036; stroke-width: 1.0;"/><path d="M309.79,332.24 C322.27,347.88 340.7,370.98 354.08,387.75 " fill="none" id="C0-&gt;C1" style="stroke: #A80036; stroke-width: 1.0;"/><ellipse cx="353.6344" cy="387.1748" fill="#FFFFFF" rx="6" ry="6" style="stroke: #A80036; stroke-width: 1.5;"/><path d="M282.1,332.24 C269.46,347.88 250.78,370.98 237.22,387.75 " fill="none" id="C0-&gt;C3" style="stroke: #A80036; stroke-width: 1.0;"/><ellipse cx="237.6632" cy="387.2049" fill="#FFFFFF" rx="6" ry="6" style="stroke: #A80036; stroke-width: 1.5;"/><path d="M363.34,428.24 C357.41,441.49 349.1,460.1 342.14,475.68 " fill="none" id="C1-&gt;C4" style="stroke: #A80036; stroke-width: 1.0;"/><polygon fill="#A80036" points="336.69,487.87,342.7924,484.028,341.593,476.9173,335.4906,480.7593,336.69,487.87" style="stroke: #A80036; stroke-width: 1.0;"/><path d="M378.56,428.24 C384.34,441.49 392.46,460.1 399.25,475.68 " fill="none" id="C1-&gt;C5" style="stroke: #A80036; stroke-width: 1.0;"/><polygon fill="#A80036" points="404.57,487.87,405.836,480.7709,399.7699,476.8719,398.5039,483.971,404.57,487.87" style="stroke: #A80036; stroke-width: 1.0;"/><path d="M845.68,236.24 C838.42,249.62 828.2,268.48 819.69,284.15 " fill="none" id="D0-&gt;D1" style="stroke: #A80036; stroke-width: 1.0;"/><polygon fill="#A80036" points="813.33,295.87,819.707,292.5035,819.0522,285.3222,812.6752,288.6887,813.33,295.87" style="stroke: #A80036; stroke-width: 1.0;"/><path d="M867.51,236.24 C877.38,249.89 891.37,269.22 902.84,285.07 " fill="none" id="D0-&gt;D2" style="stroke: #A80036; stroke-width: 1.0;"/><polygon fill="#A80036" points="910.65,295.87,910.3751,288.6641,903.6179,286.1464,903.8927,293.3522,910.65,295.87" style="stroke: #A80036; stroke-width: 1.0;"/><path d="M888.18,236.02 C917.5,251.08 960.53,273.19 992.97,289.85 " fill="none" id="D0-&gt;D6" style="stroke: #A80036; stroke-width: 1.0;"/><polygon fill="#A80036" points="1004.84,295.95,1001.3333,289.649,994.1682,290.4624,997.6749,296.7635,1004.84,295.95" style="stroke: #A80036; stroke-width: 1.0;"/><path d="M803.43,236.02 C755.96,251.68 685.4,274.95 634.29,291.81 " fill="none" id="D0-&gt;D7" style="stroke: #A80036; stroke-width: 1.0;"/><polygon fill="#A80036" points="621.75,295.95,628.701,297.8691,633.146,292.1909,626.195,290.2718,621.75,295.95" style="stroke: #A80036; stroke-width: 1.0;"/><path d="M826.43,236.02 C801.45,250.88 764.94,272.6 737.06,289.19 " fill="none" id="D0-&gt;D8" style="stroke: #A80036; stroke-width: 1.0;"/><polygon fill="#A80036" points="725.7,295.95,732.9015,296.3215,736.0143,289.8168,728.8127,289.4453,725.7,295.95" style="stroke: #A80036; stroke-width: 1.0;"/><path d="M923.04,332.24 C923.04,347.48 923.04,369.81 923.04,386.46 " fill="none" id="D2-&gt;D3" style="stroke: #A80036; stroke-width: 1.0;"/><ellipse cx="923.04" cy="385.87" fill="#A80036" rx="6" ry="6" style="stroke: #A80036; stroke-width: 1.5;"/><path d="M939.73,332.24 C954.99,348.01 977.61,371.37 993.88,388.17 " fill="none" id="D2-&gt;D4" style="stroke: #A80036; stroke-width: 1.0;"/><ellipse cx="993.2766" cy="387.5592" fill="#FFFFFF" rx="6" ry="6" style="stroke: #A80036; stroke-width: 1.5;"/><path d="M904.88,332.24 C888.27,348.01 863.67,371.37 845.97,388.17 " fill="none" id="D2-&gt;D5" style="stroke: #A80036; stroke-width: 1.0;"/><ellipse cx="846.4244" cy="387.7316" fill="#FFFFFF" rx="6" ry="6" style="stroke: #A80036; stroke-width: 1.5;"/><path d="M1057.27,295.92 C1070.35,284.92 1088.64,271.89 1107.54,266 C1186.88,241.26 1213.8,246.3 1294.54,266 C1316.41,271.34 1338.88,282.83 1356.19,293.23 " fill="none" id="D6-&gt;B2" style="stroke: #A80036; stroke-width: 1.0; stroke-dasharray: 1.0,3.0;"/><polygon fill="#A80036" points="1360.48,295.85,1354.8917,287.74,1356.2154,293.2399,1350.7155,294.5635,1360.48,295.85" style="stroke: #A80036; stroke-width: 1.0;"/><path d="M596.91,295.85 C614.9,284.82 639.59,271.79 663.54,266 C799.84,233.06 1158.31,232.76 1294.54,266 C1316.41,271.34 1338.88,282.83 1356.19,293.23 " fill="none" id="D7-&gt;B2" style="stroke: #A80036; stroke-width: 1.0; stroke-dasharray: 1.0,3.0;"/><polygon fill="#A80036" points="1360.48,295.85,1354.8917,287.74,1356.2154,293.2399,1350.7155,294.5635,1360.48,295.85" style="stroke: #A80036; stroke-width: 1.0;"/><path d="M716.27,295.92 C729.35,284.92 747.64,271.89 766.54,266 C878.55,231.08 1180.55,238.19 1294.54,266 C1316.41,271.34 1338.88,282.83 1356.19,293.23 " fill="none" id="D8-&gt;B2" style="stroke: #A80036; stroke-width: 1.0; stroke-dasharray: 1.0,3.0;"/><polygon fill="#A80036" points="1360.48,295.85,1354.8917,287.74,1356.2154,293.2399,1350.7155,294.5635,1360.48,295.85" style="stroke: #A80036; stroke-width: 1.0;"/><path d="M120.67,140.24 C111.75,153.76 99.16,172.85 88.76,188.61 " fill="none" id="E0-&gt;E1" style="stroke: #A80036; stroke-width: 1.0;"/><polygon fill="#FFFFFF" points="81.34,199.87,87.9836,197.0661,87.9507,189.8551,81.307,192.659,81.34,199.87" style="stroke: #A80036; stroke-width: 1.0;"/><path d="M143.23,140.24 C152,153.76 164.39,172.85 174.62,188.61 " fill="none" id="E0-&gt;E2" style="stroke: #A80036; stroke-width: 1.0;"/><polygon fill="#FFFFFF" points="181.92,199.87,182.0102,192.6595,175.389,189.803,175.2988,197.0135,181.92,199.87" style="stroke: #A80036; stroke-width: 1.0;"/><path d="M93.82,138.49 C48.9,158.95 -15.96,196.99 14.04,236 C77.4,318.38 140.08,267.57 240.04,296 C244.18,297.18 248.49,298.43 252.79,299.71 " fill="none" id="E0-&gt;C0" style="stroke: #A80036; stroke-width: 1.0; stroke-dasharray: 1.0,3.0;"/><polygon fill="#A80036" points="257.83,301.21,250.3449,294.8089,253.0377,299.7837,248.0629,302.4765,257.83,301.21" style="stroke: #A80036; stroke-width: 1.0;"/><path d="M479.13,140.24 C470.23,155.74 457.11,178.59 447.49,195.32 " fill="none" id="F0-&gt;F1" style="stroke: #A80036; stroke-width: 1.0;"/><ellipse cx="447.8605" cy="194.6627" fill="#A80036" rx="6" ry="6" style="stroke: #A80036; stroke-width: 1.5;"/><path d="M506.1,140.24 C521.7,156.01 544.81,179.37 561.43,196.17 " fill="none" id="F0-&gt;F2" style="stroke: #A80036; stroke-width: 1.0;"/><ellipse cx="560.8731" cy="195.6017" fill="#A80036" rx="6" ry="6" style="stroke: #A80036; stroke-width: 1.5;"/><path d="M426.77,140.11 C394.12,152.01 355.87,171.04 331.04,200 C308.82,225.91 300.7,265.8 297.74,290.6 " fill="none" id="F0-&gt;C0" style="stroke: #A80036; stroke-width: 1.0; stroke-dasharray: 1.0,3.0;"/><polygon fill="#A80036" points="297.18,295.65,302.1333,287.1374,297.7228,290.6795,294.1806,286.269,297.18,295.65" style="stroke: #A80036; stroke-width: 1.0;"/><path d="M1563.71,140.02 C1597.47,155.28 1647.24,177.77 1684.27,194.51 " fill="none" id="H0-&gt;H1" style="stroke: #A80036; stroke-width: 1.0;"/><polygon fill="#A80036" points="1696.3,199.95,1692.4819,193.8327,1685.3666,195.0042,1689.1847,201.1216,1696.3,199.95" style="stroke: #A80036; stroke-width: 1.0;"/><path d="M1695.91,224.46 C1621.52,235.45 1452.1,262.08 1312.04,296 C1310.31,296.42 1308.55,296.86 1306.78,297.32 " fill="none" id="H1-&gt;H3" style="stroke: #A80036; stroke-width: 1.0;"/><polygon fill="#A80036" points="1294.14,300.8,1300.9872,303.0619,1305.7086,297.6114,1298.8614,295.3495,1294.14,300.8" style="stroke: #A80036; stroke-width: 1.0;"/><path d="M1751.28,236.24 C1765.33,250.29 1785.39,270.36 1801.49,286.45 " fill="none" id="H1-&gt;H4" style="stroke: #A80036; stroke-width: 1.0;"/><polygon fill="#A80036" points="1810.91,295.87,1809.4958,288.7989,1802.4247,287.3847,1803.8389,294.4558,1810.91,295.87" style="stroke: #A80036; stroke-width: 1.0;"/><path d="M1772.05,233.58 C1812.31,249.03 1876.31,273.59 1922.49,291.3 " fill="none" id="H1-&gt;H2" style="stroke: #A80036; stroke-width: 1.0;"/><polygon fill="#A80036" points="1934.71,295.99,1930.5426,290.105,1923.5075,291.6884,1927.6749,297.5734,1934.71,295.99" style="stroke: #A80036; stroke-width: 1.0;"/><path d="M1526.04,140.24 C1526.04,153.23 1526.04,171.36 1526.04,186.74 " fill="none" id="H0-&gt;H5" style="stroke: #A80036; stroke-width: 1.0;"/><polygon fill="#A80036" points="1526.04,199.87,1530.04,193.87,1526.04,187.87,1522.04,193.87,1526.04,199.87" style="stroke: #A80036; stroke-width: 1.0;"/><path d="M1526.04,236.24 C1526.04,249.23 1526.04,267.36 1526.04,282.74 " fill="none" id="H5-&gt;H8" style="stroke: #A80036; stroke-width: 1.0;"/><polygon fill="#A80036" points="1526.04,295.87,1530.04,289.87,1526.04,283.87,1522.04,289.87,1526.04,295.87" style="stroke: #A80036; stroke-width: 1.0;"/><path d="M1553.38,236.02 C1577.15,250.82 1611.84,272.41 1638.43,288.97 " fill="none" id="H5-&gt;H6" style="stroke: #A80036; stroke-width: 1.0;"/><polygon fill="#A80036" points="1649.64,295.95,1646.659,289.3839,1639.4515,289.6102,1642.4324,296.1763,1649.64,295.95" style="stroke: #A80036; stroke-width: 1.0;"/><path d="M1484.02,228.08 C1421.88,241.71 1301.95,268.76 1201.04,296 C1199.32,296.46 1197.58,296.94 1195.81,297.44 " fill="none" id="H5-&gt;H7" style="stroke: #A80036; stroke-width: 1.0;"/><polygon fill="#A80036" points="1183.2,301.07,1190.0733,303.2512,1194.7303,297.7455,1187.857,295.5643,1183.2,301.07" style="stroke: #A80036; stroke-width: 1.0;"/><path d="M1294.16,314 C1304.05,314 1313.93,314 1323.82,314 " fill="none" id="H3-&gt;B2" style="stroke: #A80036; stroke-width: 1.0; stroke-dasharray: 1.0,3.0;"/><polygon fill="#A80036" points="1328.99,314,1319.99,310,1323.99,314,1319.99,318,1328.99,314" style="stroke: #A80036; stroke-width: 1.0;"/><path d="M1165.56,295.9 C1179.46,284.9 1198.82,271.87 1218.54,266 C1250.91,256.37 1261.72,257.99 1294.54,266 C1316.41,271.34 1338.88,282.83 1356.19,293.23 " fill="none" id="H7-&gt;B2" style="stroke: #A80036; stroke-width: 1.0; stroke-dasharray: 1.0,3.0;"/><polygon fill="#A80036" points="1360.48,295.85,1354.8917,287.74,1356.2154,293.2399,1350.7155,294.5635,1360.48,295.85" style="stroke: #A80036; stroke-width: 1.0;"/><path d="M824.56,295.9 C838.46,284.9 857.82,271.87 877.54,266 C966.36,239.57 1204.51,244.03 1294.54,266 C1316.41,271.34 1338.88,282.83 1356.19,293.23 " fill="none" id="D1-&gt;B2" style="stroke: #A80036; stroke-width: 1.0; stroke-dasharray: 1.0,3.0;"/><polygon fill="#A80036" points="1360.48,295.85,1354.8917,287.74,1356.2154,293.2399,1350.7155,294.5635,1360.48,295.85" style="stroke: #A80036; stroke-width: 1.0;"/><path d="M1851.11,295.87 C1866.66,284.86 1888.15,271.83 1909.54,266 C1969.57,249.64 1988.75,252.71 2049.54,266 C2073.81,271.31 2099.18,282.8 2118.85,293.21 " fill="none" id="H4-&gt;B1" style="stroke: #A80036; stroke-width: 1.0; stroke-dasharray: 1.0,3.0;"/><polygon fill="#A80036" points="2123.72,295.83,2117.6952,288.0389,2119.3186,293.4578,2113.8996,295.0812,2123.72,295.83" style="stroke: #A80036; stroke-width: 1.0;"/><path d="M1549.11,295.87 C1564.66,284.86 1586.15,271.83 1607.54,266 C1702.3,240.17 1953.58,245.02 2049.54,266 C2073.81,271.31 2099.18,282.8 2118.85,293.21 " fill="none" id="H8-&gt;B1" style="stroke: #A80036; stroke-width: 1.0; stroke-dasharray: 1.0,3.0;"/><polygon fill="#A80036" points="2123.72,295.83,2117.6952,288.0389,2119.3186,293.4578,2113.8996,295.0812,2123.72,295.83" style="stroke: #A80036; stroke-width: 1.0;"/></g></svg>