<?xml version="1.0" encoding="UTF-8" standalone="no"?><svg xmlns="http://www.w3.org/2000/svg" xmlns:xlink="http://www.w3.org/1999/xlink" contentScriptType="application/ecmascript" contentStyleType="text/css" height="178px" preserveAspectRatio="none" style="width:496px;height:178px;" version="1.1" viewBox="0 0 496 178" width="496px" zoomAndPan="magnify"><defs><filter height="300%" id="f52maahi08fe4" width="300%" x="-1" y="-1"><feGaussianBlur result="blurOut" stdDeviation="2.0"/><feColorMatrix in="blurOut" result="blurOut2" type="matrix" values="0 0 0 0 0 0 0 0 0 0 0 0 0 0 0 0 0 0 .4 0"/><feOffset dx="4.0" dy="4.0" in="blurOut2" result="blurOut3"/><feBlend in="SourceGraphic" in2="blurOut3" mode="normal"/></filter></defs><g><rect fill="#FFFFFF" filter="url(#f52maahi08fe4)" height="46.2969" style="stroke: #A80036; stroke-width: 1.5;" width="143" x="6" y="8"/><rect fill="#FFFFFF" height="10" style="stroke: #A80036; stroke-width: 1.5;" width="15" x="129" y="13"/><rect fill="#FFFFFF" height="2" style="stroke: #A80036; stroke-width: 1.5;" width="4" x="127" y="15"/><rect fill="#FFFFFF" height="2" style="stroke: #A80036; stroke-width: 1.5;" width="4" x="127" y="19"/><text fill="#000000" font-family="sans-serif" font-size="14" lengthAdjust="spacingAndGlyphs" textLength="103" x="21" y="40.9951">Data collectors</text><rect fill="#FEFECE" filter="url(#f52maahi08fe4)" height="36.2969" style="stroke: #A80036; stroke-width: 1.5;" width="234" x="131.5" y="131"/><rect fill="#FEFECE" height="5" style="stroke: #A80036; stroke-width: 1.5;" width="10" x="126.5" y="136"/><rect fill="#FEFECE" height="5" style="stroke: #A80036; stroke-width: 1.5;" width="10" x="126.5" y="157.2969"/><text fill="#000000" font-family="sans-serif" font-size="14" lengthAdjust="spacingAndGlyphs" textLength="214" x="141.5" y="153.9951">Info db (elasticsearch) (shared)</text><rect fill="#FEFECE" filter="url(#f52maahi08fe4)" height="36.2969" style="stroke: #A80036; stroke-width: 1.5;" width="132" x="353.5" y="13"/><rect fill="#FEFECE" height="5" style="stroke: #A80036; stroke-width: 1.5;" width="10" x="348.5" y="18"/><rect fill="#FEFECE" height="5" style="stroke: #A80036; stroke-width: 1.5;" width="10" x="348.5" y="39.2969"/><text fill="#000000" font-family="sans-serif" font-size="14" lengthAdjust="spacingAndGlyphs" textLength="112" x="363.5" y="35.9951">Data aggregator</text><rect fill="#FEFECE" filter="url(#f52maahi08fe4)" height="36.2969" style="stroke: #A80036; stroke-width: 1.5;" width="108" x="210.5" y="13"/><rect fill="#FEFECE" height="5" style="stroke: #A80036; stroke-width: 1.5;" width="10" x="205.5" y="18"/><rect fill="#FEFECE" height="5" style="stroke: #A80036; stroke-width: 1.5;" width="10" x="205.5" y="39.2969"/><text fill="#000000" font-family="sans-serif" font-size="14" lengthAdjust="spacingAndGlyphs" textLength="88" x="220.5" y="35.9951">External APIs</text><path d="M149.26,31 C167.65,31 187.23,31 204.93,31 " fill="none" id="DE-&gt;APIS" style="stroke: #A80036; stroke-width: 1.0;"/><polygon fill="#A80036" points="210.36,31,201.36,27,205.36,31,201.36,35,210.36,31" style="stroke: #A80036; stroke-width: 1.0;"/><text fill="#000000" font-family="sans-serif" font-size="13" lengthAdjust="spacingAndGlyphs" textLength="25" x="167.25" y="24.0669">web</text><path d="M110.07,54.09 C141.47,75.39 188.58,107.35 218.93,127.94 " fill="none" id="DE-&gt;DB" style="stroke: #A80036; stroke-width: 1.0;"/><polygon fill="#A80036" points="223.28,130.89,218.0964,122.5156,219.1486,128.0738,213.5904,129.1259,223.28,130.89" style="stroke: #A80036; stroke-width: 1.0;"/><text fill="#000000" font-family="sans-serif" font-size="13" lengthAdjust="spacingAndGlyphs" textLength="25" x="179.5" y="97.0669">web</text><path d="M394.27,49.12 C363.33,70.11 310.96,105.63 278.13,127.9 " fill="none" id="DT-&gt;DB" style="stroke: #A80036; stroke-width: 1.0;"/><polygon fill="#A80036" points="273.84,130.81,283.5296,129.0459,277.9714,127.9938,279.0236,122.4356,273.84,130.81" style="stroke: #A80036; stroke-width: 1.0;"/><text fill="#000000" font-family="sans-serif" font-size="13" lengthAdjust="spacingAndGlyphs" textLength="25" x="340.5" y="97.0669">web</text></g></svg>