<?xml version="1.0" encoding="UTF-8" standalone="no"?><svg xmlns="http://www.w3.org/2000/svg" xmlns:xlink="http://www.w3.org/1999/xlink" contentScriptType="application/ecmascript" contentStyleType="text/css" height="122px" preserveAspectRatio="none" style="width:678px;height:122px;" version="1.1" viewBox="0 0 678 122" width="678px" zoomAndPan="magnify"><defs/><g><rect fill="#FFFFFF" height="87" style="stroke: #000000; stroke-width: 1.5;" width="645" x="22" y="24"/><text fill="#000000" font-family="sans-serif" font-size="14" font-weight="bold" lengthAdjust="spacingAndGlyphs" textLength="297" x="196" y="38.9951">When the software is being deployed</text><rect fill="#F8F8F8" height="36.2969" style="stroke: #000000; stroke-width: 1.5;" width="63" x="38.5" y="59"/><text fill="#000000" font-family="sans-serif" font-size="14" lengthAdjust="spacingAndGlyphs" textLength="43" x="48.5" y="81.9951">Admin</text><rect fill="#F8F8F8" height="36.2969" style="stroke: #000000; stroke-width: 1.5;" width="179" x="471.5" y="59"/><text fill="#000000" font-family="sans-serif" font-size="14" lengthAdjust="spacingAndGlyphs" textLength="159" x="481.5" y="81.9951">has 95% test coverage</text><rect fill="#F8F8F8" height="36.2969" style="stroke: #383838; stroke-width: 1.5;" width="80" x="195" y="59"/><rect fill="#F8F8F8" height="5" style="stroke: #383838; stroke-width: 1.5;" width="10" x="190" y="64"/><rect fill="#F8F8F8" height="5" style="stroke: #383838; stroke-width: 1.5;" width="10" x="190" y="85.2969"/><text fill="#000000" font-family="sans-serif" font-size="14" lengthAdjust="spacingAndGlyphs" textLength="60" x="205" y="81.9951">Software</text><path d="M101.81,77 C126.76,77 161.81,77 189.69,77 " fill="none" id="Source-&gt;Software" style="stroke: #383838; stroke-width: 1.0;"/><polygon fill="#383838" points="194.81,77,185.81,73,189.81,77,185.81,81,194.81,77" style="stroke: #383838; stroke-width: 1.0;"/><text fill="#000000" font-family="sans-serif" font-size="13" lengthAdjust="spacingAndGlyphs" textLength="57" x="119.75" y="70.0669">deployes</text><path d="M275.3,77 C322.61,77 402.64,77 465.99,77 " fill="none" id="Software-&gt;Measure" style="stroke: #383838; stroke-width: 1.0;"/><polygon fill="#383838" points="471.29,77,462.29,73,466.29,77,462.29,81,471.29,77" style="stroke: #383838; stroke-width: 1.0;"/><text fill="#000000" font-family="sans-serif" font-size="13" lengthAdjust="spacingAndGlyphs" textLength="160" x="293.25" y="70.0669">deployment is successful</text></g></svg>