<?xml version="1.0" encoding="UTF-8" standalone="no"?><svg xmlns="http://www.w3.org/2000/svg" xmlns:xlink="http://www.w3.org/1999/xlink" contentScriptType="application/ecmascript" contentStyleType="text/css" height="516px" preserveAspectRatio="none" style="width:2302px;height:516px;" version="1.1" viewBox="0 0 2302 516" width="2302px" zoomAndPan="magnify"><defs><filter height="300%" id="f119bu02ft4uzj" width="300%" x="-1" y="-1"><feGaussianBlur result="blurOut" stdDeviation="2.0"/><feColorMatrix in="blurOut" result="blurOut2" type="matrix" values="0 0 0 0 0 0 0 0 0 0 0 0 0 0 0 0 0 0 .4 0"/><feOffset dx="4.0" dy="4.0" in="blurOut2" result="blurOut3"/><feBlend in="SourceGraphic" in2="blurOut3" mode="normal"/></filter></defs><g><rect fill="#FFFFFF" filter="url(#f119bu02ft4uzj)" height="106" style="stroke: #000000; stroke-width: 1.5;" width="465" x="1213.5" y="399"/><rect fill="#FFFFFF" height="10" style="stroke: #000000; stroke-width: 1.5;" width="15" x="1658.5" y="404"/><rect fill="#FFFFFF" height="2" style="stroke: #000000; stroke-width: 1.5;" width="4" x="1656.5" y="406"/><rect fill="#FFFFFF" height="2" style="stroke: #000000; stroke-width: 1.5;" width="4" x="1656.5" y="410"/><text fill="#000000" font-family="sans-serif" font-size="14" font-weight="bold" lengthAdjust="spacingAndGlyphs" textLength="64" x="1414" y="424.9951">sources</text><rect fill="#FFFFFF" filter="url(#f119bu02ft4uzj)" height="205" style="stroke: #000000; stroke-width: 1.5;" width="1737" x="554.5" y="161"/><rect fill="#FFFFFF" height="10" style="stroke: #000000; stroke-width: 1.5;" width="15" x="2271.5" y="166"/><rect fill="#FFFFFF" height="2" style="stroke: #000000; stroke-width: 1.5;" width="4" x="2269.5" y="168"/><rect fill="#FFFFFF" height="2" style="stroke: #000000; stroke-width: 1.5;" width="4" x="2269.5" y="172"/><text fill="#000000" font-family="sans-serif" font-size="14" font-weight="bold" lengthAdjust="spacingAndGlyphs" textLength="80" x="1383" y="186.9951">Collectors</text><rect fill="#FFFFFF" filter="url(#f119bu02ft4uzj)" height="122" style="stroke: #000000; stroke-width: 1.5;" width="528" x="1163.5" y="212"/><rect fill="#FFFFFF" height="10" style="stroke: #000000; stroke-width: 1.5;" width="15" x="1671.5" y="217"/><rect fill="#FFFFFF" height="2" style="stroke: #000000; stroke-width: 1.5;" width="4" x="1669.5" y="219"/><rect fill="#FFFFFF" height="2" style="stroke: #000000; stroke-width: 1.5;" width="4" x="1669.5" y="223"/><text fill="#000000" font-family="sans-serif" font-size="14" font-weight="bold" lengthAdjust="spacingAndGlyphs" textLength="130" x="1362.5" y="237.9951">Collector Type 1</text><rect fill="#FFFFFF" filter="url(#f119bu02ft4uzj)" height="122" style="stroke: #000000; stroke-width: 1.5;" width="528" x="1731.5" y="212"/><rect fill="#FFFFFF" height="10" style="stroke: #000000; stroke-width: 1.5;" width="15" x="2239.5" y="217"/><rect fill="#FFFFFF" height="2" style="stroke: #000000; stroke-width: 1.5;" width="4" x="2237.5" y="219"/><rect fill="#FFFFFF" height="2" style="stroke: #000000; stroke-width: 1.5;" width="4" x="2237.5" y="223"/><text fill="#000000" font-family="sans-serif" font-size="14" font-weight="bold" lengthAdjust="spacingAndGlyphs" textLength="130" x="1930.5" y="237.9951">Collector Type 2</text><rect fill="#FFFFFF" filter="url(#f119bu02ft4uzj)" height="122" style="stroke: #000000; stroke-width: 1.5;" width="537" x="586.5" y="212"/><rect fill="#FFFFFF" height="10" style="stroke: #000000; stroke-width: 1.5;" width="15" x="1103.5" y="217"/><rect fill="#FFFFFF" height="2" style="stroke: #000000; stroke-width: 1.5;" width="4" x="1101.5" y="219"/><rect fill="#FFFFFF" height="2" style="stroke: #000000; stroke-width: 1.5;" width="4" x="1101.5" y="223"/><text fill="#000000" font-family="sans-serif" font-size="14" font-weight="bold" lengthAdjust="spacingAndGlyphs" textLength="134" x="788" y="237.9951">Collector Type m</text><rect fill="#FEFECE" filter="url(#f119bu02ft4uzj)" height="36.2969" style="stroke: #A80036; stroke-width: 1.5;" width="82" x="1463.5" y="453"/><rect fill="#FEFECE" height="5" style="stroke: #A80036; stroke-width: 1.5;" width="10" x="1458.5" y="458"/><rect fill="#FEFECE" height="5" style="stroke: #A80036; stroke-width: 1.5;" width="10" x="1458.5" y="479.2969"/><text fill="#000000" font-family="sans-serif" font-size="14" lengthAdjust="spacingAndGlyphs" textLength="62" x="1473.5" y="475.9951">Source 1</text><rect fill="#FEFECE" filter="url(#f119bu02ft4uzj)" height="36.2969" style="stroke: #A80036; stroke-width: 1.5;" width="82" x="1346.5" y="453"/><rect fill="#FEFECE" height="5" style="stroke: #A80036; stroke-width: 1.5;" width="10" x="1341.5" y="458"/><rect fill="#FEFECE" height="5" style="stroke: #A80036; stroke-width: 1.5;" width="10" x="1341.5" y="479.2969"/><text fill="#000000" font-family="sans-serif" font-size="14" lengthAdjust="spacingAndGlyphs" textLength="62" x="1356.5" y="475.9951">Source 2</text><rect fill="#FEFECE" filter="url(#f119bu02ft4uzj)" height="36.2969" style="stroke: #A80036; stroke-width: 1.5;" width="82" x="1580.5" y="453"/><rect fill="#FEFECE" height="5" style="stroke: #A80036; stroke-width: 1.5;" width="10" x="1575.5" y="458"/><rect fill="#FEFECE" height="5" style="stroke: #A80036; stroke-width: 1.5;" width="10" x="1575.5" y="479.2969"/><text fill="#000000" font-family="sans-serif" font-size="14" lengthAdjust="spacingAndGlyphs" textLength="62" x="1590.5" y="475.9951">Source 3</text><rect fill="#FEFECE" filter="url(#f119bu02ft4uzj)" height="36.2969" style="stroke: #A80036; stroke-width: 1.5;" width="82" x="1229.5" y="453"/><rect fill="#FEFECE" height="5" style="stroke: #A80036; stroke-width: 1.5;" width="10" x="1224.5" y="458"/><rect fill="#FEFECE" height="5" style="stroke: #A80036; stroke-width: 1.5;" width="10" x="1224.5" y="479.2969"/><text fill="#000000" font-family="sans-serif" font-size="14" lengthAdjust="spacingAndGlyphs" textLength="62" x="1239.5" y="475.9951">Source n</text><rect fill="#FEFECE" filter="url(#f119bu02ft4uzj)" height="36.2969" style="stroke: #A80036; stroke-width: 1.5;" width="213" x="1455" y="274"/><rect fill="#FEFECE" height="5" style="stroke: #A80036; stroke-width: 1.5;" width="10" x="1450" y="279"/><rect fill="#FEFECE" height="5" style="stroke: #A80036; stroke-width: 1.5;" width="10" x="1450" y="300.2969"/><text fill="#000000" font-family="sans-serif" font-size="14" lengthAdjust="spacingAndGlyphs" textLength="193" x="1465" y="296.9951">Adapter  Source 1 to Type 1</text><rect fill="#FEFECE" filter="url(#f119bu02ft4uzj)" height="36.2969" style="stroke: #A80036; stroke-width: 1.5;" width="213" x="1207" y="274"/><rect fill="#FEFECE" height="5" style="stroke: #A80036; stroke-width: 1.5;" width="10" x="1202" y="279"/><rect fill="#FEFECE" height="5" style="stroke: #A80036; stroke-width: 1.5;" width="10" x="1202" y="300.2969"/><text fill="#000000" font-family="sans-serif" font-size="14" lengthAdjust="spacingAndGlyphs" textLength="193" x="1217" y="296.9951">Adapter  Source 2 to Type 1</text><rect fill="#FEFECE" filter="url(#f119bu02ft4uzj)" height="36.2969" style="stroke: #A80036; stroke-width: 1.5;" width="213" x="1775" y="274"/><rect fill="#FEFECE" height="5" style="stroke: #A80036; stroke-width: 1.5;" width="10" x="1770" y="279"/><rect fill="#FEFECE" height="5" style="stroke: #A80036; stroke-width: 1.5;" width="10" x="1770" y="300.2969"/><text fill="#000000" font-family="sans-serif" font-size="14" lengthAdjust="spacingAndGlyphs" textLength="193" x="1785" y="296.9951">Adapter  Source 1 to Type 2</text><rect fill="#FEFECE" filter="url(#f119bu02ft4uzj)" height="36.2969" style="stroke: #A80036; stroke-width: 1.5;" width="213" x="2023" y="274"/><rect fill="#FEFECE" height="5" style="stroke: #A80036; stroke-width: 1.5;" width="10" x="2018" y="279"/><rect fill="#FEFECE" height="5" style="stroke: #A80036; stroke-width: 1.5;" width="10" x="2018" y="300.2969"/><text fill="#000000" font-family="sans-serif" font-size="14" lengthAdjust="spacingAndGlyphs" textLength="193" x="2033" y="296.9951">Adapter  Source 3 to Type 2</text><rect fill="#FEFECE" filter="url(#f119bu02ft4uzj)" height="36.2969" style="stroke: #A80036; stroke-width: 1.5;" width="217" x="882" y="274"/><rect fill="#FEFECE" height="5" style="stroke: #A80036; stroke-width: 1.5;" width="10" x="877" y="279"/><rect fill="#FEFECE" height="5" style="stroke: #A80036; stroke-width: 1.5;" width="10" x="877" y="300.2969"/><text fill="#000000" font-family="sans-serif" font-size="14" lengthAdjust="spacingAndGlyphs" textLength="197" x="892" y="296.9951">Adapter  Source 2 to Type m</text><rect fill="#FEFECE" filter="url(#f119bu02ft4uzj)" height="36.2969" style="stroke: #A80036; stroke-width: 1.5;" width="217" x="630" y="274"/><rect fill="#FEFECE" height="5" style="stroke: #A80036; stroke-width: 1.5;" width="10" x="625" y="279"/><rect fill="#FEFECE" height="5" style="stroke: #A80036; stroke-width: 1.5;" width="10" x="625" y="300.2969"/><text fill="#000000" font-family="sans-serif" font-size="14" lengthAdjust="spacingAndGlyphs" textLength="197" x="640" y="296.9951">Adapter  Source n to Type m</text><rect fill="#FEFECE" filter="url(#f119bu02ft4uzj)" height="36.2969" style="stroke: #A80036; stroke-width: 1.5;" width="199" x="138" y="274"/><rect fill="#FEFECE" height="5" style="stroke: #A80036; stroke-width: 1.5;" width="10" x="133" y="279"/><rect fill="#FEFECE" height="5" style="stroke: #A80036; stroke-width: 1.5;" width="10" x="133" y="300.2969"/><text fill="#000000" font-family="sans-serif" font-size="14" lengthAdjust="spacingAndGlyphs" textLength="179" x="148" y="296.9951">Shared DB (elasticsearch)</text><rect fill="#FEFECE" filter="url(#f119bu02ft4uzj)" height="36.2969" style="stroke: #A80036; stroke-width: 1.5;" width="97" x="6" y="274"/><rect fill="#FEFECE" height="5" style="stroke: #A80036; stroke-width: 1.5;" width="10" x="1" y="279"/><rect fill="#FEFECE" height="5" style="stroke: #A80036; stroke-width: 1.5;" width="10" x="1" y="300.2969"/><text fill="#000000" font-family="sans-serif" font-size="14" lengthAdjust="spacingAndGlyphs" textLength="77" x="16" y="296.9951">Aggregator</text><path d="M103.11,292 C112.94,292 122.78,292 132.61,292 " fill="none" id="A-&gt;DB" style="stroke: #A80036; stroke-width: 1.0;"/><polygon fill="#A80036" points="137.76,292,128.76,288,132.76,292,128.76,296,137.76,292" style="stroke: #A80036; stroke-width: 1.0;"/><path d="M1555.93,310.29 C1545.52,342.63 1523.12,412.19 1511.62,447.88 " fill="none" id="A1_1-&gt;S1" style="stroke: #A80036; stroke-width: 1.0;"/><polygon fill="#A80036" points="1510.01,452.9,1516.5651,445.5494,1511.5354,448.1384,1508.9465,443.1087,1510.01,452.9" style="stroke: #A80036; stroke-width: 1.0;"/><path d="M1320.73,310.29 C1334.25,342.63 1363.33,412.19 1378.25,447.88 " fill="none" id="A2_1-&gt;S2" style="stroke: #A80036; stroke-width: 1.0;"/><polygon fill="#A80036" points="1380.35,452.9,1380.57,443.0536,1378.4219,448.2867,1373.1887,446.1386,1380.35,452.9" style="stroke: #A80036; stroke-width: 1.0;"/><path d="M1864.67,310.18 C1844.53,329.51 1808.82,360.03 1771.5,374 C1728.07,390.26 1604.08,368.55 1563.5,391 C1540.58,403.68 1523.98,429.43 1514.33,448.1 " fill="none" id="A1_2-&gt;S1" style="stroke: #A80036; stroke-width: 1.0;"/><polygon fill="#A80036" points="1512.03,452.67,1519.6406,446.4187,1514.2718,448.2007,1512.4898,442.8319,1512.03,452.67" style="stroke: #A80036; stroke-width: 1.0;"/><path d="M2107.94,310.32 C2084.17,328.63 2044.15,357.12 2005.5,374 C1889.58,424.63 1741.82,452.09 1667.94,463.52 " fill="none" id="A3_2-&gt;S3" style="stroke: #A80036; stroke-width: 1.0;"/><polygon fill="#A80036" points="1662.75,464.31,1672.2519,466.9012,1667.6924,463.5529,1671.0406,458.9934,1662.75,464.31" style="stroke: #A80036; stroke-width: 1.0;"/><path d="M759.97,310.07 C784.08,328.42 825.01,357.22 864.5,374 C988.76,426.8 1147.33,453.6 1224.35,464.28 " fill="none" id="An_m-&gt;SN" style="stroke: #A80036; stroke-width: 1.0;"/><polygon fill="#A80036" points="1229.31,464.96,1220.945,459.7612,1224.3574,464.2729,1219.8457,467.6853,1229.31,464.96" style="stroke: #A80036; stroke-width: 1.0;"/><path d="M1017.59,310.11 C1049.31,329.22 1104.08,359.39 1155.5,374 C1230.24,395.24 1261.97,352.56 1329.5,391 C1352.13,403.88 1368.43,429.59 1377.88,448.19 " fill="none" id="A2_m-&gt;S2" style="stroke: #A80036; stroke-width: 1.0;"/><polygon fill="#A80036" points="1380.14,452.75,1379.7431,442.9091,1377.9268,448.2665,1372.5695,446.4503,1380.14,452.75" style="stroke: #A80036; stroke-width: 1.0;"/><path d="M586.2301,292 C586.0874,292 585.9431,292 585.797,292 C585.5048,292 585.2059,292 584.9001,292 C580.0084,292 573.3892,292 565.3759,292 C549.3494,292 527.7462,292 503.2325,292 C454.205,292 393.535,292 342.55,292 " fill="none" id="EM-&gt;DB" style="stroke: #A80036; stroke-width: 1.0;"/><polygon fill="#A80036" points="337.42,292,346.42,296,342.42,292,346.42,288,337.42,292" style="stroke: #A80036; stroke-width: 1.0;"/><text fill="#000000" font-family="sans-serif" font-size="13" lengthAdjust="spacingAndGlyphs" textLength="221" x="355.07" y="285.0669">post &lt;ESURL&gt;/type_index_M/_doc</text><path d="M1163.3774,241.419 C1162.9425,239.7599 1162.4845,238.0847 1162.0025,236.3975 C1154.29,209.4025 1140.405,179.34 1115.5,163 C1015.72,97.54 695.89,141.54 578.5,163 C464.72,183.8 339.62,240.64 277.34,271.46 " fill="none" id="E1-&gt;DB" style="stroke: #A80036; stroke-width: 1.0;"/><polygon fill="#A80036" points="272.6,273.82,282.4393,273.3854,277.075,271.5897,278.8707,266.2254,272.6,273.82" style="stroke: #A80036; stroke-width: 1.0;"/><text fill="#000000" font-family="sans-serif" font-size="13" lengthAdjust="spacingAndGlyphs" textLength="218" x="854.5" y="141.0669">post &lt;ESURL&gt;/type_index_1/_doc</text><path d="M1731.3774,241.419 C1730.9425,239.7599 1730.4845,238.0847 1730.0025,236.3975 C1722.29,209.4025 1708.405,179.34 1683.5,163 C1632.17,129.33 638.89,151.96 578.5,163 C464.72,183.8 339.62,240.64 277.34,271.46 " fill="none" id="E2-&gt;DB" style="stroke: #A80036; stroke-width: 1.0;"/><polygon fill="#A80036" points="272.6,273.82,282.4393,273.3854,277.075,271.5897,278.8707,266.2254,272.6,273.82" style="stroke: #A80036; stroke-width: 1.0;"/><text fill="#000000" font-family="sans-serif" font-size="13" lengthAdjust="spacingAndGlyphs" textLength="218" x="1299.5" y="141.0669">post &lt;ESURL&gt;/type_index_2/_doc</text><path d="M1550.98,273.9 C1532.48,244.1 1490.95,185.76 1437.5,163 C1349.69,125.61 672.39,145.83 578.5,163 C464.72,183.8 339.62,240.64 277.34,271.46 " fill="none" id="A1_1-&gt;DB" style="stroke: #A80036; stroke-width: 1.0;"/><polygon fill="#A80036" points="272.6,273.82,282.4393,273.3854,277.075,271.5897,278.8707,266.2254,272.6,273.82" style="stroke: #A80036; stroke-width: 1.0;"/><text fill="#000000" font-family="sans-serif" font-size="13" lengthAdjust="spacingAndGlyphs" textLength="216" x="533.5" y="141.0669">get &lt;ESURL&gt;/type_index/_search</text></g></svg>