<?xml version="1.0" encoding="UTF-8" standalone="no"?><svg xmlns="http://www.w3.org/2000/svg" xmlns:xlink="http://www.w3.org/1999/xlink" contentScriptType="application/ecmascript" contentStyleType="text/css" height="723px" preserveAspectRatio="none" style="width:1237px;height:723px;" version="1.1" viewBox="0 0 1237 723" width="1237px" zoomAndPan="magnify"><defs/><g><rect fill="#FFFFFF" height="150" style="stroke: #444444; stroke-width: 1.0; stroke-dasharray: 7.0,7.0;" width="148" x="1036" y="24"/><text fill="#000000" font-family="sans-serif" font-size="14" font-style="italic" lengthAdjust="spacingAndGlyphs" textLength="84" x="1068" y="38.9951">«boundary»</text><text fill="#444444" font-family="sans-serif" font-size="16" font-weight="bold" lengthAdjust="spacingAndGlyphs" textLength="103" x="1058.5" y="57.1484">user device</text><text fill="#444444" font-family="sans-serif" font-size="12" font-weight="bold" lengthAdjust="spacingAndGlyphs" textLength="62" x="1079" y="72.0605">[System]</text><rect fill="#FFFFFF" height="168" style="stroke: #444444; stroke-width: 1.0; stroke-dasharray: 7.0,7.0;" width="188" x="1038" y="513"/><text fill="#000000" font-family="sans-serif" font-size="14" font-style="italic" lengthAdjust="spacingAndGlyphs" textLength="84" x="1090" y="527.9951">«boundary»</text><text fill="#444444" font-family="sans-serif" font-size="16" font-weight="bold" lengthAdjust="spacingAndGlyphs" textLength="136" x="1064" y="546.1484">User DB server</text><text fill="#444444" font-family="sans-serif" font-size="12" font-weight="bold" lengthAdjust="spacingAndGlyphs" textLength="62" x="1101" y="561.0605">[System]</text><rect fill="#FFFFFF" height="150" style="stroke: #444444; stroke-width: 1.0; stroke-dasharray: 7.0,7.0;" width="168" x="846" y="522"/><text fill="#000000" font-family="sans-serif" font-size="14" font-style="italic" lengthAdjust="spacingAndGlyphs" textLength="84" x="888" y="536.9951">«boundary»</text><text fill="#444444" font-family="sans-serif" font-size="16" font-weight="bold" lengthAdjust="spacingAndGlyphs" textLength="130" x="865" y="555.1484">Info DB server</text><text fill="#444444" font-family="sans-serif" font-size="12" font-weight="bold" lengthAdjust="spacingAndGlyphs" textLength="62" x="899" y="570.0605">[System]</text><rect fill="#FFFFFF" height="150" style="stroke: #444444; stroke-width: 1.0; stroke-dasharray: 7.0,7.0;" width="126" x="1047" y="314"/><text fill="#000000" font-family="sans-serif" font-size="14" font-style="italic" lengthAdjust="spacingAndGlyphs" textLength="84" x="1068" y="328.9951">«boundary»</text><text fill="#444444" font-family="sans-serif" font-size="16" font-weight="bold" lengthAdjust="spacingAndGlyphs" textLength="94" x="1063" y="347.1484">API server</text><text fill="#444444" font-family="sans-serif" font-size="12" font-weight="bold" lengthAdjust="spacingAndGlyphs" textLength="62" x="1079" y="362.0605">[System]</text><rect fill="#FFFFFF" height="150" style="stroke: #444444; stroke-width: 1.0; stroke-dasharray: 7.0,7.0;" width="181" x="840" y="314"/><text fill="#000000" font-family="sans-serif" font-size="14" font-style="italic" lengthAdjust="spacingAndGlyphs" textLength="84" x="888.5" y="328.9951">«boundary»</text><text fill="#444444" font-family="sans-serif" font-size="16" font-weight="bold" lengthAdjust="spacingAndGlyphs" textLength="165" x="848" y="347.1484">Aggregator server</text><text fill="#444444" font-family="sans-serif" font-size="12" font-weight="bold" lengthAdjust="spacingAndGlyphs" textLength="62" x="899.5" y="362.0605">[System]</text><rect fill="#FFFFFF" height="489" style="stroke: #444444; stroke-width: 1.0; stroke-dasharray: 7.0,7.0;" width="394" x="22" y="223"/><text fill="#000000" font-family="sans-serif" font-size="14" font-style="italic" lengthAdjust="spacingAndGlyphs" textLength="84" x="177" y="237.9951">«boundary»</text><text fill="#444444" font-family="sans-serif" font-size="16" font-weight="bold" lengthAdjust="spacingAndGlyphs" textLength="143" x="147.5" y="256.1484">Collector server</text><text fill="#444444" font-family="sans-serif" font-size="12" font-weight="bold" lengthAdjust="spacingAndGlyphs" textLength="62" x="188" y="271.0605">[System]</text><rect fill="#85BBF0" height="374" style="stroke: #78A8D8; stroke-width: 1.5;" width="330" x="54" y="306"/><text fill="#000000" font-family="sans-serif" font-size="14" font-style="italic" lengthAdjust="spacingAndGlyphs" textLength="98" x="170" y="320.9951">«component»</text><text fill="#000000" font-family="sans-serif" font-size="16" font-weight="bold" lengthAdjust="spacingAndGlyphs" textLength="87" x="175.5" y="339.1484">collectors</text><text fill="#000000" font-family="sans-serif" font-size="12" font-style="italic" font-weight="bold" lengthAdjust="spacingAndGlyphs" textLength="10" x="214" y="354.0605">[]</text><rect fill="#FFFFFF" height="150" style="stroke: #444444; stroke-width: 1.0; stroke-dasharray: 7.0,7.0;" width="178" x="440" y="522"/><text fill="#000000" font-family="sans-serif" font-size="14" font-style="italic" lengthAdjust="spacingAndGlyphs" textLength="84" x="487" y="536.9951">«boundary»</text><text fill="#444444" font-family="sans-serif" font-size="16" font-weight="bold" lengthAdjust="spacingAndGlyphs" textLength="153" x="452.5" y="555.1484">External server 1</text><text fill="#444444" font-family="sans-serif" font-size="12" font-weight="bold" lengthAdjust="spacingAndGlyphs" textLength="62" x="498" y="570.0605">[System]</text><rect fill="#FFFFFF" height="150" style="stroke: #444444; stroke-width: 1.0; stroke-dasharray: 7.0,7.0;" width="180" x="642" y="522"/><text fill="#000000" font-family="sans-serif" font-size="14" font-style="italic" lengthAdjust="spacingAndGlyphs" textLength="84" x="690" y="536.9951">«boundary»</text><text fill="#444444" font-family="sans-serif" font-size="16" font-weight="bold" lengthAdjust="spacingAndGlyphs" textLength="155" x="654.5" y="555.1484">External server N</text><text fill="#444444" font-family="sans-serif" font-size="12" font-weight="bold" lengthAdjust="spacingAndGlyphs" textLength="62" x="701" y="570.0605">[System]</text><rect fill="#438DD5" height="66.5625" style="stroke: #3C7FC0; stroke-width: 1.5;" width="115" x="1052.5" y="91"/><text fill="#FFFFFF" font-family="sans-serif" font-size="12" font-style="italic" lengthAdjust="spacingAndGlyphs" textLength="74" x="1073" y="112.1387">«container»</text><text fill="#FFFFFF" font-family="sans-serif" font-size="16" font-weight="bold" lengthAdjust="spacingAndGlyphs" textLength="95" x="1062.5" y="129.8203">mobile app</text><text fill="#FFFFFF" font-family="sans-serif" font-size="12" font-style="italic" lengthAdjust="spacingAndGlyphs" textLength="10" x="1105" y="144.7324">[]</text><rect fill="#438DD5" height="85.1875" style="stroke: #3C7FC0; stroke-width: 1.5;" width="156" x="1054" y="580"/><text fill="#FFFFFF" font-family="sans-serif" font-size="12" font-style="italic" lengthAdjust="spacingAndGlyphs" textLength="74" x="1095" y="601.1387">«container»</text><text fill="#FFFFFF" font-family="sans-serif" font-size="16" font-weight="bold" lengthAdjust="spacingAndGlyphs" textLength="130" x="1064" y="618.8203">User Database</text><text fill="#FFFFFF" font-family="sans-serif" font-size="16" font-weight="bold" lengthAdjust="spacingAndGlyphs" textLength="84" x="1090" y="637.4453">container</text><text fill="#FFFFFF" font-family="sans-serif" font-size="12" font-style="italic" lengthAdjust="spacingAndGlyphs" textLength="10" x="1127" y="652.3574">[]</text><rect fill="#438DD5" height="66.5625" style="stroke: #3C7FC0; stroke-width: 1.5;" width="136" x="862" y="589"/><text fill="#FFFFFF" font-family="sans-serif" font-size="12" font-style="italic" lengthAdjust="spacingAndGlyphs" textLength="74" x="893" y="610.1387">«container»</text><text fill="#FFFFFF" font-family="sans-serif" font-size="16" font-weight="bold" lengthAdjust="spacingAndGlyphs" textLength="116" x="872" y="627.8203">Info Provider</text><text fill="#FFFFFF" font-family="sans-serif" font-size="12" font-style="italic" lengthAdjust="spacingAndGlyphs" textLength="10" x="925" y="642.7324">[]</text><rect fill="#438DD5" height="66.5625" style="stroke: #3C7FC0; stroke-width: 1.5;" width="94" x="1063" y="381"/><text fill="#FFFFFF" font-family="sans-serif" font-size="12" font-style="italic" lengthAdjust="spacingAndGlyphs" textLength="74" x="1073" y="402.1387">«container»</text><text fill="#FFFFFF" font-family="sans-serif" font-size="16" font-weight="bold" lengthAdjust="spacingAndGlyphs" textLength="73" x="1073.5" y="419.8203">Skip API</text><text fill="#FFFFFF" font-family="sans-serif" font-size="12" font-style="italic" lengthAdjust="spacingAndGlyphs" textLength="10" x="1105" y="434.7324">[]</text><rect fill="#438DD5" height="66.5625" style="stroke: #3C7FC0; stroke-width: 1.5;" width="119" x="870.5" y="381"/><text fill="#FFFFFF" font-family="sans-serif" font-size="12" font-style="italic" lengthAdjust="spacingAndGlyphs" textLength="74" x="893" y="402.1387">«container»</text><text fill="#FFFFFF" font-family="sans-serif" font-size="16" font-weight="bold" lengthAdjust="spacingAndGlyphs" textLength="99" x="880.5" y="419.8203">aggregator</text><text fill="#FFFFFF" font-family="sans-serif" font-size="12" font-style="italic" lengthAdjust="spacingAndGlyphs" textLength="10" x="925" y="434.7324">[]</text><rect fill="#85BBF0" height="66.5625" style="stroke: #78A8D8; stroke-width: 1.5;" width="114" x="78" y="381"/><text fill="#FFFFFF" font-family="sans-serif" font-size="12" font-style="italic" lengthAdjust="spacingAndGlyphs" textLength="85" x="92.5" y="402.1387">«component»</text><text fill="#000000" font-family="sans-serif" font-size="16" font-weight="bold" lengthAdjust="spacingAndGlyphs" textLength="94" x="88" y="419.8203">collector 1</text><text fill="#000000" font-family="sans-serif" font-size="12" font-style="italic" lengthAdjust="spacingAndGlyphs" textLength="10" x="130" y="434.7324">[]</text><rect fill="#85BBF0" height="66.5625" style="stroke: #78A8D8; stroke-width: 1.5;" width="114" x="227" y="381"/><text fill="#FFFFFF" font-family="sans-serif" font-size="12" font-style="italic" lengthAdjust="spacingAndGlyphs" textLength="85" x="241.5" y="402.1387">«component»</text><text fill="#000000" font-family="sans-serif" font-size="16" font-weight="bold" lengthAdjust="spacingAndGlyphs" textLength="94" x="237" y="419.8203">collector 2</text><text fill="#000000" font-family="sans-serif" font-size="12" font-style="italic" lengthAdjust="spacingAndGlyphs" textLength="10" x="279" y="434.7324">[]</text><rect fill="#85BBF0" height="66.5625" style="stroke: #78A8D8; stroke-width: 1.5;" width="116" x="78" y="589"/><text fill="#FFFFFF" font-family="sans-serif" font-size="12" font-style="italic" lengthAdjust="spacingAndGlyphs" textLength="85" x="93.5" y="610.1387">«component»</text><text fill="#000000" font-family="sans-serif" font-size="16" font-weight="bold" lengthAdjust="spacingAndGlyphs" textLength="96" x="88" y="627.8203">collector N</text><text fill="#000000" font-family="sans-serif" font-size="12" font-style="italic" lengthAdjust="spacingAndGlyphs" textLength="10" x="131" y="642.7324">[]</text><rect fill="#438DD5" height="66.5625" style="stroke: #3C7FC0; stroke-width: 1.5;" width="146" x="456" y="589"/><text fill="#FFFFFF" font-family="sans-serif" font-size="12" font-style="italic" lengthAdjust="spacingAndGlyphs" textLength="74" x="492" y="610.1387">«container»</text><text fill="#FFFFFF" font-family="sans-serif" font-size="16" font-weight="bold" lengthAdjust="spacingAndGlyphs" textLength="126" x="466" y="627.8203">external API 1</text><text fill="#FFFFFF" font-family="sans-serif" font-size="12" font-style="italic" lengthAdjust="spacingAndGlyphs" textLength="10" x="524" y="642.7324">[]</text><rect fill="#438DD5" height="66.5625" style="stroke: #3C7FC0; stroke-width: 1.5;" width="148" x="658" y="589"/><text fill="#FFFFFF" font-family="sans-serif" font-size="12" font-style="italic" lengthAdjust="spacingAndGlyphs" textLength="74" x="695" y="610.1387">«container»</text><text fill="#FFFFFF" font-family="sans-serif" font-size="16" font-weight="bold" lengthAdjust="spacingAndGlyphs" textLength="128" x="668" y="627.8203">external API N</text><text fill="#FFFFFF" font-family="sans-serif" font-size="12" font-style="italic" lengthAdjust="spacingAndGlyphs" textLength="10" x="727" y="642.7324">[]</text><path d="M384.4526,415.3295 C384.656,415.3269 384.8629,415.3244 385.0732,415.3219 C385.494,415.3169 385.9285,415.3122 386.3767,415.3077 C387.2731,415.2987 388.2242,415.2908 389.2286,415.2843 C397.2635,415.2327 408.7098,415.2761 422.8753,415.6384 C451.2063,416.3631 490.4138,418.3638 534.96,423.4325 C624.0525,433.57 734.5,455.98 822,505 C856.37,524.26 886.02,558.3 905.5,584.63 " fill="none" id="collectors-&gt;info" style="stroke: #666666; stroke-width: 1.0;"/><polygon fill="#666666" points="908.54,588.79,906.4611,579.163,905.5906,584.7525,900.0012,583.882,908.54,588.79" style="stroke: #666666; stroke-width: 1.0;"/><text fill="#666666" font-family="sans-serif" font-size="13" font-weight="bold" lengthAdjust="spacingAndGlyphs" textLength="31" x="801" y="493.0669">web</text><path d="M384.0002,426.271 C384.4085,426.8207 384.8306,427.389 385.2661,427.9753 C387.0081,430.3207 388.9644,432.9545 391.1075,435.84 C399.68,447.3819 411.2425,462.95 424.045,480.1875 C449.65,514.6625 480.215,555.815 501.74,584.79 " fill="none" id="collectors-&gt;EAPI1" style="stroke: #666666; stroke-width: 1.0;"/><polygon fill="#666666" points="504.77,588.88,502.6084,579.2713,501.786,584.868,496.1893,584.0457,504.77,588.88" style="stroke: #666666; stroke-width: 1.0;"/><text fill="#666666" font-family="sans-serif" font-size="13" font-weight="bold" lengthAdjust="spacingAndGlyphs" textLength="31" x="436" y="493.0669">web</text><path d="M384.3189,417.1771 C384.4634,417.2074 384.6096,417.2382 384.7576,417.2694 C385.0535,417.3318 385.3564,417.3959 385.6661,417.4617 C386.2856,417.5932 386.9324,417.7314 387.6059,417.8763 C388.9529,418.1662 390.4065,418.4831 391.961,418.8272 C395.0701,419.5153 398.583,420.3122 402.4542,421.2198 C417.9391,424.8503 439.1569,430.2519 463.1962,437.5463 C511.275,452.135 570.64,474.295 618,505 C651.36,526.63 682.43,559.6 703.69,584.96 " fill="none" id="collectors-&gt;EAPIN" style="stroke: #666666; stroke-width: 1.0;"/><polygon fill="#666666" points="707.01,588.96,704.3247,579.4843,703.8105,585.1177,698.177,584.6035,707.01,588.96" style="stroke: #666666; stroke-width: 1.0;"/><text fill="#666666" font-family="sans-serif" font-size="13" font-weight="bold" lengthAdjust="spacingAndGlyphs" textLength="31" x="601" y="493.0669">web</text><path d="M930,448.14 C930,484.95 930,544.72 930,583.57 " fill="none" id="aggregator-&gt;info" style="stroke: #666666; stroke-width: 1.0;"/><polygon fill="#666666" points="930,588.67,934,579.67,930,583.67,926,579.67,930,588.67" style="stroke: #666666; stroke-width: 1.0;"/><text fill="#666666" font-family="sans-serif" font-size="13" font-weight="bold" lengthAdjust="spacingAndGlyphs" textLength="31" x="931" y="493.0669">web</text><path d="M1081.48,448.14 C1049.05,485.25 996.24,545.69 962.32,584.52 " fill="none" id="api-&gt;info" style="stroke: #666666; stroke-width: 1.0;"/><polygon fill="#666666" points="958.69,588.67,967.6346,584.5476,961.9896,584.9133,961.6239,579.2683,958.69,588.67" style="stroke: #666666; stroke-width: 1.0;"/><text fill="#666666" font-family="sans-serif" font-size="13" font-weight="bold" lengthAdjust="spacingAndGlyphs" textLength="31" x="1052" y="493.0669">web</text><path d="M1113.49,448.14 C1117.13,482.23 1122.87,536.03 1127,574.65 " fill="none" id="api-&gt;userDb" style="stroke: #666666; stroke-width: 1.0;"/><polygon fill="#666666" points="1127.54,579.76,1130.566,570.3875,1127.0114,574.788,1122.6109,571.2333,1127.54,579.76" style="stroke: #666666; stroke-width: 1.0;"/><text fill="#666666" font-family="sans-serif" font-size="13" font-weight="bold" lengthAdjust="spacingAndGlyphs" textLength="30" x="1119" y="493.0669">RPC</text><path d="M1110,158.26 C1110,212.07 1110,318.87 1110,375.76 " fill="none" id="mobileApp-&gt;api" style="stroke: #666666; stroke-width: 1.0;"/><polygon fill="#666666" points="1110,380.77,1114,371.77,1110,375.77,1106,371.77,1110,380.77" style="stroke: #666666; stroke-width: 1.0;"/><text fill="#666666" font-family="sans-serif" font-size="13" font-weight="bold" lengthAdjust="spacingAndGlyphs" textLength="31" x="1111" y="203.0669">web</text></g></svg>