<?xml version="1.0" encoding="UTF-8" standalone="no"?><svg xmlns="http://www.w3.org/2000/svg" xmlns:xlink="http://www.w3.org/1999/xlink" contentScriptType="application/ecmascript" contentStyleType="text/css" height="301px" preserveAspectRatio="none" style="width:945px;height:301px;" version="1.1" viewBox="0 0 945 301" width="945px" zoomAndPan="magnify"><defs><filter height="300%" id="f1ba0vl9j0kbj6" width="300%" x="-1" y="-1"><feGaussianBlur result="blurOut" stdDeviation="2.0"/><feColorMatrix in="blurOut" result="blurOut2" type="matrix" values="0 0 0 0 0 0 0 0 0 0 0 0 0 0 0 0 0 0 .4 0"/><feOffset dx="4.0" dy="4.0" in="blurOut2" result="blurOut3"/><feBlend in="SourceGraphic" in2="blurOut3" mode="normal"/></filter></defs><g><rect fill="#FFFFFF" filter="url(#f1ba0vl9j0kbj6)" height="46.2969" style="stroke: #A80036; stroke-width: 1.5;" width="119" x="6" y="8"/><rect fill="#FFFFFF" height="10" style="stroke: #A80036; stroke-width: 1.5;" width="15" x="105" y="13"/><rect fill="#FFFFFF" height="2" style="stroke: #A80036; stroke-width: 1.5;" width="4" x="103" y="15"/><rect fill="#FFFFFF" height="2" style="stroke: #A80036; stroke-width: 1.5;" width="4" x="103" y="19"/><text fill="#000000" font-family="sans-serif" font-size="14" lengthAdjust="spacingAndGlyphs" textLength="79" x="21" y="40.9951">Mobile_App</text><rect fill="#FFFFFF" filter="url(#f1ba0vl9j0kbj6)" height="46.2969" style="stroke: #A80036; stroke-width: 1.5;" width="143" x="455" y="131"/><rect fill="#FFFFFF" height="10" style="stroke: #A80036; stroke-width: 1.5;" width="15" x="578" y="136"/><rect fill="#FFFFFF" height="2" style="stroke: #A80036; stroke-width: 1.5;" width="4" x="576" y="138"/><rect fill="#FFFFFF" height="2" style="stroke: #A80036; stroke-width: 1.5;" width="4" x="576" y="142"/><text fill="#000000" font-family="sans-serif" font-size="14" lengthAdjust="spacingAndGlyphs" textLength="103" x="470" y="163.9951">Data collectors</text><rect fill="#FEFECE" filter="url(#f1ba0vl9j0kbj6)" height="36.2969" style="stroke: #A80036; stroke-width: 1.5;" width="97" x="478" y="254"/><rect fill="#FEFECE" height="5" style="stroke: #A80036; stroke-width: 1.5;" width="10" x="473" y="259"/><rect fill="#FEFECE" height="5" style="stroke: #A80036; stroke-width: 1.5;" width="10" x="473" y="280.2969"/><text fill="#000000" font-family="sans-serif" font-size="14" lengthAdjust="spacingAndGlyphs" textLength="77" x="488" y="276.9951">proxy caller</text><rect fill="#FEFECE" filter="url(#f1ba0vl9j0kbj6)" height="36.2969" style="stroke: #A80036; stroke-width: 1.5;" width="74" x="28.5" y="136"/><rect fill="#FEFECE" height="5" style="stroke: #A80036; stroke-width: 1.5;" width="10" x="23.5" y="141"/><rect fill="#FEFECE" height="5" style="stroke: #A80036; stroke-width: 1.5;" width="10" x="23.5" y="162.2969"/><text fill="#000000" font-family="sans-serif" font-size="14" lengthAdjust="spacingAndGlyphs" textLength="54" x="38.5" y="158.9951">Skip API</text><rect fill="#FEFECE" filter="url(#f1ba0vl9j0kbj6)" height="36.2969" style="stroke: #A80036; stroke-width: 1.5;" width="70" x="160.5" y="136"/><rect fill="#FEFECE" height="5" style="stroke: #A80036; stroke-width: 1.5;" width="10" x="155.5" y="141"/><rect fill="#FEFECE" height="5" style="stroke: #A80036; stroke-width: 1.5;" width="10" x="155.5" y="162.2969"/><text fill="#000000" font-family="sans-serif" font-size="14" lengthAdjust="spacingAndGlyphs" textLength="50" x="170.5" y="158.9951">Service</text><rect fill="#FEFECE" filter="url(#f1ba0vl9j0kbj6)" height="36.2969" style="stroke: #A80036; stroke-width: 1.5;" width="132" x="287.5" y="136"/><rect fill="#FEFECE" height="5" style="stroke: #A80036; stroke-width: 1.5;" width="10" x="282.5" y="141"/><rect fill="#FEFECE" height="5" style="stroke: #A80036; stroke-width: 1.5;" width="10" x="282.5" y="162.2969"/><text fill="#000000" font-family="sans-serif" font-size="14" lengthAdjust="spacingAndGlyphs" textLength="112" x="297.5" y="158.9951">User DB (mySql)</text><rect fill="#FEFECE" filter="url(#f1ba0vl9j0kbj6)" height="36.2969" style="stroke: #A80036; stroke-width: 1.5;" width="172" x="636.5" y="254"/><rect fill="#FEFECE" height="5" style="stroke: #A80036; stroke-width: 1.5;" width="10" x="631.5" y="259"/><rect fill="#FEFECE" height="5" style="stroke: #A80036; stroke-width: 1.5;" width="10" x="631.5" y="280.2969"/><text fill="#000000" font-family="sans-serif" font-size="14" lengthAdjust="spacingAndGlyphs" textLength="152" x="646.5" y="276.9951">Info db (elasticsearch)</text><rect fill="#FEFECE" filter="url(#f1ba0vl9j0kbj6)" height="36.2969" style="stroke: #A80036; stroke-width: 1.5;" width="141" x="279" y="254"/><rect fill="#FEFECE" height="5" style="stroke: #A80036; stroke-width: 1.5;" width="10" x="274" y="259"/><rect fill="#FEFECE" height="5" style="stroke: #A80036; stroke-width: 1.5;" width="10" x="274" y="280.2969"/><text fill="#000000" font-family="sans-serif" font-size="14" lengthAdjust="spacingAndGlyphs" textLength="121" x="289" y="276.9951">cache db (reddis)</text><rect fill="#FEFECE" filter="url(#f1ba0vl9j0kbj6)" height="36.2969" style="stroke: #A80036; stroke-width: 1.5;" width="132" x="802.5" y="136"/><rect fill="#FEFECE" height="5" style="stroke: #A80036; stroke-width: 1.5;" width="10" x="797.5" y="141"/><rect fill="#FEFECE" height="5" style="stroke: #A80036; stroke-width: 1.5;" width="10" x="797.5" y="162.2969"/><text fill="#000000" font-family="sans-serif" font-size="14" lengthAdjust="spacingAndGlyphs" textLength="112" x="812.5" y="158.9951">Data aggregator</text><rect fill="#FEFECE" filter="url(#f1ba0vl9j0kbj6)" height="36.2969" style="stroke: #A80036; stroke-width: 1.5;" width="108" x="659.5" y="136"/><rect fill="#FEFECE" height="5" style="stroke: #A80036; stroke-width: 1.5;" width="10" x="654.5" y="141"/><rect fill="#FEFECE" height="5" style="stroke: #A80036; stroke-width: 1.5;" width="10" x="654.5" y="162.2969"/><text fill="#000000" font-family="sans-serif" font-size="14" lengthAdjust="spacingAndGlyphs" textLength="88" x="669.5" y="158.9951">External APIs</text><path d="M65.5,54.19 C65.5,75.92 65.5,108.85 65.5,130.63 " fill="none" id="APP-&gt;API" style="stroke: #A80036; stroke-width: 1.0;"/><polygon fill="#A80036" points="65.5,135.65,69.5,126.65,65.5,130.65,61.5,126.65,65.5,135.65" style="stroke: #A80036; stroke-width: 1.0;"/><text fill="#000000" font-family="sans-serif" font-size="13" lengthAdjust="spacingAndGlyphs" textLength="25" x="66.5" y="97.0669">web</text><path d="M102.75,154 C119.21,154 138.58,154 155.36,154 " fill="none" id="API-&gt;SERV1" style="stroke: #A80036; stroke-width: 1.0;"/><polygon fill="#A80036" points="160.47,154,151.47,150,155.47,154,151.47,158,160.47,154" style="stroke: #A80036; stroke-width: 1.0;"/><text fill="#000000" font-family="sans-serif" font-size="13" lengthAdjust="spacingAndGlyphs" textLength="21" x="121" y="147.0669">call</text><path d="M230.57,154 C245.86,154 264.37,154 282.33,154 " fill="none" id="SERV1-&gt;DB1" style="stroke: #A80036; stroke-width: 1.0;"/><polygon fill="#A80036" points="287.38,154,278.38,150,282.38,154,278.38,158,287.38,154" style="stroke: #A80036; stroke-width: 1.0;"/><text fill="#000000" font-family="sans-serif" font-size="13" lengthAdjust="spacingAndGlyphs" textLength="20" x="249" y="147.0669">rpc</text><path d="M230.61,167.3 C288.62,187.63 404.82,228.36 473.07,252.27 " fill="none" id="SERV1-&gt;PX" style="stroke: #A80036; stroke-width: 1.0;"/><polygon fill="#A80036" points="477.9,253.97,470.7358,247.2117,473.1829,252.3119,468.0828,254.759,477.9,253.97" style="stroke: #A80036; stroke-width: 1.0;"/><text fill="#000000" font-family="sans-serif" font-size="13" lengthAdjust="spacingAndGlyphs" textLength="21" x="392.5" y="220.0669">call</text><path d="M425.23,272 C443.08,272 461.64,272 477.92,272 " fill="none" id="DB3&lt;-PX" style="stroke: #A80036; stroke-width: 1.0;"/><polygon fill="#A80036" points="420.22,272,429.22,276,425.22,272,429.22,268,420.22,272" style="stroke: #A80036; stroke-width: 1.0;"/><text fill="#000000" font-family="sans-serif" font-size="13" lengthAdjust="spacingAndGlyphs" textLength="21" x="438.5" y="265.0669">call</text><path d="M575.2,272 C592.09,272 611.63,272 630.84,272 " fill="none" id="PX-&gt;DB2" style="stroke: #A80036; stroke-width: 1.0;"/><polygon fill="#A80036" points="636.24,272,627.24,268,631.24,272,627.24,276,636.24,272" style="stroke: #A80036; stroke-width: 1.0;"/><text fill="#000000" font-family="sans-serif" font-size="13" lengthAdjust="spacingAndGlyphs" textLength="25" x="593.25" y="265.0669">web</text><path d="M598.26,154 C616.65,154 636.23,154 653.93,154 " fill="none" id="DC-&gt;APIS" style="stroke: #A80036; stroke-width: 1.0;"/><polygon fill="#A80036" points="659.36,154,650.36,150,654.36,154,650.36,158,659.36,154" style="stroke: #A80036; stroke-width: 1.0;"/><text fill="#000000" font-family="sans-serif" font-size="13" lengthAdjust="spacingAndGlyphs" textLength="25" x="616.25" y="147.0669">web</text><path d="M526.5,177.09 C526.5,197.7 526.5,228.27 526.5,248.88 " fill="none" id="DC-&gt;PX" style="stroke: #A80036; stroke-width: 1.0;"/><polygon fill="#A80036" points="526.5,253.89,530.5,244.89,526.5,248.89,522.5,244.89,526.5,253.89" style="stroke: #A80036; stroke-width: 1.0;"/><text fill="#000000" font-family="sans-serif" font-size="13" lengthAdjust="spacingAndGlyphs" textLength="21" x="527.5" y="220.0669">call</text><path d="M818.04,172.12 C754.38,193.71 645.39,230.67 580.23,252.77 " fill="none" id="DT-&gt;PX" style="stroke: #A80036; stroke-width: 1.0;"/><polygon fill="#A80036" points="575.23,254.47,585.0397,255.3478,579.9619,252.8546,582.455,247.7768,575.23,254.47" style="stroke: #A80036; stroke-width: 1.0;"/><text fill="#000000" font-family="sans-serif" font-size="13" lengthAdjust="spacingAndGlyphs" textLength="21" x="709.5" y="220.0669">call</text></g></svg>