<?xml version="1.0" encoding="UTF-8" standalone="no"?><svg xmlns="http://www.w3.org/2000/svg" xmlns:xlink="http://www.w3.org/1999/xlink" contentScriptType="application/ecmascript" contentStyleType="text/css" height="403px" preserveAspectRatio="none" style="width:1799px;height:403px;" version="1.1" viewBox="0 0 1799 403" width="1799px" zoomAndPan="magnify"><defs><filter height="300%" id="fhg3xqwsdjac0" width="300%" x="-1" y="-1"><feGaussianBlur result="blurOut" stdDeviation="2.0"/><feColorMatrix in="blurOut" result="blurOut2" type="matrix" values="0 0 0 0 0 0 0 0 0 0 0 0 0 0 0 0 0 0 .4 0"/><feOffset dx="4.0" dy="4.0" in="blurOut2" result="blurOut3"/><feBlend in="SourceGraphic" in2="blurOut3" mode="normal"/></filter></defs><g><rect fill="#FFFFFF" filter="url(#fhg3xqwsdjac0)" height="87" style="stroke: #000000; stroke-width: 1.5;" width="465" x="751.5" y="305"/><rect fill="#FFFFFF" height="10" style="stroke: #000000; stroke-width: 1.5;" width="15" x="1196.5" y="310"/><rect fill="#FFFFFF" height="2" style="stroke: #000000; stroke-width: 1.5;" width="4" x="1194.5" y="312"/><rect fill="#FFFFFF" height="2" style="stroke: #000000; stroke-width: 1.5;" width="4" x="1194.5" y="316"/><text fill="#000000" font-family="sans-serif" font-size="14" font-weight="bold" lengthAdjust="spacingAndGlyphs" textLength="64" x="952" y="330.9951">sources</text><rect fill="#FFFFFF" filter="url(#fhg3xqwsdjac0)" height="202" style="stroke: #000000; stroke-width: 1.5;" width="1658" x="130.5" y="71"/><rect fill="#FFFFFF" height="10" style="stroke: #000000; stroke-width: 1.5;" width="15" x="1768.5" y="76"/><rect fill="#FFFFFF" height="2" style="stroke: #000000; stroke-width: 1.5;" width="4" x="1766.5" y="78"/><rect fill="#FFFFFF" height="2" style="stroke: #000000; stroke-width: 1.5;" width="4" x="1766.5" y="82"/><text fill="#000000" font-family="sans-serif" font-size="14" font-weight="bold" lengthAdjust="spacingAndGlyphs" textLength="80" x="919.5" y="96.9951">Collectors</text><rect fill="#FFFFFF" filter="url(#fhg3xqwsdjac0)" height="87" style="stroke: #000000; stroke-width: 1.5;" width="492" x="738.5" y="138"/><rect fill="#FFFFFF" height="10" style="stroke: #000000; stroke-width: 1.5;" width="15" x="1210.5" y="143"/><rect fill="#FFFFFF" height="2" style="stroke: #000000; stroke-width: 1.5;" width="4" x="1208.5" y="145"/><rect fill="#FFFFFF" height="2" style="stroke: #000000; stroke-width: 1.5;" width="4" x="1208.5" y="149"/><text fill="#000000" font-family="sans-serif" font-size="14" font-weight="bold" lengthAdjust="spacingAndGlyphs" textLength="130" x="919.5" y="163.9951">Collector Type 1</text><rect fill="#FFFFFF" filter="url(#fhg3xqwsdjac0)" height="103" style="stroke: #000000; stroke-width: 1.5;" width="528" x="178.5" y="130"/><rect fill="#FFFFFF" height="10" style="stroke: #000000; stroke-width: 1.5;" width="15" x="686.5" y="135"/><rect fill="#FFFFFF" height="2" style="stroke: #000000; stroke-width: 1.5;" width="4" x="684.5" y="137"/><rect fill="#FFFFFF" height="2" style="stroke: #000000; stroke-width: 1.5;" width="4" x="684.5" y="141"/><text fill="#000000" font-family="sans-serif" font-size="14" font-weight="bold" lengthAdjust="spacingAndGlyphs" textLength="130" x="377.5" y="155.9951">Collector Type 2</text><rect fill="#FFFFFF" filter="url(#fhg3xqwsdjac0)" height="87" style="stroke: #000000; stroke-width: 1.5;" width="502" x="1254.5" y="138"/><rect fill="#FFFFFF" height="10" style="stroke: #000000; stroke-width: 1.5;" width="15" x="1736.5" y="143"/><rect fill="#FFFFFF" height="2" style="stroke: #000000; stroke-width: 1.5;" width="4" x="1734.5" y="145"/><rect fill="#FFFFFF" height="2" style="stroke: #000000; stroke-width: 1.5;" width="4" x="1734.5" y="149"/><text fill="#000000" font-family="sans-serif" font-size="14" font-weight="bold" lengthAdjust="spacingAndGlyphs" textLength="134" x="1438.5" y="163.9951">Collector Type m</text><rect fill="#FEFECE" filter="url(#fhg3xqwsdjac0)" height="36.2969" style="stroke: #A80036; stroke-width: 1.5;" width="82" x="884.5" y="340"/><rect fill="#FEFECE" height="5" style="stroke: #A80036; stroke-width: 1.5;" width="10" x="879.5" y="345"/><rect fill="#FEFECE" height="5" style="stroke: #A80036; stroke-width: 1.5;" width="10" x="879.5" y="366.2969"/><text fill="#000000" font-family="sans-serif" font-size="14" lengthAdjust="spacingAndGlyphs" textLength="62" x="894.5" y="362.9951">Source 1</text><rect fill="#FEFECE" filter="url(#fhg3xqwsdjac0)" height="36.2969" style="stroke: #A80036; stroke-width: 1.5;" width="82" x="1001.5" y="340"/><rect fill="#FEFECE" height="5" style="stroke: #A80036; stroke-width: 1.5;" width="10" x="996.5" y="345"/><rect fill="#FEFECE" height="5" style="stroke: #A80036; stroke-width: 1.5;" width="10" x="996.5" y="366.2969"/><text fill="#000000" font-family="sans-serif" font-size="14" lengthAdjust="spacingAndGlyphs" textLength="62" x="1011.5" y="362.9951">Source 2</text><rect fill="#FEFECE" filter="url(#fhg3xqwsdjac0)" height="36.2969" style="stroke: #A80036; stroke-width: 1.5;" width="82" x="767.5" y="340"/><rect fill="#FEFECE" height="5" style="stroke: #A80036; stroke-width: 1.5;" width="10" x="762.5" y="345"/><rect fill="#FEFECE" height="5" style="stroke: #A80036; stroke-width: 1.5;" width="10" x="762.5" y="366.2969"/><text fill="#000000" font-family="sans-serif" font-size="14" lengthAdjust="spacingAndGlyphs" textLength="62" x="777.5" y="362.9951">Source 3</text><rect fill="#FEFECE" filter="url(#fhg3xqwsdjac0)" height="36.2969" style="stroke: #A80036; stroke-width: 1.5;" width="82" x="1118.5" y="340"/><rect fill="#FEFECE" height="5" style="stroke: #A80036; stroke-width: 1.5;" width="10" x="1113.5" y="345"/><rect fill="#FEFECE" height="5" style="stroke: #A80036; stroke-width: 1.5;" width="10" x="1113.5" y="366.2969"/><text fill="#000000" font-family="sans-serif" font-size="14" lengthAdjust="spacingAndGlyphs" textLength="62" x="1128.5" y="362.9951">Source n</text><rect fill="#FEFECE" filter="url(#fhg3xqwsdjac0)" height="36.2969" style="stroke: #A80036; stroke-width: 1.5;" width="213" x="754" y="173"/><rect fill="#FEFECE" height="5" style="stroke: #A80036; stroke-width: 1.5;" width="10" x="749" y="178"/><rect fill="#FEFECE" height="5" style="stroke: #A80036; stroke-width: 1.5;" width="10" x="749" y="199.2969"/><text fill="#000000" font-family="sans-serif" font-size="14" lengthAdjust="spacingAndGlyphs" textLength="193" x="764" y="195.9951">Adapter  Source 1 to Type 1</text><rect fill="#FEFECE" filter="url(#fhg3xqwsdjac0)" height="36.2969" style="stroke: #A80036; stroke-width: 1.5;" width="213" x="1002" y="173"/><rect fill="#FEFECE" height="5" style="stroke: #A80036; stroke-width: 1.5;" width="10" x="997" y="178"/><rect fill="#FEFECE" height="5" style="stroke: #A80036; stroke-width: 1.5;" width="10" x="997" y="199.2969"/><text fill="#000000" font-family="sans-serif" font-size="14" lengthAdjust="spacingAndGlyphs" textLength="193" x="1012" y="195.9951">Adapter  Source 2 to Type 1</text><rect fill="#FEFECE" filter="url(#fhg3xqwsdjac0)" height="36.2969" style="stroke: #A80036; stroke-width: 1.5;" width="213" x="470" y="173"/><rect fill="#FEFECE" height="5" style="stroke: #A80036; stroke-width: 1.5;" width="10" x="465" y="178"/><rect fill="#FEFECE" height="5" style="stroke: #A80036; stroke-width: 1.5;" width="10" x="465" y="199.2969"/><text fill="#000000" font-family="sans-serif" font-size="14" lengthAdjust="spacingAndGlyphs" textLength="193" x="480" y="195.9951">Adapter  Source 1 to Type 2</text><rect fill="#FEFECE" filter="url(#fhg3xqwsdjac0)" height="36.2969" style="stroke: #A80036; stroke-width: 1.5;" width="213" x="222" y="173"/><rect fill="#FEFECE" height="5" style="stroke: #A80036; stroke-width: 1.5;" width="10" x="217" y="178"/><rect fill="#FEFECE" height="5" style="stroke: #A80036; stroke-width: 1.5;" width="10" x="217" y="199.2969"/><text fill="#000000" font-family="sans-serif" font-size="14" lengthAdjust="spacingAndGlyphs" textLength="193" x="232" y="195.9951">Adapter  Source 3 to Type 2</text><rect fill="#FEFECE" filter="url(#fhg3xqwsdjac0)" height="36.2969" style="stroke: #A80036; stroke-width: 1.5;" width="217" x="1271" y="173"/><rect fill="#FEFECE" height="5" style="stroke: #A80036; stroke-width: 1.5;" width="10" x="1266" y="178"/><rect fill="#FEFECE" height="5" style="stroke: #A80036; stroke-width: 1.5;" width="10" x="1266" y="199.2969"/><text fill="#000000" font-family="sans-serif" font-size="14" lengthAdjust="spacingAndGlyphs" textLength="197" x="1281" y="195.9951">Adapter  Source 2 to Type m</text><rect fill="#FEFECE" filter="url(#fhg3xqwsdjac0)" height="36.2969" style="stroke: #A80036; stroke-width: 1.5;" width="217" x="1523" y="173"/><rect fill="#FEFECE" height="5" style="stroke: #A80036; stroke-width: 1.5;" width="10" x="1518" y="178"/><rect fill="#FEFECE" height="5" style="stroke: #A80036; stroke-width: 1.5;" width="10" x="1518" y="199.2969"/><text fill="#000000" font-family="sans-serif" font-size="14" lengthAdjust="spacingAndGlyphs" textLength="197" x="1533" y="195.9951">Adapter  Source n to Type m</text><rect fill="#FEFECE" filter="url(#fhg3xqwsdjac0)" height="36.2969" style="stroke: #A80036; stroke-width: 1.5;" width="97" x="6" y="173"/><rect fill="#FEFECE" height="5" style="stroke: #A80036; stroke-width: 1.5;" width="10" x="1" y="178"/><rect fill="#FEFECE" height="5" style="stroke: #A80036; stroke-width: 1.5;" width="10" x="1" y="199.2969"/><text fill="#000000" font-family="sans-serif" font-size="14" lengthAdjust="spacingAndGlyphs" textLength="77" x="16" y="195.9951">Aggregator</text><path d="M103.06,191 C108.875,191 114.69,191 120.505,191 C123.4125,191 126.32,191 129.2275,191 C129.5909,191 129.9544,191 130.3178,191 C130.3632,191 130.4087,191 130.4541,191 " fill="none" id="A-&gt;E" style="stroke: #A80036; stroke-width: 1.0;"/><polygon fill="#A80036" points="130.4541,191,121.4541,187,125.4541,191,121.4541,195,130.4541,191" style="stroke: #A80036; stroke-width: 1.0;"/><path d="M867.21,209.04 C879.08,239.17 903.77,301.83 916.88,335.12 " fill="none" id="A1_1-&gt;S1" style="stroke: #A80036; stroke-width: 1.0;"/><polygon fill="#A80036" points="918.73,339.81,919.1537,329.9703,916.8978,335.1578,911.7102,332.9019,918.73,339.81" style="stroke: #A80036; stroke-width: 1.0;"/><path d="M1101.69,209.04 C1089.63,239.17 1064.57,301.83 1051.25,335.12 " fill="none" id="A2_1-&gt;S2" style="stroke: #A80036; stroke-width: 1.0;"/><polygon fill="#A80036" points="1049.38,339.81,1056.4364,332.9393,1051.237,335.1676,1049.0086,329.9681,1049.38,339.81" style="stroke: #A80036; stroke-width: 1.0;"/><path d="M597.43,209.1 C626.85,232.02 683.08,271.81 738.5,289 C765.93,297.51 841.42,284.97 867.5,297 C885.62,305.36 901.04,322.09 911.41,335.77 " fill="none" id="A1_2-&gt;S1" style="stroke: #A80036; stroke-width: 1.0;"/><polygon fill="#A80036" points="914.46,339.91,912.3368,330.2927,911.4921,335.8862,905.8986,335.0414,914.46,339.91" style="stroke: #A80036; stroke-width: 1.0;"/><path d="M344.81,209.05 C367,231.16 408.95,269.22 452.5,289 C556.5,336.23 692,350.67 762.04,355.07 " fill="none" id="A3_2-&gt;S3" style="stroke: #A80036; stroke-width: 1.0;"/><polygon fill="#A80036" points="767.38,355.4,758.6365,350.8667,762.389,355.0997,758.156,358.8522,767.38,355.4" style="stroke: #A80036; stroke-width: 1.0;"/><path d="M1614.86,209 C1592.23,231.06 1549.51,269.08 1505.5,289 C1404.81,334.58 1274.05,349.69 1205.71,354.64 " fill="none" id="An_m-&gt;SN" style="stroke: #A80036; stroke-width: 1.0;"/><polygon fill="#A80036" points="1200.5,355.01,1209.7532,358.3831,1205.4882,354.667,1209.2044,350.402,1200.5,355.01" style="stroke: #A80036; stroke-width: 1.0;"/><path d="M1360.51,209.11 C1333.74,232.04 1282.37,271.84 1230.5,289 C1203.23,298.02 1127.63,285.08 1101.5,297 C1083.19,305.35 1067.5,322.09 1056.92,335.77 " fill="none" id="A2_m-&gt;S2" style="stroke: #A80036; stroke-width: 1.0;"/><polygon fill="#A80036" points="1053.8,339.9,1062.4,335.1,1056.8,335.9,1056,330.3,1053.8,339.9" style="stroke: #A80036; stroke-width: 1.0;"/><path d="M848.31,172.92 C822.53,136.52 758.47,55.33 681,25 C633.72,6.49 268.03,-0.29 224,25 C208.115,34.125 198.82,73.3575 193.4575,111.39 C192.7872,116.1441 192.1783,120.8794 191.6257,125.5348 C191.4876,126.6986 191.3529,127.8575 191.2217,129.0104 C191.1889,129.2986 191.1563,129.5865 191.124,129.874 " fill="none" id="A1_1-&gt;E2" style="stroke: #A80036; stroke-width: 1.0;"/><polygon fill="#A80036" points="191.124,129.874,196.106,121.3781,191.6835,124.9054,188.1562,120.4829,191.124,129.874" style="stroke: #A80036; stroke-width: 1.0;"/></g></svg>