<?xml version="1.0" encoding="UTF-8" standalone="no"?><svg xmlns="http://www.w3.org/2000/svg" xmlns:xlink="http://www.w3.org/1999/xlink" contentScriptType="application/ecmascript" contentStyleType="text/css" height="265px" preserveAspectRatio="none" style="width:678px;height:265px;" version="1.1" viewBox="0 0 678 265" width="678px" zoomAndPan="magnify"><defs><filter height="300%" id="fohuxabvcl6uh" width="300%" x="-1" y="-1"><feGaussianBlur result="blurOut" stdDeviation="2.0"/><feColorMatrix in="blurOut" result="blurOut2" type="matrix" values="0 0 0 0 0 0 0 0 0 0 0 0 0 0 0 0 0 0 .4 0"/><feOffset dx="4.0" dy="4.0" in="blurOut2" result="blurOut3"/><feBlend in="SourceGraphic" in2="blurOut3" mode="normal"/></filter></defs><g><rect fill="#FFFFFF" filter="url(#fohuxabvcl6uh)" height="87" style="stroke: #000000; stroke-width: 1.5;" width="465" x="174.5" y="167"/><rect fill="#FFFFFF" height="10" style="stroke: #000000; stroke-width: 1.5;" width="15" x="619.5" y="172"/><rect fill="#FFFFFF" height="2" style="stroke: #000000; stroke-width: 1.5;" width="4" x="617.5" y="174"/><rect fill="#FFFFFF" height="2" style="stroke: #000000; stroke-width: 1.5;" width="4" x="617.5" y="178"/><text fill="#000000" font-family="sans-serif" font-size="14" font-weight="bold" lengthAdjust="spacingAndGlyphs" textLength="64" x="375" y="192.9951">sources</text><rect fill="#FFFFFF" filter="url(#fohuxabvcl6uh)" height="103" style="stroke: #000000; stroke-width: 1.5;" width="537" x="130.5" y="32"/><rect fill="#FFFFFF" height="10" style="stroke: #000000; stroke-width: 1.5;" width="15" x="647.5" y="37"/><rect fill="#FFFFFF" height="2" style="stroke: #000000; stroke-width: 1.5;" width="4" x="645.5" y="39"/><rect fill="#FFFFFF" height="2" style="stroke: #000000; stroke-width: 1.5;" width="4" x="645.5" y="43"/><text fill="#000000" font-family="sans-serif" font-size="14" font-weight="bold" lengthAdjust="spacingAndGlyphs" textLength="80" x="359" y="57.9951">Collectors</text><rect fill="#FEFECE" filter="url(#fohuxabvcl6uh)" height="36.2969" style="stroke: #A80036; stroke-width: 1.5;" width="82" x="307.5" y="202"/><rect fill="#FEFECE" height="5" style="stroke: #A80036; stroke-width: 1.5;" width="10" x="302.5" y="207"/><rect fill="#FEFECE" height="5" style="stroke: #A80036; stroke-width: 1.5;" width="10" x="302.5" y="228.2969"/><text fill="#000000" font-family="sans-serif" font-size="14" lengthAdjust="spacingAndGlyphs" textLength="62" x="317.5" y="224.9951">Source 1</text><rect fill="#FEFECE" filter="url(#fohuxabvcl6uh)" height="36.2969" style="stroke: #A80036; stroke-width: 1.5;" width="82" x="424.5" y="202"/><rect fill="#FEFECE" height="5" style="stroke: #A80036; stroke-width: 1.5;" width="10" x="419.5" y="207"/><rect fill="#FEFECE" height="5" style="stroke: #A80036; stroke-width: 1.5;" width="10" x="419.5" y="228.2969"/><text fill="#000000" font-family="sans-serif" font-size="14" lengthAdjust="spacingAndGlyphs" textLength="62" x="434.5" y="224.9951">Source 2</text><rect fill="#FEFECE" filter="url(#fohuxabvcl6uh)" height="36.2969" style="stroke: #A80036; stroke-width: 1.5;" width="82" x="190.5" y="202"/><rect fill="#FEFECE" height="5" style="stroke: #A80036; stroke-width: 1.5;" width="10" x="185.5" y="207"/><rect fill="#FEFECE" height="5" style="stroke: #A80036; stroke-width: 1.5;" width="10" x="185.5" y="228.2969"/><text fill="#000000" font-family="sans-serif" font-size="14" lengthAdjust="spacingAndGlyphs" textLength="62" x="200.5" y="224.9951">Source 3</text><rect fill="#FEFECE" filter="url(#fohuxabvcl6uh)" height="36.2969" style="stroke: #A80036; stroke-width: 1.5;" width="82" x="541.5" y="202"/><rect fill="#FEFECE" height="5" style="stroke: #A80036; stroke-width: 1.5;" width="10" x="536.5" y="207"/><rect fill="#FEFECE" height="5" style="stroke: #A80036; stroke-width: 1.5;" width="10" x="536.5" y="228.2969"/><text fill="#000000" font-family="sans-serif" font-size="14" lengthAdjust="spacingAndGlyphs" textLength="62" x="551.5" y="224.9951">Source n</text><rect fill="#FEFECE" filter="url(#fohuxabvcl6uh)" height="36.2969" style="stroke: #A80036; stroke-width: 1.5;" width="132" x="340.5" y="75"/><rect fill="#FEFECE" height="5" style="stroke: #A80036; stroke-width: 1.5;" width="10" x="335.5" y="80"/><rect fill="#FEFECE" height="5" style="stroke: #A80036; stroke-width: 1.5;" width="10" x="335.5" y="101.2969"/><text fill="#000000" font-family="sans-serif" font-size="14" lengthAdjust="spacingAndGlyphs" textLength="112" x="350.5" y="97.9951">Collector Type 1</text><rect fill="#FEFECE" filter="url(#fohuxabvcl6uh)" height="36.2969" style="stroke: #A80036; stroke-width: 1.5;" width="132" x="173.5" y="75"/><rect fill="#FEFECE" height="5" style="stroke: #A80036; stroke-width: 1.5;" width="10" x="168.5" y="80"/><rect fill="#FEFECE" height="5" style="stroke: #A80036; stroke-width: 1.5;" width="10" x="168.5" y="101.2969"/><text fill="#000000" font-family="sans-serif" font-size="14" lengthAdjust="spacingAndGlyphs" textLength="112" x="183.5" y="97.9951">Collector Type 2</text><rect fill="#FEFECE" filter="url(#fohuxabvcl6uh)" height="36.2969" style="stroke: #A80036; stroke-width: 1.5;" width="136" x="507.5" y="75"/><rect fill="#FEFECE" height="5" style="stroke: #A80036; stroke-width: 1.5;" width="10" x="502.5" y="80"/><rect fill="#FEFECE" height="5" style="stroke: #A80036; stroke-width: 1.5;" width="10" x="502.5" y="101.2969"/><text fill="#000000" font-family="sans-serif" font-size="14" lengthAdjust="spacingAndGlyphs" textLength="116" x="517.5" y="97.9951">Collector Type m</text><rect fill="#FEFECE" filter="url(#fohuxabvcl6uh)" height="36.2969" style="stroke: #A80036; stroke-width: 1.5;" width="97" x="6" y="75"/><rect fill="#FEFECE" height="5" style="stroke: #A80036; stroke-width: 1.5;" width="10" x="1" y="80"/><rect fill="#FEFECE" height="5" style="stroke: #A80036; stroke-width: 1.5;" width="10" x="1" y="101.2969"/><text fill="#000000" font-family="sans-serif" font-size="14" lengthAdjust="spacingAndGlyphs" textLength="77" x="16" y="97.9951">Aggregator</text><path d="M103.06,93 C108.875,93 114.69,93 120.505,93 C123.4125,93 126.32,93 129.2275,93 C129.5909,93 129.9544,93 130.3178,93 C130.3632,93 130.4087,93 130.4541,93 " fill="none" id="A-&gt;E" style="stroke: #A80036; stroke-width: 1.0;"/><polygon fill="#A80036" points="130.4541,93,121.4541,89,125.4541,93,121.4541,97,130.4541,93" style="stroke: #A80036; stroke-width: 1.0;"/><path d="M398.56,111.12 C388.2,133.43 370.08,172.5 358.71,196.99 " fill="none" id="E1-&gt;S1" style="stroke: #A80036; stroke-width: 1.0;"/><polygon fill="#A80036" points="356.53,201.69,363.954,195.2182,358.6397,197.1569,356.7011,191.8426,356.53,201.69" style="stroke: #A80036; stroke-width: 1.0;"/><path d="M414.58,111.12 C425.11,133.43 443.55,172.5 455.11,196.99 " fill="none" id="E1-&gt;S2" style="stroke: #A80036; stroke-width: 1.0;"/><polygon fill="#A80036" points="457.33,201.69,457.1216,191.8433,455.2031,197.1649,449.8815,195.2464,457.33,201.69" style="stroke: #A80036; stroke-width: 1.0;"/><path d="M254.43,111.12 C274.13,133.71 308.8,173.48 330.1,197.9 " fill="none" id="E2-&gt;S1" style="stroke: #A80036; stroke-width: 1.0;"/><polygon fill="#A80036" points="333.4,201.69,330.504,192.2765,330.1156,197.92,324.4721,197.5316,333.4,201.69" style="stroke: #A80036; stroke-width: 1.0;"/><path d="M238.4,111.12 C236.98,133.34 234.5,172.17 232.93,196.68 " fill="none" id="E2-&gt;S3" style="stroke: #A80036; stroke-width: 1.0;"/><polygon fill="#A80036" points="232.61,201.69,237.1683,192.9595,232.9246,196.6999,229.1841,192.4562,232.61,201.69" style="stroke: #A80036; stroke-width: 1.0;"/><path d="M576.46,111.12 C577.7,133.34 579.88,172.17 581.25,196.68 " fill="none" id="EM-&gt;SN" style="stroke: #A80036; stroke-width: 1.0;"/><polygon fill="#A80036" points="581.53,201.69,585.0363,192.4864,581.259,196.6974,577.048,192.9201,581.53,201.69" style="stroke: #A80036; stroke-width: 1.0;"/><path d="M560.44,111.12 C540.55,133.71 505.56,173.48 484.07,197.9 " fill="none" id="EM-&gt;S2" style="stroke: #A80036; stroke-width: 1.0;"/><polygon fill="#A80036" points="480.74,201.69,489.6846,197.5676,484.0396,197.9333,483.6739,192.2883,480.74,201.69" style="stroke: #A80036; stroke-width: 1.0;"/><path d="M340.36,93 C330.52,93 320.69,93 310.86,93 " fill="none" id="E1-&gt;E2" style="stroke: #A80036; stroke-width: 1.0;"/><polygon fill="#A80036" points="305.71,93,314.71,97,310.71,93,314.71,89,305.71,93" style="stroke: #A80036; stroke-width: 1.0;"/></g></svg>