<?xml version="1.0" encoding="UTF-8" standalone="no"?><svg xmlns="http://www.w3.org/2000/svg" xmlns:xlink="http://www.w3.org/1999/xlink" contentScriptType="application/ecmascript" contentStyleType="text/css" height="146px" preserveAspectRatio="none" style="width:573px;height:146px;" version="1.1" viewBox="0 0 573 146" width="573px" zoomAndPan="magnify"><defs><filter height="300%" id="f1sfzxktfrmm8z" width="300%" x="-1" y="-1"><feGaussianBlur result="blurOut" stdDeviation="2.0"/><feColorMatrix in="blurOut" result="blurOut2" type="matrix" values="0 0 0 0 0 0 0 0 0 0 0 0 0 0 0 0 0 0 .4 0"/><feOffset dx="4.0" dy="4.0" in="blurOut2" result="blurOut3"/><feBlend in="SourceGraphic" in2="blurOut3" mode="normal"/></filter></defs><g><rect fill="#FFFFFF" filter="url(#f1sfzxktfrmm8z)" height="103" style="stroke: #000000; stroke-width: 1.5;" width="442" x="120.5" y="32"/><rect fill="#FFFFFF" height="10" style="stroke: #000000; stroke-width: 1.5;" width="15" x="542.5" y="37"/><rect fill="#FFFFFF" height="2" style="stroke: #000000; stroke-width: 1.5;" width="4" x="540.5" y="39"/><rect fill="#FFFFFF" height="2" style="stroke: #000000; stroke-width: 1.5;" width="4" x="540.5" y="43"/><text fill="#000000" font-family="sans-serif" font-size="14" font-weight="bold" lengthAdjust="spacingAndGlyphs" textLength="59" x="312" y="57.9951">Service</text><rect fill="#FEFECE" filter="url(#f1sfzxktfrmm8z)" height="36.2969" style="stroke: #A80036; stroke-width: 1.5;" width="94" x="444.5" y="75"/><rect fill="#FEFECE" height="5" style="stroke: #A80036; stroke-width: 1.5;" width="10" x="439.5" y="80"/><rect fill="#FEFECE" height="5" style="stroke: #A80036; stroke-width: 1.5;" width="10" x="439.5" y="101.2969"/><text fill="#000000" font-family="sans-serif" font-size="14" lengthAdjust="spacingAndGlyphs" textLength="74" x="454.5" y="97.9951">Shared DB</text><rect fill="#FEFECE" filter="url(#f1sfzxktfrmm8z)" height="36.2969" style="stroke: #A80036; stroke-width: 1.5;" width="77" x="164" y="75"/><rect fill="#FEFECE" height="5" style="stroke: #A80036; stroke-width: 1.5;" width="10" x="159" y="80"/><rect fill="#FEFECE" height="5" style="stroke: #A80036; stroke-width: 1.5;" width="10" x="159" y="101.2969"/><text fill="#000000" font-family="sans-serif" font-size="14" lengthAdjust="spacingAndGlyphs" textLength="57" x="174" y="97.9951">User DB</text><rect fill="#FEFECE" filter="url(#f1sfzxktfrmm8z)" height="36.2969" style="stroke: #A80036; stroke-width: 1.5;" width="133" x="276" y="75"/><rect fill="#FEFECE" height="5" style="stroke: #A80036; stroke-width: 1.5;" width="10" x="271" y="80"/><rect fill="#FEFECE" height="5" style="stroke: #A80036; stroke-width: 1.5;" width="10" x="271" y="101.2969"/><text fill="#000000" font-family="sans-serif" font-size="14" lengthAdjust="spacingAndGlyphs" textLength="113" x="286" y="97.9951">Data Aggregator</text><rect fill="#FEFECE" filter="url(#f1sfzxktfrmm8z)" height="36.2969" style="stroke: #A80036; stroke-width: 1.5;" width="87" x="6" y="75"/><rect fill="#FEFECE" height="5" style="stroke: #A80036; stroke-width: 1.5;" width="10" x="1" y="80"/><rect fill="#FEFECE" height="5" style="stroke: #A80036; stroke-width: 1.5;" width="10" x="1" y="101.2969"/><text fill="#000000" font-family="sans-serif" font-size="14" lengthAdjust="spacingAndGlyphs" textLength="67" x="16" y="97.9951">Controller</text><path d="M93.01,93 C98.835,93 104.6575,93 110.48,93 C113.3912,93 116.3025,93 119.2141,93 C119.578,93 119.942,93 120.3059,93 C120.3514,93 120.3969,93 120.4424,93 " fill="none" id="C-&gt;S" style="stroke: #A80036; stroke-width: 1.0;"/><polygon fill="#A80036" points="120.4424,93,111.4424,89,115.4424,93,111.4424,97,120.4424,93" style="stroke: #A80036; stroke-width: 1.0;"/><path d="M409.14,93 C419.1,93 429.05,93 439,93 " fill="none" id="D-&gt;DB1" style="stroke: #A80036; stroke-width: 1.0;"/><polygon fill="#A80036" points="444.21,93,435.21,89,439.21,93,435.21,97,444.21,93" style="stroke: #A80036; stroke-width: 1.0;"/></g></svg>