<?xml version="1.0" encoding="UTF-8" standalone="no"?><svg xmlns="http://www.w3.org/2000/svg" xmlns:xlink="http://www.w3.org/1999/xlink" contentScriptType="application/ecmascript" contentStyleType="text/css" height="122px" preserveAspectRatio="none" style="width:996px;height:122px;" version="1.1" viewBox="0 0 996 122" width="996px" zoomAndPan="magnify"><defs/><g><rect fill="#FFFFFF" height="87" style="stroke: #000000; stroke-width: 1.5;" width="963" x="22" y="24"/><text fill="#000000" font-family="sans-serif" font-size="14" font-weight="bold" lengthAdjust="spacingAndGlyphs" textLength="306" x="350.5" y="39.5352">When the application cant service the user</text><rect fill="#F8F8F8" height="36.4883" style="stroke: #000000; stroke-width: 1.5;" width="51" x="769.5" y="59"/><text fill="#000000" font-family="sans-serif" font-size="14" lengthAdjust="spacingAndGlyphs" textLength="31" x="779.5" y="82.5352">User</text><rect fill="#F8F8F8" height="36.4883" style="stroke: #000000; stroke-width: 1.5;" width="126" x="598" y="59"/><text fill="#000000" font-family="sans-serif" font-size="14" lengthAdjust="spacingAndGlyphs" textLength="106" x="608" y="82.5352">logs are private</text><rect fill="#F8F8F8" height="36.4883" style="stroke: #383838; stroke-width: 1.5;" width="48" x="921" y="59"/><rect fill="#F8F8F8" height="5" style="stroke: #383838; stroke-width: 1.5;" width="10" x="916" y="64"/><rect fill="#F8F8F8" height="5" style="stroke: #383838; stroke-width: 1.5;" width="10" x="916" y="85.4883"/><text fill="#000000" font-family="sans-serif" font-size="14" lengthAdjust="spacingAndGlyphs" textLength="28" x="931" y="82.5352">App</text><rect fill="#F8F8F8" height="36.4883" style="stroke: #383838; stroke-width: 1.5;" width="80" x="38" y="59"/><rect fill="#F8F8F8" height="5" style="stroke: #383838; stroke-width: 1.5;" width="10" x="33" y="64"/><rect fill="#F8F8F8" height="5" style="stroke: #383838; stroke-width: 1.5;" width="10" x="33" y="85.4883"/><text fill="#000000" font-family="sans-serif" font-size="14" lengthAdjust="spacingAndGlyphs" textLength="60" x="48" y="82.5352">Software</text><path d="M820.79,77 C847.01,77 887.62,77 915.21,77 " fill="none" id="Source-&gt;App" style="stroke: #383838; stroke-width: 1.0;"/><polygon fill="#383838" points="920.54,77,911.54,73,915.54,77,911.54,81,920.54,77" style="stroke: #383838; stroke-width: 1.0;"/><text fill="#000000" font-family="sans-serif" font-size="13" lengthAdjust="spacingAndGlyphs" textLength="54" x="843.75" y="70.5684">operates</text><path d="M118.07,77 C216.4,77 470.47,77 592.97,77 " fill="none" id="Software-&gt;Measure" style="stroke: #383838; stroke-width: 1.0;"/><polygon fill="#383838" points="597.99,77,588.99,73,592.99,77,588.99,81,597.99,77" style="stroke: #383838; stroke-width: 1.0;"/><text fill="#000000" font-family="sans-serif" font-size="13" lengthAdjust="spacingAndGlyphs" textLength="433" x="141.5" y="70.5684">shows cause of unavailability (ex: no connection). If error sends logs</text></g></svg>