<?xml version="1.0" encoding="UTF-8" standalone="no"?><svg xmlns="http://www.w3.org/2000/svg" xmlns:xlink="http://www.w3.org/1999/xlink" contentScriptType="application/ecmascript" contentStyleType="text/css" height="122px" preserveAspectRatio="none" style="width:547px;height:122px;" version="1.1" viewBox="0 0 547 122" width="547px" zoomAndPan="magnify"><defs/><g><rect fill="#FFFFFF" height="87" style="stroke: #000000; stroke-width: 1.5;" width="514" x="22" y="24"/><text fill="#000000" font-family="sans-serif" font-size="14" font-weight="bold" lengthAdjust="spacingAndGlyphs" textLength="421" x="68.5" y="39.5352">When the user provides an update on the snow conditions</text><rect fill="#F8F8F8" height="36.4883" style="stroke: #000000; stroke-width: 1.5;" width="51" x="38.5" y="59"/><text fill="#000000" font-family="sans-serif" font-size="14" lengthAdjust="spacingAndGlyphs" textLength="31" x="48.5" y="82.5352">User</text><rect fill="#F8F8F8" height="36.4883" style="stroke: #000000; stroke-width: 1.5;" width="110" x="410" y="59"/><text fill="#000000" font-family="sans-serif" font-size="14" lengthAdjust="spacingAndGlyphs" textLength="90" x="420" y="82.5352">less than 30s</text><rect fill="#F8F8F8" height="36.4883" style="stroke: #383838; stroke-width: 1.5;" width="109" x="183.5" y="59"/><rect fill="#F8F8F8" height="5" style="stroke: #383838; stroke-width: 1.5;" width="10" x="178.5" y="64"/><rect fill="#F8F8F8" height="5" style="stroke: #383838; stroke-width: 1.5;" width="10" x="178.5" y="85.4883"/><text fill="#000000" font-family="sans-serif" font-size="14" lengthAdjust="spacingAndGlyphs" textLength="89" x="193.5" y="82.5352">Snow update</text><path d="M89.67,77 C112.91,77 148.02,77 178.24,77 " fill="none" id="Source-&gt;Snow update" style="stroke: #383838; stroke-width: 1.0;"/><polygon fill="#383838" points="183.44,77,174.44,73,178.44,77,174.44,81,183.44,77" style="stroke: #383838; stroke-width: 1.0;"/><text fill="#000000" font-family="sans-serif" font-size="13" lengthAdjust="spacingAndGlyphs" textLength="57" x="108" y="70.5684">compiles</text><path d="M292.66,77 C326.42,77 369.78,77 404.56,77 " fill="none" id="Snow update-&gt;Measure" style="stroke: #383838; stroke-width: 1.0;"/><polygon fill="#383838" points="409.63,77,400.63,73,404.63,77,400.63,81,409.63,77" style="stroke: #383838; stroke-width: 1.0;"/><text fill="#000000" font-family="sans-serif" font-size="13" lengthAdjust="spacingAndGlyphs" textLength="81" x="310.75" y="70.5684">is completed</text></g></svg>